<?xml version="1.0" encoding="UTF-8" standalone="no"?>
<svg
   xmlns:dc="http://purl.org/dc/elements/1.1/"
   xmlns:cc="http://creativecommons.org/ns#"
   xmlns:rdf="http://www.w3.org/1999/02/22-rdf-syntax-ns#"
   xmlns:svg="http://www.w3.org/2000/svg"
   xmlns="http://www.w3.org/2000/svg"
   xmlns:sodipodi="http://sodipodi.sourceforge.net/DTD/sodipodi-0.dtd"
   xmlns:inkscape="http://www.inkscape.org/namespaces/inkscape"
   style="fill-opacity:1; color-rendering:auto; color-interpolation:auto; text-rendering:auto; stroke:black; stroke-linecap:square; stroke-miterlimit:10; shape-rendering:auto; stroke-opacity:1; fill:black; stroke-dasharray:none; font-weight:normal; stroke-width:1; font-family:'Dialog'; font-style:normal; stroke-linejoin:miter; font-size:12px; stroke-dashoffset:0; image-rendering:auto;"
   width="560"
   height="420"
   version="1.1"
   id="svg4704"
   sodipodi:docname="grafcomp.svg"
   inkscape:version="0.92.1 r15371">
  <metadata
     id="metadata4708">
    <rdf:RDF>
      <cc:Work
         rdf:about="">
        <dc:format>image/svg+xml</dc:format>
        <dc:type
           rdf:resource="http://purl.org/dc/dcmitype/StillImage" />
        <dc:title></dc:title>
      </cc:Work>
    </rdf:RDF>
  </metadata>
  <sodipodi:namedview
     pagecolor="#ffffff"
     bordercolor="#666666"
     borderopacity="1"
     objecttolerance="10"
     gridtolerance="10"
     guidetolerance="10"
     inkscape:pageopacity="0"
     inkscape:pageshadow="2"
     inkscape:window-width="1920"
     inkscape:window-height="1057"
     id="namedview4706"
     showgrid="false"
     inkscape:zoom="2.0809524"
     inkscape:cx="280"
     inkscape:cy="210"
     inkscape:window-x="-8"
     inkscape:window-y="-8"
     inkscape:window-maximized="1"
     inkscape:current-layer="g4702" />
  <!--Generated by the Batik Graphics2D SVG Generator-->
  <defs
     id="genericDefs" />
  <g
     id="g4702">
    <defs
       id="defs1">
      <clipPath
         clipPathUnits="userSpaceOnUse"
         id="clipPath1">
        <path
           d="M0 0 L560 0 L560 420 L0 420 L0 0 Z"
           id="path4486" />
      </clipPath>
    </defs>
    <g
       style="fill:white; stroke:white;"
       id="g4492">
      <rect
         x="0"
         y="0"
         width="560"
         style="clip-path:url(#clipPath1); stroke:none;"
         height="420"
         clip-path="url(#clipPath1)"
         id="rect4490" />
    </g>
    <g
       style="fill:white; text-rendering:optimizeSpeed; color-rendering:optimizeSpeed; image-rendering:optimizeSpeed; shape-rendering:crispEdges; stroke:white; color-interpolation:sRGB;"
       id="g4498">
      <rect
         x="0"
         width="560"
         height="420"
         y="0"
         style="stroke:none;"
         id="rect4494" />
      <path
         style="stroke:none;"
         d="M87 343 L507 343 L507 31 L87 31 Z"
         id="path4496" />
    </g>
    <g
       style="fill:rgb(38,38,38); text-rendering:geometricPrecision; image-rendering:optimizeQuality; color-rendering:optimizeQuality; stroke-linejoin:round; stroke:rgb(38,38,38); color-interpolation:linearRGB; stroke-width:0.6667;"
       id="g4524">
      <line
         y2="343"
         style="fill:none;"
         x1="87"
         x2="507"
         y1="343"
         id="line4500" />
      <line
         y2="338.8067"
         style="fill:none;"
         x1="87"
         x2="87"
         y1="343"
         id="line4502" />
      <line
         y2="338.8067"
         style="fill:none;"
         x1="129"
         x2="129"
         y1="343"
         id="line4504" />
      <line
         y2="338.8067"
         style="fill:none;"
         x1="171"
         x2="171"
         y1="343"
         id="line4506" />
      <line
         y2="338.8067"
         style="fill:none;"
         x1="213"
         x2="213"
         y1="343"
         id="line4508" />
      <line
         y2="338.8067"
         style="fill:none;"
         x1="255"
         x2="255"
         y1="343"
         id="line4510" />
      <line
         y2="338.8067"
         style="fill:none;"
         x1="297"
         x2="297"
         y1="343"
         id="line4512" />
      <line
         y2="338.8067"
         style="fill:none;"
         x1="339"
         x2="339"
         y1="343"
         id="line4514" />
      <line
         y2="338.8067"
         style="fill:none;"
         x1="381"
         x2="381"
         y1="343"
         id="line4516" />
      <line
         y2="338.8067"
         style="fill:none;"
         x1="423"
         x2="423"
         y1="343"
         id="line4518" />
      <line
         y2="338.8067"
         style="fill:none;"
         x1="465"
         x2="465"
         y1="343"
         id="line4520" />
      <line
         y2="338.8067"
         style="fill:none;"
         x1="507"
         x2="507"
         y1="343"
         id="line4522" />
    </g>
    <g
       transform="translate(87,348.0667)"
       style="fill:rgb(38,38,38); text-rendering:geometricPrecision; color-rendering:optimizeQuality; image-rendering:optimizeQuality; font-family:'MS UI Gothic'; stroke:rgb(38,38,38); color-interpolation:linearRGB;"
       id="g4528">
      <path
         style="stroke:none;"
         d="M-2.5781 6.3594 Q-2.5781 4.2969 -1.6406 3.3594 Q-0.9844 2.7031 0 2.7031 Q0.9844 2.7031 1.6406 3.3594 Q2.5781 4.2969 2.5781 6.3594 L2.5781 7.2969 Q2.5781 9.3125 1.6406 10.25 Q0.9844 10.9062 0 10.9062 Q-0.9844 10.9062 -1.6406 10.25 Q-2.5781 9.3125 -2.5781 7.2969 L-2.5781 6.3594 ZM-0.8438 3.9688 Q-1.4531 4.5781 -1.4531 6.2656 L-1.4531 7.3438 Q-1.4531 8.9844 -0.7969 9.6406 Q-0.4219 10.0156 0 10.0156 Q0.4688 10.0156 0.8438 9.6406 Q1.4531 9.0312 1.4531 7.3438 L1.4531 6.2656 Q1.4531 4.5781 0.8438 3.9688 Q0.4688 3.5938 0 3.5938 Q-0.4688 3.5938 -0.8438 3.9688 Z"
         id="path4526" />
    </g>
    <g
       transform="translate(129,348.0667)"
       style="fill:rgb(38,38,38); text-rendering:geometricPrecision; color-rendering:optimizeQuality; image-rendering:optimizeQuality; font-family:'MS UI Gothic'; stroke:rgb(38,38,38); color-interpolation:linearRGB;"
       id="g4532">
      <path
         style="stroke:none;"
         d="M-7.0781 6.3594 Q-7.0781 4.2969 -6.1406 3.3594 Q-5.4844 2.7031 -4.5 2.7031 Q-3.5156 2.7031 -2.8594 3.3594 Q-1.9219 4.2969 -1.9219 6.3594 L-1.9219 7.2969 Q-1.9219 9.3125 -2.8594 10.25 Q-3.5156 10.9062 -4.5 10.9062 Q-5.4844 10.9062 -6.1406 10.25 Q-7.0781 9.3125 -7.0781 7.2969 L-7.0781 6.3594 ZM-5.3438 3.9688 Q-5.9531 4.5781 -5.9531 6.2656 L-5.9531 7.3438 Q-5.9531 8.9844 -5.2969 9.6406 Q-4.9219 10.0156 -4.5 10.0156 Q-4.0312 10.0156 -3.6562 9.6406 Q-3.0469 9.0312 -3.0469 7.3438 L-3.0469 6.2656 Q-3.0469 4.5781 -3.6562 3.9688 Q-4.0312 3.5938 -4.5 3.5938 Q-4.9688 3.5938 -5.3438 3.9688 ZM-0.7969 9.8281 L0.2812 9.8281 L0.2812 10.8594 L-0.7969 10.8594 L-0.7969 9.8281 ZM4.125 2.7031 L4.6875 2.7031 L4.6875 10.8125 L3.6094 10.8125 L3.6094 4.5781 L2.2031 4.5781 L2.2031 4.0156 L2.625 4.0156 Q3.2812 4.0156 3.6562 3.6406 Q4.0781 3.2188 4.125 2.7031 Z"
         id="path4530" />
    </g>
    <g
       transform="translate(171,348.0667)"
       style="fill:rgb(38,38,38); text-rendering:geometricPrecision; color-rendering:optimizeQuality; image-rendering:optimizeQuality; font-family:'MS UI Gothic'; stroke:rgb(38,38,38); color-interpolation:linearRGB;"
       id="g4536">
      <path
         style="stroke:none;"
         d="M-7.0781 6.3594 Q-7.0781 4.2969 -6.1406 3.3594 Q-5.4844 2.7031 -4.5 2.7031 Q-3.5156 2.7031 -2.8594 3.3594 Q-1.9219 4.2969 -1.9219 6.3594 L-1.9219 7.2969 Q-1.9219 9.3125 -2.8594 10.25 Q-3.5156 10.9062 -4.5 10.9062 Q-5.4844 10.9062 -6.1406 10.25 Q-7.0781 9.3125 -7.0781 7.2969 L-7.0781 6.3594 ZM-5.3438 3.9688 Q-5.9531 4.5781 -5.9531 6.2656 L-5.9531 7.3438 Q-5.9531 8.9844 -5.2969 9.6406 Q-4.9219 10.0156 -4.5 10.0156 Q-4.0312 10.0156 -3.6562 9.6406 Q-3.0469 9.0312 -3.0469 7.3438 L-3.0469 6.2656 Q-3.0469 4.5781 -3.6562 3.9688 Q-4.0312 3.5938 -4.5 3.5938 Q-4.9688 3.5938 -5.3438 3.9688 ZM-0.7969 9.8281 L0.2812 9.8281 L0.2812 10.8594 L-0.7969 10.8594 L-0.7969 9.8281 ZM1.7344 5.5625 Q1.7344 4.1094 2.4844 3.3594 Q3.0938 2.75 3.9375 2.75 Q4.9688 2.75 5.5781 3.3594 Q6.1875 3.9688 6.1875 4.8594 Q6.1875 5.9844 5.4844 6.8281 Q4.8281 7.625 4.125 8.375 Q3.75 8.7969 3.375 9.2188 Q3.0469 9.5938 2.8125 9.9688 L6.3281 9.9688 L6.3281 10.8594 L1.5469 10.8594 L1.5469 10.0625 Q1.6406 9.5938 2.3438 8.75 Q3.5156 7.4844 4.2656 6.6406 Q5.0625 5.7969 5.0625 4.8594 Q5.0625 4.2969 4.6875 3.9219 Q4.4062 3.6406 3.9844 3.6406 Q3.6094 3.6406 3.3281 3.9219 Q2.8125 4.4375 2.8125 5.5625 L1.7344 5.5625 Z"
         id="path4534" />
    </g>
    <g
       transform="translate(213,348.0667)"
       style="fill:rgb(38,38,38); text-rendering:geometricPrecision; color-rendering:optimizeQuality; image-rendering:optimizeQuality; font-family:'MS UI Gothic'; stroke:rgb(38,38,38); color-interpolation:linearRGB;"
       id="g4540">
      <path
         style="stroke:none;"
         d="M-7.0781 6.3594 Q-7.0781 4.2969 -6.1406 3.3594 Q-5.4844 2.7031 -4.5 2.7031 Q-3.5156 2.7031 -2.8594 3.3594 Q-1.9219 4.2969 -1.9219 6.3594 L-1.9219 7.2969 Q-1.9219 9.3125 -2.8594 10.25 Q-3.5156 10.9062 -4.5 10.9062 Q-5.4844 10.9062 -6.1406 10.25 Q-7.0781 9.3125 -7.0781 7.2969 L-7.0781 6.3594 ZM-5.3438 3.9688 Q-5.9531 4.5781 -5.9531 6.2656 L-5.9531 7.3438 Q-5.9531 8.9844 -5.2969 9.6406 Q-4.9219 10.0156 -4.5 10.0156 Q-4.0312 10.0156 -3.6562 9.6406 Q-3.0469 9.0312 -3.0469 7.3438 L-3.0469 6.2656 Q-3.0469 4.5781 -3.6562 3.9688 Q-4.0312 3.5938 -4.5 3.5938 Q-4.9688 3.5938 -5.3438 3.9688 ZM-0.7969 9.8281 L0.2812 9.8281 L0.2812 10.8594 L-0.7969 10.8594 L-0.7969 9.8281 ZM1.7344 5.1406 Q1.7344 4.0625 2.4375 3.3594 Q3.0469 2.75 3.9375 2.75 Q4.9688 2.75 5.5781 3.3594 Q6.1406 3.9219 6.1406 4.8594 Q6.1406 5.7969 5.6719 6.2656 Q5.3438 6.5938 4.9688 6.6406 Q5.4375 6.7812 5.7656 7.1094 Q6.3281 7.6719 6.3281 8.6094 Q6.3281 9.6406 5.6719 10.2969 Q5.0156 10.9531 3.8438 10.9531 Q2.8594 10.9531 2.2031 10.2969 Q1.5469 9.6406 1.5469 8.75 L1.5469 8.375 L2.625 8.375 L2.625 8.7031 Q2.625 9.3125 3.0469 9.7344 Q3.375 10.0625 3.8438 10.0625 Q4.4531 10.0625 4.8281 9.6875 Q5.2031 9.3125 5.2031 8.5156 Q5.2031 7.8594 4.8281 7.4844 Q4.4531 7.1094 3.9844 7.1094 L3.6094 7.1094 L3.6094 6.3125 L3.8906 6.3125 Q4.3125 6.3125 4.6875 5.9375 Q5.0625 5.5625 5.0625 4.8594 Q5.0625 4.25 4.6875 3.875 Q4.4062 3.5938 3.9375 3.5938 Q3.5156 3.5938 3.1875 3.9219 Q2.8125 4.2969 2.7656 5.1406 L1.7344 5.1406 Z"
         id="path4538" />
    </g>
    <g
       transform="translate(255,348.0667)"
       style="fill:rgb(38,38,38); text-rendering:geometricPrecision; color-rendering:optimizeQuality; image-rendering:optimizeQuality; font-family:'MS UI Gothic'; stroke:rgb(38,38,38); color-interpolation:linearRGB;"
       id="g4544">
      <path
         style="stroke:none;"
         d="M-7.0781 6.3594 Q-7.0781 4.2969 -6.1406 3.3594 Q-5.4844 2.7031 -4.5 2.7031 Q-3.5156 2.7031 -2.8594 3.3594 Q-1.9219 4.2969 -1.9219 6.3594 L-1.9219 7.2969 Q-1.9219 9.3125 -2.8594 10.25 Q-3.5156 10.9062 -4.5 10.9062 Q-5.4844 10.9062 -6.1406 10.25 Q-7.0781 9.3125 -7.0781 7.2969 L-7.0781 6.3594 ZM-5.3438 3.9688 Q-5.9531 4.5781 -5.9531 6.2656 L-5.9531 7.3438 Q-5.9531 8.9844 -5.2969 9.6406 Q-4.9219 10.0156 -4.5 10.0156 Q-4.0312 10.0156 -3.6562 9.6406 Q-3.0469 9.0312 -3.0469 7.3438 L-3.0469 6.2656 Q-3.0469 4.5781 -3.6562 3.9688 Q-4.0312 3.5938 -4.5 3.5938 Q-4.9688 3.5938 -5.3438 3.9688 ZM-0.7969 9.8281 L0.2812 9.8281 L0.2812 10.8594 L-0.7969 10.8594 L-0.7969 9.8281 ZM4.5 2.75 L5.5781 2.75 L5.5781 7.9062 L6.5625 7.9062 L6.5625 8.7969 L5.5781 8.7969 L5.5781 10.8594 L4.5 10.8594 L4.5 8.7969 L1.3594 8.7969 L1.3594 7.8594 L4.5 2.75 ZM4.5 4.4844 L2.3906 7.9062 L4.5 7.9062 L4.5 4.4844 Z"
         id="path4542" />
    </g>
    <g
       transform="translate(297,348.0667)"
       style="fill:rgb(38,38,38); text-rendering:geometricPrecision; color-rendering:optimizeQuality; image-rendering:optimizeQuality; font-family:'MS UI Gothic'; stroke:rgb(38,38,38); color-interpolation:linearRGB;"
       id="g4548">
      <path
         style="stroke:none;"
         d="M-7.0781 6.3594 Q-7.0781 4.2969 -6.1406 3.3594 Q-5.4844 2.7031 -4.5 2.7031 Q-3.5156 2.7031 -2.8594 3.3594 Q-1.9219 4.2969 -1.9219 6.3594 L-1.9219 7.2969 Q-1.9219 9.3125 -2.8594 10.25 Q-3.5156 10.9062 -4.5 10.9062 Q-5.4844 10.9062 -6.1406 10.25 Q-7.0781 9.3125 -7.0781 7.2969 L-7.0781 6.3594 ZM-5.3438 3.9688 Q-5.9531 4.5781 -5.9531 6.2656 L-5.9531 7.3438 Q-5.9531 8.9844 -5.2969 9.6406 Q-4.9219 10.0156 -4.5 10.0156 Q-4.0312 10.0156 -3.6562 9.6406 Q-3.0469 9.0312 -3.0469 7.3438 L-3.0469 6.2656 Q-3.0469 4.5781 -3.6562 3.9688 Q-4.0312 3.5938 -4.5 3.5938 Q-4.9688 3.5938 -5.3438 3.9688 ZM-0.7969 9.8281 L0.2812 9.8281 L0.2812 10.8594 L-0.7969 10.8594 L-0.7969 9.8281 ZM2.1094 2.8438 L6.1406 2.8438 L6.1406 3.7344 L3 3.7344 L3 3.875 Q2.9531 4.7656 2.8594 5.6094 Q2.8125 5.75 2.8125 5.8906 Q3.4219 5.3281 4.125 5.3281 Q5.0625 5.3281 5.6719 5.9375 Q6.3281 6.5938 6.3281 7.8594 Q6.3281 9.4531 5.4844 10.2969 Q4.8281 10.9531 3.8438 10.9531 Q2.9062 10.9531 2.2969 10.3438 Q1.6875 9.7344 1.5469 8.5156 L2.625 8.5156 Q2.7188 9.4062 3.0938 9.7812 Q3.375 10.0625 3.7969 10.0625 Q4.3594 10.0625 4.6875 9.7344 Q5.2031 9.2188 5.2031 8 Q5.2031 6.8281 4.7812 6.4062 Q4.5 6.125 4.125 6.125 Q3.5625 6.125 3.1406 6.5469 Q2.8594 6.8281 2.7656 6.9688 L1.8281 6.9688 Q1.875 6.7812 1.875 6.6406 L2.1094 3.0312 L2.1094 2.8438 Z"
         id="path4546" />
    </g>
    <g
       transform="translate(339,348.0667)"
       style="fill:rgb(38,38,38); text-rendering:geometricPrecision; color-rendering:optimizeQuality; image-rendering:optimizeQuality; font-family:'MS UI Gothic'; stroke:rgb(38,38,38); color-interpolation:linearRGB;"
       id="g4552">
      <path
         style="stroke:none;"
         d="M-7.0781 6.3594 Q-7.0781 4.2969 -6.1406 3.3594 Q-5.4844 2.7031 -4.5 2.7031 Q-3.5156 2.7031 -2.8594 3.3594 Q-1.9219 4.2969 -1.9219 6.3594 L-1.9219 7.2969 Q-1.9219 9.3125 -2.8594 10.25 Q-3.5156 10.9062 -4.5 10.9062 Q-5.4844 10.9062 -6.1406 10.25 Q-7.0781 9.3125 -7.0781 7.2969 L-7.0781 6.3594 ZM-5.3438 3.9688 Q-5.9531 4.5781 -5.9531 6.2656 L-5.9531 7.3438 Q-5.9531 8.9844 -5.2969 9.6406 Q-4.9219 10.0156 -4.5 10.0156 Q-4.0312 10.0156 -3.6562 9.6406 Q-3.0469 9.0312 -3.0469 7.3438 L-3.0469 6.2656 Q-3.0469 4.5781 -3.6562 3.9688 Q-4.0312 3.5938 -4.5 3.5938 Q-4.9688 3.5938 -5.3438 3.9688 ZM-0.7969 9.8281 L0.2812 9.8281 L0.2812 10.8594 L-0.7969 10.8594 L-0.7969 9.8281 ZM2.7188 3.3125 Q3.2812 2.75 4.125 2.75 Q5.0156 2.75 5.5781 3.3125 Q6.1875 3.9219 6.1875 4.8594 L5.1094 4.8594 Q5.1094 4.2031 4.8281 3.9219 Q4.5469 3.6406 4.125 3.6406 Q3.7031 3.6406 3.4219 3.9219 Q2.6719 4.6719 2.6719 6.5469 Q2.8594 6.2188 3.1406 5.9375 Q3.5625 5.5156 4.1719 5.5156 Q5.0156 5.5156 5.5781 6.0781 Q6.2812 6.7812 6.2812 8.1875 Q6.2812 9.6406 5.5312 10.3906 Q4.9688 10.9531 3.9844 10.9531 Q3.1406 10.9531 2.4375 10.25 Q1.5938 9.4062 1.5938 7.0156 Q1.5938 4.4375 2.7188 3.3125 ZM3.2812 6.6875 Q2.7656 7.2031 2.7656 8.0938 Q2.7656 9.2188 3.3281 9.7812 Q3.6562 10.1094 4.0312 10.1094 Q4.4531 10.1094 4.7344 9.8281 Q5.1562 9.4062 5.1562 8.1875 Q5.1562 7.1094 4.7344 6.6875 Q4.4062 6.3594 4.0781 6.3594 Q3.6094 6.3594 3.2812 6.6875 Z"
         id="path4550" />
    </g>
    <g
       transform="translate(381,348.0667)"
       style="fill:rgb(38,38,38); text-rendering:geometricPrecision; color-rendering:optimizeQuality; image-rendering:optimizeQuality; font-family:'MS UI Gothic'; stroke:rgb(38,38,38); color-interpolation:linearRGB;"
       id="g4556">
      <path
         style="stroke:none;"
         d="M-7.0781 6.3594 Q-7.0781 4.2969 -6.1406 3.3594 Q-5.4844 2.7031 -4.5 2.7031 Q-3.5156 2.7031 -2.8594 3.3594 Q-1.9219 4.2969 -1.9219 6.3594 L-1.9219 7.2969 Q-1.9219 9.3125 -2.8594 10.25 Q-3.5156 10.9062 -4.5 10.9062 Q-5.4844 10.9062 -6.1406 10.25 Q-7.0781 9.3125 -7.0781 7.2969 L-7.0781 6.3594 ZM-5.3438 3.9688 Q-5.9531 4.5781 -5.9531 6.2656 L-5.9531 7.3438 Q-5.9531 8.9844 -5.2969 9.6406 Q-4.9219 10.0156 -4.5 10.0156 Q-4.0312 10.0156 -3.6562 9.6406 Q-3.0469 9.0312 -3.0469 7.3438 L-3.0469 6.2656 Q-3.0469 4.5781 -3.6562 3.9688 Q-4.0312 3.5938 -4.5 3.5938 Q-4.9688 3.5938 -5.3438 3.9688 ZM-0.7969 9.8281 L0.2812 9.8281 L0.2812 10.8594 L-0.7969 10.8594 L-0.7969 9.8281 ZM1.7344 2.8438 L6.1875 2.8438 L6.1875 3.875 L3.9375 10.8594 L2.9062 10.8594 L5.1562 3.7344 L1.7344 3.7344 L1.7344 2.8438 Z"
         id="path4554" />
    </g>
    <g
       transform="translate(423,348.0667)"
       style="fill:rgb(38,38,38); text-rendering:geometricPrecision; color-rendering:optimizeQuality; image-rendering:optimizeQuality; font-family:'MS UI Gothic'; stroke:rgb(38,38,38); color-interpolation:linearRGB;"
       id="g4560">
      <path
         style="stroke:none;"
         d="M-7.0781 6.3594 Q-7.0781 4.2969 -6.1406 3.3594 Q-5.4844 2.7031 -4.5 2.7031 Q-3.5156 2.7031 -2.8594 3.3594 Q-1.9219 4.2969 -1.9219 6.3594 L-1.9219 7.2969 Q-1.9219 9.3125 -2.8594 10.25 Q-3.5156 10.9062 -4.5 10.9062 Q-5.4844 10.9062 -6.1406 10.25 Q-7.0781 9.3125 -7.0781 7.2969 L-7.0781 6.3594 ZM-5.3438 3.9688 Q-5.9531 4.5781 -5.9531 6.2656 L-5.9531 7.3438 Q-5.9531 8.9844 -5.2969 9.6406 Q-4.9219 10.0156 -4.5 10.0156 Q-4.0312 10.0156 -3.6562 9.6406 Q-3.0469 9.0312 -3.0469 7.3438 L-3.0469 6.2656 Q-3.0469 4.5781 -3.6562 3.9688 Q-4.0312 3.5938 -4.5 3.5938 Q-4.9688 3.5938 -5.3438 3.9688 ZM-0.7969 9.8281 L0.2812 9.8281 L0.2812 10.8594 L-0.7969 10.8594 L-0.7969 9.8281 ZM2.3906 3.3125 Q2.9531 2.75 3.9375 2.75 Q4.9219 2.75 5.5312 3.3594 Q6.1406 3.9688 6.1406 5 Q6.1406 5.7969 5.5781 6.3594 Q5.3438 6.5938 5.0156 6.6875 L5.0156 6.7812 Q5.4375 6.875 5.8125 7.25 Q6.375 7.8125 6.375 8.75 Q6.375 9.6875 5.7188 10.3438 Q5.1094 10.9531 3.9375 10.9531 Q2.7656 10.9531 2.1562 10.3438 Q1.5 9.6875 1.5 8.75 Q1.5 7.8125 2.0625 7.25 Q2.4375 6.875 2.8594 6.7812 L2.8594 6.6875 Q2.5781 6.5938 2.25 6.2656 Q1.7344 5.75 1.7344 5 Q1.7344 3.9688 2.3906 3.3125 ZM3.1406 3.9219 Q2.7656 4.2969 2.7656 5 Q2.7656 5.6562 3.1406 6.0312 Q3.4688 6.3594 3.8906 6.3594 Q4.4531 6.3594 4.7344 6.0781 Q5.1094 5.7031 5.1094 5 Q5.1094 4.2969 4.7344 3.9219 Q4.4062 3.5938 3.9375 3.5938 Q3.4688 3.5938 3.1406 3.9219 ZM2.9531 7.5312 Q2.5781 7.9062 2.5781 8.6094 Q2.5781 9.3125 3 9.7344 Q3.375 10.1094 3.9375 10.1094 Q4.5 10.1094 4.875 9.7344 Q5.2969 9.3125 5.2969 8.6094 Q5.2969 7.9062 4.875 7.4844 Q4.5469 7.1562 3.9375 7.1562 Q3.3281 7.1562 2.9531 7.5312 Z"
         id="path4558" />
    </g>
    <g
       transform="translate(465,348.0667)"
       style="fill:rgb(38,38,38); text-rendering:geometricPrecision; color-rendering:optimizeQuality; image-rendering:optimizeQuality; font-family:'MS UI Gothic'; stroke:rgb(38,38,38); color-interpolation:linearRGB;"
       id="g4564">
      <path
         style="stroke:none;"
         d="M-7.0781 6.3594 Q-7.0781 4.2969 -6.1406 3.3594 Q-5.4844 2.7031 -4.5 2.7031 Q-3.5156 2.7031 -2.8594 3.3594 Q-1.9219 4.2969 -1.9219 6.3594 L-1.9219 7.2969 Q-1.9219 9.3125 -2.8594 10.25 Q-3.5156 10.9062 -4.5 10.9062 Q-5.4844 10.9062 -6.1406 10.25 Q-7.0781 9.3125 -7.0781 7.2969 L-7.0781 6.3594 ZM-5.3438 3.9688 Q-5.9531 4.5781 -5.9531 6.2656 L-5.9531 7.3438 Q-5.9531 8.9844 -5.2969 9.6406 Q-4.9219 10.0156 -4.5 10.0156 Q-4.0312 10.0156 -3.6562 9.6406 Q-3.0469 9.0312 -3.0469 7.3438 L-3.0469 6.2656 Q-3.0469 4.5781 -3.6562 3.9688 Q-4.0312 3.5938 -4.5 3.5938 Q-4.9688 3.5938 -5.3438 3.9688 ZM-0.7969 9.8281 L0.2812 9.8281 L0.2812 10.8594 L-0.7969 10.8594 L-0.7969 9.8281 ZM2.4375 3.2656 Q2.9531 2.75 3.8438 2.75 Q4.6875 2.75 5.2969 3.3594 Q6.2812 4.3438 6.2812 6.7812 Q6.2812 9.2656 5.25 10.2969 Q4.5938 10.9531 3.7031 10.9531 Q2.8125 10.9531 2.2969 10.4375 Q1.6875 9.8281 1.6875 8.8438 L2.7656 8.8438 Q2.7188 9.4531 3.1406 9.875 Q3.3281 10.0625 3.7031 10.0625 Q4.125 10.0625 4.4531 9.7344 Q5.2031 8.9844 5.2031 6.9688 Q5.0156 7.25 4.7812 7.4844 Q4.2656 8 3.5156 8 Q2.8125 8 2.3438 7.5312 Q1.5938 6.7812 1.5938 5.5156 Q1.5938 4.1094 2.4375 3.2656 ZM3.1875 3.875 Q2.7188 4.3438 2.7188 5.5156 Q2.7188 6.4531 3.0938 6.8281 Q3.4219 7.1562 3.75 7.1562 Q4.3125 7.1562 4.5938 6.875 Q5.1094 6.3594 5.1094 5.6094 Q5.1094 4.4375 4.5938 3.9219 Q4.2656 3.5938 3.8438 3.5938 Q3.4688 3.5938 3.1875 3.875 Z"
         id="path4562" />
    </g>
    <g
       transform="translate(507,348.0667)"
       style="fill:rgb(38,38,38); text-rendering:geometricPrecision; color-rendering:optimizeQuality; image-rendering:optimizeQuality; font-family:'MS UI Gothic'; stroke:rgb(38,38,38); color-interpolation:linearRGB;"
       id="g4568">
      <path
         style="stroke:none;"
         d="M0.1875 2.7031 L0.75 2.7031 L0.75 10.8125 L-0.3281 10.8125 L-0.3281 4.5781 L-1.7344 4.5781 L-1.7344 4.0156 L-1.3125 4.0156 Q-0.6562 4.0156 -0.2812 3.6406 Q0.1406 3.2188 0.1875 2.7031 Z"
         id="path4566" />
    </g>
    <g
       transform="translate(297.0002,362.4)"
       style="font-size:48px; fill:rgb(38,38,38); text-rendering:geometricPrecision; image-rendering:optimizeQuality; color-rendering:optimizeQuality; font-family:'mwa_cmmi10'; stroke:rgb(38,38,38); color-interpolation:linearRGB;"
       id="g4572">
      <path
         style="stroke:none;"
         d="M-9.8948 35.3198 Q-9.8948 34.0073 -9.3244 32.7651 Q-8.7541 31.5229 -7.8244 30.5386 Q-6.8948 29.5542 -5.6604 28.7886 Q-7.4885 27.5229 -7.4885 25.5229 Q-7.4885 23.3979 -5.7073 21.7886 Q-3.926 20.1792 -1.3479 19.3745 Q1.2302 18.5698 3.2927 18.5698 Q4.1677 18.5698 5.6287 18.9526 Q7.0896 19.3354 8.1912 19.9683 Q9.2927 20.6011 9.2927 21.3511 Q9.2927 21.9136 8.8631 22.3511 Q8.4334 22.7886 7.9177 22.7886 Q7.699 22.7886 6.8474 22.2808 Q5.9959 21.7729 5.0349 21.3745 Q4.074 20.9761 2.9177 20.9761 Q1.1834 20.9761 -0.8869 21.3901 Q-2.9573 21.8042 -4.5276 22.8198 Q-6.0979 23.8354 -6.0979 25.4761 Q-6.0979 27.0542 -4.3166 28.1323 Q-2.301 27.2104 -0.1916 27.2104 Q3.5584 27.2104 3.5584 28.5542 Q3.5584 29.6011 2.2771 29.8979 Q0.9959 30.1948 -0.6604 30.1948 Q-2.9104 30.1948 -4.3635 29.5073 Q-5.9573 30.3511 -7.1994 31.8745 Q-8.4416 33.3979 -8.4416 35.0386 Q-8.4416 36.5854 -7.4026 37.4526 Q-6.3635 38.3198 -4.8401 38.6479 Q-3.3166 38.9761 -1.7854 38.9761 Q0.8552 38.9761 2.8943 38.4058 Q4.9334 37.8354 5.8552 36.0073 Q5.9959 35.6948 6.3865 35.6948 Q6.9021 35.8667 6.9021 36.3354 Q6.9021 36.3823 6.7615 36.8042 Q5.9959 38.3198 4.574 39.3589 Q3.1521 40.3979 1.4099 40.8901 Q-0.3323 41.3823 -2.1604 41.3823 Q-5.1448 41.3823 -7.5198 39.7808 Q-9.8948 38.1792 -9.8948 35.3198 ZM-2.4885 28.7886 Q-1.6448 28.9448 -0.5666 28.9448 Q1.5427 28.9448 2.0584 28.6479 Q1.4021 28.4604 -0.2385 28.4604 Q-1.4416 28.4604 -2.4885 28.7886 Z"
         id="path4570" />
    </g>
    <g
       style="fill:rgb(38,38,38); text-rendering:geometricPrecision; image-rendering:optimizeQuality; color-rendering:optimizeQuality; stroke-linejoin:round; stroke:rgb(38,38,38); color-interpolation:linearRGB; stroke-width:0.6667;"
       id="g4598">
      <line
         y2="31"
         style="fill:none;"
         x1="87"
         x2="87"
         y1="343"
         id="line4574" />
      <line
         y2="343"
         style="fill:none;"
         x1="87"
         x2="91.1933"
         y1="343"
         id="line4576" />
      <line
         y2="311.8"
         style="fill:none;"
         x1="87"
         x2="91.1933"
         y1="311.8"
         id="line4578" />
      <line
         y2="280.6"
         style="fill:none;"
         x1="87"
         x2="91.1933"
         y1="280.6"
         id="line4580" />
      <line
         y2="249.4"
         style="fill:none;"
         x1="87"
         x2="91.1933"
         y1="249.4"
         id="line4582" />
      <line
         y2="218.2"
         style="fill:none;"
         x1="87"
         x2="91.1933"
         y1="218.2"
         id="line4584" />
      <line
         y2="187"
         style="fill:none;"
         x1="87"
         x2="91.1933"
         y1="187"
         id="line4586" />
      <line
         y2="155.8"
         style="fill:none;"
         x1="87"
         x2="91.1933"
         y1="155.8"
         id="line4588" />
      <line
         y2="124.6"
         style="fill:none;"
         x1="87"
         x2="91.1933"
         y1="124.6"
         id="line4590" />
      <line
         y2="93.4"
         style="fill:none;"
         x1="87"
         x2="91.1933"
         y1="93.4"
         id="line4592" />
      <line
         y2="62.2"
         style="fill:none;"
         x1="87"
         x2="91.1933"
         y1="62.2"
         id="line4594" />
      <line
         y2="31"
         style="fill:none;"
         x1="87"
         x2="91.1933"
         y1="31"
         id="line4596" />
    </g>
    <g
       transform="translate(81.9333,343)"
       style="fill:rgb(38,38,38); text-rendering:geometricPrecision; color-rendering:optimizeQuality; image-rendering:optimizeQuality; font-family:'MS UI Gothic'; stroke:rgb(38,38,38); color-interpolation:linearRGB;"
       id="g4602">
      <path
         style="stroke:none;"
         d="M-5.5781 -0.1406 Q-5.5781 -2.2031 -4.6406 -3.1406 Q-3.9844 -3.7969 -3 -3.7969 Q-2.0156 -3.7969 -1.3594 -3.1406 Q-0.4219 -2.2031 -0.4219 -0.1406 L-0.4219 0.7969 Q-0.4219 2.8125 -1.3594 3.75 Q-2.0156 4.4062 -3 4.4062 Q-3.9844 4.4062 -4.6406 3.75 Q-5.5781 2.8125 -5.5781 0.7969 L-5.5781 -0.1406 ZM-3.8438 -2.5312 Q-4.4531 -1.9219 -4.4531 -0.2344 L-4.4531 0.8438 Q-4.4531 2.4844 -3.7969 3.1406 Q-3.4219 3.5156 -3 3.5156 Q-2.5312 3.5156 -2.1562 3.1406 Q-1.5469 2.5312 -1.5469 0.8438 L-1.5469 -0.2344 Q-1.5469 -1.9219 -2.1562 -2.5312 Q-2.5312 -2.9062 -3 -2.9062 Q-3.4688 -2.9062 -3.8438 -2.5312 Z"
         id="path4600" />
    </g>
    <g
       transform="translate(81.9333,311.8)"
       style="fill:rgb(38,38,38); text-rendering:geometricPrecision; color-rendering:optimizeQuality; image-rendering:optimizeQuality; font-family:'MS UI Gothic'; stroke:rgb(38,38,38); color-interpolation:linearRGB;"
       id="g4606">
      <path
         style="stroke:none;"
         d="M-20.5781 -0.1406 Q-20.5781 -2.2031 -19.6406 -3.1406 Q-18.9844 -3.7969 -18 -3.7969 Q-17.0156 -3.7969 -16.3594 -3.1406 Q-15.4219 -2.2031 -15.4219 -0.1406 L-15.4219 0.7969 Q-15.4219 2.8125 -16.3594 3.75 Q-17.0156 4.4062 -18 4.4062 Q-18.9844 4.4062 -19.6406 3.75 Q-20.5781 2.8125 -20.5781 0.7969 L-20.5781 -0.1406 ZM-18.8438 -2.5312 Q-19.4531 -1.9219 -19.4531 -0.2344 L-19.4531 0.8438 Q-19.4531 2.4844 -18.7969 3.1406 Q-18.4219 3.5156 -18 3.5156 Q-17.5312 3.5156 -17.1562 3.1406 Q-16.5469 2.5312 -16.5469 0.8438 L-16.5469 -0.2344 Q-16.5469 -1.9219 -17.1562 -2.5312 Q-17.5312 -2.9062 -18 -2.9062 Q-18.4688 -2.9062 -18.8438 -2.5312 ZM-14.2969 3.3281 L-13.2188 3.3281 L-13.2188 4.3594 L-14.2969 4.3594 L-14.2969 3.3281 ZM-12.1406 -0.1406 Q-12.1406 -2.2031 -11.2031 -3.1406 Q-10.5469 -3.7969 -9.5625 -3.7969 Q-8.5781 -3.7969 -7.9219 -3.1406 Q-6.9844 -2.2031 -6.9844 -0.1406 L-6.9844 0.7969 Q-6.9844 2.8125 -7.9219 3.75 Q-8.5781 4.4062 -9.5625 4.4062 Q-10.5469 4.4062 -11.2031 3.75 Q-12.1406 2.8125 -12.1406 0.7969 L-12.1406 -0.1406 ZM-10.4062 -2.5312 Q-11.0156 -1.9219 -11.0156 -0.2344 L-11.0156 0.8438 Q-11.0156 2.4844 -10.3594 3.1406 Q-9.9844 3.5156 -9.5625 3.5156 Q-9.0938 3.5156 -8.7188 3.1406 Q-8.1094 2.5312 -8.1094 0.8438 L-8.1094 -0.2344 Q-8.1094 -1.9219 -8.7188 -2.5312 Q-9.0938 -2.9062 -9.5625 -2.9062 Q-10.0312 -2.9062 -10.4062 -2.5312 ZM-5.3906 -3.6562 L-1.3594 -3.6562 L-1.3594 -2.7656 L-4.5 -2.7656 L-4.5 -2.625 Q-4.5469 -1.7344 -4.6406 -0.8906 Q-4.6875 -0.75 -4.6875 -0.6094 Q-4.0781 -1.1719 -3.375 -1.1719 Q-2.4375 -1.1719 -1.8281 -0.5625 Q-1.1719 0.0938 -1.1719 1.3594 Q-1.1719 2.9531 -2.0156 3.7969 Q-2.6719 4.4531 -3.6562 4.4531 Q-4.5938 4.4531 -5.2031 3.8438 Q-5.8125 3.2344 -5.9531 2.0156 L-4.875 2.0156 Q-4.7812 2.9062 -4.4062 3.2812 Q-4.125 3.5625 -3.7031 3.5625 Q-3.1406 3.5625 -2.8125 3.2344 Q-2.2969 2.7188 -2.2969 1.5 Q-2.2969 0.3281 -2.7188 -0.0938 Q-3 -0.375 -3.375 -0.375 Q-3.9375 -0.375 -4.3594 0.0469 Q-4.6406 0.3281 -4.7344 0.4688 L-5.6719 0.4688 Q-5.625 0.2812 -5.625 0.1406 L-5.3906 -3.4688 L-5.3906 -3.6562 Z"
         id="path4604" />
    </g>
    <g
       transform="translate(81.9333,280.6)"
       style="fill:rgb(38,38,38); text-rendering:geometricPrecision; color-rendering:optimizeQuality; image-rendering:optimizeQuality; font-family:'MS UI Gothic'; stroke:rgb(38,38,38); color-interpolation:linearRGB;"
       id="g4610">
      <path
         style="stroke:none;"
         d="M-14.5781 -0.1406 Q-14.5781 -2.2031 -13.6406 -3.1406 Q-12.9844 -3.7969 -12 -3.7969 Q-11.0156 -3.7969 -10.3594 -3.1406 Q-9.4219 -2.2031 -9.4219 -0.1406 L-9.4219 0.7969 Q-9.4219 2.8125 -10.3594 3.75 Q-11.0156 4.4062 -12 4.4062 Q-12.9844 4.4062 -13.6406 3.75 Q-14.5781 2.8125 -14.5781 0.7969 L-14.5781 -0.1406 ZM-12.8438 -2.5312 Q-13.4531 -1.9219 -13.4531 -0.2344 L-13.4531 0.8438 Q-13.4531 2.4844 -12.7969 3.1406 Q-12.4219 3.5156 -12 3.5156 Q-11.5312 3.5156 -11.1562 3.1406 Q-10.5469 2.5312 -10.5469 0.8438 L-10.5469 -0.2344 Q-10.5469 -1.9219 -11.1562 -2.5312 Q-11.5312 -2.9062 -12 -2.9062 Q-12.4688 -2.9062 -12.8438 -2.5312 ZM-8.2969 3.3281 L-7.2188 3.3281 L-7.2188 4.3594 L-8.2969 4.3594 L-8.2969 3.3281 ZM-3.375 -3.7969 L-2.8125 -3.7969 L-2.8125 4.3125 L-3.8906 4.3125 L-3.8906 -1.9219 L-5.2969 -1.9219 L-5.2969 -2.4844 L-4.875 -2.4844 Q-4.2188 -2.4844 -3.8438 -2.8594 Q-3.4219 -3.2812 -3.375 -3.7969 Z"
         id="path4608" />
    </g>
    <g
       transform="translate(81.9333,249.4)"
       style="fill:rgb(38,38,38); text-rendering:geometricPrecision; color-rendering:optimizeQuality; image-rendering:optimizeQuality; font-family:'MS UI Gothic'; stroke:rgb(38,38,38); color-interpolation:linearRGB;"
       id="g4614">
      <path
         style="stroke:none;"
         d="M-20.5781 -0.1406 Q-20.5781 -2.2031 -19.6406 -3.1406 Q-18.9844 -3.7969 -18 -3.7969 Q-17.0156 -3.7969 -16.3594 -3.1406 Q-15.4219 -2.2031 -15.4219 -0.1406 L-15.4219 0.7969 Q-15.4219 2.8125 -16.3594 3.75 Q-17.0156 4.4062 -18 4.4062 Q-18.9844 4.4062 -19.6406 3.75 Q-20.5781 2.8125 -20.5781 0.7969 L-20.5781 -0.1406 ZM-18.8438 -2.5312 Q-19.4531 -1.9219 -19.4531 -0.2344 L-19.4531 0.8438 Q-19.4531 2.4844 -18.7969 3.1406 Q-18.4219 3.5156 -18 3.5156 Q-17.5312 3.5156 -17.1562 3.1406 Q-16.5469 2.5312 -16.5469 0.8438 L-16.5469 -0.2344 Q-16.5469 -1.9219 -17.1562 -2.5312 Q-17.5312 -2.9062 -18 -2.9062 Q-18.4688 -2.9062 -18.8438 -2.5312 ZM-14.2969 3.3281 L-13.2188 3.3281 L-13.2188 4.3594 L-14.2969 4.3594 L-14.2969 3.3281 ZM-9.375 -3.7969 L-8.8125 -3.7969 L-8.8125 4.3125 L-9.8906 4.3125 L-9.8906 -1.9219 L-11.2969 -1.9219 L-11.2969 -2.4844 L-10.875 -2.4844 Q-10.2188 -2.4844 -9.8438 -2.8594 Q-9.4219 -3.2812 -9.375 -3.7969 ZM-5.3906 -3.6562 L-1.3594 -3.6562 L-1.3594 -2.7656 L-4.5 -2.7656 L-4.5 -2.625 Q-4.5469 -1.7344 -4.6406 -0.8906 Q-4.6875 -0.75 -4.6875 -0.6094 Q-4.0781 -1.1719 -3.375 -1.1719 Q-2.4375 -1.1719 -1.8281 -0.5625 Q-1.1719 0.0938 -1.1719 1.3594 Q-1.1719 2.9531 -2.0156 3.7969 Q-2.6719 4.4531 -3.6562 4.4531 Q-4.5938 4.4531 -5.2031 3.8438 Q-5.8125 3.2344 -5.9531 2.0156 L-4.875 2.0156 Q-4.7812 2.9062 -4.4062 3.2812 Q-4.125 3.5625 -3.7031 3.5625 Q-3.1406 3.5625 -2.8125 3.2344 Q-2.2969 2.7188 -2.2969 1.5 Q-2.2969 0.3281 -2.7188 -0.0938 Q-3 -0.375 -3.375 -0.375 Q-3.9375 -0.375 -4.3594 0.0469 Q-4.6406 0.3281 -4.7344 0.4688 L-5.6719 0.4688 Q-5.625 0.2812 -5.625 0.1406 L-5.3906 -3.4688 L-5.3906 -3.6562 Z"
         id="path4612" />
    </g>
    <g
       transform="translate(81.9333,218.2)"
       style="fill:rgb(38,38,38); text-rendering:geometricPrecision; color-rendering:optimizeQuality; image-rendering:optimizeQuality; font-family:'MS UI Gothic'; stroke:rgb(38,38,38); color-interpolation:linearRGB;"
       id="g4618">
      <path
         style="stroke:none;"
         d="M-14.5781 -0.1406 Q-14.5781 -2.2031 -13.6406 -3.1406 Q-12.9844 -3.7969 -12 -3.7969 Q-11.0156 -3.7969 -10.3594 -3.1406 Q-9.4219 -2.2031 -9.4219 -0.1406 L-9.4219 0.7969 Q-9.4219 2.8125 -10.3594 3.75 Q-11.0156 4.4062 -12 4.4062 Q-12.9844 4.4062 -13.6406 3.75 Q-14.5781 2.8125 -14.5781 0.7969 L-14.5781 -0.1406 ZM-12.8438 -2.5312 Q-13.4531 -1.9219 -13.4531 -0.2344 L-13.4531 0.8438 Q-13.4531 2.4844 -12.7969 3.1406 Q-12.4219 3.5156 -12 3.5156 Q-11.5312 3.5156 -11.1562 3.1406 Q-10.5469 2.5312 -10.5469 0.8438 L-10.5469 -0.2344 Q-10.5469 -1.9219 -11.1562 -2.5312 Q-11.5312 -2.9062 -12 -2.9062 Q-12.4688 -2.9062 -12.8438 -2.5312 ZM-8.2969 3.3281 L-7.2188 3.3281 L-7.2188 4.3594 L-8.2969 4.3594 L-8.2969 3.3281 ZM-5.7656 -0.9375 Q-5.7656 -2.3906 -5.0156 -3.1406 Q-4.4062 -3.75 -3.5625 -3.75 Q-2.5312 -3.75 -1.9219 -3.1406 Q-1.3125 -2.5312 -1.3125 -1.6406 Q-1.3125 -0.5156 -2.0156 0.3281 Q-2.6719 1.125 -3.375 1.875 Q-3.75 2.2969 -4.125 2.7188 Q-4.4531 3.0938 -4.6875 3.4688 L-1.1719 3.4688 L-1.1719 4.3594 L-5.9531 4.3594 L-5.9531 3.5625 Q-5.8594 3.0938 -5.1562 2.25 Q-3.9844 0.9844 -3.2344 0.1406 Q-2.4375 -0.7031 -2.4375 -1.6406 Q-2.4375 -2.2031 -2.8125 -2.5781 Q-3.0938 -2.8594 -3.5156 -2.8594 Q-3.8906 -2.8594 -4.1719 -2.5781 Q-4.6875 -2.0625 -4.6875 -0.9375 L-5.7656 -0.9375 Z"
         id="path4616" />
    </g>
    <g
       transform="translate(81.9333,187)"
       style="fill:rgb(38,38,38); text-rendering:geometricPrecision; color-rendering:optimizeQuality; image-rendering:optimizeQuality; font-family:'MS UI Gothic'; stroke:rgb(38,38,38); color-interpolation:linearRGB;"
       id="g4622">
      <path
         style="stroke:none;"
         d="M-20.5781 -0.1406 Q-20.5781 -2.2031 -19.6406 -3.1406 Q-18.9844 -3.7969 -18 -3.7969 Q-17.0156 -3.7969 -16.3594 -3.1406 Q-15.4219 -2.2031 -15.4219 -0.1406 L-15.4219 0.7969 Q-15.4219 2.8125 -16.3594 3.75 Q-17.0156 4.4062 -18 4.4062 Q-18.9844 4.4062 -19.6406 3.75 Q-20.5781 2.8125 -20.5781 0.7969 L-20.5781 -0.1406 ZM-18.8438 -2.5312 Q-19.4531 -1.9219 -19.4531 -0.2344 L-19.4531 0.8438 Q-19.4531 2.4844 -18.7969 3.1406 Q-18.4219 3.5156 -18 3.5156 Q-17.5312 3.5156 -17.1562 3.1406 Q-16.5469 2.5312 -16.5469 0.8438 L-16.5469 -0.2344 Q-16.5469 -1.9219 -17.1562 -2.5312 Q-17.5312 -2.9062 -18 -2.9062 Q-18.4688 -2.9062 -18.8438 -2.5312 ZM-14.2969 3.3281 L-13.2188 3.3281 L-13.2188 4.3594 L-14.2969 4.3594 L-14.2969 3.3281 ZM-11.7656 -0.9375 Q-11.7656 -2.3906 -11.0156 -3.1406 Q-10.4062 -3.75 -9.5625 -3.75 Q-8.5312 -3.75 -7.9219 -3.1406 Q-7.3125 -2.5312 -7.3125 -1.6406 Q-7.3125 -0.5156 -8.0156 0.3281 Q-8.6719 1.125 -9.375 1.875 Q-9.75 2.2969 -10.125 2.7188 Q-10.4531 3.0938 -10.6875 3.4688 L-7.1719 3.4688 L-7.1719 4.3594 L-11.9531 4.3594 L-11.9531 3.5625 Q-11.8594 3.0938 -11.1562 2.25 Q-9.9844 0.9844 -9.2344 0.1406 Q-8.4375 -0.7031 -8.4375 -1.6406 Q-8.4375 -2.2031 -8.8125 -2.5781 Q-9.0938 -2.8594 -9.5156 -2.8594 Q-9.8906 -2.8594 -10.1719 -2.5781 Q-10.6875 -2.0625 -10.6875 -0.9375 L-11.7656 -0.9375 ZM-5.3906 -3.6562 L-1.3594 -3.6562 L-1.3594 -2.7656 L-4.5 -2.7656 L-4.5 -2.625 Q-4.5469 -1.7344 -4.6406 -0.8906 Q-4.6875 -0.75 -4.6875 -0.6094 Q-4.0781 -1.1719 -3.375 -1.1719 Q-2.4375 -1.1719 -1.8281 -0.5625 Q-1.1719 0.0938 -1.1719 1.3594 Q-1.1719 2.9531 -2.0156 3.7969 Q-2.6719 4.4531 -3.6562 4.4531 Q-4.5938 4.4531 -5.2031 3.8438 Q-5.8125 3.2344 -5.9531 2.0156 L-4.875 2.0156 Q-4.7812 2.9062 -4.4062 3.2812 Q-4.125 3.5625 -3.7031 3.5625 Q-3.1406 3.5625 -2.8125 3.2344 Q-2.2969 2.7188 -2.2969 1.5 Q-2.2969 0.3281 -2.7188 -0.0938 Q-3 -0.375 -3.375 -0.375 Q-3.9375 -0.375 -4.3594 0.0469 Q-4.6406 0.3281 -4.7344 0.4688 L-5.6719 0.4688 Q-5.625 0.2812 -5.625 0.1406 L-5.3906 -3.4688 L-5.3906 -3.6562 Z"
         id="path4620" />
    </g>
    <g
       transform="translate(81.9333,155.8)"
       style="fill:rgb(38,38,38); text-rendering:geometricPrecision; color-rendering:optimizeQuality; image-rendering:optimizeQuality; font-family:'MS UI Gothic'; stroke:rgb(38,38,38); color-interpolation:linearRGB;"
       id="g4626">
      <path
         style="stroke:none;"
         d="M-14.5781 -0.1406 Q-14.5781 -2.2031 -13.6406 -3.1406 Q-12.9844 -3.7969 -12 -3.7969 Q-11.0156 -3.7969 -10.3594 -3.1406 Q-9.4219 -2.2031 -9.4219 -0.1406 L-9.4219 0.7969 Q-9.4219 2.8125 -10.3594 3.75 Q-11.0156 4.4062 -12 4.4062 Q-12.9844 4.4062 -13.6406 3.75 Q-14.5781 2.8125 -14.5781 0.7969 L-14.5781 -0.1406 ZM-12.8438 -2.5312 Q-13.4531 -1.9219 -13.4531 -0.2344 L-13.4531 0.8438 Q-13.4531 2.4844 -12.7969 3.1406 Q-12.4219 3.5156 -12 3.5156 Q-11.5312 3.5156 -11.1562 3.1406 Q-10.5469 2.5312 -10.5469 0.8438 L-10.5469 -0.2344 Q-10.5469 -1.9219 -11.1562 -2.5312 Q-11.5312 -2.9062 -12 -2.9062 Q-12.4688 -2.9062 -12.8438 -2.5312 ZM-8.2969 3.3281 L-7.2188 3.3281 L-7.2188 4.3594 L-8.2969 4.3594 L-8.2969 3.3281 ZM-5.7656 -1.3594 Q-5.7656 -2.4375 -5.0625 -3.1406 Q-4.4531 -3.75 -3.5625 -3.75 Q-2.5312 -3.75 -1.9219 -3.1406 Q-1.3594 -2.5781 -1.3594 -1.6406 Q-1.3594 -0.7031 -1.8281 -0.2344 Q-2.1562 0.0938 -2.5312 0.1406 Q-2.0625 0.2812 -1.7344 0.6094 Q-1.1719 1.1719 -1.1719 2.1094 Q-1.1719 3.1406 -1.8281 3.7969 Q-2.4844 4.4531 -3.6562 4.4531 Q-4.6406 4.4531 -5.2969 3.7969 Q-5.9531 3.1406 -5.9531 2.25 L-5.9531 1.875 L-4.875 1.875 L-4.875 2.2031 Q-4.875 2.8125 -4.4531 3.2344 Q-4.125 3.5625 -3.6562 3.5625 Q-3.0469 3.5625 -2.6719 3.1875 Q-2.2969 2.8125 -2.2969 2.0156 Q-2.2969 1.3594 -2.6719 0.9844 Q-3.0469 0.6094 -3.5156 0.6094 L-3.8906 0.6094 L-3.8906 -0.1875 L-3.6094 -0.1875 Q-3.1875 -0.1875 -2.8125 -0.5625 Q-2.4375 -0.9375 -2.4375 -1.6406 Q-2.4375 -2.25 -2.8125 -2.625 Q-3.0938 -2.9062 -3.5625 -2.9062 Q-3.9844 -2.9062 -4.3125 -2.5781 Q-4.6875 -2.2031 -4.7344 -1.3594 L-5.7656 -1.3594 Z"
         id="path4624" />
    </g>
    <g
       transform="translate(81.9333,124.6)"
       style="fill:rgb(38,38,38); text-rendering:geometricPrecision; color-rendering:optimizeQuality; image-rendering:optimizeQuality; font-family:'MS UI Gothic'; stroke:rgb(38,38,38); color-interpolation:linearRGB;"
       id="g4630">
      <path
         style="stroke:none;"
         d="M-20.5781 -0.1406 Q-20.5781 -2.2031 -19.6406 -3.1406 Q-18.9844 -3.7969 -18 -3.7969 Q-17.0156 -3.7969 -16.3594 -3.1406 Q-15.4219 -2.2031 -15.4219 -0.1406 L-15.4219 0.7969 Q-15.4219 2.8125 -16.3594 3.75 Q-17.0156 4.4062 -18 4.4062 Q-18.9844 4.4062 -19.6406 3.75 Q-20.5781 2.8125 -20.5781 0.7969 L-20.5781 -0.1406 ZM-18.8438 -2.5312 Q-19.4531 -1.9219 -19.4531 -0.2344 L-19.4531 0.8438 Q-19.4531 2.4844 -18.7969 3.1406 Q-18.4219 3.5156 -18 3.5156 Q-17.5312 3.5156 -17.1562 3.1406 Q-16.5469 2.5312 -16.5469 0.8438 L-16.5469 -0.2344 Q-16.5469 -1.9219 -17.1562 -2.5312 Q-17.5312 -2.9062 -18 -2.9062 Q-18.4688 -2.9062 -18.8438 -2.5312 ZM-14.2969 3.3281 L-13.2188 3.3281 L-13.2188 4.3594 L-14.2969 4.3594 L-14.2969 3.3281 ZM-11.7656 -1.3594 Q-11.7656 -2.4375 -11.0625 -3.1406 Q-10.4531 -3.75 -9.5625 -3.75 Q-8.5312 -3.75 -7.9219 -3.1406 Q-7.3594 -2.5781 -7.3594 -1.6406 Q-7.3594 -0.7031 -7.8281 -0.2344 Q-8.1562 0.0938 -8.5312 0.1406 Q-8.0625 0.2812 -7.7344 0.6094 Q-7.1719 1.1719 -7.1719 2.1094 Q-7.1719 3.1406 -7.8281 3.7969 Q-8.4844 4.4531 -9.6562 4.4531 Q-10.6406 4.4531 -11.2969 3.7969 Q-11.9531 3.1406 -11.9531 2.25 L-11.9531 1.875 L-10.875 1.875 L-10.875 2.2031 Q-10.875 2.8125 -10.4531 3.2344 Q-10.125 3.5625 -9.6562 3.5625 Q-9.0469 3.5625 -8.6719 3.1875 Q-8.2969 2.8125 -8.2969 2.0156 Q-8.2969 1.3594 -8.6719 0.9844 Q-9.0469 0.6094 -9.5156 0.6094 L-9.8906 0.6094 L-9.8906 -0.1875 L-9.6094 -0.1875 Q-9.1875 -0.1875 -8.8125 -0.5625 Q-8.4375 -0.9375 -8.4375 -1.6406 Q-8.4375 -2.25 -8.8125 -2.625 Q-9.0938 -2.9062 -9.5625 -2.9062 Q-9.9844 -2.9062 -10.3125 -2.5781 Q-10.6875 -2.2031 -10.7344 -1.3594 L-11.7656 -1.3594 ZM-5.3906 -3.6562 L-1.3594 -3.6562 L-1.3594 -2.7656 L-4.5 -2.7656 L-4.5 -2.625 Q-4.5469 -1.7344 -4.6406 -0.8906 Q-4.6875 -0.75 -4.6875 -0.6094 Q-4.0781 -1.1719 -3.375 -1.1719 Q-2.4375 -1.1719 -1.8281 -0.5625 Q-1.1719 0.0938 -1.1719 1.3594 Q-1.1719 2.9531 -2.0156 3.7969 Q-2.6719 4.4531 -3.6562 4.4531 Q-4.5938 4.4531 -5.2031 3.8438 Q-5.8125 3.2344 -5.9531 2.0156 L-4.875 2.0156 Q-4.7812 2.9062 -4.4062 3.2812 Q-4.125 3.5625 -3.7031 3.5625 Q-3.1406 3.5625 -2.8125 3.2344 Q-2.2969 2.7188 -2.2969 1.5 Q-2.2969 0.3281 -2.7188 -0.0938 Q-3 -0.375 -3.375 -0.375 Q-3.9375 -0.375 -4.3594 0.0469 Q-4.6406 0.3281 -4.7344 0.4688 L-5.6719 0.4688 Q-5.625 0.2812 -5.625 0.1406 L-5.3906 -3.4688 L-5.3906 -3.6562 Z"
         id="path4628" />
    </g>
    <g
       transform="translate(81.9333,93.4)"
       style="fill:rgb(38,38,38); text-rendering:geometricPrecision; color-rendering:optimizeQuality; image-rendering:optimizeQuality; font-family:'MS UI Gothic'; stroke:rgb(38,38,38); color-interpolation:linearRGB;"
       id="g4634">
      <path
         style="stroke:none;"
         d="M-14.5781 -0.1406 Q-14.5781 -2.2031 -13.6406 -3.1406 Q-12.9844 -3.7969 -12 -3.7969 Q-11.0156 -3.7969 -10.3594 -3.1406 Q-9.4219 -2.2031 -9.4219 -0.1406 L-9.4219 0.7969 Q-9.4219 2.8125 -10.3594 3.75 Q-11.0156 4.4062 -12 4.4062 Q-12.9844 4.4062 -13.6406 3.75 Q-14.5781 2.8125 -14.5781 0.7969 L-14.5781 -0.1406 ZM-12.8438 -2.5312 Q-13.4531 -1.9219 -13.4531 -0.2344 L-13.4531 0.8438 Q-13.4531 2.4844 -12.7969 3.1406 Q-12.4219 3.5156 -12 3.5156 Q-11.5312 3.5156 -11.1562 3.1406 Q-10.5469 2.5312 -10.5469 0.8438 L-10.5469 -0.2344 Q-10.5469 -1.9219 -11.1562 -2.5312 Q-11.5312 -2.9062 -12 -2.9062 Q-12.4688 -2.9062 -12.8438 -2.5312 ZM-8.2969 3.3281 L-7.2188 3.3281 L-7.2188 4.3594 L-8.2969 4.3594 L-8.2969 3.3281 ZM-3 -3.75 L-1.9219 -3.75 L-1.9219 1.4062 L-0.9375 1.4062 L-0.9375 2.2969 L-1.9219 2.2969 L-1.9219 4.3594 L-3 4.3594 L-3 2.2969 L-6.1406 2.2969 L-6.1406 1.3594 L-3 -3.75 ZM-3 -2.0156 L-5.1094 1.4062 L-3 1.4062 L-3 -2.0156 Z"
         id="path4632" />
    </g>
    <g
       transform="translate(81.9333,62.2)"
       style="fill:rgb(38,38,38); text-rendering:geometricPrecision; color-rendering:optimizeQuality; image-rendering:optimizeQuality; font-family:'MS UI Gothic'; stroke:rgb(38,38,38); color-interpolation:linearRGB;"
       id="g4638">
      <path
         style="stroke:none;"
         d="M-20.5781 -0.1406 Q-20.5781 -2.2031 -19.6406 -3.1406 Q-18.9844 -3.7969 -18 -3.7969 Q-17.0156 -3.7969 -16.3594 -3.1406 Q-15.4219 -2.2031 -15.4219 -0.1406 L-15.4219 0.7969 Q-15.4219 2.8125 -16.3594 3.75 Q-17.0156 4.4062 -18 4.4062 Q-18.9844 4.4062 -19.6406 3.75 Q-20.5781 2.8125 -20.5781 0.7969 L-20.5781 -0.1406 ZM-18.8438 -2.5312 Q-19.4531 -1.9219 -19.4531 -0.2344 L-19.4531 0.8438 Q-19.4531 2.4844 -18.7969 3.1406 Q-18.4219 3.5156 -18 3.5156 Q-17.5312 3.5156 -17.1562 3.1406 Q-16.5469 2.5312 -16.5469 0.8438 L-16.5469 -0.2344 Q-16.5469 -1.9219 -17.1562 -2.5312 Q-17.5312 -2.9062 -18 -2.9062 Q-18.4688 -2.9062 -18.8438 -2.5312 ZM-14.2969 3.3281 L-13.2188 3.3281 L-13.2188 4.3594 L-14.2969 4.3594 L-14.2969 3.3281 ZM-9 -3.75 L-7.9219 -3.75 L-7.9219 1.4062 L-6.9375 1.4062 L-6.9375 2.2969 L-7.9219 2.2969 L-7.9219 4.3594 L-9 4.3594 L-9 2.2969 L-12.1406 2.2969 L-12.1406 1.3594 L-9 -3.75 ZM-9 -2.0156 L-11.1094 1.4062 L-9 1.4062 L-9 -2.0156 ZM-5.3906 -3.6562 L-1.3594 -3.6562 L-1.3594 -2.7656 L-4.5 -2.7656 L-4.5 -2.625 Q-4.5469 -1.7344 -4.6406 -0.8906 Q-4.6875 -0.75 -4.6875 -0.6094 Q-4.0781 -1.1719 -3.375 -1.1719 Q-2.4375 -1.1719 -1.8281 -0.5625 Q-1.1719 0.0938 -1.1719 1.3594 Q-1.1719 2.9531 -2.0156 3.7969 Q-2.6719 4.4531 -3.6562 4.4531 Q-4.5938 4.4531 -5.2031 3.8438 Q-5.8125 3.2344 -5.9531 2.0156 L-4.875 2.0156 Q-4.7812 2.9062 -4.4062 3.2812 Q-4.125 3.5625 -3.7031 3.5625 Q-3.1406 3.5625 -2.8125 3.2344 Q-2.2969 2.7188 -2.2969 1.5 Q-2.2969 0.3281 -2.7188 -0.0938 Q-3 -0.375 -3.375 -0.375 Q-3.9375 -0.375 -4.3594 0.0469 Q-4.6406 0.3281 -4.7344 0.4688 L-5.6719 0.4688 Q-5.625 0.2812 -5.625 0.1406 L-5.3906 -3.4688 L-5.3906 -3.6562 Z"
         id="path4636" />
    </g>
    <g
       transform="translate(81.9333,31)"
       style="fill:rgb(38,38,38); text-rendering:geometricPrecision; color-rendering:optimizeQuality; image-rendering:optimizeQuality; font-family:'MS UI Gothic'; stroke:rgb(38,38,38); color-interpolation:linearRGB;"
       id="g4642">
      <path
         style="stroke:none;"
         d="M-14.5781 -0.1406 Q-14.5781 -2.2031 -13.6406 -3.1406 Q-12.9844 -3.7969 -12 -3.7969 Q-11.0156 -3.7969 -10.3594 -3.1406 Q-9.4219 -2.2031 -9.4219 -0.1406 L-9.4219 0.7969 Q-9.4219 2.8125 -10.3594 3.75 Q-11.0156 4.4062 -12 4.4062 Q-12.9844 4.4062 -13.6406 3.75 Q-14.5781 2.8125 -14.5781 0.7969 L-14.5781 -0.1406 ZM-12.8438 -2.5312 Q-13.4531 -1.9219 -13.4531 -0.2344 L-13.4531 0.8438 Q-13.4531 2.4844 -12.7969 3.1406 Q-12.4219 3.5156 -12 3.5156 Q-11.5312 3.5156 -11.1562 3.1406 Q-10.5469 2.5312 -10.5469 0.8438 L-10.5469 -0.2344 Q-10.5469 -1.9219 -11.1562 -2.5312 Q-11.5312 -2.9062 -12 -2.9062 Q-12.4688 -2.9062 -12.8438 -2.5312 ZM-8.2969 3.3281 L-7.2188 3.3281 L-7.2188 4.3594 L-8.2969 4.3594 L-8.2969 3.3281 ZM-5.3906 -3.6562 L-1.3594 -3.6562 L-1.3594 -2.7656 L-4.5 -2.7656 L-4.5 -2.625 Q-4.5469 -1.7344 -4.6406 -0.8906 Q-4.6875 -0.75 -4.6875 -0.6094 Q-4.0781 -1.1719 -3.375 -1.1719 Q-2.4375 -1.1719 -1.8281 -0.5625 Q-1.1719 0.0938 -1.1719 1.3594 Q-1.1719 2.9531 -2.0156 3.7969 Q-2.6719 4.4531 -3.6562 4.4531 Q-4.5938 4.4531 -5.2031 3.8438 Q-5.8125 3.2344 -5.9531 2.0156 L-4.875 2.0156 Q-4.7812 2.9062 -4.4062 3.2812 Q-4.125 3.5625 -3.7031 3.5625 Q-3.1406 3.5625 -2.8125 3.2344 Q-2.2969 2.7188 -2.2969 1.5 Q-2.2969 0.3281 -2.7188 -0.0938 Q-3 -0.375 -3.375 -0.375 Q-3.9375 -0.375 -4.3594 0.0469 Q-4.6406 0.3281 -4.7344 0.4688 L-5.6719 0.4688 Q-5.625 0.2812 -5.625 0.1406 L-5.3906 -3.4688 L-5.3906 -3.6562 Z"
         id="path4640" />
    </g>
    <g
       transform="translate(57.6,186.9998) rotate(-90)"
       style="font-size:48px; fill:rgb(38,38,38); text-rendering:geometricPrecision; image-rendering:optimizeQuality; color-rendering:optimizeQuality; font-family:'mwa_cmmi10'; stroke:rgb(38,38,38); color-interpolation:linearRGB;"
       id="g4652">
      <path
         style="stroke:none;"
         d="M-40.047 -17.2802 Q-40.5157 -17.2802 -40.5157 -17.9208 Q-40.4845 -18.0302 -40.4142 -18.3271 Q-40.3439 -18.6239 -40.2189 -18.7958 Q-40.0939 -18.9677 -39.9064 -18.9677 Q-36.9689 -18.9677 -35.797 -19.2958 Q-35.1876 -19.5146 -34.9064 -20.5927 L-28.3282 -46.952 Q-28.2345 -47.4208 -28.2345 -47.6083 Q-28.2345 -48.1239 -28.797 -48.202 Q-29.7032 -48.3895 -32.2657 -48.3895 Q-32.7345 -48.3895 -32.7345 -49.0145 Q-32.7032 -49.1395 -32.6329 -49.4286 Q-32.5626 -49.7177 -32.4376 -49.8974 Q-32.3126 -50.077 -32.1251 -50.077 L-17.5626 -50.077 Q-15.8282 -50.077 -13.9532 -49.6786 Q-12.0782 -49.2802 -10.5079 -48.4208 Q-8.9376 -47.5614 -7.9298 -46.1474 Q-6.922 -44.7333 -6.922 -42.827 Q-6.922 -40.4208 -8.5157 -38.5224 Q-10.1095 -36.6239 -12.547 -35.3427 Q-14.9845 -34.0614 -17.2814 -33.5458 Q-15.4064 -32.8739 -14.2111 -31.3817 Q-13.0157 -29.8896 -13.0157 -27.9521 Q-13.0157 -27.6864 -13.0314 -27.5614 Q-13.047 -27.4364 -13.0626 -27.2646 L-13.4376 -22.9989 Q-13.4845 -22.0614 -13.5314 -21.4052 Q-13.5782 -20.7489 -13.5782 -20.3583 Q-13.5782 -19.0458 -13.1954 -18.2567 Q-12.8126 -17.4677 -11.6564 -17.4677 Q-10.1564 -17.4677 -9.0236 -18.8661 Q-7.8907 -20.2646 -7.5314 -21.9052 Q-7.3282 -22.3271 -7.0626 -22.3271 L-6.6251 -22.3271 Q-6.1564 -22.3271 -6.1564 -21.6864 Q-6.5001 -20.3114 -7.2657 -19.0692 Q-8.0314 -17.8271 -9.1876 -17.0224 Q-10.3439 -16.2177 -11.7032 -16.2177 Q-14.5157 -16.2177 -16.5001 -17.4755 Q-18.4845 -18.7333 -18.4845 -21.4052 Q-18.4845 -22.4208 -18.297 -23.1864 L-17.2345 -27.4521 Q-17.047 -28.0458 -17.047 -28.8114 Q-17.047 -30.8114 -18.3986 -31.9442 Q-19.7501 -33.077 -21.7814 -33.077 L-27.6876 -33.077 L-30.8595 -20.4052 Q-30.9689 -19.9989 -30.9689 -19.7177 Q-30.9689 -19.2333 -30.3907 -19.1552 Q-29.4689 -18.9677 -26.9376 -18.9677 Q-26.4532 -18.9677 -26.4532 -18.3427 Q-26.6095 -17.6552 -26.7032 -17.4677 Q-26.797 -17.2802 -27.2657 -17.2802 L-40.047 -17.2802 ZM-27.4064 -34.327 L-22.0939 -34.327 Q-16.8595 -34.327 -14.2189 -36.9677 Q-13.0001 -38.1864 -12.2814 -40.077 Q-11.5626 -41.9677 -11.5626 -43.8427 Q-11.5626 -45.6239 -12.6095 -46.6317 Q-13.6564 -47.6395 -15.1876 -48.0145 Q-16.7189 -48.3895 -18.5782 -48.3895 L-21.7814 -48.3895 Q-23.0939 -48.3895 -23.5157 -48.163 Q-23.9376 -47.9364 -24.297 -46.7489 L-27.4064 -34.327 Z"
         id="path4644" />
      <path
         style="stroke:none;"
         d="M-2.9917 -12.1584 Q-2.0698 -10.5959 0.6802 -10.5959 Q1.8677 -10.5959 2.9536 -11.0021 Q4.0395 -11.4084 4.7427 -12.2209 Q5.4458 -13.0334 5.4458 -14.2052 Q5.4458 -15.0802 4.813 -15.6427 Q4.1802 -16.2052 3.2739 -16.4084 L1.4302 -16.7677 Q0.1645 -17.0802 -0.648 -17.9474 Q-1.4605 -18.8146 -1.4605 -20.049 Q-1.4605 -21.549 -0.6402 -22.7131 Q0.1802 -23.8771 1.5239 -24.4943 Q2.8677 -25.1115 4.3208 -25.1115 Q5.852 -25.1115 7.0786 -24.3693 Q8.3052 -23.6271 8.3052 -22.1896 Q8.3052 -21.4084 7.8598 -20.8068 Q7.4145 -20.2052 6.6333 -20.2052 Q6.1958 -20.2052 5.8677 -20.4943 Q5.5395 -20.7834 5.5395 -21.2365 Q5.5395 -21.6427 5.7661 -22.0099 Q5.9927 -22.3771 6.3677 -22.6037 Q6.7427 -22.8302 7.1333 -22.8302 Q6.8364 -23.5646 6.0161 -23.8927 Q5.1958 -24.2209 4.2427 -24.2209 Q3.3833 -24.2209 2.5239 -23.8771 Q1.6645 -23.5334 1.1411 -22.8615 Q0.6177 -22.1896 0.6177 -21.2677 Q0.6177 -20.6584 1.0473 -20.1896 Q1.477 -19.7209 2.102 -19.5334 L4.0864 -19.1271 Q5.0239 -18.924 5.813 -18.424 Q6.602 -17.924 7.063 -17.1506 Q7.5239 -16.3771 7.5239 -15.3771 Q7.5239 -14.1115 6.813 -12.8849 Q6.102 -11.6584 5.0864 -10.924 Q3.2739 -9.7052 0.6489 -9.7052 Q-1.1636 -9.7052 -2.6714 -10.5334 Q-4.1792 -11.3615 -4.1792 -13.0021 Q-4.1792 -13.9396 -3.6402 -14.6271 Q-3.1011 -15.3146 -2.1792 -15.3146 Q-1.6323 -15.3146 -1.2573 -14.9787 Q-0.8823 -14.6427 -0.8823 -14.0959 Q-0.8823 -13.3146 -1.4605 -12.7365 Q-2.0386 -12.1584 -2.8198 -12.1584 L-2.9917 -12.1584 Z"
         id="path4646" />
      <path
         style="stroke:none;"
         d="M16.6489 -9.7052 Q15.0239 -9.7052 13.7973 -10.549 Q12.5708 -11.3927 11.938 -12.8302 Q11.3052 -14.2677 11.3052 -15.8615 Q11.3052 -18.2834 12.5239 -20.4162 Q13.7427 -22.549 15.8364 -23.8302 Q17.9302 -25.1115 20.3208 -25.1115 Q21.7739 -25.1115 22.8598 -24.3537 Q23.9458 -23.5959 23.9458 -22.1896 Q23.9458 -20.2209 22.3911 -19.2677 Q20.8364 -18.3146 18.8755 -18.0881 Q16.9145 -17.8615 14.5395 -17.8615 L14.4302 -17.8615 Q13.8833 -15.8459 13.8833 -14.3927 Q13.8833 -12.8927 14.5864 -11.7443 Q15.2895 -10.5959 16.7114 -10.5959 Q18.7427 -10.5959 20.6098 -11.5256 Q22.477 -12.4552 23.6489 -14.0959 Q23.7583 -14.2052 23.9145 -14.2052 Q24.0864 -14.2052 24.2583 -14.0099 Q24.4302 -13.8146 24.4302 -13.6427 Q24.4302 -13.5177 24.3677 -13.4552 Q23.1177 -11.7052 21.0083 -10.7052 Q18.8989 -9.7052 16.6489 -9.7052 ZM14.6333 -18.7521 Q16.6177 -18.7521 18.2895 -18.9318 Q19.9614 -19.1115 21.3286 -19.8537 Q22.6958 -20.5959 22.6958 -22.1427 Q22.6958 -22.7834 22.3442 -23.2521 Q21.9927 -23.7209 21.438 -23.9709 Q20.8833 -24.2209 20.2739 -24.2209 Q18.8364 -24.2209 17.6802 -23.4396 Q16.5239 -22.6584 15.7817 -21.4084 Q15.0395 -20.1584 14.6333 -18.7521 Z"
         id="path4648" />
      <path
         style="stroke:none;"
         d="M29.4346 -14.1271 Q29.4346 -12.6584 30.1924 -11.6271 Q30.9502 -10.5959 32.3564 -10.5959 Q34.3877 -10.5959 36.2549 -11.5256 Q38.1221 -12.4552 39.2939 -14.0959 Q39.4033 -14.2052 39.5596 -14.2052 Q39.7314 -14.2052 39.9033 -14.0099 Q40.0752 -13.8146 40.0752 -13.6427 Q40.0752 -13.5177 40.0127 -13.4552 Q38.7627 -11.7052 36.6533 -10.7052 Q34.5439 -9.7052 32.2939 -9.7052 Q30.6689 -9.7052 29.4189 -10.4709 Q28.1689 -11.2365 27.4893 -12.5334 Q26.8096 -13.8302 26.8096 -15.4552 Q26.8096 -17.7521 28.0908 -20.0099 Q29.3721 -22.2677 31.4971 -23.6896 Q33.6221 -25.1115 35.9658 -25.1115 Q37.4814 -25.1115 38.708 -24.3693 Q39.9346 -23.6271 39.9346 -22.1896 Q39.9346 -21.2521 39.3877 -20.5959 Q38.8408 -19.9396 37.9346 -19.9396 Q37.3877 -19.9396 37.0127 -20.2834 Q36.6377 -20.6271 36.6377 -21.174 Q36.6377 -21.9709 37.2236 -22.5334 Q37.8096 -23.0959 38.5752 -23.0959 L38.6533 -23.0959 Q38.2471 -23.674 37.4971 -23.9474 Q36.7471 -24.2209 35.9189 -24.2209 Q33.9346 -24.2209 32.4424 -22.5177 Q30.9502 -20.8146 30.1924 -18.4552 Q29.4346 -16.0959 29.4346 -14.1271 Z"
         id="path4650" />
    </g>
    <g
       style="stroke-linecap:butt; fill:red; text-rendering:geometricPrecision; image-rendering:optimizeQuality; color-rendering:optimizeQuality; stroke-linejoin:round; stroke:red; color-interpolation:linearRGB; stroke-width:0.6667;"
       id="g4662">
      <path
         d="M87 31 L91.2 31 L95.4 31.0002 L99.6 31.0009 L103.8 31.0028 L108 31.0068 L112.2 31.0141 L116.4 31.026 L120.6 31.0442 L124.8 31.0706 L129 31.1072 L133.2 31.1564 L137.4 31.2206 L141.6 31.3025 L145.8 31.405 L150 31.531 L154.2 31.6838 L158.4 31.8667 L162.6 32.083 L166.8 32.3363 L171 32.6302 L175.2 32.9684 L179.4 33.3546 L183.6 33.7926 L187.8 34.2863 L192 34.8395 L196.2 35.4561 L200.4 36.1398 L204.6 36.8945 L208.8 37.7239 L213 38.6318 L217.2 39.6217 L221.4 40.6971 L225.6 41.8617 L229.8 43.1186 L234 44.4711 L238.2 45.9223 L242.4 47.475 L246.6 49.1322 L250.8 50.8963 L255 52.7699 L259.2 54.7552 L263.4 56.8542 L267.6 59.0689 L271.8 61.4008 L276 63.8515 L280.2 66.4222 L284.4 69.1139 L288.6 71.9274 L292.8 74.8633 L297 77.9219 L301.2 81.1033 L305.4 84.4074 L309.6 87.8339 L313.8 91.3822 L318 95.0515 L322.2 98.8408 L326.4 102.7489 L330.6 106.7742 L334.8 110.9152 L339 115.1699 L343.2 119.5363 L347.4 124.0122 L351.6 128.595 L355.8 133.2823 L360 138.0711 L364.2 142.9586 L368.4 147.9417 L372.6 153.0172 L376.8 158.1817 L381 163.4318 L385.2 168.7639 L389.4 174.1745 L393.6 179.6598 L397.8 185.2161 L402 190.8395 L406.2 196.5263 L410.4 202.2726 L414.6 208.0746 L418.8 213.9284 L423 219.8302 L427.2 225.7763 L431.4 231.763 L435.6 237.7867 L439.8 243.8438 L444 249.931 L448.2 256.045 L452.4 262.1825 L456.6 268.3406 L460.8 274.5164 L465 280.7072 L469.2 286.9106 L473.4 293.1242 L477.6 299.346 L481.8 305.5741 L486 311.8068 L490.2 318.0428 L494.4 324.2809 L498.6 330.5202 L502.8 336.76 L507 343"
         style="fill:none; fill-rule:evenodd;"
         id="path4654" />
      <path
         d="M87 31 L91.2 31.0062 L95.4 31.0251 L99.6 31.0568 L103.8 31.1019 L108 31.161 L112.2 31.2349 L116.4 31.3248 L120.6 31.4317 L124.8 31.5571 L129 31.7025 L133.2 31.8695 L137.4 32.06 L141.6 32.276 L145.8 32.5196 L150 32.793 L154.2 33.0987 L158.4 33.4392 L162.6 33.8169 L166.8 34.2347 L171 34.6954 L175.2 35.2017 L179.4 35.7566 L183.6 36.3631 L187.8 37.0242 L192 37.7429 L196.2 38.5225 L200.4 39.3659 L204.6 40.2762 L208.8 41.2565 L213 42.3099 L217.2 43.4394 L221.4 44.6479 L225.6 45.9384 L229.8 47.3138 L234 48.7766 L238.2 50.3297 L242.4 51.9755 L246.6 53.7166 L250.8 55.5552 L255 57.4936 L259.2 59.5338 L263.4 61.6776 L267.6 63.9269 L271.8 66.2833 L276 68.7481 L280.2 71.3226 L284.4 74.0078 L288.6 76.8047 L292.8 79.7139 L297 82.7359 L301.2 85.8711 L305.4 89.1195 L309.6 92.4811 L313.8 95.9556 L318 99.5424 L322.2 103.2411 L326.4 107.0506 L330.6 110.97 L334.8 114.9981 L339 119.1334 L343.2 123.3743 L347.4 127.7192 L351.6 132.1661 L355.8 136.713 L360 141.3576 L364.2 146.0976 L368.4 150.9306 L372.6 155.8539 L376.8 160.8649 L381 165.9606 L385.2 171.1383 L389.4 176.3949 L393.6 181.7274 L397.8 187.1327 L402 192.6075 L406.2 198.1487 L410.4 203.7531 L414.6 209.4173 L418.8 215.1381 L423 220.9124 L427.2 226.7367 L431.4 232.6079 L435.6 238.5229 L439.8 244.4784 L444 250.4714 L448.2 256.4988 L452.4 262.5577 L456.6 268.6452 L460.8 274.7585 L465 280.8948 L469.2 287.0516 L473.4 293.2263 L477.6 299.4164 L481.8 305.6197 L486 311.834 L490.2 318.0571 L494.4 324.2871 L498.6 330.5221 L502.8 336.7603 L507 343"
         style="fill:none; fill-rule:evenodd; stroke:blue;"
         id="path4656" />
      <path
         d="M87 31 L91.2 31 L95.4 31.0001 L99.6 31.0006 L103.8 31.002 L108 31.0049 L112.2 31.0102 L116.4 31.0188 L120.6 31.0322 L124.8 31.0516 L129 31.0788 L133.2 31.1156 L137.4 31.164 L141.6 31.2263 L145.8 31.3049 L150 31.4024 L154.2 31.5217 L158.4 31.6657 L162.6 31.8377 L166.8 32.041 L171 32.2791 L175.2 32.5557 L179.4 32.8746 L183.6 33.2397 L187.8 33.6551 L192 34.1249 L196.2 34.6533 L200.4 35.2446 L204.6 35.9031 L208.8 36.6331 L213 37.4391 L217.2 38.3253 L221.4 39.2959 L225.6 40.3554 L229.8 41.5077 L234 42.7569 L238.2 44.1069 L242.4 45.5615 L246.6 47.1244 L250.8 48.7989 L255 50.5883 L259.2 52.4955 L263.4 54.5234 L267.6 56.6744 L271.8 58.9508 L276 61.3546 L280.2 63.8874 L284.4 66.5506 L288.6 69.3454 L292.8 72.2724 L297 75.332 L301.2 78.5245 L305.4 81.8496 L309.6 85.3068 L313.8 88.8953 L318 92.6139 L322.2 96.4612 L326.4 100.4353 L330.6 104.5344 L334.8 108.756 L339 113.0976 L343.2 117.5563 L347.4 122.1292 L351.6 126.8129 L355.8 131.6039 L360 136.4987 L364.2 141.4935 L368.4 146.5842 L372.6 151.7669 L376.8 157.0373 L381 162.3913 L385.2 167.8245 L389.4 173.3327 L393.6 178.9116 L397.8 184.5569 L402 190.2641 L406.2 196.0293 L410.4 201.8481 L414.6 207.7165 L418.8 213.6306 L423 219.5865 L427.2 225.5804 L431.4 231.6089 L435.6 237.6685 L439.8 243.756 L444 249.8683 L448.2 256.0024 L452.4 262.1557 L456.6 268.3257 L460.8 274.5099 L465 280.7065 L469.2 286.9131 L473.4 293.1283 L477.6 299.3504 L481.8 305.5779 L486 311.8097 L490.2 318.0446 L494.4 324.2818 L498.6 330.5205 L502.8 336.7601 L507 343"
         style="fill:none; fill-rule:evenodd; stroke:lime;"
         id="path4658" />
      <path
         d="M87 31 L91.2 31.0001 L95.4 31.0007 L99.6 31.0026 L103.8 31.0062 L108 31.0125 L112.2 31.0222 L116.4 31.0363 L120.6 31.0558 L124.8 31.0819 L129 31.1158 L133.2 31.1591 L137.4 31.2133 L141.6 31.2803 L145.8 31.3619 L150 31.4603 L154.2 31.5778 L158.4 31.717 L162.6 31.8806 L166.8 32.0714 L171 32.2927 L175.2 32.5478 L179.4 32.8402 L183.6 33.1736 L187.8 33.5518 L192 33.9791 L196.2 34.4595 L200.4 34.9975 L204.6 35.5974 L208.8 36.264 L213 37.0017 L217.2 37.8154 L221.4 38.7097 L225.6 39.6894 L229.8 40.7592 L234 41.9237 L238.2 43.1876 L242.4 44.5554 L246.6 46.0312 L250.8 47.6194 L255 49.3239 L259.2 51.1484 L263.4 53.0964 L267.6 55.1712 L271.8 57.3758 L276 59.7127 L280.2 62.1841 L284.4 64.7922 L288.6 67.5384 L292.8 70.4239 L297 73.4495 L301.2 76.6156 L305.4 79.9223 L309.6 83.3691 L313.8 86.9553 L318 90.6796 L322.2 94.5406 L326.4 98.5362 L330.6 102.6641 L334.8 106.9218 L339 111.3063 L343.2 115.8142 L347.4 120.4421 L351.6 125.1859 L355.8 130.0419 L360 135.0056 L364.2 140.0726 L368.4 145.2383 L372.6 150.4979 L376.8 155.8468 L381 161.2799 L385.2 166.7924 L389.4 172.3794 L393.6 178.0359 L397.8 183.7572 L402 189.5383 L406.2 195.3747 L410.4 201.2619 L414.6 207.1953 L418.8 213.1707 L423 219.184 L427.2 225.2314 L431.4 231.3092 L435.6 237.4138 L439.8 243.542 L444 249.6909 L448.2 255.8574 L452.4 262.0392 L456.6 268.2338 L460.8 274.4391 L465 280.6531 L469.2 286.8743 L473.4 293.101 L477.6 299.3321 L481.8 305.5664 L486 311.803 L490.2 318.0412 L494.4 324.2804 L498.6 330.5201 L502.8 336.76 L507 343"
         style="fill:none; fill-rule:evenodd; stroke:fuchsia;"
         id="path4660" />
    </g>
    <g
       style="color-interpolation:sRGB;fill:#ffffff;stroke:#ffffff;color-rendering:optimizeSpeed;image-rendering:optimizeSpeed;shape-rendering:crispEdges;text-rendering:optimizeSpeed"
       id="g4666"
       transform="matrix(1.5587876,0,0,1.6813043,-224.98511,-28.408474)">
      <path
         style="stroke:none"
         d="M 496,95 V 42 h -93 v 53 z"
         id="path4664"
         inkscape:connector-curvature="0" />
    </g>
    <g
       transform="matrix(1.5587876,0,0,1.6813043,476.46933,55.530979)"
       style="font-size:10.80000019px;font-family:'MS UI Gothic';color-interpolation:linearRGB;color-rendering:optimizeQuality;image-rendering:optimizeQuality;text-rendering:geometricPrecision"
       id="g4670">
      <path
         style="stroke:none"
         d="m 0.7344,-3.4844 h 4.7187 v 0.8282 H 1.7188 v 2.2656 H 5.2031 V 0.4375 H 1.7188 V 3.0469 H 5.6719 V 3.875 H 0.7344 Z m 5.7716,2.5469 h 0.9844 l 1.1563,1.7187 1.1718,-1.7187 h 0.9844 L 9.1623,1.4219 10.9279,3.875 H 9.9435 L 8.6467,2.0625 7.3654,3.875 H 6.381 l 1.75,-2.4531 z m 5.3674,-2.5469 h 0.9843 v 3.0938 h 3.5157 v -3.0938 h 1 V 3.875 h -1 V 0.4375 H 12.8577 V 3.875 h -0.9843 z m 7.2917,2.9219 q 0.4844,-0.4687 1.375,-0.4687 1.0781,0 1.5469,0.4687 0.4375,0.4375 0.4375,1 v 2.7031 q 0,0.4688 0.3437,0.7344 H 21.837 q -0.1719,-0.1719 -0.1719,-0.5625 -0.6406,0.6406 -1.6406,0.6406 -0.8125,0 -1.2344,-0.4219 -0.3906,-0.3906 -0.3906,-0.9062 0,-0.6094 0.3906,-0.9844 0.4219,-0.4375 1.2031,-0.5625 0.5157,-0.0937 0.8907,-0.2187 0.5625,-0.125 0.7812,-0.25 0,-0.3438 -0.2656,-0.6094 -0.25,-0.25 -0.7188,-0.25 -0.6093,0 -0.8593,0.25 -0.1719,0.1719 -0.2657,0.4688 h -0.9375 q 0.125,-0.5938 0.5469,-1.0313 z m 2.5,1.9844 q -0.2656,0.0781 -0.4687,0.125 -0.7344,0.1719 -1.125,0.2656 -0.3438,0.0781 -0.5157,0.25 -0.2187,0.2187 -0.2187,0.4687 0,0.3126 0.2187,0.5157 0.125,0.1406 0.5625,0.1406 0.7344,0 1.2032,-0.4844 0.2968,-0.2969 0.3437,-0.4219 z m 2.9891,2.4531 h -0.8593 v -4.8125 h 0.8593 v 0.7187 q 0.5625,-0.8124 1.2969,-0.8124 0.8125,0 1.25,0.4374 0.2031,0.2032 0.3438,0.4688 0.5468,-0.9062 1.5468,-0.9062 0.6875,0 1.0625,0.3906 0.4375,0.4218 0.4375,0.9375 V 3.875 H 29.7324 V 0.4688 q 0,-0.25 -0.1719,-0.4219 -0.2656,-0.2657 -0.6094,-0.2657 -0.5937,0 -0.9844,0.3907 Q 27.623,0.5156 27.623,0.8125 V 3.875 H 26.7636 V 0.5156 q 0,-0.25 -0.25,-0.5156 -0.2187,-0.2188 -0.6562,-0.2188 -0.4688,0 -0.8125,0.3438 -0.3907,0.3906 -0.3907,0.7344 z m 7.7571,-6.9219 q 0.5156,-0.5156 1.4219,-0.5156 0.9062,0 1.4687,0.5625 0.5469,0.5469 0.5469,1.5 0,0.7344 -0.5156,1.25 -0.2031,0.2031 -0.5156,0.2969 V 0.125 q 0.3906,0.0938 0.7343,0.4375 0.5157,0.5156 0.5157,1.375 0,0.8594 -0.5938,1.4531 -0.5625,0.5625 -1.6406,0.5625 -1.0781,0 -1.625,-0.5625 -0.6094,-0.5937 -0.6094,-1.4531 0,-0.8594 0.5156,-1.375 0.3438,-0.3437 0.7344,-0.4375 V 0.0469 Q 32.5832,-0.0469 32.2863,-0.3438 31.8176,-0.8125 31.8176,-1.5 q 0,-0.9531 0.5937,-1.5469 z m 0.6875,0.5625 q -0.3437,0.3438 -0.3437,0.9844 0,0.5938 0.3437,0.9375 0.3125,0.3125 0.6875,0.3125 0.5156,0 0.7813,-0.2656 0.3437,-0.3438 0.3437,-0.9844 0,-0.6406 -0.3437,-0.9844 -0.2969,-0.3125 -0.7344,-0.3125 -0.4219,0 -0.7344,0.3125 z m -0.1719,3.2969 q -0.3437,0.3437 -0.3437,1 0,0.6406 0.3906,1.0313 0.3438,0.3437 0.8594,0.3437 0.5156,0 0.8594,-0.3437 0.3906,-0.3907 0.3906,-1.0313 0,-0.6563 -0.3906,-1.0313 -0.2969,-0.3124 -0.8594,-0.3124 -0.5625,0 -0.9063,0.3437 z m 6.8204,-4.375 h 0.9843 v 4.7187 h 0.9063 V 1.9844 H 40.7316 V 3.875 H 39.7473 V 1.9844 h -2.875 V 1.125 Z m 0,1.5937 -1.9375,3.125 h 1.9375 z"
         id="path4668"
         inkscape:connector-curvature="0" />
    </g>
    <g
       style="color-interpolation:linearRGB;fill:#ff0000;stroke:#ff0000;stroke-width:0.66670001;stroke-linecap:butt;stroke-linejoin:round;color-rendering:optimizeQuality;image-rendering:optimizeQuality;text-rendering:geometricPrecision"
       id="g4674"
       transform="matrix(1.5587876,0,0,1.6813043,-224.98511,-28.408474)">
      <line
         y2="49.925201"
         style="fill:none"
         x1="407"
         x2="447"
         y1="49.925201"
         id="line4672" />
    </g>
    <g
       transform="matrix(1.5587876,0,0,1.6813043,476.46933,76.350906)"
       style="font-size:10.80000019px;font-family:'MS UI Gothic';color-interpolation:linearRGB;color-rendering:optimizeQuality;image-rendering:optimizeQuality;text-rendering:geometricPrecision"
       id="g4678">
      <path
         style="stroke:none"
         d="M 0.8594,-3.4844 H 1.8438 V 3.0469 H 5.7969 V 3.875 H 0.8594 Z m 5.6952,0.0469 h 0.8593 v 1.125 H 6.5546 Z m 0,2.5 H 7.4139 V 3.875 H 6.5546 Z M 9.5977,3.875 H 8.7383 v -4.8125 h 0.8594 v 0.8594 q 0.7812,-0.9531 1.6406,-0.9531 0.8594,0 1.375,0.5156 0.3437,0.3437 0.3437,0.8125 V 3.875 H 12.0977 V 0.5625 q 0,-0.3906 -0.2657,-0.6406 -0.25,-0.2657 -0.7187,-0.2657 -0.4375,0 -0.8594,0.4376 -0.6562,0.6406 -0.6562,1.375 z m 6.8203,-7.4844 h 0.5156 v 7.4375 h -0.9844 v -5.7187 h -1.2969 v -0.5156 h 0.3907 q 0.6093,0 0.9531,-0.3438 0.375,-0.3906 0.4219,-0.8594 z m 2.8672,3.3594 q 0,-1.8906 0.8593,-2.75 0.5938,-0.6094 1.5,-0.6094 0.9063,0 1.5,0.6094 0.8594,0.8594 0.8594,2.75 v 0.8594 q 0,1.8437 -0.8594,2.7031 -0.5937,0.5937 -1.5,0.5937 -0.9062,0 -1.5,-0.5937 -0.8593,-0.8594 -0.8593,-2.7031 z m 1.5937,-2.2031 q -0.5625,0.5625 -0.5625,2.1093 v 0.9844 q 0,1.5156 0.5938,2.1094 0.3437,0.3438 0.7343,0.3438 0.4375,0 0.7813,-0.3438 0.5469,-0.5625 0.5469,-2.1094 v -0.9844 q 0,-1.5468 -0.5469,-2.1093 -0.3438,-0.3438 -0.7813,-0.3438 -0.4218,0 -0.7656,0.3438 z m 4.4922,-1.0313 h 3.6875 v 0.8282 h -2.875 v 0.125 q -0.0469,0.8124 -0.125,1.5937 -0.0469,0.125 -0.0469,0.25 0.5625,-0.5156 1.2031,-0.5156 0.8594,0 1.4219,0.5625 0.5938,0.5937 0.5938,1.7656 0,1.4531 -0.7657,2.2344 -0.6093,0.5937 -1.5,0.5937 -0.8593,0 -1.4218,-0.5625 -0.5625,-0.5468 -0.6875,-1.6718 h 0.9843 q 0.0938,0.8124 0.4375,1.1562 0.25,0.2656 0.6407,0.2656 0.5156,0 0.8125,-0.2968 0.4687,-0.4844 0.4687,-1.5938 0,-1.0781 -0.375,-1.4688 -0.2656,-0.25 -0.6094,-0.25 -0.5156,0 -0.9062,0.3907 -0.25,0.25 -0.3438,0.375 H 25.1055 Q 25.1523,0.125 25.1523,0 l 0.2188,-3.3125 z"
         id="path4676"
         inkscape:connector-curvature="0" />
    </g>
    <g
       style="color-interpolation:linearRGB;fill:#0000ff;stroke:#0000ff;stroke-width:0.66670001;stroke-linecap:butt;stroke-linejoin:round;color-rendering:optimizeQuality;image-rendering:optimizeQuality;text-rendering:geometricPrecision"
       id="g4682"
       transform="matrix(1.5587876,0,0,1.6813043,-224.98511,-28.408474)">
      <line
         y2="62.308399"
         style="fill:none"
         x1="407"
         x2="447"
         y1="62.308399"
         id="line4680" />
    </g>
    <g
       transform="matrix(1.5587876,0,0,1.6813043,476.46933,97.170833)"
       style="font-size:10.80000019px;font-family:'MS UI Gothic';color-interpolation:linearRGB;color-rendering:optimizeQuality;image-rendering:optimizeQuality;text-rendering:geometricPrecision"
       id="g4686">
      <path
         style="stroke:none"
         d="M 0.8594,-3.4844 H 1.8438 V 3.0469 H 5.7969 V 3.875 H 0.8594 Z m 5.6952,0.0469 h 0.8593 v 1.125 H 6.5546 Z m 0,2.5 H 7.4139 V 3.875 H 6.5546 Z M 9.5977,3.875 H 8.7383 v -4.8125 h 0.8594 v 0.8594 q 0.7812,-0.9531 1.6406,-0.9531 0.8594,0 1.375,0.5156 0.3437,0.3437 0.3437,0.8125 V 3.875 H 12.0977 V 0.5625 q 0,-0.3906 -0.2657,-0.6406 -0.25,-0.2657 -0.7187,-0.2657 -0.4375,0 -0.8594,0.4376 -0.6562,0.6406 -0.6562,1.375 z m 6.8203,-7.4844 h 0.5156 v 7.4375 h -0.9844 v -5.7187 h -1.2969 v -0.5156 h 0.3907 q 0.6093,0 0.9531,-0.3438 0.375,-0.3906 0.4219,-0.8594 z m 3.2109,2.625 q 0,-1.3281 0.6875,-2.0156 0.5625,-0.5625 1.3281,-0.5625 0.9532,0 1.5,0.5625 0.5625,0.5469 0.5625,1.375 0,1.0312 -0.6406,1.7969 -0.6094,0.7343 -1.25,1.4219 -0.3437,0.3906 -0.6875,0.7656 -0.2969,0.3437 -0.5156,0.6875 H 23.832 V 3.875 H 19.457 V 3.1406 Q 19.5352,2.7031 20.1914,1.9375 21.2539,0.7812 21.9414,0 q 0.7344,-0.7656 0.7344,-1.625 0,-0.5156 -0.3438,-0.8594 -0.25,-0.2656 -0.6406,-0.2656 -0.3437,0 -0.6094,0.2656 -0.4687,0.4688 -0.4687,1.5 z m 6.3047,-2.0625 q 0.5156,-0.5156 1.2812,-0.5156 0.8125,0 1.3282,0.5156 0.5625,0.5625 0.5625,1.4219 h -0.9844 q 0,-0.6094 -0.2656,-0.8594 -0.25,-0.2656 -0.6407,-0.2656 -0.3906,0 -0.6406,0.2656 -0.6875,0.6875 -0.6875,2.4063 0.1719,-0.3125 0.4219,-0.5625 0.3906,-0.3906 0.9531,-0.3906 0.7656,0 1.2813,0.5156 0.6562,0.6406 0.6562,1.9375 0,1.3281 -0.6875,2.0156 -0.5156,0.5156 -1.4219,0.5156 -0.7812,0 -1.4218,-0.6406 -0.7657,-0.7813 -0.7657,-2.9687 0,-2.3594 1.0313,-3.3907 z m 0.5156,3.0938 q -0.4844,0.4687 -0.4844,1.2812 0,1.0313 0.5157,1.5469 0.3125,0.3125 0.6562,0.3125 0.375,0 0.6406,-0.2656 0.3907,-0.3907 0.3907,-1.5 0,-0.9844 -0.3907,-1.375 Q 27.4805,-0.25 27.168,-0.25 q -0.4219,0 -0.7188,0.2969 z"
         id="path4684"
         inkscape:connector-curvature="0" />
    </g>
    <g
       style="color-interpolation:linearRGB;fill:#00ff00;stroke:#00ff00;stroke-width:0.66670001;stroke-linecap:butt;stroke-linejoin:round;color-rendering:optimizeQuality;image-rendering:optimizeQuality;text-rendering:geometricPrecision"
       id="g4690"
       transform="matrix(1.5587876,0,0,1.6813043,-224.98511,-28.408474)">
      <line
         y2="74.691597"
         style="fill:none"
         x1="407"
         x2="447"
         y1="74.691597"
         id="line4688" />
    </g>
    <g
       transform="matrix(1.5587876,0,0,1.6813043,476.46933,117.99076)"
       style="font-size:10.80000019px;font-family:'MS UI Gothic';color-interpolation:linearRGB;color-rendering:optimizeQuality;image-rendering:optimizeQuality;text-rendering:geometricPrecision"
       id="g4694">
      <path
         style="stroke:none"
         d="M 0.8594,-3.4844 H 1.8438 V 3.0469 H 5.7969 V 3.875 H 0.8594 Z m 5.6952,0.0469 h 0.8593 v 1.125 H 6.5546 Z m 0,2.5 H 7.4139 V 3.875 H 6.5546 Z M 9.5977,3.875 H 8.7383 v -4.8125 h 0.8594 v 0.8594 q 0.7812,-0.9531 1.6406,-0.9531 0.8594,0 1.375,0.5156 0.3437,0.3437 0.3437,0.8125 V 3.875 H 12.0977 V 0.5625 q 0,-0.3906 -0.2657,-0.6406 -0.25,-0.2657 -0.7187,-0.2657 -0.4375,0 -0.8594,0.4376 -0.6562,0.6406 -0.6562,1.375 z m 6.8203,-7.4844 h 0.5156 v 7.4375 h -0.9844 v -5.7187 h -1.2969 v -0.5156 h 0.3907 q 0.6093,0 0.9531,-0.3438 0.375,-0.3906 0.4219,-0.8594 z m 5.7422,0.0469 h 0.9843 v 4.7187 h 0.9063 V 1.9844 H 23.1445 V 3.875 H 22.1602 V 1.9844 h -2.875 V 1.125 Z m 0,1.5937 -1.9375,3.125 h 1.9375 z m 2.8671,-1.5156 h 4.0782 v 0.9532 L 27.043,3.875 h -0.9375 l 2.0625,-6.5312 h -3.1407 z"
         id="path4692"
         inkscape:connector-curvature="0" />
    </g>
    <g
       style="color-interpolation:linearRGB;fill:#ff00ff;stroke:#ff00ff;stroke-width:0.66670001;stroke-linecap:butt;stroke-linejoin:round;color-rendering:optimizeQuality;image-rendering:optimizeQuality;text-rendering:geometricPrecision"
       id="g4700"
       transform="matrix(1.5587876,0,0,1.6813043,-224.98511,-28.408474)">
      <line
         y2="87.074799"
         style="fill:none"
         x1="407"
         x2="447"
         y1="87.074799"
         id="line4696" />
      <path
         d="M 403,95 V 42 h 93 v 53 z"
         style="fill:none;fill-rule:evenodd;stroke:#262626;stroke-linejoin:miter"
         id="path4698"
         inkscape:connector-curvature="0" />
    </g>
  </g>
</svg>
