<?xml version="1.0" encoding="UTF-8" standalone="no"?>
<svg
   xmlns:dc="http://purl.org/dc/elements/1.1/"
   xmlns:cc="http://creativecommons.org/ns#"
   xmlns:rdf="http://www.w3.org/1999/02/22-rdf-syntax-ns#"
   xmlns:svg="http://www.w3.org/2000/svg"
   xmlns="http://www.w3.org/2000/svg"
   xmlns:sodipodi="http://sodipodi.sourceforge.net/DTD/sodipodi-0.dtd"
   xmlns:inkscape="http://www.inkscape.org/namespaces/inkscape"
   style="font-style:normal;font-weight:normal;font-size:12px;font-family:Dialog;color-interpolation:auto;fill:#000000;fill-opacity:1;stroke:#000000;stroke-width:1;stroke-linecap:square;stroke-linejoin:miter;stroke-miterlimit:10;stroke-dasharray:none;stroke-dashoffset:0;stroke-opacity:1;color-rendering:auto;image-rendering:auto;shape-rendering:auto;text-rendering:auto"
   width="420"
   height="315"
   version="1.1"
   id="svg4821"
   sodipodi:docname="grafFTRate0130.svg"
   inkscape:version="0.92.3 (2405546, 2018-03-11)">
  <metadata
     id="metadata4825">
    <rdf:RDF>
      <cc:Work
         rdf:about="">
        <dc:format>image/svg+xml</dc:format>
        <dc:type
           rdf:resource="http://purl.org/dc/dcmitype/StillImage" />
        <dc:title />
      </cc:Work>
    </rdf:RDF>
  </metadata>
  <sodipodi:namedview
     pagecolor="#ffffff"
     bordercolor="#666666"
     borderopacity="1"
     objecttolerance="10"
     gridtolerance="10"
     guidetolerance="10"
     inkscape:pageopacity="0"
     inkscape:pageshadow="2"
     inkscape:window-width="1920"
     inkscape:window-height="1046"
     id="namedview4823"
     showgrid="false"
     inkscape:zoom="2.9968254"
     inkscape:cx="191.89681"
     inkscape:cy="143.77311"
     inkscape:window-x="-11"
     inkscape:window-y="-11"
     inkscape:window-maximized="1"
     inkscape:current-layer="g4819"
     fit-margin-top="0"
     fit-margin-left="0"
     fit-margin-right="0"
     fit-margin-bottom="0" />
  <!--Generated by the Batik Graphics2D SVG Generator-->
  <defs
     id="genericDefs" />
  <g
     id="g4819"
     transform="translate(-420,-315)">
    <defs
       id="defs1">
      <clipPath
         clipPathUnits="userSpaceOnUse"
         id="clipPath1">
        <path
           d="M 0,0 H 840 V 630 H 0 Z"
           id="path4615"
           inkscape:connector-curvature="0" />
      </clipPath>
    </defs>
    <g
       style="fill:#ffffff;stroke:#ffffff"
       id="g4621"
       transform="matrix(0.5,0,0,0.5,420,315)">
      <rect
         x="0"
         y="0"
         width="840"
         style="stroke:none"
         height="630"
         clip-path="url(#clipPath1)"
         id="rect4619" />
    </g>
    <g
       style="color-interpolation:sRGB;fill:#ffffff;stroke:#ffffff;color-rendering:optimizeSpeed;image-rendering:optimizeSpeed;shape-rendering:crispEdges;text-rendering:optimizeSpeed"
       id="g4627"
       transform="matrix(0.5,0,0,0.5,420,315)">
      <rect
         x="0"
         width="840"
         height="630"
         y="0"
         style="stroke:none"
         id="rect4623" />
      <path
         style="stroke:none"
         d="M 109,560 H 760 V 47 H 109 Z"
         id="path4625"
         inkscape:connector-curvature="0" />
    </g>
    <g
       style="color-interpolation:linearRGB;fill:#262626;stroke:#262626;stroke-linejoin:round;color-rendering:optimizeQuality;image-rendering:optimizeQuality;text-rendering:geometricPrecision"
       id="g4649"
       transform="matrix(0.5,0,0,0.5,420,315)">
      <line
         y2="560.00018"
         style="fill:none"
         x1="109"
         x2="760"
         y1="560.00018"
         id="line4629" />
      <line
         y2="553.48999"
         style="fill:none"
         x1="109"
         x2="109"
         y1="560.00018"
         id="line4631" />
      <line
         y2="553.48999"
         style="fill:none"
         x1="190.375"
         x2="190.375"
         y1="560.00018"
         id="line4633" />
      <line
         y2="553.48999"
         style="fill:none"
         x1="271.75"
         x2="271.75"
         y1="560.00018"
         id="line4635" />
      <line
         y2="553.48999"
         style="fill:none"
         x1="353.125"
         x2="353.125"
         y1="560.00018"
         id="line4637" />
      <line
         y2="553.48999"
         style="fill:none"
         x1="434.5"
         x2="434.5"
         y1="560.00018"
         id="line4639" />
      <line
         y2="553.48999"
         style="fill:none"
         x1="515.875"
         x2="515.875"
         y1="560.00018"
         id="line4641" />
      <line
         y2="553.48999"
         style="fill:none"
         x1="597.25"
         x2="597.25"
         y1="560.00018"
         id="line4643" />
      <line
         y2="553.48999"
         style="fill:none"
         x1="678.625"
         x2="678.625"
         y1="560.00018"
         id="line4645" />
      <line
         y2="553.48999"
         style="fill:none"
         x1="760"
         x2="760"
         y1="560.00018"
         id="line4647" />
    </g>
    <g
       transform="matrix(0.5,0,0,0.5,515.1875,598.80015)"
       style="font-size:18px;font-family:'MS UI Gothic';color-interpolation:linearRGB;fill:#262626;stroke:#262626;color-rendering:optimizeQuality;image-rendering:optimizeQuality;text-rendering:geometricPrecision"
       id="g4657">
      <path
         style="stroke:none"
         d="M -1.8281,4.4688 Q -0.9844,3.625 0.2812,3.625 1.625,3.625 2.4688,4.4688 3.375,5.375 3.375,6.7812 H 1.7656 Q 1.7656,5.7969 1.3438,5.375 0.9219,4.9531 0.2812,4.9531 q -0.625,0 -1.0468,0.4219 -1.125,1.125 -1.125,3.9375 0.2812,-0.4844 0.7031,-0.9063 0.625,-0.6406 1.5469,-0.6406 1.2656,0 2.1094,0.8438 1.0468,1.0625 1.0468,3.1718 0,2.1719 -1.125,3.2969 -0.8437,0.8438 -2.3125,0.8438 -1.2656,0 -2.3281,-1.0469 -1.2656,-1.2656 -1.2656,-4.8594 0,-3.8594 1.6875,-5.5468 z m 0.8437,5.0624 q -0.7656,0.7657 -0.7656,2.1094 0,1.6875 0.8438,2.5313 0.4843,0.4843 1.0468,0.4843 0.6406,0 1.0625,-0.4218 0.625,-0.625 0.625,-2.4532 0,-1.625 -0.625,-2.25 -0.5,-0.5 -0.9843,-0.5 -0.7032,0 -1.2032,0.5 z"
         id="path4655"
         inkscape:connector-curvature="0" />
    </g>
    <g
       transform="matrix(0.5,0,0,0.5,596.5625,598.80015)"
       style="font-size:18px;font-family:'MS UI Gothic';color-interpolation:linearRGB;fill:#262626;stroke:#262626;color-rendering:optimizeQuality;image-rendering:optimizeQuality;text-rendering:geometricPrecision"
       id="g4665">
      <path
         style="stroke:none"
         d="M -4.2188,3.5469 H -3.375 V 15.7188 H -4.9844 V 6.3594 H -7.0938 V 5.5156 h 0.625 q 0.9844,0 1.5469,-0.5625 0.6407,-0.625 0.7031,-1.4062 z m 4.8594,5.4843 q 0,-3.0937 1.4063,-4.5 Q 3.0312,3.5469 4.5,3.5469 q 1.4844,0 2.4688,0.9843 1.4062,1.4063 1.4062,4.5 v 1.4063 q 0,3.0313 -1.4062,4.4375 Q 5.9844,15.8594 4.5,15.8594 3.0312,15.8594 2.0469,14.875 0.6406,13.4688 0.6406,10.4375 Z M 3.2344,5.4531 Q 2.3281,6.3594 2.3281,8.8906 v 1.625 q 0,2.4532 0.9844,3.4375 0.5625,0.5625 1.1875,0.5625 0.7031,0 1.2656,-0.5625 0.9219,-0.9062 0.9219,-3.4375 V 8.8906 Q 6.6875,6.3594 5.7656,5.4531 5.2031,4.8906 4.5,4.8906 q -0.7031,0 -1.2656,0.5625 z"
         id="path4663"
         inkscape:connector-curvature="0" />
    </g>
    <g
       transform="matrix(0.5,0,0,0.5,677.9375,598.80015)"
       style="font-size:18px;font-family:'MS UI Gothic';color-interpolation:linearRGB;fill:#262626;stroke:#262626;color-rendering:optimizeQuality;image-rendering:optimizeQuality;text-rendering:geometricPrecision"
       id="g4673">
      <path
         style="stroke:none"
         d="M -4.2188,3.5469 H -3.375 V 15.7188 H -4.9844 V 6.3594 H -7.0938 V 5.5156 h 0.625 q 0.9844,0 1.5469,-0.5625 0.6407,-0.625 0.7031,-1.4062 z M 5.3438,3.625 h 1.625 v 7.7344 h 1.4687 v 1.3281 H 6.9688 v 3.0937 H 5.3438 V 12.6875 H 0.6406 v -1.4063 z m 0,2.5938 -3.1563,5.1406 h 3.1563 z"
         id="path4671"
         inkscape:connector-curvature="0" />
    </g>
    <g
       transform="matrix(0.5,0,0,0.5,759.3125,598.80015)"
       style="font-size:18px;font-family:'MS UI Gothic';color-interpolation:linearRGB;fill:#262626;stroke:#262626;color-rendering:optimizeQuality;image-rendering:optimizeQuality;text-rendering:geometricPrecision"
       id="g4681">
      <path
         style="stroke:none"
         d="M -4.2188,3.5469 H -3.375 V 15.7188 H -4.9844 V 6.3594 H -7.0938 V 5.5156 h 0.625 q 0.9844,0 1.5469,-0.5625 0.6407,-0.625 0.7031,-1.4062 z M 2.1875,4.4688 Q 3.0312,3.625 4.5,3.625 5.9844,3.625 6.8906,4.5312 7.8125,5.4531 7.8125,7 q 0,1.1875 -0.8437,2.0312 -0.3594,0.3594 -0.8438,0.5 v 0.1407 q 0.625,0.1406 1.1875,0.7031 0.8437,0.8438 0.8437,2.25 0,1.4062 -0.9843,2.3906 -0.9063,0.9063 -2.6719,0.9063 -1.75,0 -2.6719,-0.9063 -0.9843,-0.9844 -0.9843,-2.3906 0,-1.4062 0.8437,-2.25 Q 2.25,9.8125 2.8906,9.6719 V 9.5312 Q 2.4688,9.3906 1.9688,8.8906 1.2031,8.125 1.2031,7 q 0,-1.5469 0.9844,-2.5312 z M 3.3125,5.375 Q 2.75,5.9375 2.75,7 q 0,0.9844 0.5625,1.5469 0.4844,0.4843 1.125,0.4843 0.8437,0 1.2656,-0.4218 Q 6.2656,8.0469 6.2656,7 6.2656,5.9375 5.7031,5.375 5.2031,4.8906 4.5,4.8906 q -0.7031,0 -1.1875,0.4844 z m -0.2813,5.4219 q -0.5624,0.5625 -0.5624,1.6093 0,1.0626 0.625,1.6876 0.5624,0.5624 1.4062,0.5624 0.8438,0 1.4062,-0.5624 0.6407,-0.625 0.6407,-1.6876 0,-1.0468 -0.6407,-1.6874 Q 5.4219,10.2344 4.5,10.2344 q -0.9062,0 -1.4688,0.5625 z"
         id="path4679"
         inkscape:connector-curvature="0" />
    </g>
    <g
       style="color-interpolation:linearRGB;fill:#262626;stroke:#262626;stroke-linejoin:round;color-rendering:optimizeQuality;image-rendering:optimizeQuality;text-rendering:geometricPrecision"
       id="g4713"
       transform="matrix(0.5,0,0,0.5,420,315)">
      <line
         y2="47"
         style="fill:none"
         x1="109"
         x2="109"
         y1="560.00018"
         id="line4691" />
      <line
         y2="560.00018"
         style="fill:none"
         x1="109"
         x2="115.51"
         y1="560.00018"
         id="line4693" />
      <line
         y2="503.00021"
         style="fill:none"
         x1="109"
         x2="115.51"
         y1="503.00021"
         id="line4695" />
      <line
         y2="446.00031"
         style="fill:none"
         x1="109"
         x2="115.51"
         y1="446.00031"
         id="line4697" />
      <line
         y2="388.99969"
         style="fill:none"
         x1="109"
         x2="115.51"
         y1="388.99969"
         id="line4699" />
      <line
         y2="331.99969"
         style="fill:none"
         x1="109"
         x2="115.51"
         y1="331.99969"
         id="line4701" />
      <line
         y2="274.99979"
         style="fill:none"
         x1="109"
         x2="115.51"
         y1="274.99979"
         id="line4703" />
      <line
         y2="217.9998"
         style="fill:none"
         x1="109"
         x2="115.51"
         y1="217.9998"
         id="line4705" />
      <line
         y2="160.99989"
         style="fill:none"
         x1="109"
         x2="115.51"
         y1="160.99989"
         id="line4707" />
      <line
         y2="103.9999"
         style="fill:none"
         x1="109"
         x2="115.51"
         y1="103.9999"
         id="line4709" />
      <line
         y2="47"
         style="fill:none"
         x1="109"
         x2="115.51"
         y1="47"
         id="line4711" />
    </g>
    <g
       transform="matrix(0.5,0,0,0.5,470.7,595.0001)"
       style="font-size:18px;font-family:'MS UI Gothic';color-interpolation:linearRGB;fill:#262626;stroke:#262626;color-rendering:optimizeQuality;image-rendering:optimizeQuality;text-rendering:geometricPrecision"
       id="g4717">
      <path
         style="stroke:none"
         d="m -39.3594,-0.4688 q 0,-3.0937 1.4063,-4.5 0.9843,-0.9843 2.4531,-0.9843 1.4844,0 2.4688,0.9843 1.4062,1.4063 1.4062,4.5 v 1.4063 q 0,3.0313 -1.4062,4.4375 -0.9844,0.9844 -2.4688,0.9844 -1.4688,0 -2.4531,-0.9844 -1.4063,-1.4062 -1.4063,-4.4375 z m 2.5938,-3.5781 q -0.9063,0.9063 -0.9063,3.4375 v 1.625 q 0,2.4532 0.9844,3.4375 0.5625,0.5625 1.1875,0.5625 0.7031,0 1.2656,-0.5625 0.9219,-0.9062 0.9219,-3.4375 v -1.625 q 0,-2.5312 -0.9219,-3.4375 -0.5625,-0.5625 -1.2656,-0.5625 -0.7031,0 -1.2656,0.5625 z m 6.8281,8.7813 h 1.6094 v 1.5468 h -1.6094 z m 4.8437,-9.8438 q 0.7813,-0.7656 2.1094,-0.7656 1.2656,0 2.1875,0.9062 1.4688,1.4844 1.4688,5.1407 0,3.7187 -1.5469,5.2656 -0.9844,0.9844 -2.3125,0.9844 -1.3437,0 -2.1094,-0.7657 -0.9219,-0.9218 -0.9219,-2.3906 h 1.625 q -0.0781,0.9063 0.5626,1.5469 0.2812,0.2813 0.8437,0.2813 0.625,0 1.125,-0.5 1.125,-1.125 1.125,-4.1407 -0.2813,0.4219 -0.6406,0.7657 Q -22.3438,2 -23.4688,2 q -1.0624,0 -1.7656,-0.7031 -1.125,-1.125 -1.125,-3.0313 0,-2.1094 1.2656,-3.375 z m 1.125,0.9219 q -0.7031,0.7031 -0.7031,2.4531 0,1.4063 0.5625,1.9688 0.5,0.5 0.9844,0.5 0.8438,0 1.2656,-0.4219 0.7813,-0.7813 0.7813,-1.9063 0,-1.75 -0.7813,-2.5312 -0.4844,-0.4844 -1.125,-0.4844 -0.5625,0 -0.9844,0.4219 z m 7.3907,-1.5469 h 6.0469 v 1.3282 H -15.25 v 0.2187 q -0.0625,1.3281 -0.2031,2.5937 -0.0781,0.2188 -0.0781,0.4219 0.9218,-0.8437 1.9687,-0.8437 1.4063,0 2.3281,0.9218 0.9844,0.9844 0.9844,2.875 0,2.3907 -1.2656,3.6563 -0.9844,0.9844 -2.4688,0.9844 -1.4062,0 -2.3125,-0.9063 -0.9219,-0.9218 -1.125,-2.75 h 1.6094 q 0.1406,1.3438 0.7031,1.9063 0.4219,0.4219 1.0625,0.4219 0.8438,0 1.3281,-0.5 0.7813,-0.7657 0.7813,-2.5938 0,-1.7656 -0.6406,-2.3906 -0.4219,-0.4219 -0.9844,-0.4219 -0.8437,0 -1.4687,0.625 -0.4219,0.4219 -0.5626,0.6406 H -17 q 0.0625,-0.2812 0.0625,-0.5 l 0.3594,-5.4062 z m 9,0 h 6.0469 v 1.3282 H -6.25 v 0.2187 q -0.0625,1.3281 -0.2031,2.5937 -0.0781,0.2188 -0.0781,0.4219 0.9218,-0.8437 1.9687,-0.8437 1.4063,0 2.3281,0.9218 0.9844,0.9844 0.9844,2.875 0,2.3907 -1.2656,3.6563 -0.9844,0.9844 -2.4688,0.9844 -1.4062,0 -2.3125,-0.9063 -0.9219,-0.9218 -1.125,-2.75 h 1.6094 q 0.1406,1.3438 0.7031,1.9063 0.4219,0.4219 1.0625,0.4219 0.8438,0 1.3281,-0.5 Q -2.9375,3.8281 -2.9375,2 q 0,-1.7656 -0.6406,-2.3906 Q -4,-0.8125 -4.5625,-0.8125 q -0.8437,0 -1.4687,0.625 -0.4219,0.4219 -0.5626,0.6406 H -8 q 0.0625,-0.2812 0.0625,-0.5 l 0.3594,-5.4062 z"
         id="path4715"
         inkscape:connector-curvature="0" />
    </g>
    <g
       transform="matrix(0.5,0,0,0.5,470.7,566.5001)"
       style="font-size:18px;font-family:'MS UI Gothic';color-interpolation:linearRGB;fill:#262626;stroke:#262626;color-rendering:optimizeQuality;image-rendering:optimizeQuality;text-rendering:geometricPrecision"
       id="g4721">
      <path
         style="stroke:none"
         d="m -30.3594,-0.4688 q 0,-3.0937 1.4063,-4.5 0.9843,-0.9843 2.4531,-0.9843 1.4844,0 2.4688,0.9843 1.4062,1.4063 1.4062,4.5 v 1.4063 q 0,3.0313 -1.4062,4.4375 -0.9844,0.9844 -2.4688,0.9844 -1.4688,0 -2.4531,-0.9844 -1.4063,-1.4062 -1.4063,-4.4375 z m 2.5938,-3.5781 q -0.9063,0.9063 -0.9063,3.4375 v 1.625 q 0,2.4532 0.9844,3.4375 0.5625,0.5625 1.1875,0.5625 0.7031,0 1.2656,-0.5625 0.9219,-0.9062 0.9219,-3.4375 v -1.625 q 0,-2.5312 -0.9219,-3.4375 -0.5625,-0.5625 -1.2656,-0.5625 -0.7031,0 -1.2656,0.5625 z m 6.8281,8.7813 h 1.6094 v 1.5468 h -1.6094 z m 4.8437,-9.8438 q 0.7813,-0.7656 2.1094,-0.7656 1.2656,0 2.1875,0.9062 1.4688,1.4844 1.4688,5.1407 0,3.7187 -1.5469,5.2656 -0.9844,0.9844 -2.3125,0.9844 -1.3437,0 -2.1094,-0.7657 -0.9219,-0.9218 -0.9219,-2.3906 h 1.625 q -0.0781,0.9063 0.5626,1.5469 0.2812,0.2813 0.8437,0.2813 0.625,0 1.125,-0.5 1.125,-1.125 1.125,-4.1407 -0.2813,0.4219 -0.6406,0.7657 Q -13.3438,2 -14.4688,2 q -1.0624,0 -1.7656,-0.7031 -1.125,-1.125 -1.125,-3.0313 0,-2.1094 1.2656,-3.375 z m 1.125,0.9219 q -0.7031,0.7031 -0.7031,2.4531 0,1.4063 0.5625,1.9688 0.5,0.5 0.9844,0.5 0.8438,0 1.2656,-0.4219 0.7813,-0.7813 0.7813,-1.9063 0,-1.75 -0.7813,-2.5312 -0.4844,-0.4844 -1.125,-0.4844 -0.5625,0 -0.9844,0.4219 z m 8.2969,-0.8437 q 0.8438,-0.8438 2.1094,-0.8438 1.3437,0 2.1875,0.8438 0.9062,0.9062 0.9062,2.3124 h -1.6093 q 0,-0.9843 -0.4219,-1.4062 -0.4219,-0.4219 -1.0625,-0.4219 -0.625,0 -1.0469,0.4219 -1.125,1.125 -1.125,3.9375 0.2813,-0.4844 0.7032,-0.9063 0.625,-0.6406 1.5468,-0.6406 1.2656,0 2.1094,0.8438 1.0469,1.0625 1.0469,3.1718 0,2.1719 -1.125,3.2969 -0.8438,0.8438 -2.3125,0.8438 -1.2656,0 -2.3282,-1.0469 -1.2656,-1.2656 -1.2656,-4.8594 0,-3.8594 1.6875,-5.5468 z m 0.8438,5.0624 q -0.7657,0.7657 -0.7657,2.1094 0,1.6875 0.8438,2.5313 0.4844,0.4843 1.0469,0.4843 0.6406,0 1.0625,-0.4218 0.625,-0.625 0.625,-2.4532 0,-1.625 -0.625,-2.25 -0.5,-0.5 -0.9844,-0.5 -0.7031,0 -1.2031,0.5 z"
         id="path4719"
         inkscape:connector-curvature="0" />
    </g>
    <g
       transform="matrix(0.5,0,0,0.5,470.7,538.00015)"
       style="font-size:18px;font-family:'MS UI Gothic';color-interpolation:linearRGB;fill:#262626;stroke:#262626;color-rendering:optimizeQuality;image-rendering:optimizeQuality;text-rendering:geometricPrecision"
       id="g4725">
      <path
         style="stroke:none"
         d="m -39.3594,-0.4688 q 0,-3.0937 1.4063,-4.5 0.9843,-0.9843 2.4531,-0.9843 1.4844,0 2.4688,0.9843 1.4062,1.4063 1.4062,4.5 v 1.4063 q 0,3.0313 -1.4062,4.4375 -0.9844,0.9844 -2.4688,0.9844 -1.4688,0 -2.4531,-0.9844 -1.4063,-1.4062 -1.4063,-4.4375 z m 2.5938,-3.5781 q -0.9063,0.9063 -0.9063,3.4375 v 1.625 q 0,2.4532 0.9844,3.4375 0.5625,0.5625 1.1875,0.5625 0.7031,0 1.2656,-0.5625 0.9219,-0.9062 0.9219,-3.4375 v -1.625 q 0,-2.5312 -0.9219,-3.4375 -0.5625,-0.5625 -1.2656,-0.5625 -0.7031,0 -1.2656,0.5625 z m 6.8281,8.7813 h 1.6094 v 1.5468 h -1.6094 z m 4.8437,-9.8438 q 0.7813,-0.7656 2.1094,-0.7656 1.2656,0 2.1875,0.9062 1.4688,1.4844 1.4688,5.1407 0,3.7187 -1.5469,5.2656 -0.9844,0.9844 -2.3125,0.9844 -1.3437,0 -2.1094,-0.7657 -0.9219,-0.9218 -0.9219,-2.3906 h 1.625 q -0.0781,0.9063 0.5626,1.5469 0.2812,0.2813 0.8437,0.2813 0.625,0 1.125,-0.5 1.125,-1.125 1.125,-4.1407 -0.2813,0.4219 -0.6406,0.7657 Q -22.3438,2 -23.4688,2 q -1.0624,0 -1.7656,-0.7031 -1.125,-1.125 -1.125,-3.0313 0,-2.1094 1.2656,-3.375 z m 1.125,0.9219 q -0.7031,0.7031 -0.7031,2.4531 0,1.4063 0.5625,1.9688 0.5,0.5 0.9844,0.5 0.8438,0 1.2656,-0.4219 0.7813,-0.7813 0.7813,-1.9063 0,-1.75 -0.7813,-2.5312 -0.4844,-0.4844 -1.125,-0.4844 -0.5625,0 -0.9844,0.4219 z m 8.2969,-0.8437 q 0.8438,-0.8438 2.1094,-0.8438 1.3437,0 2.1875,0.8438 0.9062,0.9062 0.9062,2.3124 h -1.6093 q 0,-0.9843 -0.4219,-1.4062 -0.4219,-0.4219 -1.0625,-0.4219 -0.625,0 -1.0469,0.4219 -1.125,1.125 -1.125,3.9375 0.2813,-0.4844 0.7032,-0.9063 0.625,-0.6406 1.5468,-0.6406 1.2656,0 2.1094,0.8438 1.0469,1.0625 1.0469,3.1718 0,2.1719 -1.125,3.2969 -0.8438,0.8438 -2.3125,0.8438 -1.2656,0 -2.3282,-1.0469 -1.2656,-1.2656 -1.2656,-4.8594 0,-3.8594 1.6875,-5.5468 z m 0.8438,5.0624 q -0.7657,0.7657 -0.7657,2.1094 0,1.6875 0.8438,2.5313 0.4844,0.4843 1.0469,0.4843 0.6406,0 1.0625,-0.4218 0.625,-0.625 0.625,-2.4532 0,-1.625 -0.625,-2.25 -0.5,-0.5 -0.9844,-0.5 -0.7031,0 -1.2031,0.5 z m 7.25,-5.7656 h 6.0469 v 1.3282 H -6.25 v 0.2187 q -0.0625,1.3281 -0.2031,2.5937 -0.0781,0.2188 -0.0781,0.4219 0.9218,-0.8437 1.9687,-0.8437 1.4063,0 2.3281,0.9218 0.9844,0.9844 0.9844,2.875 0,2.3907 -1.2656,3.6563 -0.9844,0.9844 -2.4688,0.9844 -1.4062,0 -2.3125,-0.9063 -0.9219,-0.9218 -1.125,-2.75 h 1.6094 q 0.1406,1.3438 0.7031,1.9063 0.4219,0.4219 1.0625,0.4219 0.8438,0 1.3281,-0.5 Q -2.9375,3.8281 -2.9375,2 q 0,-1.7656 -0.6406,-2.3906 Q -4,-0.8125 -4.5625,-0.8125 q -0.8437,0 -1.4687,0.625 -0.4219,0.4219 -0.5626,0.6406 H -8 q 0.0625,-0.2812 0.0625,-0.5 l 0.3594,-5.4062 z"
         id="path4723"
         inkscape:connector-curvature="0" />
    </g>
    <g
       transform="matrix(0.5,0,0,0.5,470.7,509.49985)"
       style="font-size:18px;font-family:'MS UI Gothic';color-interpolation:linearRGB;fill:#262626;stroke:#262626;color-rendering:optimizeQuality;image-rendering:optimizeQuality;text-rendering:geometricPrecision"
       id="g4729">
      <path
         style="stroke:none"
         d="m -30.3594,-0.4688 q 0,-3.0937 1.4063,-4.5 0.9843,-0.9843 2.4531,-0.9843 1.4844,0 2.4688,0.9843 1.4062,1.4063 1.4062,4.5 v 1.4063 q 0,3.0313 -1.4062,4.4375 -0.9844,0.9844 -2.4688,0.9844 -1.4688,0 -2.4531,-0.9844 -1.4063,-1.4062 -1.4063,-4.4375 z m 2.5938,-3.5781 q -0.9063,0.9063 -0.9063,3.4375 v 1.625 q 0,2.4532 0.9844,3.4375 0.5625,0.5625 1.1875,0.5625 0.7031,0 1.2656,-0.5625 0.9219,-0.9062 0.9219,-3.4375 v -1.625 q 0,-2.5312 -0.9219,-3.4375 -0.5625,-0.5625 -1.2656,-0.5625 -0.7031,0 -1.2656,0.5625 z m 6.8281,8.7813 h 1.6094 v 1.5468 h -1.6094 z m 4.8437,-9.8438 q 0.7813,-0.7656 2.1094,-0.7656 1.2656,0 2.1875,0.9062 1.4688,1.4844 1.4688,5.1407 0,3.7187 -1.5469,5.2656 -0.9844,0.9844 -2.3125,0.9844 -1.3437,0 -2.1094,-0.7657 -0.9219,-0.9218 -0.9219,-2.3906 h 1.625 q -0.0781,0.9063 0.5626,1.5469 0.2812,0.2813 0.8437,0.2813 0.625,0 1.125,-0.5 1.125,-1.125 1.125,-4.1407 -0.2813,0.4219 -0.6406,0.7657 Q -13.3438,2 -14.4688,2 q -1.0624,0 -1.7656,-0.7031 -1.125,-1.125 -1.125,-3.0313 0,-2.1094 1.2656,-3.375 z m 1.125,0.9219 q -0.7031,0.7031 -0.7031,2.4531 0,1.4063 0.5625,1.9688 0.5,0.5 0.9844,0.5 0.8438,0 1.2656,-0.4219 0.7813,-0.7813 0.7813,-1.9063 0,-1.75 -0.7813,-2.5312 -0.4844,-0.4844 -1.125,-0.4844 -0.5625,0 -0.9844,0.4219 z m 6.8282,-1.5469 h 6.6718 v 1.5469 l -3.375,10.4687 h -1.5468 l 3.375,-10.6874 h -5.125 z"
         id="path4727"
         inkscape:connector-curvature="0" />
    </g>
    <g
       transform="matrix(0.5,0,0,0.5,470.7,480.99985)"
       style="font-size:18px;font-family:'MS UI Gothic';color-interpolation:linearRGB;fill:#262626;stroke:#262626;color-rendering:optimizeQuality;image-rendering:optimizeQuality;text-rendering:geometricPrecision"
       id="g4733">
      <path
         style="stroke:none"
         d="m -39.3594,-0.4688 q 0,-3.0937 1.4063,-4.5 0.9843,-0.9843 2.4531,-0.9843 1.4844,0 2.4688,0.9843 1.4062,1.4063 1.4062,4.5 v 1.4063 q 0,3.0313 -1.4062,4.4375 -0.9844,0.9844 -2.4688,0.9844 -1.4688,0 -2.4531,-0.9844 -1.4063,-1.4062 -1.4063,-4.4375 z m 2.5938,-3.5781 q -0.9063,0.9063 -0.9063,3.4375 v 1.625 q 0,2.4532 0.9844,3.4375 0.5625,0.5625 1.1875,0.5625 0.7031,0 1.2656,-0.5625 0.9219,-0.9062 0.9219,-3.4375 v -1.625 q 0,-2.5312 -0.9219,-3.4375 -0.5625,-0.5625 -1.2656,-0.5625 -0.7031,0 -1.2656,0.5625 z m 6.8281,8.7813 h 1.6094 v 1.5468 h -1.6094 z m 4.8437,-9.8438 q 0.7813,-0.7656 2.1094,-0.7656 1.2656,0 2.1875,0.9062 1.4688,1.4844 1.4688,5.1407 0,3.7187 -1.5469,5.2656 -0.9844,0.9844 -2.3125,0.9844 -1.3437,0 -2.1094,-0.7657 -0.9219,-0.9218 -0.9219,-2.3906 h 1.625 q -0.0781,0.9063 0.5626,1.5469 0.2812,0.2813 0.8437,0.2813 0.625,0 1.125,-0.5 1.125,-1.125 1.125,-4.1407 -0.2813,0.4219 -0.6406,0.7657 Q -22.3438,2 -23.4688,2 q -1.0624,0 -1.7656,-0.7031 -1.125,-1.125 -1.125,-3.0313 0,-2.1094 1.2656,-3.375 z m 1.125,0.9219 q -0.7031,0.7031 -0.7031,2.4531 0,1.4063 0.5625,1.9688 0.5,0.5 0.9844,0.5 0.8438,0 1.2656,-0.4219 0.7813,-0.7813 0.7813,-1.9063 0,-1.75 -0.7813,-2.5312 -0.4844,-0.4844 -1.125,-0.4844 -0.5625,0 -0.9844,0.4219 z m 6.8282,-1.5469 h 6.6718 v 1.5469 l -3.375,10.4687 h -1.5468 l 3.375,-10.6874 h -5.125 z m 9.5625,0 h 6.0469 v 1.3282 H -6.25 v 0.2187 q -0.0625,1.3281 -0.2031,2.5937 -0.0781,0.2188 -0.0781,0.4219 0.9218,-0.8437 1.9687,-0.8437 1.4063,0 2.3281,0.9218 0.9844,0.9844 0.9844,2.875 0,2.3907 -1.2656,3.6563 -0.9844,0.9844 -2.4688,0.9844 -1.4062,0 -2.3125,-0.9063 -0.9219,-0.9218 -1.125,-2.75 h 1.6094 q 0.1406,1.3438 0.7031,1.9063 0.4219,0.4219 1.0625,0.4219 0.8438,0 1.3281,-0.5 Q -2.9375,3.8281 -2.9375,2 q 0,-1.7656 -0.6406,-2.3906 Q -4,-0.8125 -4.5625,-0.8125 q -0.8437,0 -1.4687,0.625 -0.4219,0.4219 -0.5626,0.6406 H -8 q 0.0625,-0.2812 0.0625,-0.5 l 0.3594,-5.4062 z"
         id="path4731"
         inkscape:connector-curvature="0" />
    </g>
    <g
       transform="matrix(0.5,0,0,0.5,470.7,452.4999)"
       style="font-size:18px;font-family:'MS UI Gothic';color-interpolation:linearRGB;fill:#262626;stroke:#262626;color-rendering:optimizeQuality;image-rendering:optimizeQuality;text-rendering:geometricPrecision"
       id="g4737">
      <path
         style="stroke:none"
         d="m -30.3594,-0.4688 q 0,-3.0937 1.4063,-4.5 0.9843,-0.9843 2.4531,-0.9843 1.4844,0 2.4688,0.9843 1.4062,1.4063 1.4062,4.5 v 1.4063 q 0,3.0313 -1.4062,4.4375 -0.9844,0.9844 -2.4688,0.9844 -1.4688,0 -2.4531,-0.9844 -1.4063,-1.4062 -1.4063,-4.4375 z m 2.5938,-3.5781 q -0.9063,0.9063 -0.9063,3.4375 v 1.625 q 0,2.4532 0.9844,3.4375 0.5625,0.5625 1.1875,0.5625 0.7031,0 1.2656,-0.5625 0.9219,-0.9062 0.9219,-3.4375 v -1.625 q 0,-2.5312 -0.9219,-3.4375 -0.5625,-0.5625 -1.2656,-0.5625 -0.7031,0 -1.2656,0.5625 z m 6.8281,8.7813 h 1.6094 v 1.5468 h -1.6094 z m 4.8437,-9.8438 q 0.7813,-0.7656 2.1094,-0.7656 1.2656,0 2.1875,0.9062 1.4688,1.4844 1.4688,5.1407 0,3.7187 -1.5469,5.2656 -0.9844,0.9844 -2.3125,0.9844 -1.3437,0 -2.1094,-0.7657 -0.9219,-0.9218 -0.9219,-2.3906 h 1.625 q -0.0781,0.9063 0.5626,1.5469 0.2812,0.2813 0.8437,0.2813 0.625,0 1.125,-0.5 1.125,-1.125 1.125,-4.1407 -0.2813,0.4219 -0.6406,0.7657 Q -13.3438,2 -14.4688,2 q -1.0624,0 -1.7656,-0.7031 -1.125,-1.125 -1.125,-3.0313 0,-2.1094 1.2656,-3.375 z m 1.125,0.9219 q -0.7031,0.7031 -0.7031,2.4531 0,1.4063 0.5625,1.9688 0.5,0.5 0.9844,0.5 0.8438,0 1.2656,-0.4219 0.7813,-0.7813 0.7813,-1.9063 0,-1.75 -0.7813,-2.5312 -0.4844,-0.4844 -1.125,-0.4844 -0.5625,0 -0.9844,0.4219 z m 7.8126,-0.8437 q 0.8437,-0.8438 2.3124,-0.8438 1.4844,0 2.3907,0.9062 0.9219,0.9219 0.9219,2.4688 0,1.1875 -0.8438,2.0312 -0.3594,0.3594 -0.8438,0.5 v 0.1407 q 0.625,0.1406 1.1876,0.7031 0.8437,0.8438 0.8437,2.25 0,1.4062 -0.9844,2.3906 -0.9062,0.9063 -2.6719,0.9063 -1.75,0 -2.6718,-0.9063 Q -8.5,4.5312 -8.5,3.125 q 0,-1.4062 0.8438,-2.25 0.5624,-0.5625 1.2031,-0.7031 V 0.0312 Q -6.875,-0.1094 -7.375,-0.6094 -8.1406,-1.375 -8.1406,-2.5 q 0,-1.5469 0.9844,-2.5312 z m 1.125,0.9062 q -0.5626,0.5625 -0.5626,1.625 0,0.9844 0.5626,1.5469 0.4843,0.4843 1.125,0.4843 0.8437,0 1.2656,-0.4218 0.5625,-0.5625 0.5625,-1.6094 0,-1.0625 -0.5625,-1.625 -0.5,-0.4844 -1.2032,-0.4844 -0.7031,0 -1.1874,0.4844 z m -0.2813,5.4219 q -0.5625,0.5625 -0.5625,1.6093 0,1.0626 0.625,1.6876 0.5625,0.5624 1.4062,0.5624 0.8438,0 1.4063,-0.5624 0.6406,-0.625 0.6406,-1.6876 0,-1.0468 -0.6406,-1.6874 -0.4844,-0.4844 -1.4063,-0.4844 -0.9062,0 -1.4687,0.5625 z"
         id="path4735"
         inkscape:connector-curvature="0" />
    </g>
    <g
       transform="matrix(0.5,0,0,0.5,470.7,423.9999)"
       style="font-size:18px;font-family:'MS UI Gothic';color-interpolation:linearRGB;fill:#262626;stroke:#262626;color-rendering:optimizeQuality;image-rendering:optimizeQuality;text-rendering:geometricPrecision"
       id="g4741">
      <path
         style="stroke:none"
         d="m -39.3594,-0.4688 q 0,-3.0937 1.4063,-4.5 0.9843,-0.9843 2.4531,-0.9843 1.4844,0 2.4688,0.9843 1.4062,1.4063 1.4062,4.5 v 1.4063 q 0,3.0313 -1.4062,4.4375 -0.9844,0.9844 -2.4688,0.9844 -1.4688,0 -2.4531,-0.9844 -1.4063,-1.4062 -1.4063,-4.4375 z m 2.5938,-3.5781 q -0.9063,0.9063 -0.9063,3.4375 v 1.625 q 0,2.4532 0.9844,3.4375 0.5625,0.5625 1.1875,0.5625 0.7031,0 1.2656,-0.5625 0.9219,-0.9062 0.9219,-3.4375 v -1.625 q 0,-2.5312 -0.9219,-3.4375 -0.5625,-0.5625 -1.2656,-0.5625 -0.7031,0 -1.2656,0.5625 z m 6.8281,8.7813 h 1.6094 v 1.5468 h -1.6094 z m 4.8437,-9.8438 q 0.7813,-0.7656 2.1094,-0.7656 1.2656,0 2.1875,0.9062 1.4688,1.4844 1.4688,5.1407 0,3.7187 -1.5469,5.2656 -0.9844,0.9844 -2.3125,0.9844 -1.3437,0 -2.1094,-0.7657 -0.9219,-0.9218 -0.9219,-2.3906 h 1.625 q -0.0781,0.9063 0.5626,1.5469 0.2812,0.2813 0.8437,0.2813 0.625,0 1.125,-0.5 1.125,-1.125 1.125,-4.1407 -0.2813,0.4219 -0.6406,0.7657 Q -22.3438,2 -23.4688,2 q -1.0624,0 -1.7656,-0.7031 -1.125,-1.125 -1.125,-3.0313 0,-2.1094 1.2656,-3.375 z m 1.125,0.9219 q -0.7031,0.7031 -0.7031,2.4531 0,1.4063 0.5625,1.9688 0.5,0.5 0.9844,0.5 0.8438,0 1.2656,-0.4219 0.7813,-0.7813 0.7813,-1.9063 0,-1.75 -0.7813,-2.5312 -0.4844,-0.4844 -1.125,-0.4844 -0.5625,0 -0.9844,0.4219 z m 7.8126,-0.8437 q 0.8437,-0.8438 2.3124,-0.8438 1.4844,0 2.3907,0.9062 0.9219,0.9219 0.9219,2.4688 0,1.1875 -0.8438,2.0312 -0.3594,0.3594 -0.8438,0.5 v 0.1407 q 0.625,0.1406 1.1876,0.7031 0.8437,0.8438 0.8437,2.25 0,1.4062 -0.9844,2.3906 -0.9062,0.9063 -2.6719,0.9063 -1.75,0 -2.6718,-0.9063 Q -17.5,4.5312 -17.5,3.125 q 0,-1.4062 0.8438,-2.25 0.5624,-0.5625 1.2031,-0.7031 V 0.0312 q -0.4219,-0.1406 -0.9219,-0.6406 -0.7656,-0.7656 -0.7656,-1.8906 0,-1.5469 0.9844,-2.5312 z m 1.125,0.9062 q -0.5626,0.5625 -0.5626,1.625 0,0.9844 0.5626,1.5469 0.4843,0.4843 1.125,0.4843 0.8437,0 1.2656,-0.4218 0.5625,-0.5625 0.5625,-1.6094 0,-1.0625 -0.5625,-1.625 -0.5,-0.4844 -1.2032,-0.4844 -0.7031,0 -1.1874,0.4844 z m -0.2813,5.4219 q -0.5625,0.5625 -0.5625,1.6093 0,1.0626 0.625,1.6876 0.5625,0.5624 1.4062,0.5624 0.8438,0 1.4063,-0.5624 0.6406,-0.625 0.6406,-1.6876 0,-1.0468 -0.6406,-1.6874 -0.4844,-0.4844 -1.4063,-0.4844 -0.9062,0 -1.4687,0.5625 z m 7.7344,-7.0313 h 6.0469 v 1.3282 H -6.25 v 0.2187 q -0.0625,1.3281 -0.2031,2.5937 -0.0781,0.2188 -0.0781,0.4219 0.9218,-0.8437 1.9687,-0.8437 1.4063,0 2.3281,0.9218 0.9844,0.9844 0.9844,2.875 0,2.3907 -1.2656,3.6563 -0.9844,0.9844 -2.4688,0.9844 -1.4062,0 -2.3125,-0.9063 -0.9219,-0.9218 -1.125,-2.75 h 1.6094 q 0.1406,1.3438 0.7031,1.9063 0.4219,0.4219 1.0625,0.4219 0.8438,0 1.3281,-0.5 Q -2.9375,3.8281 -2.9375,2 q 0,-1.7656 -0.6406,-2.3906 Q -4,-0.8125 -4.5625,-0.8125 q -0.8437,0 -1.4687,0.625 -0.4219,0.4219 -0.5626,0.6406 H -8 q 0.0625,-0.2812 0.0625,-0.5 l 0.3594,-5.4062 z"
         id="path4739"
         inkscape:connector-curvature="0" />
    </g>
    <g
       transform="matrix(0.5,0,0,0.5,470.7,395.49995)"
       style="font-size:18px;font-family:'MS UI Gothic';color-interpolation:linearRGB;fill:#262626;stroke:#262626;color-rendering:optimizeQuality;image-rendering:optimizeQuality;text-rendering:geometricPrecision"
       id="g4745">
      <path
         style="stroke:none"
         d="m -30.3594,-0.4688 q 0,-3.0937 1.4063,-4.5 0.9843,-0.9843 2.4531,-0.9843 1.4844,0 2.4688,0.9843 1.4062,1.4063 1.4062,4.5 v 1.4063 q 0,3.0313 -1.4062,4.4375 -0.9844,0.9844 -2.4688,0.9844 -1.4688,0 -2.4531,-0.9844 -1.4063,-1.4062 -1.4063,-4.4375 z m 2.5938,-3.5781 q -0.9063,0.9063 -0.9063,3.4375 v 1.625 q 0,2.4532 0.9844,3.4375 0.5625,0.5625 1.1875,0.5625 0.7031,0 1.2656,-0.5625 0.9219,-0.9062 0.9219,-3.4375 v -1.625 q 0,-2.5312 -0.9219,-3.4375 -0.5625,-0.5625 -1.2656,-0.5625 -0.7031,0 -1.2656,0.5625 z m 6.8281,8.7813 h 1.6094 v 1.5468 h -1.6094 z m 4.8437,-9.8438 q 0.7813,-0.7656 2.1094,-0.7656 1.2656,0 2.1875,0.9062 1.4688,1.4844 1.4688,5.1407 0,3.7187 -1.5469,5.2656 -0.9844,0.9844 -2.3125,0.9844 -1.3437,0 -2.1094,-0.7657 -0.9219,-0.9218 -0.9219,-2.3906 h 1.625 q -0.0781,0.9063 0.5626,1.5469 0.2812,0.2813 0.8437,0.2813 0.625,0 1.125,-0.5 1.125,-1.125 1.125,-4.1407 -0.2813,0.4219 -0.6406,0.7657 Q -13.3438,2 -14.4688,2 q -1.0624,0 -1.7656,-0.7031 -1.125,-1.125 -1.125,-3.0313 0,-2.1094 1.2656,-3.375 z m 1.125,0.9219 q -0.7031,0.7031 -0.7031,2.4531 0,1.4063 0.5625,1.9688 0.5,0.5 0.9844,0.5 0.8438,0 1.2656,-0.4219 0.7813,-0.7813 0.7813,-1.9063 0,-1.75 -0.7813,-2.5312 -0.4844,-0.4844 -1.125,-0.4844 -0.5625,0 -0.9844,0.4219 z m 7.875,-0.9219 q 0.7813,-0.7656 2.1094,-0.7656 1.2656,0 2.1875,0.9062 1.4688,1.4844 1.4688,5.1407 0,3.7187 -1.5469,5.2656 -0.9844,0.9844 -2.3125,0.9844 -1.3437,0 -2.1094,-0.7657 -0.9219,-0.9218 -0.9219,-2.3906 h 1.625 q -0.0781,0.9063 0.5626,1.5469 0.2812,0.2813 0.8437,0.2813 0.625,0 1.125,-0.5 1.125,-1.125 1.125,-4.1407 Q -3.2188,0.875 -3.5781,1.2188 -4.3438,2 -5.4688,2 -6.5312,2 -7.2344,1.2969 q -1.125,-1.125 -1.125,-3.0313 0,-2.1094 1.2656,-3.375 z m 1.125,0.9219 q -0.7031,0.7031 -0.7031,2.4531 0,1.4063 0.5625,1.9688 0.5,0.5 0.9844,0.5 0.8438,0 1.2656,-0.4219 0.7813,-0.7813 0.7813,-1.9063 0,-1.75 -0.7813,-2.5312 -0.4844,-0.4844 -1.125,-0.4844 -0.5625,0 -0.9844,0.4219 z"
         id="path4743"
         inkscape:connector-curvature="0" />
    </g>
    <g
       transform="matrix(0.5,0,0,0.5,470.7,366.99995)"
       style="font-size:18px;font-family:'MS UI Gothic';color-interpolation:linearRGB;fill:#262626;stroke:#262626;color-rendering:optimizeQuality;image-rendering:optimizeQuality;text-rendering:geometricPrecision"
       id="g4749">
      <path
         style="stroke:none"
         d="m -39.3594,-0.4688 q 0,-3.0937 1.4063,-4.5 0.9843,-0.9843 2.4531,-0.9843 1.4844,0 2.4688,0.9843 1.4062,1.4063 1.4062,4.5 v 1.4063 q 0,3.0313 -1.4062,4.4375 -0.9844,0.9844 -2.4688,0.9844 -1.4688,0 -2.4531,-0.9844 -1.4063,-1.4062 -1.4063,-4.4375 z m 2.5938,-3.5781 q -0.9063,0.9063 -0.9063,3.4375 v 1.625 q 0,2.4532 0.9844,3.4375 0.5625,0.5625 1.1875,0.5625 0.7031,0 1.2656,-0.5625 0.9219,-0.9062 0.9219,-3.4375 v -1.625 q 0,-2.5312 -0.9219,-3.4375 -0.5625,-0.5625 -1.2656,-0.5625 -0.7031,0 -1.2656,0.5625 z m 6.8281,8.7813 h 1.6094 v 1.5468 h -1.6094 z m 4.8437,-9.8438 q 0.7813,-0.7656 2.1094,-0.7656 1.2656,0 2.1875,0.9062 1.4688,1.4844 1.4688,5.1407 0,3.7187 -1.5469,5.2656 -0.9844,0.9844 -2.3125,0.9844 -1.3437,0 -2.1094,-0.7657 -0.9219,-0.9218 -0.9219,-2.3906 h 1.625 q -0.0781,0.9063 0.5626,1.5469 0.2812,0.2813 0.8437,0.2813 0.625,0 1.125,-0.5 1.125,-1.125 1.125,-4.1407 -0.2813,0.4219 -0.6406,0.7657 Q -22.3438,2 -23.4688,2 q -1.0624,0 -1.7656,-0.7031 -1.125,-1.125 -1.125,-3.0313 0,-2.1094 1.2656,-3.375 z m 1.125,0.9219 q -0.7031,0.7031 -0.7031,2.4531 0,1.4063 0.5625,1.9688 0.5,0.5 0.9844,0.5 0.8438,0 1.2656,-0.4219 0.7813,-0.7813 0.7813,-1.9063 0,-1.75 -0.7813,-2.5312 -0.4844,-0.4844 -1.125,-0.4844 -0.5625,0 -0.9844,0.4219 z m 7.875,-0.9219 q 0.7813,-0.7656 2.1094,-0.7656 1.2656,0 2.1875,0.9062 1.4688,1.4844 1.4688,5.1407 0,3.7187 -1.5469,5.2656 -0.9844,0.9844 -2.3125,0.9844 -1.3437,0 -2.1094,-0.7657 -0.9219,-0.9218 -0.9219,-2.3906 h 1.625 q -0.0781,0.9063 0.5626,1.5469 0.2812,0.2813 0.8437,0.2813 0.625,0 1.125,-0.5 1.125,-1.125 1.125,-4.1407 -0.2813,0.4219 -0.6406,0.7657 Q -13.3438,2 -14.4688,2 q -1.0624,0 -1.7656,-0.7031 -1.125,-1.125 -1.125,-3.0313 0,-2.1094 1.2656,-3.375 z m 1.125,0.9219 q -0.7031,0.7031 -0.7031,2.4531 0,1.4063 0.5625,1.9688 0.5,0.5 0.9844,0.5 0.8438,0 1.2656,-0.4219 0.7813,-0.7813 0.7813,-1.9063 0,-1.75 -0.7813,-2.5312 -0.4844,-0.4844 -1.125,-0.4844 -0.5625,0 -0.9844,0.4219 z m 7.3907,-1.5469 h 6.0469 v 1.3282 H -6.25 v 0.2187 q -0.0625,1.3281 -0.2031,2.5937 -0.0781,0.2188 -0.0781,0.4219 0.9218,-0.8437 1.9687,-0.8437 1.4063,0 2.3281,0.9218 0.9844,0.9844 0.9844,2.875 0,2.3907 -1.2656,3.6563 -0.9844,0.9844 -2.4688,0.9844 -1.4062,0 -2.3125,-0.9063 -0.9219,-0.9218 -1.125,-2.75 h 1.6094 q 0.1406,1.3438 0.7031,1.9063 0.4219,0.4219 1.0625,0.4219 0.8438,0 1.3281,-0.5 Q -2.9375,3.8281 -2.9375,2 q 0,-1.7656 -0.6406,-2.3906 Q -4,-0.8125 -4.5625,-0.8125 q -0.8437,0 -1.4687,0.625 -0.4219,0.4219 -0.5626,0.6406 H -8 q 0.0625,-0.2812 0.0625,-0.5 l 0.3594,-5.4062 z"
         id="path4747"
         inkscape:connector-curvature="0" />
    </g>
    <g
       transform="matrix(0.5,0,0,0.5,470.7,338.5)"
       style="font-size:18px;font-family:'MS UI Gothic';color-interpolation:linearRGB;fill:#262626;stroke:#262626;color-rendering:optimizeQuality;image-rendering:optimizeQuality;text-rendering:geometricPrecision"
       id="g4753">
      <path
         style="stroke:none"
         d="M -4.2188,-5.9531 H -3.375 V 6.2188 h -1.6094 v -9.3594 h -2.1094 v -0.8438 h 0.625 q 0.9844,0 1.5469,-0.5625 0.6407,-0.625 0.7031,-1.4062 z"
         id="path4751"
         inkscape:connector-curvature="0" />
    </g>
    <g
       style="color-interpolation:linearRGB;fill:#ff0000;stroke:#ff0000;stroke-linecap:butt;stroke-linejoin:round;color-rendering:optimizeQuality;image-rendering:optimizeQuality;text-rendering:geometricPrecision"
       id="g4779"
       transform="matrix(0.5,0,0,0.5,420,315)">
      <path
         d="M 109,503.2027 271.75,397.0442 434.5,313.4713 597.25,263.6278 760,231.4586"
         style="fill:none;fill-rule:evenodd"
         id="path4755"
         inkscape:connector-curvature="0" />
      <path
         d="M 0,-6 V 6 M -6,0 H 6 M -4.2426,-4.2426 4.2426,4.2426 m -8.4852,0 8.4852,-8.4852"
         style="fill:none;stroke-linejoin:miter"
         transform="translate(109,503.2027)"
         id="path4757"
         inkscape:connector-curvature="0" />
      <path
         d="M 0,-6 V 6 M -6,0 H 6 M -4.2426,-4.2426 4.2426,4.2426 m -8.4852,0 8.4852,-8.4852"
         style="fill:none;stroke-linejoin:miter"
         transform="translate(271.75,397.0442)"
         id="path4759"
         inkscape:connector-curvature="0" />
      <path
         d="M 0,-6 V 6 M -6,0 H 6 M -4.2426,-4.2426 4.2426,4.2426 m -8.4852,0 8.4852,-8.4852"
         style="fill:none;stroke-linejoin:miter"
         transform="translate(434.5,313.4713)"
         id="path4761"
         inkscape:connector-curvature="0" />
      <path
         d="M 0,-6 V 6 M -6,0 H 6 M -4.2426,-4.2426 4.2426,4.2426 m -8.4852,0 8.4852,-8.4852"
         style="fill:none;stroke-linejoin:miter"
         transform="translate(597.25,263.6278)"
         id="path4763"
         inkscape:connector-curvature="0" />
      <path
         d="M 0,-6 V 6 M -6,0 H 6 M -4.2426,-4.2426 4.2426,4.2426 m -8.4852,0 8.4852,-8.4852"
         style="fill:none;stroke-linejoin:miter"
         transform="translate(760,231.4586)"
         id="path4765"
         inkscape:connector-curvature="0" />
      <path
         d="M 109,47 271.75,145.7031 434.5,139.3057 597.25,130.2888 760,123.4137"
         style="fill:none;fill-rule:evenodd;stroke:#0000ff"
         id="path4767"
         inkscape:connector-curvature="0" />
      <path
         d="M 0,-6 V 6 M -6,0 H 6 M -4.2426,-4.2426 4.2426,4.2426 m -8.4852,0 8.4852,-8.4852"
         style="fill:none;stroke:#0000ff;stroke-linejoin:miter"
         transform="translate(109,47)"
         id="path4769"
         inkscape:connector-curvature="0" />
      <path
         d="M 0,-6 V 6 M -6,0 H 6 M -4.2426,-4.2426 4.2426,4.2426 m -8.4852,0 8.4852,-8.4852"
         style="fill:none;stroke:#0000ff;stroke-linejoin:miter"
         transform="translate(271.75,145.7031)"
         id="path4771"
         inkscape:connector-curvature="0" />
      <path
         d="M 0,-6 V 6 M -6,0 H 6 M -4.2426,-4.2426 4.2426,4.2426 m -8.4852,0 8.4852,-8.4852"
         style="fill:none;stroke:#0000ff;stroke-linejoin:miter"
         transform="translate(434.5,139.3057)"
         id="path4773"
         inkscape:connector-curvature="0" />
      <path
         d="M 0,-6 V 6 M -6,0 H 6 M -4.2426,-4.2426 4.2426,4.2426 m -8.4852,0 8.4852,-8.4852"
         style="fill:none;stroke:#0000ff;stroke-linejoin:miter"
         transform="translate(597.25,130.2888)"
         id="path4775"
         inkscape:connector-curvature="0" />
      <path
         d="M 0,-6 V 6 M -6,0 H 6 M -4.2426,-4.2426 4.2426,4.2426 m -8.4852,0 8.4852,-8.4852"
         style="fill:none;stroke:#0000ff;stroke-linejoin:miter"
         transform="translate(760,123.4137)"
         id="path4777"
         inkscape:connector-curvature="0" />
    </g>
    <g
       transform="matrix(0.5,0,0,0.5,428,307)"
       style="font-style:normal;font-weight:normal;font-size:12px;font-family:Dialog;color-interpolation:sRGB;fill:#ffffff;fill-opacity:1;stroke:#ffffff;stroke-width:1;stroke-linecap:square;stroke-linejoin:miter;stroke-miterlimit:10;stroke-dasharray:none;stroke-dashoffset:0;stroke-opacity:1;color-rendering:optimizeSpeed;image-rendering:optimizeSpeed;shape-rendering:crispEdges;text-rendering:optimizeSpeed"
       id="g4215">
      <path
         inkscape:connector-curvature="0"
         style="stroke:none"
         d="M 744,114 V 63 H 608 v 51 z"
         id="path4213" />
    </g>
    <g
       style="font-style:normal;font-weight:normal;font-size:12px;font-family:Dialog;color-interpolation:linearRGB;fill:#ff0000;fill-opacity:1;stroke:#ff0000;stroke-width:1;stroke-linecap:butt;stroke-linejoin:round;stroke-miterlimit:10;stroke-dasharray:none;stroke-dashoffset:0;stroke-opacity:1;color-rendering:optimizeQuality;image-rendering:optimizeQuality;shape-rendering:auto;text-rendering:geometricPrecision"
       id="g4229"
       transform="matrix(0.5,0,0,0.5,428.38275,302.0243)">
      <line
         y2="77.571404"
         style="fill:none"
         x1="613.97803"
         x2="673.75818"
         y1="77.571404"
         id="line4225" />
      <path
         d="M 0,-6 V 6 M -6,0 H 6 M -4.2426,-4.2426 4.2426,4.2426 m -8.4852,0 8.4852,-8.4852"
         style="fill:none;stroke-linejoin:miter"
         transform="translate(643.8681,77.5714)"
         id="path4227"
         inkscape:connector-curvature="0" />
    </g>
    <g
       transform="matrix(0.5,0,0,0.5,428,307)"
       style="font-style:normal;font-weight:normal;font-size:12px;font-family:Dialog;color-interpolation:linearRGB;fill:#0000ff;fill-opacity:1;stroke:#0000ff;stroke-width:1;stroke-linecap:butt;stroke-linejoin:round;stroke-miterlimit:10;stroke-dasharray:none;stroke-dashoffset:0;stroke-opacity:1;color-rendering:optimizeQuality;image-rendering:optimizeQuality;shape-rendering:auto;text-rendering:geometricPrecision"
       id="g4249">
      <line
         y2="100.4335"
         style="fill:none"
         x1="613.97803"
         x2="673.75818"
         y1="100.4335"
         id="line4243" />
      <path
         inkscape:connector-curvature="0"
         d="M 0,-6 V 6 M -6,0 H 6 M -4.2426,-4.2426 4.2426,4.2426 m -8.4852,0 8.4852,-8.4852"
         style="fill:none;stroke-linejoin:miter"
         transform="translate(643.8681,100.4335)"
         id="path4245" />
      <path
         d="M 608,114 V 47 h 152 v 67 z"
         style="fill:none;fill-rule:evenodd;stroke:#262626;stroke-width:1.21172667;stroke-linejoin:miter"
         id="path4247"
         inkscape:connector-curvature="0" />
    </g>
    <text
       xml:space="preserve"
       style="font-style:normal;font-variant:normal;font-weight:normal;font-stretch:normal;font-size:20px;line-height:12.5px;font-family:'Times New Roman';-inkscape-font-specification:'Times New Roman, ';letter-spacing:0px;word-spacing:0px;color-interpolation:auto;fill:#000000;fill-opacity:1;stroke:none;stroke-width:0.5;stroke-linecap:square;stroke-linejoin:miter;stroke-miterlimit:10;stroke-dasharray:none;stroke-dashoffset:0;stroke-opacity:1;color-rendering:auto;image-rendering:auto;shape-rendering:auto;text-rendering:auto"
       x="770.94043"
       y="345.65735"
       id="text4261"
       inkscape:transform-center-x="0.38274605"
       inkscape:transform-center-y="3.4447163"><tspan
         sodipodi:role="line"
         id="tspan4259"
         x="770.94043"
         y="345.65735"
         style="stroke-width:0.5">r*</tspan></text>
    <text
       xml:space="preserve"
       style="font-style:normal;font-variant:normal;font-weight:normal;font-stretch:normal;font-size:20px;line-height:12.5px;font-family:'Times New Roman';-inkscape-font-specification:'Times New Roman, ';letter-spacing:0px;word-spacing:0px;color-interpolation:auto;fill:#000000;fill-opacity:1;stroke:none;stroke-width:0.5;stroke-linecap:square;stroke-linejoin:miter;stroke-miterlimit:10;stroke-dasharray:none;stroke-dashoffset:0;stroke-opacity:1;color-rendering:auto;image-rendering:auto;shape-rendering:auto;text-rendering:auto"
       x="770.94043"
       y="359.81894"
       id="text4265"><tspan
         sodipodi:role="line"
         id="tspan4263"
         x="770.94043"
         y="359.81894"
         style="stroke-width:0.5">r</tspan></text>
    <path
       style="font-style:normal;font-weight:normal;font-size:12px;font-family:Dialog;color-interpolation:auto;fill:none;fill-opacity:1;stroke:#000000;stroke-width:0.74999994;stroke-linecap:butt;stroke-linejoin:miter;stroke-miterlimit:10;stroke-dasharray:none;stroke-dashoffset:0;stroke-opacity:1;color-rendering:auto;image-rendering:auto;shape-rendering:auto;text-rendering:auto"
       d="m 770.55771,348.71932 h 7.27218"
       id="path4388"
       inkscape:connector-curvature="0" />
    <text
       xml:space="preserve"
       style="font-style:normal;font-variant:normal;font-weight:normal;font-stretch:normal;font-size:20px;line-height:12.5px;font-family:'Times New Roman';-inkscape-font-specification:'Times New Roman, ';letter-spacing:0px;word-spacing:0px;fill:#000000;fill-opacity:1;stroke:none;stroke-width:0.5"
       x="632.35675"
       y="624.33716"
       id="text5426"><tspan
         sodipodi:role="line"
         id="tspan5424"
         x="632.35675"
         y="624.33716"
         style="font-style:italic;font-variant:normal;font-weight:normal;font-stretch:normal;font-family:'Times New Roman';-inkscape-font-specification:'Times New Roman,  Italic';stroke-width:0.5">n</tspan></text>
    <text
       xml:space="preserve"
       style="font-style:normal;font-variant:normal;font-weight:normal;font-stretch:normal;font-size:20px;line-height:12.5px;font-family:'Times New Roman';-inkscape-font-specification:'Times New Roman, ';letter-spacing:0px;word-spacing:0px;color-interpolation:auto;fill:#000000;fill-opacity:1;stroke:none;stroke-width:0.5;stroke-linecap:square;stroke-linejoin:miter;stroke-miterlimit:10;stroke-dasharray:none;stroke-dashoffset:0;stroke-opacity:1;color-rendering:auto;image-rendering:auto;shape-rendering:auto;text-rendering:auto"
       x="455.66431"
       y="607.4267"
       id="text4269-8"><tspan
         sodipodi:role="line"
         id="tspan4267-1"
         x="455.66431"
         y="607.4267"
         style="font-size:9.33333302px;stroke-width:0.5">ExHam(4,3)</tspan></text>
    <text
       xml:space="preserve"
       style="font-style:normal;font-variant:normal;font-weight:normal;font-stretch:normal;font-size:20px;line-height:12.5px;font-family:'Times New Roman';-inkscape-font-specification:'Times New Roman, ';letter-spacing:0px;word-spacing:0px;color-interpolation:auto;fill:#000000;fill-opacity:1;stroke:none;stroke-width:0.5;stroke-linecap:square;stroke-linejoin:miter;stroke-miterlimit:10;stroke-dasharray:none;stroke-dashoffset:0;stroke-opacity:1;color-rendering:auto;image-rendering:auto;shape-rendering:auto;text-rendering:auto"
       x="541.98206"
       y="606.88202"
       id="text4269-8-3"><tspan
         sodipodi:role="line"
         id="tspan4267-1-5"
         x="541.98206"
         y="606.88202"
         style="font-size:9.33333302px;stroke-width:0.5">Lin(8,6)</tspan></text>
    <text
       xml:space="preserve"
       style="font-style:normal;font-variant:normal;font-weight:normal;font-stretch:normal;font-size:20px;line-height:12.5px;font-family:'Times New Roman';-inkscape-font-specification:'Times New Roman, ';letter-spacing:0px;word-spacing:0px;color-interpolation:auto;fill:#000000;fill-opacity:1;stroke:none;stroke-width:0.5;stroke-linecap:square;stroke-linejoin:miter;stroke-miterlimit:10;stroke-dasharray:none;stroke-dashoffset:0;stroke-opacity:1;color-rendering:auto;image-rendering:auto;shape-rendering:auto;text-rendering:auto"
       x="620.06464"
       y="606.88202"
       id="text4269-8-7"><tspan
         sodipodi:role="line"
         id="tspan4267-1-0"
         x="620.06464"
         y="606.88202"
         style="font-size:9.33333302px;stroke-width:0.5">Lin(12,9)</tspan></text>
    <text
       xml:space="preserve"
       style="font-style:normal;font-variant:normal;font-weight:normal;font-stretch:normal;font-size:20px;line-height:12.5px;font-family:'Times New Roman';-inkscape-font-specification:'Times New Roman, ';letter-spacing:0px;word-spacing:0px;color-interpolation:auto;fill:#000000;fill-opacity:1;stroke:none;stroke-width:0.5;stroke-linecap:square;stroke-linejoin:miter;stroke-miterlimit:10;stroke-dasharray:none;stroke-dashoffset:0;stroke-opacity:1;color-rendering:auto;image-rendering:auto;shape-rendering:auto;text-rendering:auto"
       x="700.81677"
       y="606.88202"
       id="text4269-8-5"><tspan
         sodipodi:role="line"
         id="tspan4267-1-7"
         x="700.81677"
         y="606.88202"
         style="font-size:9.33333302px;stroke-width:0.5">Lin(16,12)</tspan></text>
    <text
       xml:space="preserve"
       style="font-style:normal;font-variant:normal;font-weight:normal;font-stretch:normal;font-size:20px;line-height:12.5px;font-family:'Times New Roman';-inkscape-font-specification:'Times New Roman, ';letter-spacing:0px;word-spacing:0px;color-interpolation:auto;fill:#000000;fill-opacity:1;stroke:none;stroke-width:0.5;stroke-linecap:square;stroke-linejoin:miter;stroke-miterlimit:10;stroke-dasharray:none;stroke-dashoffset:0;stroke-opacity:1;color-rendering:auto;image-rendering:auto;shape-rendering:auto;text-rendering:auto"
       x="781.90259"
       y="606.88202"
       id="text4269-8-0"><tspan
         sodipodi:role="line"
         id="tspan4267-1-3"
         x="781.90259"
         y="606.88202"
         style="font-size:9.33333302px;stroke-width:0.5">Lin(20,15)</tspan></text>
  </g>
</svg>
