<?xml version="1.0" encoding="UTF-8" standalone="no"?>
<svg
   xmlns:dc="http://purl.org/dc/elements/1.1/"
   xmlns:cc="http://creativecommons.org/ns#"
   xmlns:rdf="http://www.w3.org/1999/02/22-rdf-syntax-ns#"
   xmlns:svg="http://www.w3.org/2000/svg"
   xmlns="http://www.w3.org/2000/svg"
   xmlns:sodipodi="http://sodipodi.sourceforge.net/DTD/sodipodi-0.dtd"
   xmlns:inkscape="http://www.inkscape.org/namespaces/inkscape"
   style="font-style:normal;font-weight:normal;font-size:12px;font-family:Dialog;color-interpolation:auto;fill:#000000;fill-opacity:1;stroke:#000000;stroke-width:1;stroke-linecap:square;stroke-linejoin:miter;stroke-miterlimit:10;stroke-dasharray:none;stroke-dashoffset:0;stroke-opacity:1;color-rendering:auto;image-rendering:auto;shape-rendering:auto;text-rendering:auto"
   width="420"
   height="315"
   version="1.1"
   id="svg4253"
   sodipodi:docname="grafHarfRate0115.svg"
   inkscape:version="0.92.4 (5da689c313, 2019-01-14)">
  <metadata
     id="metadata4257">
    <rdf:RDF>
      <cc:Work
         rdf:about="">
        <dc:format>image/svg+xml</dc:format>
        <dc:type
           rdf:resource="http://purl.org/dc/dcmitype/StillImage" />
        <dc:title />
      </cc:Work>
    </rdf:RDF>
  </metadata>
  <sodipodi:namedview
     pagecolor="#ffffff"
     bordercolor="#666666"
     borderopacity="1"
     objecttolerance="10"
     gridtolerance="10"
     guidetolerance="10"
     inkscape:pageopacity="0"
     inkscape:pageshadow="2"
     inkscape:window-width="1920"
     inkscape:window-height="1018"
     id="namedview4255"
     showgrid="false"
     inkscape:zoom="2.6126984"
     inkscape:cx="196.86676"
     inkscape:cy="145.36363"
     inkscape:window-x="-8"
     inkscape:window-y="-8"
     inkscape:window-maximized="1"
     inkscape:current-layer="g4251"
     showguides="true"
     inkscape:guide-bbox="true"
     fit-margin-top="0"
     fit-margin-left="0"
     fit-margin-right="0"
     fit-margin-bottom="0">
    <sodipodi:guide
       position="133.19563,38.657351"
       orientation="0,1"
       id="guide1263"
       inkscape:locked="false" />
  </sodipodi:namedview>
  <!--Generated by the Batik Graphics2D SVG Generator-->
  <defs
     id="genericDefs">
    <marker
       inkscape:stockid="Arrow1Lend"
       orient="auto"
       refY="0.0"
       refX="0.0"
       id="Arrow1Lend"
       style="overflow:visible;"
       inkscape:isstock="true">
      <path
         id="path922"
         d="M 0.0,0.0 L 5.0,-5.0 L -12.5,0.0 L 5.0,5.0 L 0.0,0.0 z "
         style="fill-rule:evenodd;stroke:#262626;stroke-width:1pt;stroke-opacity:1;fill:#262626;fill-opacity:1"
         transform="scale(0.8) rotate(180) translate(12.5,0)" />
    </marker>
  </defs>
  <g
     id="g4251"
     transform="translate(0,-315)">
    <defs
       id="defs1">
      <clipPath
         clipPathUnits="userSpaceOnUse"
         id="clipPath1">
        <path
           d="M 0,0 H 840 V 630 H 0 Z"
           id="path4053"
           inkscape:connector-curvature="0" />
      </clipPath>
    </defs>
    <g
       style="fill:#ffffff;stroke:#ffffff"
       id="g4059"
       transform="matrix(0.5,0,0,0.5,0,315)">
      <rect
         x="0"
         y="0"
         width="840"
         style="stroke:none"
         height="630"
         clip-path="url(#clipPath1)"
         id="rect4057" />
    </g>
    <g
       style="color-interpolation:sRGB;fill:#ffffff;stroke:#ffffff;color-rendering:optimizeSpeed;image-rendering:optimizeSpeed;shape-rendering:crispEdges;text-rendering:optimizeSpeed"
       id="g4065"
       transform="matrix(0.5,0,0,0.5,0,315)">
      <rect
         x="0"
         width="840"
         height="630"
         y="0"
         style="stroke:none"
         id="rect4061" />
      <path
         style="stroke:none"
         d="M 109,560 H 760 V 47 H 109 Z"
         id="path4063"
         inkscape:connector-curvature="0" />
    </g>
    <line
       id="line4067"
       y1="594.99994"
       x2="405.23053"
       x1="54.519241"
       style="color-interpolation:linearRGB;fill:none;stroke:#262626;stroke-width:0.51896536;stroke-linejoin:round;stroke-miterlimit:10;stroke-dasharray:none;marker-end:url(#Arrow1Lend);color-rendering:optimizeQuality;image-rendering:optimizeQuality;text-rendering:geometricPrecision"
       y2="594.99994" />
    <line
       id="line4069"
       y1="594.99994"
       x2="54.5"
       x1="54.5"
       style="color-interpolation:linearRGB;fill:none;stroke:#262626;stroke-width:0.5;stroke-linejoin:round;color-rendering:optimizeQuality;image-rendering:optimizeQuality;text-rendering:geometricPrecision"
       y2="591.74506" />
    <line
       id="line4071"
       y1="594.99994"
       x2="101"
       x1="101"
       style="color-interpolation:linearRGB;fill:none;stroke:#262626;stroke-width:0.5;stroke-linejoin:round;color-rendering:optimizeQuality;image-rendering:optimizeQuality;text-rendering:geometricPrecision"
       y2="591.74506" />
    <line
       id="line4073"
       y1="594.99994"
       x2="147.5"
       x1="147.5"
       style="color-interpolation:linearRGB;fill:none;stroke:#262626;stroke-width:0.5;stroke-linejoin:round;color-rendering:optimizeQuality;image-rendering:optimizeQuality;text-rendering:geometricPrecision"
       y2="591.74506" />
    <line
       id="line4075"
       y1="594.99994"
       x2="194"
       x1="194"
       style="color-interpolation:linearRGB;fill:none;stroke:#262626;stroke-width:0.5;stroke-linejoin:round;color-rendering:optimizeQuality;image-rendering:optimizeQuality;text-rendering:geometricPrecision"
       y2="591.74506" />
    <line
       id="line4077"
       y1="594.99994"
       x2="240.5"
       x1="240.5"
       style="color-interpolation:linearRGB;fill:none;stroke:#262626;stroke-width:0.5;stroke-linejoin:round;color-rendering:optimizeQuality;image-rendering:optimizeQuality;text-rendering:geometricPrecision"
       y2="591.74506" />
    <line
       id="line4079"
       y1="594.99994"
       x2="287"
       x1="287"
       style="color-interpolation:linearRGB;fill:none;stroke:#262626;stroke-width:0.5;stroke-linejoin:round;color-rendering:optimizeQuality;image-rendering:optimizeQuality;text-rendering:geometricPrecision"
       y2="591.74506" />
    <line
       id="line4081"
       y1="594.99994"
       x2="333.5"
       x1="333.5"
       style="color-interpolation:linearRGB;fill:none;stroke:#262626;stroke-width:0.5;stroke-linejoin:round;color-rendering:optimizeQuality;image-rendering:optimizeQuality;text-rendering:geometricPrecision"
       y2="591.74506" />
    <line
       id="line4083"
       y1="594.99994"
       x2="380"
       x1="380"
       style="color-interpolation:linearRGB;fill:none;stroke:#262626;stroke-width:0.5;stroke-linejoin:round;color-rendering:optimizeQuality;image-rendering:optimizeQuality;text-rendering:geometricPrecision"
       y2="591.74506" />
    <g
       style="color-interpolation:linearRGB;fill:#262626;stroke:#262626;stroke-linejoin:round;color-rendering:optimizeQuality;image-rendering:optimizeQuality;text-rendering:geometricPrecision"
       id="g4141"
       transform="matrix(0.5,0,0,0.5,0,315)">
      <line
         y2="47"
         style="fill:none"
         x1="109"
         x2="109"
         y1="559.99988"
         id="line4123" />
      <line
         y2="559.99988"
         style="fill:none"
         x1="109"
         x2="115.51"
         y1="559.99988"
         id="line4125" />
      <line
         y2="486.71429"
         style="fill:none"
         x1="109"
         x2="115.51"
         y1="486.71429"
         id="line4127" />
      <line
         y2="413.42859"
         style="fill:none"
         x1="109"
         x2="115.51"
         y1="413.42859"
         id="line4129" />
      <line
         y2="340.14301"
         style="fill:none"
         x1="109"
         x2="115.51"
         y1="340.14301"
         id="line4131" />
      <line
         y2="266.8569"
         style="fill:none"
         x1="109"
         x2="115.51"
         y1="266.8569"
         id="line4133" />
      <line
         y2="193.5713"
         style="fill:none"
         x1="109"
         x2="115.51"
         y1="193.5713"
         id="line4135" />
      <line
         y2="120.2856"
         style="fill:none"
         x1="109"
         x2="115.51"
         y1="120.2856"
         id="line4137" />
      <line
         y2="47"
         style="fill:none"
         x1="109"
         x2="115.51"
         y1="47"
         id="line4139" />
    </g>
    <g
       transform="matrix(0.5,0,0,0.5,50.7,594.99995)"
       style="font-size:18px;font-family:'MS UI Gothic';color-interpolation:linearRGB;fill:#262626;stroke:#262626;color-rendering:optimizeQuality;image-rendering:optimizeQuality;text-rendering:geometricPrecision"
       id="g4145">
      <path
         style="stroke:none"
         d="m -30.3594,-0.4688 q 0,-3.0937 1.4063,-4.5 0.9843,-0.9843 2.4531,-0.9843 1.4844,0 2.4688,0.9843 1.4062,1.4063 1.4062,4.5 v 1.4063 q 0,3.0313 -1.4062,4.4375 -0.9844,0.9844 -2.4688,0.9844 -1.4688,0 -2.4531,-0.9844 -1.4063,-1.4062 -1.4063,-4.4375 z m 2.5938,-3.5781 q -0.9063,0.9063 -0.9063,3.4375 v 1.625 q 0,2.4532 0.9844,3.4375 0.5625,0.5625 1.1875,0.5625 0.7031,0 1.2656,-0.5625 0.9219,-0.9062 0.9219,-3.4375 v -1.625 q 0,-2.5312 -0.9219,-3.4375 -0.5625,-0.5625 -1.2656,-0.5625 -0.7031,0 -1.2656,0.5625 z m 6.8281,8.7813 h 1.6094 v 1.5468 h -1.6094 z m 4.8437,-9.8438 q 0.7813,-0.7656 2.1094,-0.7656 1.2656,0 2.1875,0.9062 1.4688,1.4844 1.4688,5.1407 0,3.7187 -1.5469,5.2656 -0.9844,0.9844 -2.3125,0.9844 -1.3437,0 -2.1094,-0.7657 -0.9219,-0.9218 -0.9219,-2.3906 h 1.625 q -0.0781,0.9063 0.5626,1.5469 0.2812,0.2813 0.8437,0.2813 0.625,0 1.125,-0.5 1.125,-1.125 1.125,-4.1407 -0.2813,0.4219 -0.6406,0.7657 Q -13.3438,2 -14.4688,2 q -1.0624,0 -1.7656,-0.7031 -1.125,-1.125 -1.125,-3.0313 0,-2.1094 1.2656,-3.375 z m 1.125,0.9219 q -0.7031,0.7031 -0.7031,2.4531 0,1.4063 0.5625,1.9688 0.5,0.5 0.9844,0.5 0.8438,0 1.2656,-0.4219 0.7813,-0.7813 0.7813,-1.9063 0,-1.75 -0.7813,-2.5312 -0.4844,-0.4844 -1.125,-0.4844 -0.5625,0 -0.9844,0.4219 z m 6.8282,1.8906 q 0,-1.6093 1.0468,-2.6719 0.9219,-0.9062 2.25,-0.9062 1.5469,0 2.4688,0.9062 0.8438,0.8438 0.8438,2.25 0,1.4063 -0.7032,2.1094 -0.5,0.5 -1.0625,0.5625 0.7031,0.2188 1.2031,0.7031 0.8438,0.8438 0.8438,2.25 0,1.5469 -0.9844,2.5313 -0.9844,0.9844 -2.75,0.9844 -1.4687,0 -2.4531,-0.9844 Q -8.4219,4.4531 -8.4219,3.125 V 2.5625 h 1.6094 v 0.4844 q 0,0.9219 0.6406,1.5469 0.4844,0.5 1.1875,0.5 0.9219,0 1.4844,-0.5626 0.5625,-0.5624 0.5625,-1.7656 0,-0.9844 -0.5625,-1.5468 -0.5625,-0.5626 -1.2656,-0.5626 h -0.5625 v -1.1874 h 0.4219 q 0.625,0 1.1874,-0.5626 0.5626,-0.5624 0.5626,-1.625 0,-0.9062 -0.5626,-1.4687 -0.4218,-0.4219 -1.125,-0.4219 -0.625,0 -1.125,0.4844 -0.5624,0.5625 -0.625,1.8281 z"
         id="path4143"
         inkscape:connector-curvature="0" />
    </g>
    <g
       transform="matrix(0.5,0,0,0.5,44.7,558.35715)"
       style="font-size:18px;font-family:'MS UI Gothic';color-interpolation:linearRGB;fill:#262626;stroke:#262626;color-rendering:optimizeQuality;image-rendering:optimizeQuality;text-rendering:geometricPrecision"
       id="g4149">
      <path
         style="stroke:none"
         d="m -30.3594,-0.4688 q 0,-3.0937 1.4063,-4.5 0.9843,-0.9843 2.4531,-0.9843 1.4844,0 2.4688,0.9843 1.4062,1.4063 1.4062,4.5 v 1.4063 q 0,3.0313 -1.4062,4.4375 -0.9844,0.9844 -2.4688,0.9844 -1.4688,0 -2.4531,-0.9844 -1.4063,-1.4062 -1.4063,-4.4375 z m 2.5938,-3.5781 q -0.9063,0.9063 -0.9063,3.4375 v 1.625 q 0,2.4532 0.9844,3.4375 0.5625,0.5625 1.1875,0.5625 0.7031,0 1.2656,-0.5625 0.9219,-0.9062 0.9219,-3.4375 v -1.625 q 0,-2.5312 -0.9219,-3.4375 -0.5625,-0.5625 -1.2656,-0.5625 -0.7031,0 -1.2656,0.5625 z m 6.8281,8.7813 h 1.6094 v 1.5468 h -1.6094 z m 4.8437,-9.8438 q 0.7813,-0.7656 2.1094,-0.7656 1.2656,0 2.1875,0.9062 1.4688,1.4844 1.4688,5.1407 0,3.7187 -1.5469,5.2656 -0.9844,0.9844 -2.3125,0.9844 -1.3437,0 -2.1094,-0.7657 -0.9219,-0.9218 -0.9219,-2.3906 h 1.625 q -0.0781,0.9063 0.5626,1.5469 0.2812,0.2813 0.8437,0.2813 0.625,0 1.125,-0.5 1.125,-1.125 1.125,-4.1407 -0.2813,0.4219 -0.6406,0.7657 Q -13.3438,2 -14.4688,2 q -1.0624,0 -1.7656,-0.7031 -1.125,-1.125 -1.125,-3.0313 0,-2.1094 1.2656,-3.375 z m 1.125,0.9219 q -0.7031,0.7031 -0.7031,2.4531 0,1.4063 0.5625,1.9688 0.5,0.5 0.9844,0.5 0.8438,0 1.2656,-0.4219 0.7813,-0.7813 0.7813,-1.9063 0,-1.75 -0.7813,-2.5312 -0.4844,-0.4844 -1.125,-0.4844 -0.5625,0 -0.9844,0.4219 z M -4,-5.875 h 1.625 v 7.7344 h 1.4688 V 3.1875 H -2.375 V 6.2812 H -4 V 3.1875 H -8.7031 V 1.7812 Z m 0,2.5938 -3.1562,5.1406 H -4 Z"
         id="path4147"
         inkscape:connector-curvature="0" />
    </g>
    <g
       transform="matrix(0.5,0,0,0.5,44.7,521.7143)"
       style="font-size:18px;font-family:'MS UI Gothic';color-interpolation:linearRGB;fill:#262626;stroke:#262626;color-rendering:optimizeQuality;image-rendering:optimizeQuality;text-rendering:geometricPrecision"
       id="g4153">
      <path
         style="stroke:none"
         d="m -30.3594,-0.4688 q 0,-3.0937 1.4063,-4.5 0.9843,-0.9843 2.4531,-0.9843 1.4844,0 2.4688,0.9843 1.4062,1.4063 1.4062,4.5 v 1.4063 q 0,3.0313 -1.4062,4.4375 -0.9844,0.9844 -2.4688,0.9844 -1.4688,0 -2.4531,-0.9844 -1.4063,-1.4062 -1.4063,-4.4375 z m 2.5938,-3.5781 q -0.9063,0.9063 -0.9063,3.4375 v 1.625 q 0,2.4532 0.9844,3.4375 0.5625,0.5625 1.1875,0.5625 0.7031,0 1.2656,-0.5625 0.9219,-0.9062 0.9219,-3.4375 v -1.625 q 0,-2.5312 -0.9219,-3.4375 -0.5625,-0.5625 -1.2656,-0.5625 -0.7031,0 -1.2656,0.5625 z m 6.8281,8.7813 h 1.6094 v 1.5468 h -1.6094 z m 4.8437,-9.8438 q 0.7813,-0.7656 2.1094,-0.7656 1.2656,0 2.1875,0.9062 1.4688,1.4844 1.4688,5.1407 0,3.7187 -1.5469,5.2656 -0.9844,0.9844 -2.3125,0.9844 -1.3437,0 -2.1094,-0.7657 -0.9219,-0.9218 -0.9219,-2.3906 h 1.625 q -0.0781,0.9063 0.5626,1.5469 0.2812,0.2813 0.8437,0.2813 0.625,0 1.125,-0.5 1.125,-1.125 1.125,-4.1407 -0.2813,0.4219 -0.6406,0.7657 Q -13.3438,2 -14.4688,2 q -1.0624,0 -1.7656,-0.7031 -1.125,-1.125 -1.125,-3.0313 0,-2.1094 1.2656,-3.375 z m 1.125,0.9219 q -0.7031,0.7031 -0.7031,2.4531 0,1.4063 0.5625,1.9688 0.5,0.5 0.9844,0.5 0.8438,0 1.2656,-0.4219 0.7813,-0.7813 0.7813,-1.9063 0,-1.75 -0.7813,-2.5312 -0.4844,-0.4844 -1.125,-0.4844 -0.5625,0 -0.9844,0.4219 z m 7.3907,-1.5469 h 6.0469 v 1.3282 H -6.25 v 0.2187 q -0.0625,1.3281 -0.2031,2.5937 -0.0781,0.2188 -0.0781,0.4219 0.9218,-0.8437 1.9687,-0.8437 1.4063,0 2.3281,0.9218 0.9844,0.9844 0.9844,2.875 0,2.3907 -1.2656,3.6563 -0.9844,0.9844 -2.4688,0.9844 -1.4062,0 -2.3125,-0.9063 -0.9219,-0.9218 -1.125,-2.75 h 1.6094 q 0.1406,1.3438 0.7031,1.9063 0.4219,0.4219 1.0625,0.4219 0.8438,0 1.3281,-0.5 Q -2.9375,3.8281 -2.9375,2 q 0,-1.7656 -0.6406,-2.3906 Q -4,-0.8125 -4.5625,-0.8125 q -0.8437,0 -1.4687,0.625 -0.4219,0.4219 -0.5626,0.6406 H -8 q 0.0625,-0.2812 0.0625,-0.5 l 0.3594,-5.4062 z"
         id="path4151"
         inkscape:connector-curvature="0" />
    </g>
    <g
       transform="matrix(0.5,0,0,0.5,44.7,485.0715)"
       style="font-size:18px;font-family:'MS UI Gothic';color-interpolation:linearRGB;fill:#262626;stroke:#262626;color-rendering:optimizeQuality;image-rendering:optimizeQuality;text-rendering:geometricPrecision"
       id="g4157">
      <path
         style="stroke:none"
         d="m -30.3594,-0.4688 q 0,-3.0937 1.4063,-4.5 0.9843,-0.9843 2.4531,-0.9843 1.4844,0 2.4688,0.9843 1.4062,1.4063 1.4062,4.5 v 1.4063 q 0,3.0313 -1.4062,4.4375 -0.9844,0.9844 -2.4688,0.9844 -1.4688,0 -2.4531,-0.9844 -1.4063,-1.4062 -1.4063,-4.4375 z m 2.5938,-3.5781 q -0.9063,0.9063 -0.9063,3.4375 v 1.625 q 0,2.4532 0.9844,3.4375 0.5625,0.5625 1.1875,0.5625 0.7031,0 1.2656,-0.5625 0.9219,-0.9062 0.9219,-3.4375 v -1.625 q 0,-2.5312 -0.9219,-3.4375 -0.5625,-0.5625 -1.2656,-0.5625 -0.7031,0 -1.2656,0.5625 z m 6.8281,8.7813 h 1.6094 v 1.5468 h -1.6094 z m 4.8437,-9.8438 q 0.7813,-0.7656 2.1094,-0.7656 1.2656,0 2.1875,0.9062 1.4688,1.4844 1.4688,5.1407 0,3.7187 -1.5469,5.2656 -0.9844,0.9844 -2.3125,0.9844 -1.3437,0 -2.1094,-0.7657 -0.9219,-0.9218 -0.9219,-2.3906 h 1.625 q -0.0781,0.9063 0.5626,1.5469 0.2812,0.2813 0.8437,0.2813 0.625,0 1.125,-0.5 1.125,-1.125 1.125,-4.1407 -0.2813,0.4219 -0.6406,0.7657 Q -13.3438,2 -14.4688,2 q -1.0624,0 -1.7656,-0.7031 -1.125,-1.125 -1.125,-3.0313 0,-2.1094 1.2656,-3.375 z m 1.125,0.9219 q -0.7031,0.7031 -0.7031,2.4531 0,1.4063 0.5625,1.9688 0.5,0.5 0.9844,0.5 0.8438,0 1.2656,-0.4219 0.7813,-0.7813 0.7813,-1.9063 0,-1.75 -0.7813,-2.5312 -0.4844,-0.4844 -1.125,-0.4844 -0.5625,0 -0.9844,0.4219 z m 8.2969,-0.8437 q 0.8438,-0.8438 2.1094,-0.8438 1.3437,0 2.1875,0.8438 0.9062,0.9062 0.9062,2.3124 h -1.6093 q 0,-0.9843 -0.4219,-1.4062 -0.4219,-0.4219 -1.0625,-0.4219 -0.625,0 -1.0469,0.4219 -1.125,1.125 -1.125,3.9375 0.2813,-0.4844 0.7032,-0.9063 0.625,-0.6406 1.5468,-0.6406 1.2656,0 2.1094,0.8438 1.0469,1.0625 1.0469,3.1718 0,2.1719 -1.125,3.2969 -0.8438,0.8438 -2.3125,0.8438 -1.2656,0 -2.3282,-1.0469 -1.2656,-1.2656 -1.2656,-4.8594 0,-3.8594 1.6875,-5.5468 z m 0.8438,5.0624 q -0.7657,0.7657 -0.7657,2.1094 0,1.6875 0.8438,2.5313 0.4844,0.4843 1.0469,0.4843 0.6406,0 1.0625,-0.4218 0.625,-0.625 0.625,-2.4532 0,-1.625 -0.625,-2.25 -0.5,-0.5 -0.9844,-0.5 -0.7031,0 -1.2031,0.5 z"
         id="path4155"
         inkscape:connector-curvature="0" />
    </g>
    <g
       transform="matrix(0.5,0,0,0.5,44.7,448.42845)"
       style="font-size:18px;font-family:'MS UI Gothic';color-interpolation:linearRGB;fill:#262626;stroke:#262626;color-rendering:optimizeQuality;image-rendering:optimizeQuality;text-rendering:geometricPrecision"
       id="g4161">
      <path
         style="stroke:none"
         d="m -30.3594,-0.4688 q 0,-3.0937 1.4063,-4.5 0.9843,-0.9843 2.4531,-0.9843 1.4844,0 2.4688,0.9843 1.4062,1.4063 1.4062,4.5 v 1.4063 q 0,3.0313 -1.4062,4.4375 -0.9844,0.9844 -2.4688,0.9844 -1.4688,0 -2.4531,-0.9844 -1.4063,-1.4062 -1.4063,-4.4375 z m 2.5938,-3.5781 q -0.9063,0.9063 -0.9063,3.4375 v 1.625 q 0,2.4532 0.9844,3.4375 0.5625,0.5625 1.1875,0.5625 0.7031,0 1.2656,-0.5625 0.9219,-0.9062 0.9219,-3.4375 v -1.625 q 0,-2.5312 -0.9219,-3.4375 -0.5625,-0.5625 -1.2656,-0.5625 -0.7031,0 -1.2656,0.5625 z m 6.8281,8.7813 h 1.6094 v 1.5468 h -1.6094 z m 4.8437,-9.8438 q 0.7813,-0.7656 2.1094,-0.7656 1.2656,0 2.1875,0.9062 1.4688,1.4844 1.4688,5.1407 0,3.7187 -1.5469,5.2656 -0.9844,0.9844 -2.3125,0.9844 -1.3437,0 -2.1094,-0.7657 -0.9219,-0.9218 -0.9219,-2.3906 h 1.625 q -0.0781,0.9063 0.5626,1.5469 0.2812,0.2813 0.8437,0.2813 0.625,0 1.125,-0.5 1.125,-1.125 1.125,-4.1407 -0.2813,0.4219 -0.6406,0.7657 Q -13.3438,2 -14.4688,2 q -1.0624,0 -1.7656,-0.7031 -1.125,-1.125 -1.125,-3.0313 0,-2.1094 1.2656,-3.375 z m 1.125,0.9219 q -0.7031,0.7031 -0.7031,2.4531 0,1.4063 0.5625,1.9688 0.5,0.5 0.9844,0.5 0.8438,0 1.2656,-0.4219 0.7813,-0.7813 0.7813,-1.9063 0,-1.75 -0.7813,-2.5312 -0.4844,-0.4844 -1.125,-0.4844 -0.5625,0 -0.9844,0.4219 z m 6.8282,-1.5469 h 6.6718 v 1.5469 l -3.375,10.4687 h -1.5468 l 3.375,-10.6874 h -5.125 z"
         id="path4159"
         inkscape:connector-curvature="0" />
    </g>
    <g
       transform="matrix(0.5,0,0,0.5,44.7,411.78565)"
       style="font-size:18px;font-family:'MS UI Gothic';color-interpolation:linearRGB;fill:#262626;stroke:#262626;color-rendering:optimizeQuality;image-rendering:optimizeQuality;text-rendering:geometricPrecision"
       id="g4165">
      <path
         style="stroke:none"
         d="m -30.3594,-0.4688 q 0,-3.0937 1.4063,-4.5 0.9843,-0.9843 2.4531,-0.9843 1.4844,0 2.4688,0.9843 1.4062,1.4063 1.4062,4.5 v 1.4063 q 0,3.0313 -1.4062,4.4375 -0.9844,0.9844 -2.4688,0.9844 -1.4688,0 -2.4531,-0.9844 -1.4063,-1.4062 -1.4063,-4.4375 z m 2.5938,-3.5781 q -0.9063,0.9063 -0.9063,3.4375 v 1.625 q 0,2.4532 0.9844,3.4375 0.5625,0.5625 1.1875,0.5625 0.7031,0 1.2656,-0.5625 0.9219,-0.9062 0.9219,-3.4375 v -1.625 q 0,-2.5312 -0.9219,-3.4375 -0.5625,-0.5625 -1.2656,-0.5625 -0.7031,0 -1.2656,0.5625 z m 6.8281,8.7813 h 1.6094 v 1.5468 h -1.6094 z m 4.8437,-9.8438 q 0.7813,-0.7656 2.1094,-0.7656 1.2656,0 2.1875,0.9062 1.4688,1.4844 1.4688,5.1407 0,3.7187 -1.5469,5.2656 -0.9844,0.9844 -2.3125,0.9844 -1.3437,0 -2.1094,-0.7657 -0.9219,-0.9218 -0.9219,-2.3906 h 1.625 q -0.0781,0.9063 0.5626,1.5469 0.2812,0.2813 0.8437,0.2813 0.625,0 1.125,-0.5 1.125,-1.125 1.125,-4.1407 -0.2813,0.4219 -0.6406,0.7657 Q -13.3438,2 -14.4688,2 q -1.0624,0 -1.7656,-0.7031 -1.125,-1.125 -1.125,-3.0313 0,-2.1094 1.2656,-3.375 z m 1.125,0.9219 q -0.7031,0.7031 -0.7031,2.4531 0,1.4063 0.5625,1.9688 0.5,0.5 0.9844,0.5 0.8438,0 1.2656,-0.4219 0.7813,-0.7813 0.7813,-1.9063 0,-1.75 -0.7813,-2.5312 -0.4844,-0.4844 -1.125,-0.4844 -0.5625,0 -0.9844,0.4219 z m 7.8126,-0.8437 q 0.8437,-0.8438 2.3124,-0.8438 1.4844,0 2.3907,0.9062 0.9219,0.9219 0.9219,2.4688 0,1.1875 -0.8438,2.0312 -0.3594,0.3594 -0.8438,0.5 v 0.1407 q 0.625,0.1406 1.1876,0.7031 0.8437,0.8438 0.8437,2.25 0,1.4062 -0.9844,2.3906 -0.9062,0.9063 -2.6719,0.9063 -1.75,0 -2.6718,-0.9063 Q -8.5,4.5312 -8.5,3.125 q 0,-1.4062 0.8438,-2.25 0.5624,-0.5625 1.2031,-0.7031 V 0.0312 Q -6.875,-0.1094 -7.375,-0.6094 -8.1406,-1.375 -8.1406,-2.5 q 0,-1.5469 0.9844,-2.5312 z m 1.125,0.9062 q -0.5626,0.5625 -0.5626,1.625 0,0.9844 0.5626,1.5469 0.4843,0.4843 1.125,0.4843 0.8437,0 1.2656,-0.4218 0.5625,-0.5625 0.5625,-1.6094 0,-1.0625 -0.5625,-1.625 -0.5,-0.4844 -1.2032,-0.4844 -0.7031,0 -1.1874,0.4844 z m -0.2813,5.4219 q -0.5625,0.5625 -0.5625,1.6093 0,1.0626 0.625,1.6876 0.5625,0.5624 1.4062,0.5624 0.8438,0 1.4063,-0.5624 0.6406,-0.625 0.6406,-1.6876 0,-1.0468 -0.6406,-1.6874 -0.4844,-0.4844 -1.4063,-0.4844 -0.9062,0 -1.4687,0.5625 z"
         id="path4163"
         inkscape:connector-curvature="0" />
    </g>
    <g
       transform="matrix(0.5,0,0,0.5,44.7,375.1428)"
       style="font-size:18px;font-family:'MS UI Gothic';color-interpolation:linearRGB;fill:#262626;stroke:#262626;color-rendering:optimizeQuality;image-rendering:optimizeQuality;text-rendering:geometricPrecision"
       id="g4169">
      <path
         style="stroke:none"
         d="m -30.3594,-0.4688 q 0,-3.0937 1.4063,-4.5 0.9843,-0.9843 2.4531,-0.9843 1.4844,0 2.4688,0.9843 1.4062,1.4063 1.4062,4.5 v 1.4063 q 0,3.0313 -1.4062,4.4375 -0.9844,0.9844 -2.4688,0.9844 -1.4688,0 -2.4531,-0.9844 -1.4063,-1.4062 -1.4063,-4.4375 z m 2.5938,-3.5781 q -0.9063,0.9063 -0.9063,3.4375 v 1.625 q 0,2.4532 0.9844,3.4375 0.5625,0.5625 1.1875,0.5625 0.7031,0 1.2656,-0.5625 0.9219,-0.9062 0.9219,-3.4375 v -1.625 q 0,-2.5312 -0.9219,-3.4375 -0.5625,-0.5625 -1.2656,-0.5625 -0.7031,0 -1.2656,0.5625 z m 6.8281,8.7813 h 1.6094 v 1.5468 h -1.6094 z m 4.8437,-9.8438 q 0.7813,-0.7656 2.1094,-0.7656 1.2656,0 2.1875,0.9062 1.4688,1.4844 1.4688,5.1407 0,3.7187 -1.5469,5.2656 -0.9844,0.9844 -2.3125,0.9844 -1.3437,0 -2.1094,-0.7657 -0.9219,-0.9218 -0.9219,-2.3906 h 1.625 q -0.0781,0.9063 0.5626,1.5469 0.2812,0.2813 0.8437,0.2813 0.625,0 1.125,-0.5 1.125,-1.125 1.125,-4.1407 -0.2813,0.4219 -0.6406,0.7657 Q -13.3438,2 -14.4688,2 q -1.0624,0 -1.7656,-0.7031 -1.125,-1.125 -1.125,-3.0313 0,-2.1094 1.2656,-3.375 z m 1.125,0.9219 q -0.7031,0.7031 -0.7031,2.4531 0,1.4063 0.5625,1.9688 0.5,0.5 0.9844,0.5 0.8438,0 1.2656,-0.4219 0.7813,-0.7813 0.7813,-1.9063 0,-1.75 -0.7813,-2.5312 -0.4844,-0.4844 -1.125,-0.4844 -0.5625,0 -0.9844,0.4219 z m 7.875,-0.9219 q 0.7813,-0.7656 2.1094,-0.7656 1.2656,0 2.1875,0.9062 1.4688,1.4844 1.4688,5.1407 0,3.7187 -1.5469,5.2656 -0.9844,0.9844 -2.3125,0.9844 -1.3437,0 -2.1094,-0.7657 -0.9219,-0.9218 -0.9219,-2.3906 h 1.625 q -0.0781,0.9063 0.5626,1.5469 0.2812,0.2813 0.8437,0.2813 0.625,0 1.125,-0.5 1.125,-1.125 1.125,-4.1407 Q -3.2188,0.875 -3.5781,1.2188 -4.3438,2 -5.4688,2 -6.5312,2 -7.2344,1.2969 q -1.125,-1.125 -1.125,-3.0313 0,-2.1094 1.2656,-3.375 z m 1.125,0.9219 q -0.7031,0.7031 -0.7031,2.4531 0,1.4063 0.5625,1.9688 0.5,0.5 0.9844,0.5 0.8438,0 1.2656,-0.4219 0.7813,-0.7813 0.7813,-1.9063 0,-1.75 -0.7813,-2.5312 -0.4844,-0.4844 -1.125,-0.4844 -0.5625,0 -0.9844,0.4219 z"
         id="path4167"
         inkscape:connector-curvature="0" />
    </g>
    <g
       transform="matrix(0.5,0,0,0.5,44.7,338.5)"
       style="font-size:18px;font-family:'MS UI Gothic';color-interpolation:linearRGB;fill:#262626;stroke:#262626;color-rendering:optimizeQuality;image-rendering:optimizeQuality;text-rendering:geometricPrecision"
       id="g4173">
      <path
         style="stroke:none"
         d="M -4.2188,-5.9531 H -3.375 V 6.2188 h -1.6094 v -9.3594 h -2.1094 v -0.8438 h 0.625 q 0.9844,0 1.5469,-0.5625 0.6407,-0.625 0.7031,-1.4062 z"
         id="path4171"
         inkscape:connector-curvature="0" />
    </g>
    <g
       style="color-interpolation:linearRGB;fill:#ff0000;stroke:#ff0000;stroke-linecap:butt;stroke-linejoin:round;color-rendering:optimizeQuality;image-rendering:optimizeQuality;text-rendering:geometricPrecision"
       id="g4211"
       transform="matrix(0.5,0,0,0.5,0.25500107,313.7553)">
      <path
         d="m 109,489.2037 93,-116.3265 93,-33.1356 93,-7.6015 93,-24.1743 93,-24.3613 93,-25.1742 93,-16.8511"
         style="fill:none;fill-rule:evenodd"
         id="path4175"
         inkscape:connector-curvature="0" />
      <path
         d="M 0,-6 V 6 M -6,0 H 6 M -4.2426,-4.2426 4.2426,4.2426 m -8.4852,0 8.4852,-8.4852"
         style="fill:none;stroke-linejoin:miter"
         transform="translate(109,489.2037)"
         id="path4177"
         inkscape:connector-curvature="0" />
      <path
         d="M 0,-6 V 6 M -6,0 H 6 M -4.2426,-4.2426 4.2426,4.2426 m -8.4852,0 8.4852,-8.4852"
         style="fill:none;stroke-linejoin:miter"
         transform="translate(202,372.8772)"
         id="path4179"
         inkscape:connector-curvature="0" />
      <path
         d="M 0,-6 V 6 M -6,0 H 6 M -4.2426,-4.2426 4.2426,4.2426 m -8.4852,0 8.4852,-8.4852"
         style="fill:none;stroke-linejoin:miter"
         transform="translate(295,339.7416)"
         id="path4181"
         inkscape:connector-curvature="0" />
      <path
         d="M 0,-6 V 6 M -6,0 H 6 M -4.2426,-4.2426 4.2426,4.2426 m -8.4852,0 8.4852,-8.4852"
         style="fill:none;stroke-linejoin:miter"
         transform="translate(388,332.1401)"
         id="path4183"
         inkscape:connector-curvature="0" />
      <path
         d="M 0,-6 V 6 M -6,0 H 6 M -4.2426,-4.2426 4.2426,4.2426 m -8.4852,0 8.4852,-8.4852"
         style="fill:none;stroke-linejoin:miter"
         transform="translate(481,307.9658)"
         id="path4185"
         inkscape:connector-curvature="0" />
      <path
         d="M 0,-6 V 6 M -6,0 H 6 M -4.2426,-4.2426 4.2426,4.2426 m -8.4852,0 8.4852,-8.4852"
         style="fill:none;stroke-linejoin:miter"
         transform="translate(574,283.6045)"
         id="path4187"
         inkscape:connector-curvature="0" />
      <path
         d="M 0,-6 V 6 M -6,0 H 6 M -4.2426,-4.2426 4.2426,4.2426 m -8.4852,0 8.4852,-8.4852"
         style="fill:none;stroke-linejoin:miter"
         transform="translate(667,258.4303)"
         id="path4189"
         inkscape:connector-curvature="0" />
      <path
         d="M 0,-6 V 6 M -6,0 H 6 M -4.2426,-4.2426 4.2426,4.2426 m -8.4852,0 8.4852,-8.4852"
         style="fill:none;stroke-linejoin:miter"
         transform="translate(760,241.5792)"
         id="path4191"
         inkscape:connector-curvature="0" />
      <path
         d="m 109,144.7164 93,-41.3417 93,16.3309 93,26.9162 93,0.5525 93,-5.5729 93,-10.4268 93,-4.8233"
         style="fill:none;fill-rule:evenodd;stroke:#0000ff"
         id="path4193"
         inkscape:connector-curvature="0" />
      <path
         d="M 0,-6 V 6 M -6,0 H 6 M -4.2426,-4.2426 4.2426,4.2426 m -8.4852,0 8.4852,-8.4852"
         style="fill:none;stroke:#0000ff;stroke-linejoin:miter"
         transform="translate(109,144.7164)"
         id="path4195"
         inkscape:connector-curvature="0" />
      <path
         d="M 0,-6 V 6 M -6,0 H 6 M -4.2426,-4.2426 4.2426,4.2426 m -8.4852,0 8.4852,-8.4852"
         style="fill:none;stroke:#0000ff;stroke-linejoin:miter"
         transform="translate(202,103.3747)"
         id="path4197"
         inkscape:connector-curvature="0" />
      <path
         d="M 0,-6 V 6 M -6,0 H 6 M -4.2426,-4.2426 4.2426,4.2426 m -8.4852,0 8.4852,-8.4852"
         style="fill:none;stroke:#0000ff;stroke-linejoin:miter"
         transform="translate(295,119.7056)"
         id="path4199"
         inkscape:connector-curvature="0" />
      <path
         d="M 0,-6 V 6 M -6,0 H 6 M -4.2426,-4.2426 4.2426,4.2426 m -8.4852,0 8.4852,-8.4852"
         style="fill:none;stroke:#0000ff;stroke-linejoin:miter"
         transform="translate(388,146.6218)"
         id="path4201"
         inkscape:connector-curvature="0" />
      <path
         d="M 0,-6 V 6 M -6,0 H 6 M -4.2426,-4.2426 4.2426,4.2426 m -8.4852,0 8.4852,-8.4852"
         style="fill:none;stroke:#0000ff;stroke-linejoin:miter"
         transform="translate(481,147.1743)"
         id="path4203"
         inkscape:connector-curvature="0" />
      <path
         d="M 0,-6 V 6 M -6,0 H 6 M -4.2426,-4.2426 4.2426,4.2426 m -8.4852,0 8.4852,-8.4852"
         style="fill:none;stroke:#0000ff;stroke-linejoin:miter"
         transform="translate(574,141.6014)"
         id="path4205"
         inkscape:connector-curvature="0" />
      <path
         d="M 0,-6 V 6 M -6,0 H 6 M -4.2426,-4.2426 4.2426,4.2426 m -8.4852,0 8.4852,-8.4852"
         style="fill:none;stroke:#0000ff;stroke-linejoin:miter"
         transform="translate(667,131.1746)"
         id="path4207"
         inkscape:connector-curvature="0" />
      <path
         d="M 0,-6 V 6 M -6,0 H 6 M -4.2426,-4.2426 4.2426,4.2426 m -8.4852,0 8.4852,-8.4852"
         style="fill:none;stroke:#0000ff;stroke-linejoin:miter"
         transform="translate(760,126.3513)"
         id="path4209"
         inkscape:connector-curvature="0" />
    </g>
    <g
       style="color-interpolation:sRGB;fill:#ffffff;stroke:#ffffff;color-rendering:optimizeSpeed;image-rendering:optimizeSpeed;shape-rendering:crispEdges;text-rendering:optimizeSpeed"
       id="g4215"
       transform="matrix(0.5,0,0,0.5,-6,315)">
      <path
         style="stroke:none"
         d="M 744,114 V 63 H 608 v 51 z"
         id="path4213"
         inkscape:connector-curvature="0" />
    </g>
    <g
       style="color-interpolation:linearRGB;fill:#ff0000;stroke:#ff0000;stroke-linecap:butt;stroke-linejoin:round;color-rendering:optimizeQuality;image-rendering:optimizeQuality;text-rendering:geometricPrecision"
       id="g4229"
       transform="matrix(0.5,0,0,0.5,-5.617254,310.0243)">
      <line
         y2="77.571404"
         style="fill:none"
         x1="613.97803"
         x2="673.75818"
         y1="77.571404"
         id="line4225" />
      <path
         d="M 0,-6 V 6 M -6,0 H 6 M -4.2426,-4.2426 4.2426,4.2426 m -8.4852,0 8.4852,-8.4852"
         style="fill:none;stroke-linejoin:miter"
         transform="translate(643.8681,77.5714)"
         id="path4227"
         inkscape:connector-curvature="0" />
    </g>
    <g
       transform="matrix(0.5,0,0,0.5,339,368.5)"
       style="font-size:16.20000076px;font-family:serif;color-interpolation:linearRGB;color-rendering:optimizeQuality;image-rendering:optimizeQuality;text-rendering:geometricPrecision"
       id="g4233" />
    <g
       style="color-interpolation:linearRGB;fill:#0000ff;stroke:#0000ff;stroke-linecap:butt;stroke-linejoin:round;color-rendering:optimizeQuality;image-rendering:optimizeQuality;text-rendering:geometricPrecision"
       id="g4249"
       transform="matrix(0.5,0,0,0.5,-6,315)">
      <line
         y2="100.4335"
         style="fill:none"
         x1="613.97803"
         x2="673.75818"
         y1="100.4335"
         id="line4243" />
      <path
         d="M 0,-6 V 6 M -6,0 H 6 M -4.2426,-4.2426 4.2426,4.2426 m -8.4852,0 8.4852,-8.4852"
         style="fill:none;stroke-linejoin:miter"
         transform="translate(643.8681,100.4335)"
         id="path4245"
         inkscape:connector-curvature="0" />
      <path
         d="M 608,114 V 47 h 152 v 67 z"
         style="fill:none;fill-rule:evenodd;stroke:#262626;stroke-width:1.21172667;stroke-linejoin:miter"
         id="path4247"
         inkscape:connector-curvature="0" />
    </g>
    <text
       xml:space="preserve"
       style="font-style:normal;font-variant:normal;font-weight:normal;font-stretch:normal;font-size:20px;line-height:12.5px;font-family:'Times New Roman';-inkscape-font-specification:'Times New Roman, ';letter-spacing:0px;word-spacing:0px;fill:#000000;fill-opacity:1;stroke:none;stroke-width:0.5"
       x="336.94043"
       y="353.65735"
       id="text4261"
       inkscape:transform-center-x="0.38274605"
       inkscape:transform-center-y="3.4447144"><tspan
         sodipodi:role="line"
         id="tspan4259"
         x="336.94043"
         y="353.65735"
         style="stroke-width:0.5">r*</tspan></text>
    <text
       xml:space="preserve"
       style="font-style:normal;font-variant:normal;font-weight:normal;font-stretch:normal;font-size:20px;line-height:12.5px;font-family:'Times New Roman';-inkscape-font-specification:'Times New Roman, ';letter-spacing:0px;word-spacing:0px;fill:#000000;fill-opacity:1;stroke:none;stroke-width:0.5"
       x="336.94046"
       y="367.81894"
       id="text4265"><tspan
         sodipodi:role="line"
         id="tspan4263"
         x="336.94046"
         y="367.81894"
         style="stroke-width:0.5">r</tspan></text>
    <text
       xml:space="preserve"
       style="font-style:normal;font-variant:normal;font-weight:normal;font-stretch:normal;font-size:20px;line-height:12.5px;font-family:'Times New Roman';-inkscape-font-specification:'Times New Roman, ';letter-spacing:0px;word-spacing:0px;fill:#000000;fill-opacity:1;stroke:none;stroke-width:0.5"
       x="79.611168"
       y="608.94897"
       id="text4269"><tspan
         sodipodi:role="line"
         id="tspan4267"
         x="79.611168"
         y="608.94897"
         style="font-size:9.33333302px;stroke-width:0.5">ExHam(8,4)</tspan></text>
    <text
       xml:space="preserve"
       style="font-style:normal;font-variant:normal;font-weight:normal;font-stretch:normal;font-size:20px;line-height:12.5px;font-family:'Times New Roman';-inkscape-font-specification:'Times New Roman, ';letter-spacing:0px;word-spacing:0px;fill:#000000;fill-opacity:1;stroke:none;stroke-width:0.5"
       x="407.5058"
       y="599.59058"
       id="text4275"><tspan
         sodipodi:role="line"
         id="tspan4273"
         x="407.5058"
         y="599.59058"
         style="font-style:italic;font-variant:normal;font-weight:normal;font-stretch:normal;font-family:'Times New Roman';-inkscape-font-specification:'Times New Roman,  Italic';stroke-width:0.5">n</tspan></text>
    <text
       xml:space="preserve"
       style="font-style:normal;font-variant:normal;font-weight:normal;font-stretch:normal;font-size:20px;line-height:12.5px;font-family:'Times New Roman';-inkscape-font-specification:'Times New Roman, ';letter-spacing:0px;word-spacing:0px;color-interpolation:auto;fill:#000000;fill-opacity:1;stroke:none;stroke-width:0.5;stroke-linecap:square;stroke-linejoin:miter;stroke-miterlimit:10;stroke-dasharray:none;stroke-dashoffset:0;stroke-opacity:1;color-rendering:auto;image-rendering:auto;shape-rendering:auto;text-rendering:auto"
       x="38.206886"
       y="609.27747"
       id="text4269-8"><tspan
         sodipodi:role="line"
         id="tspan4267-1"
         x="38.206886"
         y="609.27747"
         style="font-size:9.33333302px;stroke-width:0.5">Lin(6,3)</tspan></text>
    <text
       xml:space="preserve"
       style="font-style:normal;font-variant:normal;font-weight:normal;font-stretch:normal;font-size:20px;line-height:12.5px;font-family:'Times New Roman';-inkscape-font-specification:'Times New Roman, ';letter-spacing:0px;word-spacing:0px;color-interpolation:auto;fill:#000000;fill-opacity:1;stroke:none;stroke-width:0.5;stroke-linecap:square;stroke-linejoin:miter;stroke-miterlimit:10;stroke-dasharray:none;stroke-dashoffset:0;stroke-opacity:1;color-rendering:auto;image-rendering:auto;shape-rendering:auto;text-rendering:auto"
       x="129.46584"
       y="608.89465"
       id="text4269-8-7"><tspan
         sodipodi:role="line"
         id="tspan4267-1-4"
         x="129.46584"
         y="608.89465"
         style="font-size:9.33333302px;stroke-width:0.5">Lin(10,5)</tspan></text>
    <text
       xml:space="preserve"
       style="font-style:normal;font-variant:normal;font-weight:normal;font-stretch:normal;font-size:20px;line-height:12.5px;font-family:'Times New Roman';-inkscape-font-specification:'Times New Roman, ';letter-spacing:0px;word-spacing:0px;color-interpolation:auto;fill:#000000;fill-opacity:1;stroke:none;stroke-width:0.5;stroke-linecap:square;stroke-linejoin:miter;stroke-miterlimit:10;stroke-dasharray:none;stroke-dashoffset:0;stroke-opacity:1;color-rendering:auto;image-rendering:auto;shape-rendering:auto;text-rendering:auto"
       x="175.77811"
       y="608.51196"
       id="text4269-8-7-9"><tspan
         sodipodi:role="line"
         id="tspan4267-1-4-1"
         x="175.77811"
         y="608.51196"
         style="font-size:9.33333302px;stroke-width:0.5">Lin(12,6)</tspan></text>
    <text
       xml:space="preserve"
       style="font-style:normal;font-variant:normal;font-weight:normal;font-stretch:normal;font-size:20px;line-height:12.5px;font-family:'Times New Roman';-inkscape-font-specification:'Times New Roman, ';letter-spacing:0px;word-spacing:0px;color-interpolation:auto;fill:#000000;fill-opacity:1;stroke:none;stroke-width:0.5;stroke-linecap:square;stroke-linejoin:miter;stroke-miterlimit:10;stroke-dasharray:none;stroke-dashoffset:0;stroke-opacity:1;color-rendering:auto;image-rendering:auto;shape-rendering:auto;text-rendering:auto"
       x="221.70763"
       y="608.51196"
       id="text4269-8-7-7"><tspan
         sodipodi:role="line"
         id="tspan4267-1-4-9"
         x="221.70763"
         y="608.51196"
         style="font-size:9.33333302px;stroke-width:0.5">Lin(14,7)</tspan></text>
    <text
       xml:space="preserve"
       style="font-style:normal;font-variant:normal;font-weight:normal;font-stretch:normal;font-size:20px;line-height:12.5px;font-family:'Times New Roman';-inkscape-font-specification:'Times New Roman, ';letter-spacing:0px;word-spacing:0px;fill:#000000;fill-opacity:1;stroke:none;stroke-width:0.5"
       x="199.79344"
       y="643.39612"
       id="text4354"><tspan
         sodipodi:role="line"
         id="tspan4352"
         x="199.79344"
         y="654.89856"
         style="stroke-width:0.5" /></text>
    <text
       xml:space="preserve"
       style="font-style:normal;font-variant:normal;font-weight:normal;font-stretch:normal;font-size:20px;line-height:12.5px;font-family:'Times New Roman';-inkscape-font-specification:'Times New Roman, ';letter-spacing:0px;word-spacing:0px;color-interpolation:auto;fill:#000000;fill-opacity:1;stroke:none;stroke-width:0.5;stroke-linecap:square;stroke-linejoin:miter;stroke-miterlimit:10;stroke-dasharray:none;stroke-dashoffset:0;stroke-opacity:1;color-rendering:auto;image-rendering:auto;shape-rendering:auto;text-rendering:auto"
       x="269.16812"
       y="608.89465"
       id="text4269-8-7-90"><tspan
         sodipodi:role="line"
         id="tspan4267-1-4-97"
         x="269.16812"
         y="608.89465"
         style="font-size:9.33333302px;stroke-width:0.5">Lin(16,8)</tspan></text>
    <text
       xml:space="preserve"
       style="font-style:normal;font-variant:normal;font-weight:normal;font-stretch:normal;font-size:20px;line-height:12.5px;font-family:'Times New Roman';-inkscape-font-specification:'Times New Roman, ';letter-spacing:0px;word-spacing:0px;color-interpolation:auto;fill:#000000;fill-opacity:1;stroke:none;stroke-width:0.5;stroke-linecap:square;stroke-linejoin:miter;stroke-miterlimit:10;stroke-dasharray:none;stroke-dashoffset:0;stroke-opacity:1;color-rendering:auto;image-rendering:auto;shape-rendering:auto;text-rendering:auto"
       x="314.33218"
       y="608.51196"
       id="text4269-8-7-4"><tspan
         sodipodi:role="line"
         id="tspan4267-1-4-7"
         x="314.33218"
         y="608.51196"
         style="font-size:9.33333302px;stroke-width:0.5">Lin(18,9)</tspan></text>
    <text
       xml:space="preserve"
       style="font-style:normal;font-variant:normal;font-weight:normal;font-stretch:normal;font-size:20px;line-height:12.5px;font-family:'Times New Roman';-inkscape-font-specification:'Times New Roman, ';letter-spacing:0px;word-spacing:0px;color-interpolation:auto;fill:#000000;fill-opacity:1;stroke:none;stroke-width:0.5;stroke-linecap:square;stroke-linejoin:miter;stroke-miterlimit:10;stroke-dasharray:none;stroke-dashoffset:0;stroke-opacity:1;color-rendering:auto;image-rendering:auto;shape-rendering:auto;text-rendering:auto"
       x="359.11346"
       y="608.89465"
       id="text4269-8-7-71"><tspan
         sodipodi:role="line"
         id="tspan4267-1-4-2"
         x="359.11346"
         y="608.89465"
         style="font-size:9.33333302px;stroke-width:0.5">Lin(20,10)</tspan></text>
    <path
       style="fill:none;stroke:#000000;stroke-width:0.75;stroke-linecap:butt;stroke-linejoin:miter;stroke-miterlimit:10;stroke-dasharray:none;stroke-opacity:1"
       d="m 336.55771,356.71932 h 7.27218"
       id="path4388"
       inkscape:connector-curvature="0" />
    <text
       xml:space="preserve"
       style="font-style:normal;font-weight:normal;font-size:10.66666698px;line-height:1.25;font-family:sans-serif;letter-spacing:0px;word-spacing:0px;fill:#000000;fill-opacity:1;stroke:none"
       x="54.349941"
       y="590.19446"
       id="text1233"><tspan
         sodipodi:role="line"
         id="tspan1231"
         x="54.349941"
         y="590.19446"
         style="-inkscape-font-specification:'Times New Roman, ';font-family:'Times New Roman';font-weight:normal;font-style:normal;font-stretch:normal;font-variant:normal">6</tspan></text>
    <text
       xml:space="preserve"
       style="font-style:normal;font-weight:normal;font-size:10.66666698px;line-height:1.25;font-family:sans-serif;letter-spacing:0px;word-spacing:0px;fill:#000000;fill-opacity:1;stroke:none"
       x="98.748489"
       y="590.57715"
       id="text1237"><tspan
         sodipodi:role="line"
         id="tspan1235"
         x="98.748489"
         y="590.57715"
         style="font-style:normal;font-variant:normal;font-weight:normal;font-stretch:normal;font-family:'Times New Roman';-inkscape-font-specification:'Times New Roman, '">8</tspan></text>
    <text
       xml:space="preserve"
       style="font-style:normal;font-weight:normal;font-size:10.66666698px;line-height:1.25;font-family:sans-serif;letter-spacing:0px;word-spacing:0px;fill:#000000;fill-opacity:1;stroke:none"
       x="141.99879"
       y="590.57715"
       id="text1241"><tspan
         sodipodi:role="line"
         id="tspan1239"
         x="141.99879"
         y="590.57715"
         style="font-style:normal;font-variant:normal;font-weight:normal;font-stretch:normal;font-family:'Times New Roman';-inkscape-font-specification:'Times New Roman, '">10</tspan></text>
    <text
       xml:space="preserve"
       style="font-style:normal;font-weight:normal;font-size:10.66666698px;line-height:1.25;font-family:sans-serif;letter-spacing:0px;word-spacing:0px;fill:#000000;fill-opacity:1;stroke:none"
       x="188.6938"
       y="590.95996"
       id="text1245"><tspan
         sodipodi:role="line"
         id="tspan1243"
         x="188.6938"
         y="590.95996"
         style="font-style:normal;font-variant:normal;font-weight:normal;font-stretch:normal;font-family:'Times New Roman';-inkscape-font-specification:'Times New Roman, '">12</tspan></text>
    <text
       xml:space="preserve"
       style="font-style:normal;font-weight:normal;font-size:10.66666698px;line-height:1.25;font-family:sans-serif;letter-spacing:0px;word-spacing:0px;fill:#000000;fill-opacity:1;stroke:none"
       x="234.62332"
       y="590.57715"
       id="text1249"><tspan
         sodipodi:role="line"
         id="tspan1247"
         x="234.62332"
         y="590.57715"
         style="font-style:normal;font-variant:normal;font-weight:normal;font-stretch:normal;font-family:'Times New Roman';-inkscape-font-specification:'Times New Roman, '">14</tspan></text>
    <text
       xml:space="preserve"
       style="font-style:normal;font-weight:normal;font-size:10.66666698px;line-height:1.25;font-family:sans-serif;letter-spacing:0px;word-spacing:0px;fill:#000000;fill-opacity:1;stroke:none"
       x="281.70108"
       y="590.9599"
       id="text1253"><tspan
         sodipodi:role="line"
         id="tspan1251"
         x="281.70108"
         y="590.9599"
         style="font-style:normal;font-variant:normal;font-weight:normal;font-stretch:normal;font-family:'Times New Roman';-inkscape-font-specification:'Times New Roman, '">16</tspan></text>
    <text
       xml:space="preserve"
       style="font-style:normal;font-weight:normal;font-size:10.66666698px;line-height:1.25;font-family:sans-serif;letter-spacing:0px;word-spacing:0px;fill:#000000;fill-opacity:1;stroke:none"
       x="327.63065"
       y="590.57715"
       id="text1257"><tspan
         sodipodi:role="line"
         id="tspan1255"
         x="327.63065"
         y="590.57715"
         style="font-style:normal;font-variant:normal;font-weight:normal;font-stretch:normal;font-family:'Times New Roman';-inkscape-font-specification:'Times New Roman, '">18</tspan></text>
    <text
       xml:space="preserve"
       style="font-style:normal;font-weight:normal;font-size:10.66666698px;line-height:1.25;font-family:sans-serif;letter-spacing:0px;word-spacing:0px;fill:#000000;fill-opacity:1;stroke:none"
       x="374.70837"
       y="591.34265"
       id="text1261"><tspan
         sodipodi:role="line"
         id="tspan1259"
         x="374.70837"
         y="591.34265"
         style="font-style:normal;font-variant:normal;font-weight:normal;font-stretch:normal;font-family:'Times New Roman';-inkscape-font-specification:'Times New Roman, '">20</tspan></text>
  </g>
</svg>
