<?xml version="1.0" encoding="UTF-8" standalone="no"?>
<svg
   xmlns:dc="http://purl.org/dc/elements/1.1/"
   xmlns:cc="http://creativecommons.org/ns#"
   xmlns:rdf="http://www.w3.org/1999/02/22-rdf-syntax-ns#"
   xmlns:svg="http://www.w3.org/2000/svg"
   xmlns="http://www.w3.org/2000/svg"
   xmlns:sodipodi="http://sodipodi.sourceforge.net/DTD/sodipodi-0.dtd"
   xmlns:inkscape="http://www.inkscape.org/namespaces/inkscape"
   style="font-style:normal;font-weight:normal;font-size:12px;font-family:Dialog;color-interpolation:auto;fill:#000000;fill-opacity:1;stroke:#000000;stroke-width:1;stroke-linecap:square;stroke-linejoin:miter;stroke-miterlimit:10;stroke-dasharray:none;stroke-dashoffset:0;stroke-opacity:1;color-rendering:auto;image-rendering:auto;shape-rendering:auto;text-rendering:auto"
   width="582.92224"
   height="420"
   version="1.1"
   id="svg5641"
   sodipodi:docname="kurabetemimasitabver2.svg"
   inkscape:version="0.92.1 r15371">
  <metadata
     id="metadata5645">
    <rdf:RDF>
      <cc:Work
         rdf:about="">
        <dc:format>image/svg+xml</dc:format>
        <dc:type
           rdf:resource="http://purl.org/dc/dcmitype/StillImage" />
        <dc:title></dc:title>
      </cc:Work>
    </rdf:RDF>
  </metadata>
  <sodipodi:namedview
     pagecolor="#ffffff"
     bordercolor="#666666"
     borderopacity="1"
     objecttolerance="10"
     gridtolerance="10"
     guidetolerance="10"
     inkscape:pageopacity="0"
     inkscape:pageshadow="2"
     inkscape:window-width="953"
     inkscape:window-height="706"
     id="namedview5643"
     showgrid="false"
     inkscape:zoom="2.2476191"
     inkscape:cx="72.996441"
     inkscape:cy="315.69393"
     inkscape:window-x="942"
     inkscape:window-y="176"
     inkscape:window-maximized="0"
     inkscape:current-layer="g5639"
     showguides="true"
     inkscape:guide-bbox="true"
     fit-margin-top="0"
     fit-margin-left="0"
     fit-margin-right="0"
     fit-margin-bottom="0">
    <sodipodi:guide
       position="83.218864,206.44068"
       orientation="1,0"
       id="guide5247"
       inkscape:locked="false" />
  </sodipodi:namedview>
  <!--Generated by the Batik Graphics2D SVG Generator-->
  <defs
     id="genericDefs" />
  <g
     id="g5639"
     transform="translate(12.922255)">
    <defs
       id="defs1">
      <clipPath
         clipPathUnits="userSpaceOnUse"
         id="clipPath1">
        <path
           d="M 0,0 H 560 V 420 H 0 Z"
           id="path5443"
           inkscape:connector-curvature="0" />
      </clipPath>
    </defs>
    <g
       style="fill:#ffffff;stroke:#ffffff"
       id="g5449">
      <rect
         x="0"
         y="0"
         width="560"
         style="stroke:none"
         height="420"
         clip-path="url(#clipPath1)"
         id="rect5447" />
    </g>
    <g
       style="color-interpolation:sRGB;fill:#ffffff;stroke:#ffffff;color-rendering:optimizeSpeed;image-rendering:optimizeSpeed;shape-rendering:crispEdges;text-rendering:optimizeSpeed"
       id="g5455"
       transform="translate(10)">
      <rect
         x="0"
         width="560"
         height="420"
         y="0"
         style="stroke:none"
         id="rect5451" />
      <path
         style="stroke:none"
         d="M 73,343 H 507 V 31 H 73 Z"
         id="path5453"
         inkscape:connector-curvature="0" />
    </g>
    <g
       style="color-interpolation:linearRGB;fill:#262626;stroke:#262626;stroke-width:0.66670001;stroke-linejoin:round;color-rendering:optimizeQuality;image-rendering:optimizeQuality;text-rendering:geometricPrecision"
       id="g5481">
      <line
         y2="343"
         style="fill:none"
         x1="73"
         x2="507"
         y1="343"
         id="line5457" />
      <line
         y2="338.66"
         style="fill:none"
         x1="73"
         x2="73"
         y1="343"
         id="line5459" />
      <line
         y2="338.66"
         style="fill:none"
         x1="116.4"
         x2="116.4"
         y1="343"
         id="line5461" />
      <line
         y2="338.66"
         style="fill:none"
         x1="159.8"
         x2="159.8"
         y1="343"
         id="line5463" />
      <line
         y2="338.66"
         style="fill:none"
         x1="203.2"
         x2="203.2"
         y1="343"
         id="line5465" />
      <line
         y2="338.66"
         style="fill:none"
         x1="246.60001"
         x2="246.60001"
         y1="343"
         id="line5467" />
      <line
         y2="338.66"
         style="fill:none"
         x1="290"
         x2="290"
         y1="343"
         id="line5469" />
      <line
         y2="338.66"
         style="fill:none"
         x1="333.39999"
         x2="333.39999"
         y1="343"
         id="line5471" />
      <line
         y2="338.66"
         style="fill:none"
         x1="376.79999"
         x2="376.79999"
         y1="343"
         id="line5473" />
      <line
         y2="338.66"
         style="fill:none"
         x1="420.20001"
         x2="420.20001"
         y1="343"
         id="line5475" />
      <line
         y2="338.66"
         style="fill:none"
         x1="463.60001"
         x2="463.60001"
         y1="343"
         id="line5477" />
      <line
         y2="338.66"
         style="fill:none"
         x1="507"
         x2="507"
         y1="343"
         id="line5479" />
    </g>
    <g
       transform="matrix(2,0,0,2,73.798439,344.27914)"
       style="font-family:'MS UI Gothic';color-interpolation:linearRGB;fill:#262626;stroke:#262626;color-rendering:optimizeQuality;image-rendering:optimizeQuality;text-rendering:geometricPrecision"
       id="g5485">
      <path
         style="stroke:none"
         d="m -2.5781,6.1369424 q 0,-2.0625 0.9375,-3 0.6562,-0.6563 1.6406,-0.6563 0.9844,0 1.6406,0.6563 0.9375,0.9375 0.9375,3 v 0.9375 q 0,2.0156 -0.9375,2.9530996 -0.6562,0.6562 -1.6406,0.6562 -0.9844,0 -1.6406,-0.6562 -0.9375,-0.9374996 -0.9375,-2.9530996 z m 1.7343,-2.3906 q -0.6093,0.6093 -0.6093,2.2968 v 1.0782 q 0,1.6406 0.6562,2.2968 0.375,0.375 0.7969,0.375 0.4688,0 0.8438,-0.375 0.6093,-0.6094 0.6093,-2.2968 v -1.0782 q 0,-1.6875 -0.6093,-2.2968 -0.375,-0.375 -0.8438,-0.375 -0.4688,0 -0.8438,0.375 z"
         id="path5483"
         inkscape:connector-curvature="0" />
    </g>
    <g
       transform="matrix(2,0,0,2,118.13912,343.83423)"
       style="font-family:'MS UI Gothic';color-interpolation:linearRGB;fill:#262626;stroke:#262626;color-rendering:optimizeQuality;image-rendering:optimizeQuality;text-rendering:geometricPrecision"
       id="g5489">
      <path
         style="stroke:none"
         d="m -7.0781,6.3594 q 0,-2.0625 0.9375,-3 0.6562,-0.6563 1.6406,-0.6563 0.9844,0 1.6406,0.6563 0.9375,0.9375 0.9375,3 v 0.9375 q 0,2.0156 -0.9375,2.9531 -0.6562,0.6562 -1.6406,0.6562 -0.9844,0 -1.6406,-0.6562 -0.9375,-0.9375 -0.9375,-2.9531 z m 1.7343,-2.3906 q -0.6093,0.6093 -0.6093,2.2968 v 1.0782 q 0,1.6406 0.6562,2.2968 0.375,0.375 0.7969,0.375 0.4688,0 0.8438,-0.375 0.6093,-0.6094 0.6093,-2.2968 V 6.2656 q 0,-1.6875 -0.6093,-2.2968 -0.375,-0.375 -0.8438,-0.375 -0.4688,0 -0.8438,0.375 z m 4.5469,5.8593 h 1.0781 v 1.0313 H -0.7969 Z M 4.125,2.7031 h 0.5625 v 8.1094 H 3.6094 V 4.5781 H 2.2031 V 4.0156 H 2.625 q 0.6562,0 1.0312,-0.375 Q 4.0781,3.2188 4.125,2.7031 Z"
         id="path5487"
         inkscape:connector-curvature="0" />
    </g>
    <g
       transform="matrix(2,0,0,2,160.20437,344.27914)"
       style="font-family:'MS UI Gothic';color-interpolation:linearRGB;fill:#262626;stroke:#262626;color-rendering:optimizeQuality;image-rendering:optimizeQuality;text-rendering:geometricPrecision"
       id="g5493">
      <path
         style="stroke:none"
         d="m -7.0781,6.3594 q 0,-2.0625 0.9375,-3 0.6562,-0.6563 1.6406,-0.6563 0.9844,0 1.6406,0.6563 0.9375,0.9375 0.9375,3 v 0.9375 q 0,2.0156 -0.9375,2.9531 -0.6562,0.6562 -1.6406,0.6562 -0.9844,0 -1.6406,-0.6562 -0.9375,-0.9375 -0.9375,-2.9531 z m 1.7343,-2.3906 q -0.6093,0.6093 -0.6093,2.2968 v 1.0782 q 0,1.6406 0.6562,2.2968 0.375,0.375 0.7969,0.375 0.4688,0 0.8438,-0.375 0.6093,-0.6094 0.6093,-2.2968 V 6.2656 q 0,-1.6875 -0.6093,-2.2968 -0.375,-0.375 -0.8438,-0.375 -0.4688,0 -0.8438,0.375 z m 4.5469,5.8593 h 1.0781 v 1.0313 H -0.7969 Z M 1.7344,5.5625 q 0,-1.4531 0.75,-2.2031 Q 3.0938,2.75 3.9375,2.75 q 1.0313,0 1.6406,0.6094 0.6094,0.6094 0.6094,1.5 0,1.125 -0.7031,1.9687 Q 4.8281,7.625 4.125,8.375 3.75,8.7969 3.375,9.2188 3.0469,9.5938 2.8125,9.9688 h 3.5156 v 0.8906 H 1.5469 V 10.0625 Q 1.6406,9.5938 2.3438,8.75 3.5156,7.4844 4.2656,6.6406 5.0625,5.7969 5.0625,4.8594 5.0625,4.2969 4.6875,3.9219 4.4062,3.6406 3.9844,3.6406 q -0.375,0 -0.6563,0.2813 -0.5156,0.5156 -0.5156,1.6406 z"
         id="path5491"
         inkscape:connector-curvature="0" />
    </g>
    <g
       transform="matrix(2,0,0,2,204.4942,344.67716)"
       style="font-family:'MS UI Gothic';color-interpolation:linearRGB;fill:#262626;stroke:#262626;color-rendering:optimizeQuality;image-rendering:optimizeQuality;text-rendering:geometricPrecision"
       id="g5497">
      <path
         style="stroke:none"
         d="m -7.0781,6.3594 q 0,-2.0625 0.9375,-3 0.6562,-0.6563 1.6406,-0.6563 0.9844,0 1.6406,0.6563 0.9375,0.9375 0.9375,3 v 0.9375 q 0,2.0156 -0.9375,2.9531 -0.6562,0.6562 -1.6406,0.6562 -0.9844,0 -1.6406,-0.6562 -0.9375,-0.9375 -0.9375,-2.9531 z m 1.7343,-2.3906 q -0.6093,0.6093 -0.6093,2.2968 v 1.0782 q 0,1.6406 0.6562,2.2968 0.375,0.375 0.7969,0.375 0.4688,0 0.8438,-0.375 0.6093,-0.6094 0.6093,-2.2968 V 6.2656 q 0,-1.6875 -0.6093,-2.2968 -0.375,-0.375 -0.8438,-0.375 -0.4688,0 -0.8438,0.375 z m 4.5469,5.8593 h 1.0781 v 1.0313 H -0.7969 Z M 1.7344,5.1406 q 0,-1.0781 0.7031,-1.7812 0.6094,-0.6094 1.5,-0.6094 1.0313,0 1.6406,0.6094 0.5625,0.5625 0.5625,1.5 0,0.9375 -0.4687,1.4062 -0.3281,0.3282 -0.7031,0.375 0.4687,0.1406 0.7968,0.4688 0.5625,0.5625 0.5625,1.5 0,1.0312 -0.6562,1.6875 -0.6563,0.6562 -1.8281,0.6562 -0.9844,0 -1.6407,-0.6562 Q 1.5469,9.6406 1.5469,8.75 V 8.375 H 2.625 v 0.3281 q 0,0.6094 0.4219,1.0313 0.3281,0.3281 0.7969,0.3281 0.6093,0 0.9843,-0.375 0.375,-0.375 0.375,-1.1719 0,-0.6562 -0.375,-1.0312 -0.375,-0.375 -0.8437,-0.375 H 3.6094 V 6.3125 h 0.2812 q 0.4219,0 0.7969,-0.375 0.375,-0.375 0.375,-1.0781 0,-0.6094 -0.375,-0.9844 -0.2813,-0.2812 -0.75,-0.2812 -0.4219,0 -0.75,0.3281 -0.375,0.375 -0.4219,1.2187 z"
         id="path5495"
         inkscape:connector-curvature="0" />
    </g>
    <g
       transform="matrix(2,0,0,2,246.55946,344.72406)"
       style="font-family:'MS UI Gothic';color-interpolation:linearRGB;fill:#262626;stroke:#262626;color-rendering:optimizeQuality;image-rendering:optimizeQuality;text-rendering:geometricPrecision"
       id="g5501">
      <path
         style="stroke:none"
         d="m -7.0781,6.3594 q 0,-2.0625 0.9375,-3 0.6562,-0.6563 1.6406,-0.6563 0.9844,0 1.6406,0.6563 0.9375,0.9375 0.9375,3 v 0.9375 q 0,2.0156 -0.9375,2.9531 -0.6562,0.6562 -1.6406,0.6562 -0.9844,0 -1.6406,-0.6562 -0.9375,-0.9375 -0.9375,-2.9531 z m 1.7343,-2.3906 q -0.6093,0.6093 -0.6093,2.2968 v 1.0782 q 0,1.6406 0.6562,2.2968 0.375,0.375 0.7969,0.375 0.4688,0 0.8438,-0.375 0.6093,-0.6094 0.6093,-2.2968 V 6.2656 q 0,-1.6875 -0.6093,-2.2968 -0.375,-0.375 -0.8438,-0.375 -0.4688,0 -0.8438,0.375 z m 4.5469,5.8593 h 1.0781 v 1.0313 H -0.7969 Z M 4.5,2.75 H 5.5781 V 7.9062 H 6.5625 V 8.7969 H 5.5781 v 2.0625 H 4.5 V 8.7969 H 1.3594 V 7.8594 Z m 0,1.7344 -2.1094,3.4218 H 4.5 Z"
         id="path5499"
         inkscape:connector-curvature="0" />
    </g>
    <g
       transform="matrix(2,0,0,2,289.95946,344.23224)"
       style="font-family:'MS UI Gothic';color-interpolation:linearRGB;fill:#262626;stroke:#262626;color-rendering:optimizeQuality;image-rendering:optimizeQuality;text-rendering:geometricPrecision"
       id="g5505">
      <path
         style="stroke:none"
         d="m -7.0781,6.3594 q 0,-2.0625 0.9375,-3 0.6562,-0.6563 1.6406,-0.6563 0.9844,0 1.6406,0.6563 0.9375,0.9375 0.9375,3 v 0.9375 q 0,2.0156 -0.9375,2.9531 -0.6562,0.6562 -1.6406,0.6562 -0.9844,0 -1.6406,-0.6562 -0.9375,-0.9375 -0.9375,-2.9531 z m 1.7343,-2.3906 q -0.6093,0.6093 -0.6093,2.2968 v 1.0782 q 0,1.6406 0.6562,2.2968 0.375,0.375 0.7969,0.375 0.4688,0 0.8438,-0.375 0.6093,-0.6094 0.6093,-2.2968 V 6.2656 q 0,-1.6875 -0.6093,-2.2968 -0.375,-0.375 -0.8438,-0.375 -0.4688,0 -0.8438,0.375 z m 4.5469,5.8593 h 1.0781 v 1.0313 H -0.7969 Z M 2.1094,2.8438 H 6.1406 V 3.7344 H 3 V 3.875 Q 2.9531,4.7656 2.8594,5.6094 2.8125,5.75 2.8125,5.8906 3.4219,5.3281 4.125,5.3281 q 0.9375,0 1.5469,0.6094 0.6562,0.6563 0.6562,1.9219 0,1.5937 -0.8437,2.4375 -0.6563,0.6562 -1.6406,0.6562 -0.9376,0 -1.5469,-0.6093 Q 1.6875,9.7344 1.5469,8.5156 H 2.625 q 0.0938,0.8906 0.4688,1.2656 0.2812,0.2813 0.7031,0.2813 0.5625,0 0.8906,-0.3281 Q 5.2031,9.2188 5.2031,8 5.2031,6.8281 4.7812,6.4062 4.5,6.125 4.125,6.125 3.5625,6.125 3.1406,6.5469 2.8594,6.8281 2.7656,6.9688 H 1.8281 Q 1.875,6.7812 1.875,6.6406 L 2.1094,3.0312 Z"
         id="path5503"
         inkscape:connector-curvature="0" />
    </g>
    <g
       transform="matrix(2,0,0,2,337.36369,344.67716)"
       style="font-family:'MS UI Gothic';color-interpolation:linearRGB;fill:#262626;stroke:#262626;color-rendering:optimizeQuality;image-rendering:optimizeQuality;text-rendering:geometricPrecision"
       id="g5509">
      <path
         style="stroke:none"
         d="m -7.0781,6.3594 q 0,-2.0625 0.9375,-3 0.6562,-0.6563 1.6406,-0.6563 0.9844,0 1.6406,0.6563 0.9375,0.9375 0.9375,3 v 0.9375 q 0,2.0156 -0.9375,2.9531 -0.6562,0.6562 -1.6406,0.6562 -0.9844,0 -1.6406,-0.6562 -0.9375,-0.9375 -0.9375,-2.9531 z m 1.7343,-2.3906 q -0.6093,0.6093 -0.6093,2.2968 v 1.0782 q 0,1.6406 0.6562,2.2968 0.375,0.375 0.7969,0.375 0.4688,0 0.8438,-0.375 0.6093,-0.6094 0.6093,-2.2968 V 6.2656 q 0,-1.6875 -0.6093,-2.2968 -0.375,-0.375 -0.8438,-0.375 -0.4688,0 -0.8438,0.375 z m 4.5469,5.8593 h 1.0781 v 1.0313 H -0.7969 Z M 2.7188,3.3125 Q 3.2812,2.75 4.125,2.75 q 0.8906,0 1.4531,0.5625 0.6094,0.6094 0.6094,1.5469 H 5.1094 Q 5.1094,4.2031 4.8281,3.9219 4.5469,3.6406 4.125,3.6406 q -0.4219,0 -0.7031,0.2813 -0.75,0.75 -0.75,2.625 0.1875,-0.3281 0.4687,-0.6094 0.4219,-0.4219 1.0313,-0.4219 0.8437,0 1.4062,0.5625 0.7031,0.7031 0.7031,2.1094 0,1.4531 -0.75,2.2031 -0.5624,0.5625 -1.5468,0.5625 -0.8438,0 -1.5469,-0.7031 -0.8437,-0.8438 -0.8437,-3.2344 0,-2.5781 1.125,-3.7031 z m 0.5624,3.375 q -0.5156,0.5156 -0.5156,1.4063 0,1.125 0.5625,1.6874 0.3281,0.3282 0.7031,0.3282 0.4219,0 0.7032,-0.2813 0.4218,-0.4219 0.4218,-1.6406 0,-1.0781 -0.4218,-1.5 -0.3282,-0.3281 -0.6563,-0.3281 -0.4687,0 -0.7969,0.3281 z"
         id="path5507"
         inkscape:connector-curvature="0" />
    </g>
    <g
       transform="matrix(2,0,0,2,381.65352,345.61389)"
       style="font-family:'MS UI Gothic';color-interpolation:linearRGB;fill:#262626;stroke:#262626;color-rendering:optimizeQuality;image-rendering:optimizeQuality;text-rendering:geometricPrecision"
       id="g5513">
      <path
         style="stroke:none"
         d="m -7.5230152,5.9144848 q 0,-2.0625 0.9375,-3 0.6562,-0.6563 1.6406,-0.6563 0.9844,0 1.6406,0.6563 0.9375,0.9375 0.9375,3 v 0.9375 q 0,2.0156 -0.9375,2.9531 -0.6562,0.6562002 -1.6406,0.6562002 -0.9844,0 -1.6406,-0.6562002 -0.9375,-0.9375 -0.9375,-2.9531 z m 1.7343,-2.3906 q -0.6093,0.6093 -0.6093,2.2968 v 1.0782 q 0,1.6406 0.6562,2.2968 0.375,0.375 0.7969,0.375 0.4688,0 0.8438,-0.375 0.6093,-0.6094 0.6093,-2.2968 v -1.0782 q 0,-1.6875 -0.6093,-2.2968 -0.375,-0.375 -0.8438,-0.375 -0.4688,0 -0.8438,0.375 z m 4.5469,5.8593 h 1.07809996 V 10.414485 H -1.2418152 Z m 2.5313,-6.9843 h 4.4531 v 1.0312 l -2.25,6.9844002 h -1.0313 l 2.25,-7.1250002 h -3.4218 z"
         id="path5511"
         inkscape:connector-curvature="0" />
    </g>
    <g
       transform="matrix(2,0,0,2,423.71878,344.67716)"
       style="font-family:'MS UI Gothic';color-interpolation:linearRGB;fill:#262626;stroke:#262626;color-rendering:optimizeQuality;image-rendering:optimizeQuality;text-rendering:geometricPrecision"
       id="g5517">
      <path
         style="stroke:none"
         d="m -7.0781,6.3594 q 0,-2.0625 0.9375,-3 0.6562,-0.6563 1.6406,-0.6563 0.9844,0 1.6406,0.6563 0.9375,0.9375 0.9375,3 v 0.9375 q 0,2.0156 -0.9375,2.9531 -0.6562,0.6562 -1.6406,0.6562 -0.9844,0 -1.6406,-0.6562 -0.9375,-0.9375 -0.9375,-2.9531 z m 1.7343,-2.3906 q -0.6093,0.6093 -0.6093,2.2968 v 1.0782 q 0,1.6406 0.6562,2.2968 0.375,0.375 0.7969,0.375 0.4688,0 0.8438,-0.375 0.6093,-0.6094 0.6093,-2.2968 V 6.2656 q 0,-1.6875 -0.6093,-2.2968 -0.375,-0.375 -0.8438,-0.375 -0.4688,0 -0.8438,0.375 z m 4.5469,5.8593 h 1.0781 v 1.0313 H -0.7969 Z M 2.3906,3.3125 Q 2.9531,2.75 3.9375,2.75 4.9219,2.75 5.5312,3.3594 6.1406,3.9688 6.1406,5 6.1406,5.7969 5.5781,6.3594 5.3438,6.5938 5.0156,6.6875 V 6.7812 Q 5.4375,6.875 5.8125,7.25 6.375,7.8125 6.375,8.75 q 0,0.9375 -0.6562,1.5938 -0.6094,0.6093 -1.7813,0.6093 -1.1719,0 -1.7813,-0.6093 Q 1.5,9.6875 1.5,8.75 1.5,7.8125 2.0625,7.25 2.4375,6.875 2.8594,6.7812 V 6.6875 Q 2.5781,6.5938 2.25,6.2656 1.7344,5.75 1.7344,5 q 0,-1.0312 0.6562,-1.6875 z m 0.75,0.6094 Q 2.7656,4.2969 2.7656,5 q 0,0.6562 0.375,1.0312 0.3282,0.3282 0.75,0.3282 0.5625,0 0.8438,-0.2813 Q 5.1094,5.7031 5.1094,5 5.1094,4.2969 4.7344,3.9219 4.4062,3.5938 3.9375,3.5938 q -0.4687,0 -0.7969,0.3281 z M 2.9531,7.5312 q -0.375,0.375 -0.375,1.0782 0,0.7031 0.4219,1.125 0.375,0.375 0.9375,0.375 0.5625,0 0.9375,-0.375 0.4219,-0.4219 0.4219,-1.125 0,-0.7032 -0.4219,-1.125 -0.3281,-0.3282 -0.9375,-0.3282 -0.6094,0 -0.9844,0.375 z"
         id="path5515"
         inkscape:connector-curvature="0" />
    </g>
    <g
       transform="matrix(2,0,0,2,470.6781,337.1136)"
       style="font-family:'MS UI Gothic';color-interpolation:linearRGB;fill:#262626;stroke:#262626;color-rendering:optimizeQuality;image-rendering:optimizeQuality;text-rendering:geometricPrecision"
       id="g5521">
      <path
         style="stroke:none"
         d="m -8.4128457,10.14118 q 0,-2.0625004 0.9375,-3.0000004 0.6562,-0.6563 1.6406,-0.6563 0.9844,0 1.6406,0.6563 0.9375,0.9375 0.9375,3.0000004 v 0.9375 q 0,2.0156 -0.9375,2.9531 -0.6562,0.6562 -1.6406,0.6562 -0.9844,0 -1.6406,-0.6562 -0.9375,-0.9375 -0.9375,-2.9531 z m 1.7343,-2.3906004 q -0.6093,0.6093 -0.6093,2.2968004 v 1.0782 q 0,1.6406 0.6562,2.2968 0.375,0.375 0.7969,0.375 0.4688,0 0.8438,-0.375 0.6093,-0.6094 0.6093,-2.2968 v -1.0782 q 0,-1.6875004 -0.6093,-2.2968004 -0.375,-0.375 -0.8438,-0.375 -0.4688,0 -0.8438,0.375 z m 4.5469,5.8593004 h 1.0781 v 1.0313 h -1.0781 z m 3.2344,-6.5625004 q 0.5156,-0.5156 1.4063,-0.5156 0.8437,0 1.4531,0.6094 0.9843,0.9844 0.9843,3.4218004 0,2.4844 -1.0312,3.5157 -0.6562,0.6562 -1.5469,0.6562 -0.8906,0 -1.40620003,-0.5156 -0.6094,-0.6094 -0.6094,-1.5937 H 1.4308543 q -0.0468,0.6093 0.375,1.0312 0.1875,0.1875 0.5625,0.1875 0.4219,0 0.75,-0.3281 0.75,-0.75 0.75,-2.7656 -0.1875,0.2812 -0.4219,0.5156 -0.5156,0.5156 -1.2656,0.5156 -0.7031,0 -1.1718,-0.4688 -0.75000003,-0.75 -0.75000003,-2.0156004 0,-1.4062 0.84370003,-2.25 z m 0.75,0.6094 q -0.4687,0.4688 -0.4687,1.6406 0,0.9375004 0.375,1.3125004 0.3281,0.3281 0.6562,0.3281 0.5625,0 0.8438,-0.2812 0.5156,-0.5156 0.5156,-1.2656004 0,-1.1719 -0.5156,-1.6875 -0.3282,-0.3281 -0.75,-0.3281 -0.375,0 -0.6563,0.2812 z"
         id="path5519"
         inkscape:connector-curvature="0" />
    </g>
    <g
       transform="matrix(3,0,0,2,508.24422,344.37284)"
       style="font-family:'MS UI Gothic';color-interpolation:linearRGB;fill:#262626;stroke:#262626;color-rendering:optimizeQuality;image-rendering:optimizeQuality;text-rendering:geometricPrecision"
       id="g5525">
      <path
         style="stroke:none"
         d="M 0.1875,2.7031 H 0.75 v 8.1094 H -0.3281 V 4.5781 H -1.7344 V 4.0156 h 0.4219 q 0.6563,0 1.0313,-0.375 0.4218,-0.4218 0.4687,-0.9375 z"
         id="path5523"
         inkscape:connector-curvature="0" />
    </g>
    <g
       transform="translate(290.0002,362.4)"
       style="font-size:48px;font-family:mwa_cmmi10;color-interpolation:linearRGB;fill:#262626;stroke:#262626;color-rendering:optimizeQuality;image-rendering:optimizeQuality;text-rendering:geometricPrecision"
       id="g5529">
      <path
         style="stroke:none"
         d="m -9.8948,35.3198 q 0,-1.3125 0.5704,-2.5547 0.5703,-1.2422 1.5,-2.2265 0.9296,-0.9844 2.164,-1.75 -1.8281,-1.2657 -1.8281,-3.2657 0,-2.125 1.7812,-3.7343 1.7813,-1.6094 4.3594,-2.4141 2.5781,-0.8047 4.6406,-0.8047 0.875,0 2.336,0.3828 1.4609,0.3828 2.5625,1.0157 1.1015,0.6328 1.1015,1.3828 0,0.5625 -0.4296,1 -0.4297,0.4375 -0.9454,0.4375 -0.2187,0 -1.0703,-0.5078 Q 5.9959,21.7729 5.0349,21.3745 4.074,20.9761 2.9177,20.9761 q -1.7343,0 -3.8046,0.414 -2.0704,0.4141 -3.6407,1.4297 -1.5703,1.0156 -1.5703,2.6563 0,1.5781 1.7813,2.6562 2.0156,-0.9219 4.125,-0.9219 3.75,0 3.75,1.3438 0,1.0469 -1.2813,1.3437 -1.2812,0.2969 -2.9375,0.2969 -2.25,0 -3.7031,-0.6875 -1.5938,0.8438 -2.8359,2.3672 -1.2422,1.5234 -1.2422,3.1641 0,1.5468 1.039,2.414 1.0391,0.8672 2.5625,1.1953 1.5235,0.3282 3.0547,0.3282 2.6406,0 4.6797,-0.5703 2.0391,-0.5704 2.9609,-2.3985 0.1407,-0.3125 0.5313,-0.3125 0.5156,0.1719 0.5156,0.6406 0,0.0469 -0.1406,0.4688 -0.7656,1.5156 -2.1875,2.5547 -1.4219,1.039 -3.1641,1.5312 -1.7422,0.4922 -3.5703,0.4922 -2.9844,0 -5.3594,-1.6015 -2.375,-1.6016 -2.375,-4.461 z m 7.4063,-6.5312 q 0.8437,0.1562 1.9219,0.1562 2.1093,0 2.625,-0.2969 -0.6563,-0.1875 -2.2969,-0.1875 -1.2031,0 -2.25,0.3282 z"
         id="path5527"
         inkscape:connector-curvature="0" />
    </g>
    <g
       style="color-interpolation:linearRGB;fill:#262626;stroke:#262626;stroke-width:0.66670001;stroke-linejoin:round;color-rendering:optimizeQuality;image-rendering:optimizeQuality;text-rendering:geometricPrecision"
       id="g5555">
      <line
         y2="31"
         style="fill:none"
         x1="73"
         x2="73"
         y1="343"
         id="line5531" />
      <line
         y2="343"
         style="fill:none"
         x1="73"
         x2="77.339996"
         y1="343"
         id="line5533" />
      <line
         y2="311.79999"
         style="fill:none"
         x1="73"
         x2="77.339996"
         y1="311.79999"
         id="line5535" />
      <line
         y2="280.60001"
         style="fill:none"
         x1="73"
         x2="77.339996"
         y1="280.60001"
         id="line5537" />
      <line
         y2="249.39999"
         style="fill:none"
         x1="73"
         x2="77.339996"
         y1="249.39999"
         id="line5539" />
      <line
         y2="218.2"
         style="fill:none"
         x1="73"
         x2="77.339996"
         y1="218.2"
         id="line5541" />
      <line
         y2="187"
         style="fill:none"
         x1="73"
         x2="77.339996"
         y1="187"
         id="line5543" />
      <line
         y2="155.8"
         style="fill:none"
         x1="73"
         x2="77.339996"
         y1="155.8"
         id="line5545" />
      <line
         y2="124.6"
         style="fill:none"
         x1="73"
         x2="77.339996"
         y1="124.6"
         id="line5547" />
      <line
         y2="93.400002"
         style="fill:none"
         x1="73"
         x2="77.339996"
         y1="93.400002"
         id="line5549" />
      <line
         y2="62.200001"
         style="fill:none"
         x1="73"
         x2="77.339996"
         y1="62.200001"
         id="line5551" />
      <line
         y2="31"
         style="fill:none"
         x1="73"
         x2="77.339996"
         y1="31"
         id="line5553" />
    </g>
    <g
       transform="matrix(3,0,0,2,70.191195,339.92855)"
       style="font-family:'MS UI Gothic';color-interpolation:linearRGB;fill:#262626;stroke:#262626;color-rendering:optimizeQuality;image-rendering:optimizeQuality;text-rendering:geometricPrecision"
       id="g5559">
      <path
         style="stroke:none"
         d="m -5.5781,-0.1406 q 0,-2.0625 0.9375,-3 0.6562,-0.6563 1.6406,-0.6563 0.9844,0 1.6406,0.6563 0.9375,0.9375 0.9375,3 v 0.9375 q 0,2.0156 -0.9375,2.9531 Q -2.0156,4.4062 -3,4.4062 -3.9844,4.4062 -4.6406,3.75 -5.5781,2.8125 -5.5781,0.7969 Z m 1.7343,-2.3906 q -0.6093,0.6093 -0.6093,2.2968 v 1.0782 q 0,1.6406 0.6562,2.2968 0.375,0.375 0.7969,0.375 0.4688,0 0.8438,-0.375 0.6093,-0.6094 0.6093,-2.2968 v -1.0782 q 0,-1.6875 -0.6093,-2.2968 -0.375,-0.375 -0.8438,-0.375 -0.4688,0 -0.8438,0.375 z"
         id="path5557"
         inkscape:connector-curvature="0" />
    </g>
    <g
       transform="matrix(2,0,0,2,72.049536,310.01639)"
       style="font-family:'MS UI Gothic';color-interpolation:linearRGB;fill:#262626;stroke:#262626;color-rendering:optimizeQuality;image-rendering:optimizeQuality;text-rendering:geometricPrecision"
       id="g5563">
      <path
         style="stroke:none"
         d="m -20.5781,-0.1406 q 0,-2.0625 0.9375,-3 0.6562,-0.6563 1.6406,-0.6563 0.9844,0 1.6406,0.6563 0.9375,0.9375 0.9375,3 v 0.9375 q 0,2.0156 -0.9375,2.9531 -0.6562,0.6562 -1.6406,0.6562 -0.9844,0 -1.6406,-0.6562 -0.9375,-0.9375 -0.9375,-2.9531 z m 1.7343,-2.3906 q -0.6093,0.6093 -0.6093,2.2968 v 1.0782 q 0,1.6406 0.6562,2.2968 0.375,0.375 0.7969,0.375 0.4688,0 0.8438,-0.375 0.6093,-0.6094 0.6093,-2.2968 v -1.0782 q 0,-1.6875 -0.6093,-2.2968 -0.375,-0.375 -0.8438,-0.375 -0.4688,0 -0.8438,0.375 z m 4.5469,5.8593 h 1.0781 v 1.0313 h -1.0781 z m 2.1563,-3.4687 q 0,-2.0625 0.9375,-3 0.6562,-0.6563 1.6406,-0.6563 0.9844,0 1.6406,0.6563 0.9375,0.9375 0.9375,3 v 0.9375 q 0,2.0156 -0.9375,2.9531 -0.6562,0.6562 -1.6406,0.6562 -0.9844,0 -1.6406,-0.6562 -0.9375,-0.9375 -0.9375,-2.9531 z m 1.7344,-2.3906 q -0.6094,0.6093 -0.6094,2.2968 v 1.0782 q 0,1.6406 0.6562,2.2968 0.375,0.375 0.7969,0.375 0.4687,0 0.8437,-0.375 0.6094,-0.6094 0.6094,-2.2968 v -1.0782 q 0,-1.6875 -0.6094,-2.2968 -0.375,-0.375 -0.8437,-0.375 -0.4687,0 -0.8437,0.375 z m 5.0156,-1.125 h 4.0312 v 0.8906 H -4.5 v 0.1406 q -0.0469,0.8906 -0.1406,1.7344 -0.0469,0.1406 -0.0469,0.2812 0.6094,-0.5625 1.3125,-0.5625 0.9375,0 1.5469,0.6094 0.6562,0.6563 0.6562,1.9219 0,1.5937 -0.8437,2.4375 -0.6563,0.6562 -1.6406,0.6562 -0.9376,0 -1.5469,-0.6093 -0.6094,-0.6094 -0.75,-1.8282 h 1.0781 q 0.0938,0.8906 0.4688,1.2656 0.2812,0.2813 0.7031,0.2813 0.5625,0 0.8906,-0.3281 0.5156,-0.5156 0.5156,-1.7344 0,-1.1719 -0.4219,-1.5938 Q -3,-0.375 -3.375,-0.375 q -0.5625,0 -0.9844,0.4219 -0.2812,0.2812 -0.375,0.4219 H -5.6719 Q -5.625,0.2812 -5.625,0.1406 l 0.2344,-3.6094 z"
         id="path5561"
         inkscape:connector-curvature="0" />
    </g>
    <g
       transform="matrix(2,0,0,2,75.639868,282.17232)"
       style="font-family:'MS UI Gothic';color-interpolation:linearRGB;fill:#262626;stroke:#262626;color-rendering:optimizeQuality;image-rendering:optimizeQuality;text-rendering:geometricPrecision"
       id="g5567">
      <path
         style="stroke:none"
         d="m -14.5781,-0.1406 q 0,-2.0625 0.9375,-3 0.6562,-0.6563 1.6406,-0.6563 0.9844,0 1.6406,0.6563 0.9375,0.9375 0.9375,3 v 0.9375 q 0,2.0156 -0.9375,2.9531 -0.6562,0.6562 -1.6406,0.6562 -0.9844,0 -1.6406,-0.6562 -0.9375,-0.9375 -0.9375,-2.9531 z m 1.7343,-2.3906 q -0.6093,0.6093 -0.6093,2.2968 v 1.0782 q 0,1.6406 0.6562,2.2968 0.375,0.375 0.7969,0.375 0.4688,0 0.8438,-0.375 0.6093,-0.6094 0.6093,-2.2968 v -1.0782 q 0,-1.6875 -0.6093,-2.2968 -0.375,-0.375 -0.8438,-0.375 -0.4688,0 -0.8438,0.375 z m 4.5469,5.8593 h 1.0781 v 1.0313 h -1.0781 z m 4.9219,-7.125 h 0.5625 v 8.1094 h -1.0781 v -6.2344 h -1.4063 v -0.5625 h 0.4219 q 0.6562,0 1.0312,-0.375 0.4219,-0.4218 0.4688,-0.9375 z"
         id="path5565"
         inkscape:connector-curvature="0" />
    </g>
    <g
       transform="matrix(2,0,0,2,71.604621,250.28588)"
       style="font-family:'MS UI Gothic';color-interpolation:linearRGB;fill:#262626;stroke:#262626;color-rendering:optimizeQuality;image-rendering:optimizeQuality;text-rendering:geometricPrecision"
       id="g5571">
      <path
         style="stroke:none"
         d="m -20.5781,-0.1406 q 0,-2.0625 0.9375,-3 0.6562,-0.6563 1.6406,-0.6563 0.9844,0 1.6406,0.6563 0.9375,0.9375 0.9375,3 v 0.9375 q 0,2.0156 -0.9375,2.9531 -0.6562,0.6562 -1.6406,0.6562 -0.9844,0 -1.6406,-0.6562 -0.9375,-0.9375 -0.9375,-2.9531 z m 1.7343,-2.3906 q -0.6093,0.6093 -0.6093,2.2968 v 1.0782 q 0,1.6406 0.6562,2.2968 0.375,0.375 0.7969,0.375 0.4688,0 0.8438,-0.375 0.6093,-0.6094 0.6093,-2.2968 v -1.0782 q 0,-1.6875 -0.6093,-2.2968 -0.375,-0.375 -0.8438,-0.375 -0.4688,0 -0.8438,0.375 z m 4.5469,5.8593 h 1.0781 v 1.0313 h -1.0781 z m 4.9219,-7.125 h 0.5625 v 8.1094 h -1.0781 v -6.2344 h -1.4063 v -0.5625 h 0.4219 q 0.6562,0 1.0312,-0.375 0.4219,-0.4218 0.4688,-0.9375 z m 3.9844,0.1407 h 4.0312 v 0.8906 H -4.5 v 0.1406 q -0.0469,0.8906 -0.1406,1.7344 -0.0469,0.1406 -0.0469,0.2812 0.6094,-0.5625 1.3125,-0.5625 0.9375,0 1.5469,0.6094 0.6562,0.6563 0.6562,1.9219 0,1.5937 -0.8437,2.4375 -0.6563,0.6562 -1.6406,0.6562 -0.9376,0 -1.5469,-0.6093 -0.6094,-0.6094 -0.75,-1.8282 h 1.0781 q 0.0938,0.8906 0.4688,1.2656 0.2812,0.2813 0.7031,0.2813 0.5625,0 0.8906,-0.3281 0.5156,-0.5156 0.5156,-1.7344 0,-1.1719 -0.4219,-1.5938 Q -3,-0.375 -3.375,-0.375 q -0.5625,0 -0.9844,0.4219 -0.2812,0.2812 -0.375,0.4219 H -5.6719 Q -5.625,0.2812 -5.625,0.1406 l 0.2344,-3.6094 z"
         id="path5569"
         inkscape:connector-curvature="0" />
    </g>
    <g
       transform="matrix(2,0,0,2,72.640409,214.68363)"
       style="font-family:'MS UI Gothic';color-interpolation:linearRGB;fill:#262626;stroke:#262626;color-rendering:optimizeQuality;image-rendering:optimizeQuality;text-rendering:geometricPrecision"
       id="g5575">
      <path
         style="stroke:none"
         d="m -14.5781,-0.1406 q 0,-2.0625 0.9375,-3 0.6562,-0.6563 1.6406,-0.6563 0.9844,0 1.6406,0.6563 0.9375,0.9375 0.9375,3 v 0.9375 q 0,2.0156 -0.9375,2.9531 -0.6562,0.6562 -1.6406,0.6562 -0.9844,0 -1.6406,-0.6562 -0.9375,-0.9375 -0.9375,-2.9531 z m 1.7343,-2.3906 q -0.6093,0.6093 -0.6093,2.2968 v 1.0782 q 0,1.6406 0.6562,2.2968 0.375,0.375 0.7969,0.375 0.4688,0 0.8438,-0.375 0.6093,-0.6094 0.6093,-2.2968 v -1.0782 q 0,-1.6875 -0.6093,-2.2968 -0.375,-0.375 -0.8438,-0.375 -0.4688,0 -0.8438,0.375 z m 4.5469,5.8593 h 1.0781 v 1.0313 h -1.0781 z m 2.5313,-4.2656 q 0,-1.4531 0.75,-2.2031 0.6094,-0.6094 1.4531,-0.6094 1.0313,0 1.6406,0.6094 0.6094,0.6094 0.6094,1.5 0,1.125 -0.7031,1.9687 -0.6563,0.7969 -1.3594,1.5469 -0.375,0.4219 -0.75,0.8438 -0.3281,0.375 -0.5625,0.75 h 3.5156 V 4.3594 H -5.9531 V 3.5625 q 0.0937,-0.4687 0.7969,-1.3125 1.1718,-1.2656 1.9218,-2.1094 0.7969,-0.8437 0.7969,-1.7812 0,-0.5625 -0.375,-0.9375 -0.2813,-0.2813 -0.7031,-0.2813 -0.375,0 -0.6563,0.2813 -0.5156,0.5156 -0.5156,1.6406 z"
         id="path5573"
         inkscape:connector-curvature="0" />
    </g>
    <g
       transform="matrix(2,0,0,2,73.015409,183.43673)"
       style="font-family:'MS UI Gothic';color-interpolation:linearRGB;fill:#262626;stroke:#262626;color-rendering:optimizeQuality;image-rendering:optimizeQuality;text-rendering:geometricPrecision"
       id="g5579">
      <path
         style="stroke:none"
         d="m -20.5781,-0.1406 q 0,-2.0625 0.9375,-3 0.6562,-0.6563 1.6406,-0.6563 0.9844,0 1.6406,0.6563 0.9375,0.9375 0.9375,3 v 0.9375 q 0,2.0156 -0.9375,2.9531 -0.6562,0.6562 -1.6406,0.6562 -0.9844,0 -1.6406,-0.6562 -0.9375,-0.9375 -0.9375,-2.9531 z m 1.7343,-2.3906 q -0.6093,0.6093 -0.6093,2.2968 v 1.0782 q 0,1.6406 0.6562,2.2968 0.375,0.375 0.7969,0.375 0.4688,0 0.8438,-0.375 0.6093,-0.6094 0.6093,-2.2968 v -1.0782 q 0,-1.6875 -0.6093,-2.2968 -0.375,-0.375 -0.8438,-0.375 -0.4688,0 -0.8438,0.375 z m 4.5469,5.8593 h 1.0781 v 1.0313 h -1.0781 z m 2.5313,-4.2656 q 0,-1.4531 0.75,-2.2031 0.6094,-0.6094 1.4531,-0.6094 1.0313,0 1.6406,0.6094 0.6094,0.6094 0.6094,1.5 0,1.125 -0.7031,1.9687 -0.6563,0.7969 -1.3594,1.5469 -0.375,0.4219 -0.75,0.8438 -0.3281,0.375 -0.5625,0.75 h 3.5156 v 0.8906 h -4.7812 V 3.5625 q 0.0937,-0.4687 0.7969,-1.3125 1.1718,-1.2656 1.9218,-2.1094 0.7969,-0.8437 0.7969,-1.7812 0,-0.5625 -0.375,-0.9375 -0.2813,-0.2813 -0.7031,-0.2813 -0.375,0 -0.6563,0.2813 -0.5156,0.5156 -0.5156,1.6406 z m 6.375,-2.7187 h 4.0312 v 0.8906 H -4.5 v 0.1406 q -0.0469,0.8906 -0.1406,1.7344 -0.0469,0.1406 -0.0469,0.2812 0.6094,-0.5625 1.3125,-0.5625 0.9375,0 1.5469,0.6094 0.6562,0.6563 0.6562,1.9219 0,1.5937 -0.8437,2.4375 -0.6563,0.6562 -1.6406,0.6562 -0.9376,0 -1.5469,-0.6093 -0.6094,-0.6094 -0.75,-1.8282 h 1.0781 q 0.0938,0.8906 0.4688,1.2656 0.2812,0.2813 0.7031,0.2813 0.5625,0 0.8906,-0.3281 0.5156,-0.5156 0.5156,-1.7344 0,-1.1719 -0.4219,-1.5938 Q -3,-0.375 -3.375,-0.375 q -0.5625,0 -0.9844,0.4219 -0.2812,0.2812 -0.375,0.4219 H -5.6719 Q -5.625,0.2812 -5.625,0.1406 l 0.2344,-3.6094 z"
         id="path5577"
         inkscape:connector-curvature="0" />
    </g>
    <g
       transform="matrix(2,0,0,2,75.359009,151.3469)"
       style="font-family:'MS UI Gothic';color-interpolation:linearRGB;fill:#262626;stroke:#262626;color-rendering:optimizeQuality;image-rendering:optimizeQuality;text-rendering:geometricPrecision"
       id="g5583">
      <path
         style="stroke:none"
         d="m -14.5781,-0.1406 q 0,-2.0625 0.9375,-3 0.6562,-0.6563 1.6406,-0.6563 0.9844,0 1.6406,0.6563 0.9375,0.9375 0.9375,3 v 0.9375 q 0,2.0156 -0.9375,2.9531 -0.6562,0.6562 -1.6406,0.6562 -0.9844,0 -1.6406,-0.6562 -0.9375,-0.9375 -0.9375,-2.9531 z m 1.7343,-2.3906 q -0.6093,0.6093 -0.6093,2.2968 v 1.0782 q 0,1.6406 0.6562,2.2968 0.375,0.375 0.7969,0.375 0.4688,0 0.8438,-0.375 0.6093,-0.6094 0.6093,-2.2968 v -1.0782 q 0,-1.6875 -0.6093,-2.2968 -0.375,-0.375 -0.8438,-0.375 -0.4688,0 -0.8438,0.375 z m 4.5469,5.8593 h 1.0781 v 1.0313 h -1.0781 z m 2.5313,-4.6875 q 0,-1.0781 0.7031,-1.7812 0.6094,-0.6094 1.5,-0.6094 1.0313,0 1.6406,0.6094 0.5625,0.5625 0.5625,1.5 0,0.9375 -0.4687,1.4062 -0.3281,0.3282 -0.7031,0.375 0.4687,0.1406 0.7968,0.4688 0.5625,0.5625 0.5625,1.5 0,1.0312 -0.6562,1.6875 -0.6563,0.6562 -1.8281,0.6562 -0.9844,0 -1.6407,-0.6562 Q -5.9531,3.1406 -5.9531,2.25 V 1.875 h 1.0781 v 0.3281 q 0,0.6094 0.4219,1.0313 0.3281,0.3281 0.7969,0.3281 0.6093,0 0.9843,-0.375 0.375,-0.375 0.375,-1.1719 0,-0.6562 -0.375,-1.0312 -0.375,-0.375 -0.8437,-0.375 h -0.375 v -0.7969 h 0.2812 q 0.4219,0 0.7969,-0.375 0.375,-0.375 0.375,-1.0781 0,-0.6094 -0.375,-0.9844 -0.2813,-0.2812 -0.75,-0.2812 -0.4219,0 -0.75,0.3281 -0.375,0.375 -0.4219,1.2187 z"
         id="path5581"
         inkscape:connector-curvature="0" />
    </g>
    <g
       transform="matrix(2,0,0,2,73.015409,120.1469)"
       style="font-family:'MS UI Gothic';color-interpolation:linearRGB;fill:#262626;stroke:#262626;color-rendering:optimizeQuality;image-rendering:optimizeQuality;text-rendering:geometricPrecision"
       id="g5587">
      <path
         style="stroke:none"
         d="m -20.5781,-0.1406 q 0,-2.0625 0.9375,-3 0.6562,-0.6563 1.6406,-0.6563 0.9844,0 1.6406,0.6563 0.9375,0.9375 0.9375,3 v 0.9375 q 0,2.0156 -0.9375,2.9531 -0.6562,0.6562 -1.6406,0.6562 -0.9844,0 -1.6406,-0.6562 -0.9375,-0.9375 -0.9375,-2.9531 z m 1.7343,-2.3906 q -0.6093,0.6093 -0.6093,2.2968 v 1.0782 q 0,1.6406 0.6562,2.2968 0.375,0.375 0.7969,0.375 0.4688,0 0.8438,-0.375 0.6093,-0.6094 0.6093,-2.2968 v -1.0782 q 0,-1.6875 -0.6093,-2.2968 -0.375,-0.375 -0.8438,-0.375 -0.4688,0 -0.8438,0.375 z m 4.5469,5.8593 h 1.0781 v 1.0313 h -1.0781 z m 2.5313,-4.6875 q 0,-1.0781 0.7031,-1.7812 0.6094,-0.6094 1.5,-0.6094 1.0313,0 1.6406,0.6094 0.5625,0.5625 0.5625,1.5 0,0.9375 -0.4687,1.4062 -0.3281,0.3282 -0.7031,0.375 0.4687,0.1406 0.7968,0.4688 0.5625,0.5625 0.5625,1.5 0,1.0312 -0.6562,1.6875 -0.6563,0.6562 -1.8281,0.6562 -0.9844,0 -1.6407,-0.6562 Q -11.9531,3.1406 -11.9531,2.25 V 1.875 h 1.0781 v 0.3281 q 0,0.6094 0.4219,1.0313 0.3281,0.3281 0.7969,0.3281 0.6093,0 0.9843,-0.375 0.375,-0.375 0.375,-1.1719 0,-0.6562 -0.375,-1.0312 -0.375,-0.375 -0.8437,-0.375 h -0.375 v -0.7969 h 0.2812 q 0.4219,0 0.7969,-0.375 0.375,-0.375 0.375,-1.0781 0,-0.6094 -0.375,-0.9844 -0.2813,-0.2812 -0.75,-0.2812 -0.4219,0 -0.75,0.3281 -0.375,0.375 -0.4219,1.2187 z m 6.375,-2.2968 h 4.0312 v 0.8906 H -4.5 v 0.1406 q -0.0469,0.8906 -0.1406,1.7344 -0.0469,0.1406 -0.0469,0.2812 0.6094,-0.5625 1.3125,-0.5625 0.9375,0 1.5469,0.6094 0.6562,0.6563 0.6562,1.9219 0,1.5937 -0.8437,2.4375 -0.6563,0.6562 -1.6406,0.6562 -0.9376,0 -1.5469,-0.6093 -0.6094,-0.6094 -0.75,-1.8282 h 1.0781 q 0.0938,0.8906 0.4688,1.2656 0.2812,0.2813 0.7031,0.2813 0.5625,0 0.8906,-0.3281 0.5156,-0.5156 0.5156,-1.7344 0,-1.1719 -0.4219,-1.5938 Q -3,-0.375 -3.375,-0.375 q -0.5625,0 -0.9844,0.4219 -0.2812,0.2812 -0.375,0.4219 H -5.6719 Q -5.625,0.2812 -5.625,0.1406 l 0.2344,-3.6094 z"
         id="path5585"
         inkscape:connector-curvature="0" />
    </g>
    <g
       transform="matrix(2,0,0,2,74.875,90.587602)"
       style="font-family:'MS UI Gothic';color-interpolation:linearRGB;fill:#262626;stroke:#262626;color-rendering:optimizeQuality;image-rendering:optimizeQuality;text-rendering:geometricPrecision"
       id="g5591">
      <path
         style="stroke:none"
         d="m -14.5781,-0.1406 q 0,-2.0625 0.9375,-3 0.6562,-0.6563 1.6406,-0.6563 0.9844,0 1.6406,0.6563 0.9375,0.9375 0.9375,3 v 0.9375 q 0,2.0156 -0.9375,2.9531 -0.6562,0.6562 -1.6406,0.6562 -0.9844,0 -1.6406,-0.6562 -0.9375,-0.9375 -0.9375,-2.9531 z m 1.7343,-2.3906 q -0.6093,0.6093 -0.6093,2.2968 v 1.0782 q 0,1.6406 0.6562,2.2968 0.375,0.375 0.7969,0.375 0.4688,0 0.8438,-0.375 0.6093,-0.6094 0.6093,-2.2968 v -1.0782 q 0,-1.6875 -0.6093,-2.2968 -0.375,-0.375 -0.8438,-0.375 -0.4688,0 -0.8438,0.375 z m 4.5469,5.8593 h 1.0781 V 4.3594 H -8.2969 Z M -3,-3.75 h 1.0781 v 5.1562 h 0.9844 V 2.2969 H -1.9219 V 4.3594 H -3 V 2.2969 H -6.1406 V 1.3594 Z m 0,1.7344 -2.1094,3.4218 H -3 Z"
         id="path5589"
         inkscape:connector-curvature="0" />
    </g>
    <g
       transform="matrix(2,0,0,2,73.015409,57.7469)"
       style="font-family:'MS UI Gothic';color-interpolation:linearRGB;fill:#262626;stroke:#262626;color-rendering:optimizeQuality;image-rendering:optimizeQuality;text-rendering:geometricPrecision"
       id="g5595">
      <path
         style="stroke:none"
         d="m -20.5781,-0.1406 q 0,-2.0625 0.9375,-3 0.6562,-0.6563 1.6406,-0.6563 0.9844,0 1.6406,0.6563 0.9375,0.9375 0.9375,3 v 0.9375 q 0,2.0156 -0.9375,2.9531 -0.6562,0.6562 -1.6406,0.6562 -0.9844,0 -1.6406,-0.6562 -0.9375,-0.9375 -0.9375,-2.9531 z m 1.7343,-2.3906 q -0.6093,0.6093 -0.6093,2.2968 v 1.0782 q 0,1.6406 0.6562,2.2968 0.375,0.375 0.7969,0.375 0.4688,0 0.8438,-0.375 0.6093,-0.6094 0.6093,-2.2968 v -1.0782 q 0,-1.6875 -0.6093,-2.2968 -0.375,-0.375 -0.8438,-0.375 -0.4688,0 -0.8438,0.375 z m 4.5469,5.8593 h 1.0781 v 1.0313 h -1.0781 z M -9,-3.75 h 1.0781 v 5.1562 h 0.9844 V 2.2969 H -7.9219 V 4.3594 H -9 V 2.2969 h -3.1406 V 1.3594 Z m 0,1.7344 -2.1094,3.4218 H -9 Z m 3.6094,-1.6406 h 4.0312 v 0.8906 H -4.5 v 0.1406 q -0.0469,0.8906 -0.1406,1.7344 -0.0469,0.1406 -0.0469,0.2812 0.6094,-0.5625 1.3125,-0.5625 0.9375,0 1.5469,0.6094 0.6562,0.6563 0.6562,1.9219 0,1.5937 -0.8437,2.4375 -0.6563,0.6562 -1.6406,0.6562 -0.9376,0 -1.5469,-0.6093 -0.6094,-0.6094 -0.75,-1.8282 h 1.0781 q 0.0938,0.8906 0.4688,1.2656 0.2812,0.2813 0.7031,0.2813 0.5625,0 0.8906,-0.3281 0.5156,-0.5156 0.5156,-1.7344 0,-1.1719 -0.4219,-1.5938 Q -3,-0.375 -3.375,-0.375 q -0.5625,0 -0.9844,0.4219 -0.2812,0.2812 -0.375,0.4219 H -5.6719 Q -5.625,0.2812 -5.625,0.1406 l 0.2344,-3.6094 z"
         id="path5593"
         inkscape:connector-curvature="0" />
    </g>
    <g
       transform="matrix(2,0,0,2,73.015409,28.326561)"
       style="font-family:'MS UI Gothic';color-interpolation:linearRGB;fill:#262626;stroke:#262626;color-rendering:optimizeQuality;image-rendering:optimizeQuality;text-rendering:geometricPrecision"
       id="g5599">
      <path
         style="stroke:none"
         d="m -14.5781,-0.1406 q 0,-2.0625 0.9375,-3 0.6562,-0.6563 1.6406,-0.6563 0.9844,0 1.6406,0.6563 0.9375,0.9375 0.9375,3 v 0.9375 q 0,2.0156 -0.9375,2.9531 -0.6562,0.6562 -1.6406,0.6562 -0.9844,0 -1.6406,-0.6562 -0.9375,-0.9375 -0.9375,-2.9531 z m 1.7343,-2.3906 q -0.6093,0.6093 -0.6093,2.2968 v 1.0782 q 0,1.6406 0.6562,2.2968 0.375,0.375 0.7969,0.375 0.4688,0 0.8438,-0.375 0.6093,-0.6094 0.6093,-2.2968 v -1.0782 q 0,-1.6875 -0.6093,-2.2968 -0.375,-0.375 -0.8438,-0.375 -0.4688,0 -0.8438,0.375 z m 4.5469,5.8593 h 1.0781 v 1.0313 h -1.0781 z m 2.9063,-6.9843 h 4.0312 v 0.8906 H -4.5 v 0.1406 q -0.0469,0.8906 -0.1406,1.7344 -0.0469,0.1406 -0.0469,0.2812 0.6094,-0.5625 1.3125,-0.5625 0.9375,0 1.5469,0.6094 0.6562,0.6563 0.6562,1.9219 0,1.5937 -0.8437,2.4375 -0.6563,0.6562 -1.6406,0.6562 -0.9376,0 -1.5469,-0.6093 -0.6094,-0.6094 -0.75,-1.8282 h 1.0781 q 0.0938,0.8906 0.4688,1.2656 0.2812,0.2813 0.7031,0.2813 0.5625,0 0.8906,-0.3281 0.5156,-0.5156 0.5156,-1.7344 0,-1.1719 -0.4219,-1.5938 Q -3,-0.375 -3.375,-0.375 q -0.5625,0 -0.9844,0.4219 -0.2812,0.2812 -0.375,0.4219 H -5.6719 Q -5.625,0.2812 -5.625,0.1406 l 0.2344,-3.6094 z"
         id="path5597"
         inkscape:connector-curvature="0" />
    </g>
    <g
       style="color-interpolation:linearRGB;fill:#ff0000;stroke:#ff0000;stroke-width:0.66670001;stroke-linecap:butt;stroke-linejoin:round;color-rendering:optimizeQuality;image-rendering:optimizeQuality;text-rendering:geometricPrecision"
       id="g5607">
      <path
         d="m 73,31 h 4.34 l 4.34,2e-4 4.34,7e-4 4.34,0.0019 4.34,0.004 4.34,0.0073 4.34,0.0119 4.34,0.0182 4.34,0.0264 4.34,0.0366 4.34,0.0492 4.34,0.0642 4.34,0.0819 4.34,0.1025 4.34,0.126 4.34,0.1528 4.34,0.1829 4.34,0.2163 4.34,0.2533 4.34,0.2939 4.34,0.3382 4.34,0.3862 4.34,0.438 4.34,0.4937 4.34,0.5532 4.34,0.6166 4.34,0.6837 4.34,0.7547 4.34,0.8294 4.34,0.9079 4.34,0.9899 4.34,1.0754 4.34,1.1646 4.34,1.2569 4.34,1.3525 4.34,1.4512 4.34,1.5527 4.34,1.6572 4.34,1.7641 4.34,1.8736 4.34,1.9853 4.34,2.099 4.34,2.2147 4.34,2.3319 4.34,2.4507 4.34,2.5707 4.34,2.6917 4.34,2.8135 4.34,2.9359 4.34,3.0586 4.34,3.1814 4.34,3.3041 4.34,3.4265 4.34,3.5483 4.34,3.6693 4.34,3.7893 4.34,3.9081 4.34,4.0253 4.34,4.141 4.34,4.2547 4.34,4.3664 4.34,4.4759 4.34,4.5828 4.34,4.6873 4.34,4.7888 4.34,4.8875 4.34,4.9831 4.34,5.0755 4.34,5.1645 4.34,5.2501 4.34,5.3321 4.34,5.4106 4.34,5.4853 4.34,5.5563 4.34,5.6234 4.34,5.6868 4.34,5.7463 4.34,5.802 4.34,5.8538 4.34,5.9018 4.34,5.9461 4.34,5.9867 4.34,6.0237 4.34,6.0571 4.34,6.0872 4.34,6.114 4.34,6.1375 4.34,6.1581 4.34,6.1758 4.34,6.1908 4.34,6.2034 4.34,6.2136 4.34,6.2218 4.34,6.2281 4.34,6.2327 4.34,6.236 4.34,6.2381 4.34,6.2393 4.34,6.2398 4.34,6.24"
         style="fill:none;fill-rule:evenodd;stroke:#9c0c0c;stroke-width:1.5;stroke-miterlimit:10;stroke-dasharray:none;stroke-opacity:1"
         id="path5601"
         inkscape:connector-curvature="0" />
      <path
         d="m 73,31 h 4.34 4.34 l 4.34,10e-5 4.34,3e-4 4.34,8e-4 4.34,0.0018 4.34,0.0034 4.34,0.0057 4.34,0.0093 4.34,0.0142 4.34,0.0204 4.34,0.0288 4.34,0.039 4.34,0.0517 4.34,0.0669 4.34,0.0851 4.34,0.1063 4.34,0.1309 4.34,0.159 4.34,0.1908 4.34,0.2267 4.34,0.2665 4.34,0.3107 4.34,0.3592 4.34,0.4123 4.34,0.4698 4.34,0.5321 4.34,0.5989 4.34,0.6705 4.34,0.7468 4.34,0.8277 4.34,0.9132 4.34,1.0032 4.34,1.0976 4.34,1.1963 4.34,1.2991 4.34,1.406 4.34,1.5166 4.34,1.6308 4.34,1.7484 4.34,1.8692 4.34,1.9928 4.34,2.1191 4.34,2.2477 4.34,2.3783 4.34,2.5108 4.34,2.6446 4.34,2.7796 4.34,2.9155 4.34,3.0517 4.34,3.1883 4.34,3.3245 4.34,3.4604 4.34,3.5954 4.34,3.7292 4.34,3.8617 4.34,3.9923 4.34,4.1209 4.34,4.2472 4.34,4.3708 4.34,4.4916 4.34,4.6092 4.34,4.7234 4.34,4.834 4.34,4.9408 4.34,5.0438 4.34,5.1424 4.34,5.2368 4.34,5.3268 4.34,5.4123 4.34,5.4933 4.34,5.5694 4.34,5.641 4.34,5.708 4.34,5.7702 4.34,5.8277 4.34,5.8808 4.34,5.9293 4.34,5.9735 4.34,6.0133 4.34,6.0492 4.34,6.081 4.34,6.1091 4.34,6.1337 4.34,6.155 4.34,6.173 4.34,6.1883 4.34,6.201 4.34,6.2112 4.34,6.2196 4.34,6.2259 4.34,6.2307 4.34,6.2342 4.34,6.2366 4.34,6.2382 4.34,6.2392 4.34,6.2397 4.34,6.2399 4.34,6.24 4.34,6.24"
         style="fill:none;fill-rule:evenodd;stroke:#3100ff;stroke-width:1.5;stroke-miterlimit:10;stroke-dasharray:12, 12;stroke-dashoffset:0;stroke-opacity:1"
         id="path5603"
         inkscape:connector-curvature="0" />
      <path
         d="m 73,31 h 4.34 4.34 4.34 4.34 4.34 4.34 4.34 4.34 4.34 4.34 4.34 4.34 4.34 4.34 4.34 4.34 4.34 4.34 4.34 4.34 4.34 4.34 4.34 4.34 4.34 4.34 4.34 4.34 4.34 4.34 4.34 4.34 4.34 4.34 4.34 4.34 4.34 4.34 4.34 4.34 4.34 4.34 4.34 4.34 4.34 4.34 4.34 4.34 4.34 4.34 l 4.34,6.24 4.34,6.24 4.34,6.24 4.34,6.24 4.34,6.24 4.34,6.24 4.34,6.24 4.34,6.24 4.34,6.24 4.34,6.24 4.34,6.24 4.34,6.24 4.34,6.24 4.34,6.24 4.34,6.24 4.34,6.24 4.34,6.24 4.34,6.24 4.34,6.24 4.34,6.24 4.34,6.24 4.34,6.24 4.34,6.24 4.34,6.24 4.34,6.24 4.34,6.24 4.34,6.24 4.34,6.24 4.34,6.24 4.34,6.24 4.34,6.24 4.34,6.24 4.34,6.24 4.34,6.24 4.34,6.24 4.34,6.24 4.34,6.24 4.34,6.24 4.34,6.24 4.34,6.24 4.34,6.24 4.34,6.24 4.34,6.24 4.34,6.24 4.34,6.24 4.34,6.24 4.34,6.24 4.34,6.24 4.34,6.24 4.34,6.24"
         style="fill:none;fill-rule:evenodd;stroke:#099d09;stroke-width:1.5;stroke-miterlimit:10;stroke-dasharray:none;stroke-opacity:1"
         id="path5605"
         inkscape:connector-curvature="0" />
    </g>
    <g
       style="color-interpolation:sRGB;fill:#ffffff;stroke:#ffffff;color-rendering:optimizeSpeed;image-rendering:optimizeSpeed;shape-rendering:crispEdges;text-rendering:optimizeSpeed"
       id="g5611"
       transform="translate(-49,-6.9374939)">
      <path
         style="stroke:none"
         d="M 496,83 V 42 h -93 v 41 z"
         id="path5609"
         inkscape:connector-curvature="0" />
    </g>
    <g
       style="color-interpolation:linearRGB;fill:#ff0000;stroke:#9c0c0c;stroke-width:1.5;stroke-linecap:butt;stroke-linejoin:round;stroke-miterlimit:10;stroke-dasharray:none;stroke-opacity:1;color-rendering:optimizeQuality;image-rendering:optimizeQuality;text-rendering:geometricPrecision"
       id="g5619"
       transform="translate(-48.685397,-19.175376)">
      <line
         y2="50"
         style="fill:none;stroke:#9c0c0c;stroke-width:1.5;stroke-miterlimit:10;stroke-dasharray:none;stroke-opacity:1"
         x1="407"
         x2="447"
         y1="50"
         id="line5617" />
    </g>
    <g
       style="color-interpolation:linearRGB;fill:#0000ff;stroke:#3100ff;stroke-width:1.5;stroke-linecap:butt;stroke-linejoin:round;stroke-miterlimit:10;stroke-dasharray:9, 1.5;stroke-dashoffset:0;stroke-opacity:1;color-rendering:optimizeQuality;image-rendering:optimizeQuality;text-rendering:geometricPrecision"
       id="g5627"
       transform="translate(-49,-6.9374939)">
      <line
         y2="59.353973"
         style="fill:none;stroke:#3100ff;stroke-width:1.5;stroke-miterlimit:10;stroke-dasharray:9, 1.5;stroke-dashoffset:0;stroke-opacity:1"
         x1="407.31461"
         x2="447.31461"
         y1="59.353973"
         id="line5625" />
    </g>
    <line
       id="line5633"
       y1="79.268417"
       x2="399.39407"
       x1="359.39407"
       style="color-interpolation:linearRGB;fill:none;stroke:#099d09;stroke-width:1.66932535;stroke-linecap:butt;stroke-linejoin:round;stroke-miterlimit:10;stroke-dasharray:none;stroke-opacity:1;color-rendering:optimizeQuality;image-rendering:optimizeQuality;text-rendering:geometricPrecision"
       y2="79.268417" />
    <path
       inkscape:connector-curvature="0"
       id="path5635"
       style="color-interpolation:linearRGB;fill:none;fill-rule:evenodd;stroke:#262626;stroke-width:1.27497923;stroke-linecap:butt;stroke-linejoin:miter;color-rendering:optimizeQuality;image-rendering:optimizeQuality;text-rendering:geometricPrecision"
       d="M 352.94489,96.881562 V 12.486469 h 165.23229 v 84.395093 z" />
    <text
       xml:space="preserve"
       style="font-style:normal;font-variant:normal;font-weight:normal;font-stretch:normal;font-size:13.33333302px;line-height:1.25;font-family:'Times New Roman';-inkscape-font-specification:'Times New Roman, ';text-align:start;letter-spacing:0px;word-spacing:0px;text-anchor:start;color-interpolation:auto;fill:#000000;fill-opacity:1;stroke:none;stroke-width:1;stroke-linecap:square;stroke-linejoin:miter;stroke-miterlimit:10;stroke-dasharray:none;stroke-dashoffset:0;stroke-opacity:1;color-rendering:auto;image-rendering:auto;shape-rendering:auto;text-rendering:auto"
       x="401.71896"
       y="90.741974"
       id="text5430"><tspan
         sodipodi:role="line"
         id="tspan5428"
         x="401.71896"
         y="90.741974"
         style="font-size:21.33333397px"><tspan
           style="font-style:italic;font-variant:normal;font-weight:normal;font-stretch:normal;font-family:'Times New Roman';-inkscape-font-specification:'Times New Roman,  Italic'"
           id="tspan924">R</tspan><tspan
           style="font-size:21.33333397px;baseline-shift:super"
           id="tspan5434"
           dy="3"
           dx="-2">*</tspan><tspan
           style="font-size:21.33333397px;baseline-shift:sub"
           id="tspan5432"
           dy="-5"
           dx="-8">sec</tspan></tspan></text>
    <text
       xml:space="preserve"
       style="font-style:normal;font-variant:normal;font-weight:normal;font-stretch:normal;font-size:13.33333302px;line-height:1.25;font-family:'Times New Roman';-inkscape-font-specification:'Times New Roman, ';text-align:start;letter-spacing:0px;word-spacing:0px;text-anchor:start;color-interpolation:auto;fill:#000000;fill-opacity:1;stroke:none;stroke-width:1;stroke-linecap:square;stroke-linejoin:miter;stroke-miterlimit:10;stroke-dasharray:none;stroke-dashoffset:0;stroke-opacity:1;color-rendering:auto;image-rendering:auto;shape-rendering:auto;text-rendering:auto"
       x="400.76019"
       y="37.121521"
       id="text4682"><tspan
         sodipodi:role="line"
         id="tspan4680"
         x="400.76019"
         y="37.121521"
         style="font-size:21.33333397px">ExHam(8,4)</tspan></text>
    <text
       xml:space="preserve"
       style="font-style:normal;font-variant:normal;font-weight:normal;font-stretch:normal;font-size:13.33333302px;line-height:1.25;font-family:'Times New Roman';-inkscape-font-specification:'Times New Roman, ';text-align:start;letter-spacing:0px;word-spacing:0px;text-anchor:start;color-interpolation:auto;fill:#000000;fill-opacity:1;stroke:none;stroke-width:1;stroke-linecap:square;stroke-linejoin:miter;stroke-miterlimit:10;stroke-dasharray:none;stroke-dashoffset:0;stroke-opacity:1;color-rendering:auto;image-rendering:auto;shape-rendering:auto;text-rendering:auto"
       x="401.36871"
       y="62.494896"
       id="text4688"><tspan
         sodipodi:role="line"
         id="tspan4686"
         x="401.36871"
         y="62.494896"
         style="font-size:21.33333397px"><tspan
           style="font-style:italic;font-variant:normal;font-weight:normal;font-stretch:normal;font-family:'Times New Roman';-inkscape-font-specification:'Times New Roman,  Italic'"
           id="tspan922">R</tspan><tspan
           style="font-size:21.33333397px;baseline-shift:sub"
           id="tspan4694">sec</tspan></tspan></text>
    <path
       style="font-style:normal;font-weight:normal;font-size:12px;font-family:Dialog;color-interpolation:auto;fill:none;fill-opacity:1;stroke:#000000;stroke-width:1.5;stroke-linecap:butt;stroke-linejoin:miter;stroke-miterlimit:10;stroke-dasharray:none;stroke-dashoffset:0;stroke-opacity:1;color-rendering:auto;image-rendering:auto;shape-rendering:auto;text-rendering:auto"
       d="m 402.37157,43.865435 h 9.61099"
       id="path4698"
       inkscape:connector-curvature="0" />
    <g
       transform="rotate(-90,113.10024,75.945495)"
       style="font-style:normal;font-weight:normal;font-size:48px;font-family:mwa_cmmi10;color-interpolation:linearRGB;fill:#262626;fill-opacity:1;stroke:#262626;stroke-width:1;stroke-linecap:square;stroke-linejoin:miter;stroke-miterlimit:10;stroke-dasharray:none;stroke-dashoffset:0;stroke-opacity:1;color-rendering:optimizeQuality;image-rendering:optimizeQuality;shape-rendering:auto;text-rendering:geometricPrecision"
       id="g4652">
      <path
         inkscape:connector-curvature="0"
         style="stroke:none"
         d="m -40.047,-17.2802 q -0.4687,0 -0.4687,-0.6406 0.0312,-0.1094 0.1015,-0.4063 0.0703,-0.2968 0.1953,-0.4687 0.125,-0.1719 0.3125,-0.1719 2.9375,0 4.1094,-0.3281 0.6094,-0.2188 0.8906,-1.2969 l 6.5782,-26.3593 q 0.0937,-0.4688 0.0937,-0.6563 0,-0.5156 -0.5625,-0.5937 -0.9062,-0.1875 -3.4687,-0.1875 -0.4688,0 -0.4688,-0.625 0.0313,-0.125 0.1016,-0.4141 0.0703,-0.2891 0.1953,-0.4688 0.125,-0.1796 0.3125,-0.1796 h 14.5625 q 1.7344,0 3.6094,0.3984 1.875,0.3984 3.4453,1.2578 1.5703,0.8594 2.5781,2.2734 1.0078,1.4141 1.0078,3.3204 0,2.4062 -1.5937,4.3046 -1.5938,1.8985 -4.0313,3.1797 -2.4375,1.2813 -4.7344,1.7969 1.875,0.6719 3.0703,2.1641 1.1954,1.4921 1.1954,3.4296 0,0.2657 -0.0157,0.3907 -0.0156,0.125 -0.0312,0.2968 l -0.375,4.2657 q -0.0469,0.9375 -0.0938,1.5937 -0.0468,0.6563 -0.0468,1.0469 0,1.3125 0.3828,2.1016 0.3828,0.789 1.539,0.789 1.5,0 2.6328,-1.3984 1.1329,-1.3985 1.4922,-3.0391 0.2032,-0.4219 0.4688,-0.4219 h 0.4375 q 0.4687,0 0.4687,0.6407 -0.3437,1.375 -1.1093,2.6172 -0.7657,1.2421 -1.9219,2.0468 -1.1563,0.8047 -2.5156,0.8047 -2.8125,0 -4.7969,-1.2578 -1.9844,-1.2578 -1.9844,-3.9297 0,-1.0156 0.1875,-1.7812 l 1.0625,-4.2657 q 0.1875,-0.5937 0.1875,-1.3593 0,-2 -1.3516,-3.1328 -1.3515,-1.1328 -3.3828,-1.1328 h -5.9062 l -3.1719,12.6718 q -0.1094,0.4063 -0.1094,0.6875 0,0.4844 0.5782,0.5625 0.9218,0.1875 3.4531,0.1875 0.4844,0 0.4844,0.625 -0.1563,0.6875 -0.25,0.875 -0.0938,0.1875 -0.5625,0.1875 z m 12.6406,-17.0468 h 5.3125 q 5.2344,0 7.875,-2.6407 1.2188,-1.2187 1.9375,-3.1093 0.7188,-1.8907 0.7188,-3.7657 0,-1.7812 -1.0469,-2.789 -1.0469,-1.0078 -2.5781,-1.3828 -1.5313,-0.375 -3.3906,-0.375 h -3.2032 q -1.3125,0 -1.7343,0.2265 -0.4219,0.2266 -0.7813,1.4141 z"
         id="path4644" />
      <path
         inkscape:connector-curvature="0"
         style="stroke:none"
         d="m -2.9917,-12.1584 q 0.9219,1.5625 3.6719,1.5625 1.1875,0 2.2734,-0.4062 1.0859,-0.4063 1.7891,-1.2188 0.7031,-0.8125 0.7031,-1.9843 0,-0.875 -0.6328,-1.4375 -0.6328,-0.5625 -1.5391,-0.7657 l -1.8437,-0.3593 q -1.2657,-0.3125 -2.0782,-1.1797 -0.8125,-0.8672 -0.8125,-2.1016 0,-1.5 0.8203,-2.6641 0.8204,-1.164 2.1641,-1.7812 1.3438,-0.6172 2.7969,-0.6172 1.5312,0 2.7578,0.7422 1.2266,0.7422 1.2266,2.1797 0,0.7812 -0.4454,1.3828 -0.4453,0.6016 -1.2265,0.6016 -0.4375,0 -0.7656,-0.2891 -0.3282,-0.2891 -0.3282,-0.7422 0,-0.4062 0.2266,-0.7734 0.2266,-0.3672 0.6016,-0.5938 0.375,-0.2265 0.7656,-0.2265 -0.2969,-0.7344 -1.1172,-1.0625 -0.8203,-0.3282 -1.7734,-0.3282 -0.8594,0 -1.7188,0.3438 -0.8594,0.3437 -1.3828,1.0156 -0.5234,0.6719 -0.5234,1.5938 0,0.6093 0.4296,1.0781 0.4297,0.4687 1.0547,0.6562 l 1.9844,0.4063 q 0.9375,0.2031 1.7266,0.7031 0.789,0.5 1.25,1.2734 0.4609,0.7735 0.4609,1.7735 0,1.2656 -0.7109,2.4922 -0.711,1.2265 -1.7266,1.9609 -1.8125,1.2188 -4.4375,1.2188 -1.8125,0 -3.3203,-0.8282 -1.5078,-0.8281 -1.5078,-2.4687 0,-0.9375 0.539,-1.625 0.5391,-0.6875 1.461,-0.6875 0.5469,0 0.9219,0.3359 0.375,0.336 0.375,0.8828 0,0.7813 -0.5782,1.3594 -0.5781,0.5781 -1.3593,0.5781 z"
         id="path4646" />
      <path
         inkscape:connector-curvature="0"
         style="stroke:none"
         d="m 16.6489,-9.7052 q -1.625,0 -2.8516,-0.8438 -1.2265,-0.8437 -1.8593,-2.2812 -0.6328,-1.4375 -0.6328,-3.0313 0,-2.4219 1.2187,-4.5547 1.2188,-2.1328 3.3125,-3.414 2.0938,-1.2813 4.4844,-1.2813 1.4531,0 2.539,0.7578 1.086,0.7578 1.086,2.1641 0,1.9687 -1.5547,2.9219 -1.5547,0.9531 -3.5156,1.1796 -1.961,0.2266 -4.336,0.2266 h -0.1093 q -0.5469,2.0156 -0.5469,3.4688 0,1.5 0.7031,2.6484 0.7031,1.1484 2.125,1.1484 2.0313,0 3.8984,-0.9297 1.8672,-0.9296 3.0391,-2.5703 0.1094,-0.1093 0.2656,-0.1093 0.1719,0 0.3438,0.1953 0.1719,0.1953 0.1719,0.3672 0,0.125 -0.0625,0.1875 -1.25,1.75 -3.3594,2.75 -2.1094,1 -4.3594,1 z m -2.0156,-9.0469 q 1.9844,0 3.6562,-0.1797 1.6719,-0.1797 3.0391,-0.9219 1.3672,-0.7422 1.3672,-2.289 0,-0.6407 -0.3516,-1.1094 -0.3515,-0.4688 -0.9062,-0.7188 -0.5547,-0.25 -1.1641,-0.25 -1.4375,0 -2.5937,0.7813 -1.1563,0.7812 -1.8985,2.0312 -0.7422,1.25 -1.1484,2.6563 z"
         id="path4648" />
      <path
         inkscape:connector-curvature="0"
         style="stroke:none"
         d="m 29.4346,-14.1271 q 0,1.4687 0.7578,2.5 0.7578,1.0312 2.164,1.0312 2.0313,0 3.8985,-0.9297 1.8672,-0.9296 3.039,-2.5703 0.1094,-0.1093 0.2657,-0.1093 0.1718,0 0.3437,0.1953 0.1719,0.1953 0.1719,0.3672 0,0.125 -0.0625,0.1875 -1.25,1.75 -3.3594,2.75 -2.1094,1 -4.3594,1 -1.625,0 -2.875,-0.7657 -1.25,-0.7656 -1.9296,-2.0625 -0.6797,-1.2968 -0.6797,-2.9218 0,-2.2969 1.2812,-4.5547 1.2813,-2.2578 3.4063,-3.6797 2.125,-1.4219 4.4687,-1.4219 1.5156,0 2.7422,0.7422 1.2266,0.7422 1.2266,2.1797 0,0.9375 -0.5469,1.5937 -0.5469,0.6563 -1.4531,0.6563 -0.5469,0 -0.9219,-0.3438 -0.375,-0.3437 -0.375,-0.8906 0,-0.7969 0.5859,-1.3594 0.586,-0.5625 1.3516,-0.5625 h 0.0781 q -0.4062,-0.5781 -1.1562,-0.8515 -0.75,-0.2735 -1.5782,-0.2735 -1.9843,0 -3.4765,1.7032 -1.4922,1.7031 -2.25,4.0625 -0.7578,2.3593 -0.7578,4.3281 z"
         id="path4650" />
    </g>
  </g>
</svg>
