<?xml version="1.0" encoding="UTF-8" standalone="no"?>
<svg
   xmlns:dc="http://purl.org/dc/elements/1.1/"
   xmlns:cc="http://creativecommons.org/ns#"
   xmlns:rdf="http://www.w3.org/1999/02/22-rdf-syntax-ns#"
   xmlns:svg="http://www.w3.org/2000/svg"
   xmlns="http://www.w3.org/2000/svg"
   xmlns:sodipodi="http://sodipodi.sourceforge.net/DTD/sodipodi-0.dtd"
   xmlns:inkscape="http://www.inkscape.org/namespaces/inkscape"
   style="fill-opacity:1; color-rendering:auto; color-interpolation:auto; text-rendering:auto; stroke:black; stroke-linecap:square; stroke-miterlimit:10; shape-rendering:auto; stroke-opacity:1; fill:black; stroke-dasharray:none; font-weight:normal; stroke-width:1; font-family:'Dialog'; font-style:normal; stroke-linejoin:miter; font-size:12px; stroke-dashoffset:0; image-rendering:auto;"
   width="560"
   height="420"
   version="1.1"
   id="svg5641"
   sodipodi:docname="kurabetemimasita.svg"
   inkscape:version="0.92.3 (2405546, 2018-03-11)">
  <metadata
     id="metadata5645">
    <rdf:RDF>
      <cc:Work
         rdf:about="">
        <dc:format>image/svg+xml</dc:format>
        <dc:type
           rdf:resource="http://purl.org/dc/dcmitype/StillImage" />
      </cc:Work>
    </rdf:RDF>
  </metadata>
  <sodipodi:namedview
     pagecolor="#ffffff"
     bordercolor="#666666"
     borderopacity="1"
     objecttolerance="10"
     gridtolerance="10"
     guidetolerance="10"
     inkscape:pageopacity="0"
     inkscape:pageshadow="2"
     inkscape:window-width="1920"
     inkscape:window-height="1046"
     id="namedview5643"
     showgrid="false"
     inkscape:zoom="1.5893067"
     inkscape:cx="202.11194"
     inkscape:cy="210"
     inkscape:window-x="-11"
     inkscape:window-y="-11"
     inkscape:window-maximized="1"
     inkscape:current-layer="g5639" />
  <!--Generated by the Batik Graphics2D SVG Generator-->
  <defs
     id="genericDefs" />
  <g
     id="g5639">
    <defs
       id="defs1">
      <clipPath
         clipPathUnits="userSpaceOnUse"
         id="clipPath1">
        <path
           d="M0 0 L560 0 L560 420 L0 420 L0 0 Z"
           id="path5443" />
      </clipPath>
    </defs>
    <g
       style="fill:white; stroke:white;"
       id="g5449">
      <rect
         x="0"
         y="0"
         width="560"
         style="clip-path:url(#clipPath1); stroke:none;"
         height="420"
         clip-path="url(#clipPath1)"
         id="rect5447" />
    </g>
    <g
       style="fill:white; text-rendering:optimizeSpeed; color-rendering:optimizeSpeed; image-rendering:optimizeSpeed; shape-rendering:crispEdges; stroke:white; color-interpolation:sRGB;"
       id="g5455">
      <rect
         x="0"
         width="560"
         height="420"
         y="0"
         style="stroke:none;"
         id="rect5451" />
      <path
         style="stroke:none;"
         d="M73 343 L507 343 L507 31 L73 31 Z"
         id="path5453" />
    </g>
    <g
       style="fill:rgb(38,38,38); text-rendering:geometricPrecision; image-rendering:optimizeQuality; color-rendering:optimizeQuality; stroke-linejoin:round; stroke:rgb(38,38,38); color-interpolation:linearRGB; stroke-width:0.6667;"
       id="g5481">
      <line
         y2="343"
         style="fill:none;"
         x1="73"
         x2="507"
         y1="343"
         id="line5457" />
      <line
         y2="338.66"
         style="fill:none;"
         x1="73"
         x2="73"
         y1="343"
         id="line5459" />
      <line
         y2="338.66"
         style="fill:none;"
         x1="116.4"
         x2="116.4"
         y1="343"
         id="line5461" />
      <line
         y2="338.66"
         style="fill:none;"
         x1="159.8"
         x2="159.8"
         y1="343"
         id="line5463" />
      <line
         y2="338.66"
         style="fill:none;"
         x1="203.2"
         x2="203.2"
         y1="343"
         id="line5465" />
      <line
         y2="338.66"
         style="fill:none;"
         x1="246.6"
         x2="246.6"
         y1="343"
         id="line5467" />
      <line
         y2="338.66"
         style="fill:none;"
         x1="290"
         x2="290"
         y1="343"
         id="line5469" />
      <line
         y2="338.66"
         style="fill:none;"
         x1="333.4"
         x2="333.4"
         y1="343"
         id="line5471" />
      <line
         y2="338.66"
         style="fill:none;"
         x1="376.8"
         x2="376.8"
         y1="343"
         id="line5473" />
      <line
         y2="338.66"
         style="fill:none;"
         x1="420.2"
         x2="420.2"
         y1="343"
         id="line5475" />
      <line
         y2="338.66"
         style="fill:none;"
         x1="463.6"
         x2="463.6"
         y1="343"
         id="line5477" />
      <line
         y2="338.66"
         style="fill:none;"
         x1="507"
         x2="507"
         y1="343"
         id="line5479" />
    </g>
    <g
       transform="translate(73,348.0667)"
       style="fill:rgb(38,38,38); text-rendering:geometricPrecision; color-rendering:optimizeQuality; image-rendering:optimizeQuality; font-family:'MS UI Gothic'; stroke:rgb(38,38,38); color-interpolation:linearRGB;"
       id="g5485">
      <path
         style="stroke:none;"
         d="M-2.5781 6.3594 Q-2.5781 4.2969 -1.6406 3.3594 Q-0.9844 2.7031 0 2.7031 Q0.9844 2.7031 1.6406 3.3594 Q2.5781 4.2969 2.5781 6.3594 L2.5781 7.2969 Q2.5781 9.3125 1.6406 10.25 Q0.9844 10.9062 0 10.9062 Q-0.9844 10.9062 -1.6406 10.25 Q-2.5781 9.3125 -2.5781 7.2969 L-2.5781 6.3594 ZM-0.8438 3.9688 Q-1.4531 4.5781 -1.4531 6.2656 L-1.4531 7.3438 Q-1.4531 8.9844 -0.7969 9.6406 Q-0.4219 10.0156 0 10.0156 Q0.4688 10.0156 0.8438 9.6406 Q1.4531 9.0312 1.4531 7.3438 L1.4531 6.2656 Q1.4531 4.5781 0.8438 3.9688 Q0.4688 3.5938 0 3.5938 Q-0.4688 3.5938 -0.8438 3.9688 Z"
         id="path5483" />
    </g>
    <g
       transform="translate(116.4,348.0667)"
       style="fill:rgb(38,38,38); text-rendering:geometricPrecision; color-rendering:optimizeQuality; image-rendering:optimizeQuality; font-family:'MS UI Gothic'; stroke:rgb(38,38,38); color-interpolation:linearRGB;"
       id="g5489">
      <path
         style="stroke:none;"
         d="M-7.0781 6.3594 Q-7.0781 4.2969 -6.1406 3.3594 Q-5.4844 2.7031 -4.5 2.7031 Q-3.5156 2.7031 -2.8594 3.3594 Q-1.9219 4.2969 -1.9219 6.3594 L-1.9219 7.2969 Q-1.9219 9.3125 -2.8594 10.25 Q-3.5156 10.9062 -4.5 10.9062 Q-5.4844 10.9062 -6.1406 10.25 Q-7.0781 9.3125 -7.0781 7.2969 L-7.0781 6.3594 ZM-5.3438 3.9688 Q-5.9531 4.5781 -5.9531 6.2656 L-5.9531 7.3438 Q-5.9531 8.9844 -5.2969 9.6406 Q-4.9219 10.0156 -4.5 10.0156 Q-4.0312 10.0156 -3.6562 9.6406 Q-3.0469 9.0312 -3.0469 7.3438 L-3.0469 6.2656 Q-3.0469 4.5781 -3.6562 3.9688 Q-4.0312 3.5938 -4.5 3.5938 Q-4.9688 3.5938 -5.3438 3.9688 ZM-0.7969 9.8281 L0.2812 9.8281 L0.2812 10.8594 L-0.7969 10.8594 L-0.7969 9.8281 ZM4.125 2.7031 L4.6875 2.7031 L4.6875 10.8125 L3.6094 10.8125 L3.6094 4.5781 L2.2031 4.5781 L2.2031 4.0156 L2.625 4.0156 Q3.2812 4.0156 3.6562 3.6406 Q4.0781 3.2188 4.125 2.7031 Z"
         id="path5487" />
    </g>
    <g
       transform="translate(159.8,348.0667)"
       style="fill:rgb(38,38,38); text-rendering:geometricPrecision; color-rendering:optimizeQuality; image-rendering:optimizeQuality; font-family:'MS UI Gothic'; stroke:rgb(38,38,38); color-interpolation:linearRGB;"
       id="g5493">
      <path
         style="stroke:none;"
         d="M-7.0781 6.3594 Q-7.0781 4.2969 -6.1406 3.3594 Q-5.4844 2.7031 -4.5 2.7031 Q-3.5156 2.7031 -2.8594 3.3594 Q-1.9219 4.2969 -1.9219 6.3594 L-1.9219 7.2969 Q-1.9219 9.3125 -2.8594 10.25 Q-3.5156 10.9062 -4.5 10.9062 Q-5.4844 10.9062 -6.1406 10.25 Q-7.0781 9.3125 -7.0781 7.2969 L-7.0781 6.3594 ZM-5.3438 3.9688 Q-5.9531 4.5781 -5.9531 6.2656 L-5.9531 7.3438 Q-5.9531 8.9844 -5.2969 9.6406 Q-4.9219 10.0156 -4.5 10.0156 Q-4.0312 10.0156 -3.6562 9.6406 Q-3.0469 9.0312 -3.0469 7.3438 L-3.0469 6.2656 Q-3.0469 4.5781 -3.6562 3.9688 Q-4.0312 3.5938 -4.5 3.5938 Q-4.9688 3.5938 -5.3438 3.9688 ZM-0.7969 9.8281 L0.2812 9.8281 L0.2812 10.8594 L-0.7969 10.8594 L-0.7969 9.8281 ZM1.7344 5.5625 Q1.7344 4.1094 2.4844 3.3594 Q3.0938 2.75 3.9375 2.75 Q4.9688 2.75 5.5781 3.3594 Q6.1875 3.9688 6.1875 4.8594 Q6.1875 5.9844 5.4844 6.8281 Q4.8281 7.625 4.125 8.375 Q3.75 8.7969 3.375 9.2188 Q3.0469 9.5938 2.8125 9.9688 L6.3281 9.9688 L6.3281 10.8594 L1.5469 10.8594 L1.5469 10.0625 Q1.6406 9.5938 2.3438 8.75 Q3.5156 7.4844 4.2656 6.6406 Q5.0625 5.7969 5.0625 4.8594 Q5.0625 4.2969 4.6875 3.9219 Q4.4062 3.6406 3.9844 3.6406 Q3.6094 3.6406 3.3281 3.9219 Q2.8125 4.4375 2.8125 5.5625 L1.7344 5.5625 Z"
         id="path5491" />
    </g>
    <g
       transform="translate(203.2,348.0667)"
       style="fill:rgb(38,38,38); text-rendering:geometricPrecision; color-rendering:optimizeQuality; image-rendering:optimizeQuality; font-family:'MS UI Gothic'; stroke:rgb(38,38,38); color-interpolation:linearRGB;"
       id="g5497">
      <path
         style="stroke:none;"
         d="M-7.0781 6.3594 Q-7.0781 4.2969 -6.1406 3.3594 Q-5.4844 2.7031 -4.5 2.7031 Q-3.5156 2.7031 -2.8594 3.3594 Q-1.9219 4.2969 -1.9219 6.3594 L-1.9219 7.2969 Q-1.9219 9.3125 -2.8594 10.25 Q-3.5156 10.9062 -4.5 10.9062 Q-5.4844 10.9062 -6.1406 10.25 Q-7.0781 9.3125 -7.0781 7.2969 L-7.0781 6.3594 ZM-5.3438 3.9688 Q-5.9531 4.5781 -5.9531 6.2656 L-5.9531 7.3438 Q-5.9531 8.9844 -5.2969 9.6406 Q-4.9219 10.0156 -4.5 10.0156 Q-4.0312 10.0156 -3.6562 9.6406 Q-3.0469 9.0312 -3.0469 7.3438 L-3.0469 6.2656 Q-3.0469 4.5781 -3.6562 3.9688 Q-4.0312 3.5938 -4.5 3.5938 Q-4.9688 3.5938 -5.3438 3.9688 ZM-0.7969 9.8281 L0.2812 9.8281 L0.2812 10.8594 L-0.7969 10.8594 L-0.7969 9.8281 ZM1.7344 5.1406 Q1.7344 4.0625 2.4375 3.3594 Q3.0469 2.75 3.9375 2.75 Q4.9688 2.75 5.5781 3.3594 Q6.1406 3.9219 6.1406 4.8594 Q6.1406 5.7969 5.6719 6.2656 Q5.3438 6.5938 4.9688 6.6406 Q5.4375 6.7812 5.7656 7.1094 Q6.3281 7.6719 6.3281 8.6094 Q6.3281 9.6406 5.6719 10.2969 Q5.0156 10.9531 3.8438 10.9531 Q2.8594 10.9531 2.2031 10.2969 Q1.5469 9.6406 1.5469 8.75 L1.5469 8.375 L2.625 8.375 L2.625 8.7031 Q2.625 9.3125 3.0469 9.7344 Q3.375 10.0625 3.8438 10.0625 Q4.4531 10.0625 4.8281 9.6875 Q5.2031 9.3125 5.2031 8.5156 Q5.2031 7.8594 4.8281 7.4844 Q4.4531 7.1094 3.9844 7.1094 L3.6094 7.1094 L3.6094 6.3125 L3.8906 6.3125 Q4.3125 6.3125 4.6875 5.9375 Q5.0625 5.5625 5.0625 4.8594 Q5.0625 4.25 4.6875 3.875 Q4.4062 3.5938 3.9375 3.5938 Q3.5156 3.5938 3.1875 3.9219 Q2.8125 4.2969 2.7656 5.1406 L1.7344 5.1406 Z"
         id="path5495" />
    </g>
    <g
       transform="translate(246.6,348.0667)"
       style="fill:rgb(38,38,38); text-rendering:geometricPrecision; color-rendering:optimizeQuality; image-rendering:optimizeQuality; font-family:'MS UI Gothic'; stroke:rgb(38,38,38); color-interpolation:linearRGB;"
       id="g5501">
      <path
         style="stroke:none;"
         d="M-7.0781 6.3594 Q-7.0781 4.2969 -6.1406 3.3594 Q-5.4844 2.7031 -4.5 2.7031 Q-3.5156 2.7031 -2.8594 3.3594 Q-1.9219 4.2969 -1.9219 6.3594 L-1.9219 7.2969 Q-1.9219 9.3125 -2.8594 10.25 Q-3.5156 10.9062 -4.5 10.9062 Q-5.4844 10.9062 -6.1406 10.25 Q-7.0781 9.3125 -7.0781 7.2969 L-7.0781 6.3594 ZM-5.3438 3.9688 Q-5.9531 4.5781 -5.9531 6.2656 L-5.9531 7.3438 Q-5.9531 8.9844 -5.2969 9.6406 Q-4.9219 10.0156 -4.5 10.0156 Q-4.0312 10.0156 -3.6562 9.6406 Q-3.0469 9.0312 -3.0469 7.3438 L-3.0469 6.2656 Q-3.0469 4.5781 -3.6562 3.9688 Q-4.0312 3.5938 -4.5 3.5938 Q-4.9688 3.5938 -5.3438 3.9688 ZM-0.7969 9.8281 L0.2812 9.8281 L0.2812 10.8594 L-0.7969 10.8594 L-0.7969 9.8281 ZM4.5 2.75 L5.5781 2.75 L5.5781 7.9062 L6.5625 7.9062 L6.5625 8.7969 L5.5781 8.7969 L5.5781 10.8594 L4.5 10.8594 L4.5 8.7969 L1.3594 8.7969 L1.3594 7.8594 L4.5 2.75 ZM4.5 4.4844 L2.3906 7.9062 L4.5 7.9062 L4.5 4.4844 Z"
         id="path5499" />
    </g>
    <g
       transform="translate(290,348.0667)"
       style="fill:rgb(38,38,38); text-rendering:geometricPrecision; color-rendering:optimizeQuality; image-rendering:optimizeQuality; font-family:'MS UI Gothic'; stroke:rgb(38,38,38); color-interpolation:linearRGB;"
       id="g5505">
      <path
         style="stroke:none;"
         d="M-7.0781 6.3594 Q-7.0781 4.2969 -6.1406 3.3594 Q-5.4844 2.7031 -4.5 2.7031 Q-3.5156 2.7031 -2.8594 3.3594 Q-1.9219 4.2969 -1.9219 6.3594 L-1.9219 7.2969 Q-1.9219 9.3125 -2.8594 10.25 Q-3.5156 10.9062 -4.5 10.9062 Q-5.4844 10.9062 -6.1406 10.25 Q-7.0781 9.3125 -7.0781 7.2969 L-7.0781 6.3594 ZM-5.3438 3.9688 Q-5.9531 4.5781 -5.9531 6.2656 L-5.9531 7.3438 Q-5.9531 8.9844 -5.2969 9.6406 Q-4.9219 10.0156 -4.5 10.0156 Q-4.0312 10.0156 -3.6562 9.6406 Q-3.0469 9.0312 -3.0469 7.3438 L-3.0469 6.2656 Q-3.0469 4.5781 -3.6562 3.9688 Q-4.0312 3.5938 -4.5 3.5938 Q-4.9688 3.5938 -5.3438 3.9688 ZM-0.7969 9.8281 L0.2812 9.8281 L0.2812 10.8594 L-0.7969 10.8594 L-0.7969 9.8281 ZM2.1094 2.8438 L6.1406 2.8438 L6.1406 3.7344 L3 3.7344 L3 3.875 Q2.9531 4.7656 2.8594 5.6094 Q2.8125 5.75 2.8125 5.8906 Q3.4219 5.3281 4.125 5.3281 Q5.0625 5.3281 5.6719 5.9375 Q6.3281 6.5938 6.3281 7.8594 Q6.3281 9.4531 5.4844 10.2969 Q4.8281 10.9531 3.8438 10.9531 Q2.9062 10.9531 2.2969 10.3438 Q1.6875 9.7344 1.5469 8.5156 L2.625 8.5156 Q2.7188 9.4062 3.0938 9.7812 Q3.375 10.0625 3.7969 10.0625 Q4.3594 10.0625 4.6875 9.7344 Q5.2031 9.2188 5.2031 8 Q5.2031 6.8281 4.7812 6.4062 Q4.5 6.125 4.125 6.125 Q3.5625 6.125 3.1406 6.5469 Q2.8594 6.8281 2.7656 6.9688 L1.8281 6.9688 Q1.875 6.7812 1.875 6.6406 L2.1094 3.0312 L2.1094 2.8438 Z"
         id="path5503" />
    </g>
    <g
       transform="translate(333.4,348.0667)"
       style="fill:rgb(38,38,38); text-rendering:geometricPrecision; color-rendering:optimizeQuality; image-rendering:optimizeQuality; font-family:'MS UI Gothic'; stroke:rgb(38,38,38); color-interpolation:linearRGB;"
       id="g5509">
      <path
         style="stroke:none;"
         d="M-7.0781 6.3594 Q-7.0781 4.2969 -6.1406 3.3594 Q-5.4844 2.7031 -4.5 2.7031 Q-3.5156 2.7031 -2.8594 3.3594 Q-1.9219 4.2969 -1.9219 6.3594 L-1.9219 7.2969 Q-1.9219 9.3125 -2.8594 10.25 Q-3.5156 10.9062 -4.5 10.9062 Q-5.4844 10.9062 -6.1406 10.25 Q-7.0781 9.3125 -7.0781 7.2969 L-7.0781 6.3594 ZM-5.3438 3.9688 Q-5.9531 4.5781 -5.9531 6.2656 L-5.9531 7.3438 Q-5.9531 8.9844 -5.2969 9.6406 Q-4.9219 10.0156 -4.5 10.0156 Q-4.0312 10.0156 -3.6562 9.6406 Q-3.0469 9.0312 -3.0469 7.3438 L-3.0469 6.2656 Q-3.0469 4.5781 -3.6562 3.9688 Q-4.0312 3.5938 -4.5 3.5938 Q-4.9688 3.5938 -5.3438 3.9688 ZM-0.7969 9.8281 L0.2812 9.8281 L0.2812 10.8594 L-0.7969 10.8594 L-0.7969 9.8281 ZM2.7188 3.3125 Q3.2812 2.75 4.125 2.75 Q5.0156 2.75 5.5781 3.3125 Q6.1875 3.9219 6.1875 4.8594 L5.1094 4.8594 Q5.1094 4.2031 4.8281 3.9219 Q4.5469 3.6406 4.125 3.6406 Q3.7031 3.6406 3.4219 3.9219 Q2.6719 4.6719 2.6719 6.5469 Q2.8594 6.2188 3.1406 5.9375 Q3.5625 5.5156 4.1719 5.5156 Q5.0156 5.5156 5.5781 6.0781 Q6.2812 6.7812 6.2812 8.1875 Q6.2812 9.6406 5.5312 10.3906 Q4.9688 10.9531 3.9844 10.9531 Q3.1406 10.9531 2.4375 10.25 Q1.5938 9.4062 1.5938 7.0156 Q1.5938 4.4375 2.7188 3.3125 ZM3.2812 6.6875 Q2.7656 7.2031 2.7656 8.0938 Q2.7656 9.2188 3.3281 9.7812 Q3.6562 10.1094 4.0312 10.1094 Q4.4531 10.1094 4.7344 9.8281 Q5.1562 9.4062 5.1562 8.1875 Q5.1562 7.1094 4.7344 6.6875 Q4.4062 6.3594 4.0781 6.3594 Q3.6094 6.3594 3.2812 6.6875 Z"
         id="path5507" />
    </g>
    <g
       transform="translate(376.8,348.0667)"
       style="fill:rgb(38,38,38); text-rendering:geometricPrecision; color-rendering:optimizeQuality; image-rendering:optimizeQuality; font-family:'MS UI Gothic'; stroke:rgb(38,38,38); color-interpolation:linearRGB;"
       id="g5513">
      <path
         style="stroke:none;"
         d="M-7.0781 6.3594 Q-7.0781 4.2969 -6.1406 3.3594 Q-5.4844 2.7031 -4.5 2.7031 Q-3.5156 2.7031 -2.8594 3.3594 Q-1.9219 4.2969 -1.9219 6.3594 L-1.9219 7.2969 Q-1.9219 9.3125 -2.8594 10.25 Q-3.5156 10.9062 -4.5 10.9062 Q-5.4844 10.9062 -6.1406 10.25 Q-7.0781 9.3125 -7.0781 7.2969 L-7.0781 6.3594 ZM-5.3438 3.9688 Q-5.9531 4.5781 -5.9531 6.2656 L-5.9531 7.3438 Q-5.9531 8.9844 -5.2969 9.6406 Q-4.9219 10.0156 -4.5 10.0156 Q-4.0312 10.0156 -3.6562 9.6406 Q-3.0469 9.0312 -3.0469 7.3438 L-3.0469 6.2656 Q-3.0469 4.5781 -3.6562 3.9688 Q-4.0312 3.5938 -4.5 3.5938 Q-4.9688 3.5938 -5.3438 3.9688 ZM-0.7969 9.8281 L0.2812 9.8281 L0.2812 10.8594 L-0.7969 10.8594 L-0.7969 9.8281 ZM1.7344 2.8438 L6.1875 2.8438 L6.1875 3.875 L3.9375 10.8594 L2.9062 10.8594 L5.1562 3.7344 L1.7344 3.7344 L1.7344 2.8438 Z"
         id="path5511" />
    </g>
    <g
       transform="translate(420.2,348.0667)"
       style="fill:rgb(38,38,38); text-rendering:geometricPrecision; color-rendering:optimizeQuality; image-rendering:optimizeQuality; font-family:'MS UI Gothic'; stroke:rgb(38,38,38); color-interpolation:linearRGB;"
       id="g5517">
      <path
         style="stroke:none;"
         d="M-7.0781 6.3594 Q-7.0781 4.2969 -6.1406 3.3594 Q-5.4844 2.7031 -4.5 2.7031 Q-3.5156 2.7031 -2.8594 3.3594 Q-1.9219 4.2969 -1.9219 6.3594 L-1.9219 7.2969 Q-1.9219 9.3125 -2.8594 10.25 Q-3.5156 10.9062 -4.5 10.9062 Q-5.4844 10.9062 -6.1406 10.25 Q-7.0781 9.3125 -7.0781 7.2969 L-7.0781 6.3594 ZM-5.3438 3.9688 Q-5.9531 4.5781 -5.9531 6.2656 L-5.9531 7.3438 Q-5.9531 8.9844 -5.2969 9.6406 Q-4.9219 10.0156 -4.5 10.0156 Q-4.0312 10.0156 -3.6562 9.6406 Q-3.0469 9.0312 -3.0469 7.3438 L-3.0469 6.2656 Q-3.0469 4.5781 -3.6562 3.9688 Q-4.0312 3.5938 -4.5 3.5938 Q-4.9688 3.5938 -5.3438 3.9688 ZM-0.7969 9.8281 L0.2812 9.8281 L0.2812 10.8594 L-0.7969 10.8594 L-0.7969 9.8281 ZM2.3906 3.3125 Q2.9531 2.75 3.9375 2.75 Q4.9219 2.75 5.5312 3.3594 Q6.1406 3.9688 6.1406 5 Q6.1406 5.7969 5.5781 6.3594 Q5.3438 6.5938 5.0156 6.6875 L5.0156 6.7812 Q5.4375 6.875 5.8125 7.25 Q6.375 7.8125 6.375 8.75 Q6.375 9.6875 5.7188 10.3438 Q5.1094 10.9531 3.9375 10.9531 Q2.7656 10.9531 2.1562 10.3438 Q1.5 9.6875 1.5 8.75 Q1.5 7.8125 2.0625 7.25 Q2.4375 6.875 2.8594 6.7812 L2.8594 6.6875 Q2.5781 6.5938 2.25 6.2656 Q1.7344 5.75 1.7344 5 Q1.7344 3.9688 2.3906 3.3125 ZM3.1406 3.9219 Q2.7656 4.2969 2.7656 5 Q2.7656 5.6562 3.1406 6.0312 Q3.4688 6.3594 3.8906 6.3594 Q4.4531 6.3594 4.7344 6.0781 Q5.1094 5.7031 5.1094 5 Q5.1094 4.2969 4.7344 3.9219 Q4.4062 3.5938 3.9375 3.5938 Q3.4688 3.5938 3.1406 3.9219 ZM2.9531 7.5312 Q2.5781 7.9062 2.5781 8.6094 Q2.5781 9.3125 3 9.7344 Q3.375 10.1094 3.9375 10.1094 Q4.5 10.1094 4.875 9.7344 Q5.2969 9.3125 5.2969 8.6094 Q5.2969 7.9062 4.875 7.4844 Q4.5469 7.1562 3.9375 7.1562 Q3.3281 7.1562 2.9531 7.5312 Z"
         id="path5515" />
    </g>
    <g
       transform="translate(463.6,348.0667)"
       style="fill:rgb(38,38,38); text-rendering:geometricPrecision; color-rendering:optimizeQuality; image-rendering:optimizeQuality; font-family:'MS UI Gothic'; stroke:rgb(38,38,38); color-interpolation:linearRGB;"
       id="g5521">
      <path
         style="stroke:none;"
         d="M-7.0781 6.3594 Q-7.0781 4.2969 -6.1406 3.3594 Q-5.4844 2.7031 -4.5 2.7031 Q-3.5156 2.7031 -2.8594 3.3594 Q-1.9219 4.2969 -1.9219 6.3594 L-1.9219 7.2969 Q-1.9219 9.3125 -2.8594 10.25 Q-3.5156 10.9062 -4.5 10.9062 Q-5.4844 10.9062 -6.1406 10.25 Q-7.0781 9.3125 -7.0781 7.2969 L-7.0781 6.3594 ZM-5.3438 3.9688 Q-5.9531 4.5781 -5.9531 6.2656 L-5.9531 7.3438 Q-5.9531 8.9844 -5.2969 9.6406 Q-4.9219 10.0156 -4.5 10.0156 Q-4.0312 10.0156 -3.6562 9.6406 Q-3.0469 9.0312 -3.0469 7.3438 L-3.0469 6.2656 Q-3.0469 4.5781 -3.6562 3.9688 Q-4.0312 3.5938 -4.5 3.5938 Q-4.9688 3.5938 -5.3438 3.9688 ZM-0.7969 9.8281 L0.2812 9.8281 L0.2812 10.8594 L-0.7969 10.8594 L-0.7969 9.8281 ZM2.4375 3.2656 Q2.9531 2.75 3.8438 2.75 Q4.6875 2.75 5.2969 3.3594 Q6.2812 4.3438 6.2812 6.7812 Q6.2812 9.2656 5.25 10.2969 Q4.5938 10.9531 3.7031 10.9531 Q2.8125 10.9531 2.2969 10.4375 Q1.6875 9.8281 1.6875 8.8438 L2.7656 8.8438 Q2.7188 9.4531 3.1406 9.875 Q3.3281 10.0625 3.7031 10.0625 Q4.125 10.0625 4.4531 9.7344 Q5.2031 8.9844 5.2031 6.9688 Q5.0156 7.25 4.7812 7.4844 Q4.2656 8 3.5156 8 Q2.8125 8 2.3438 7.5312 Q1.5938 6.7812 1.5938 5.5156 Q1.5938 4.1094 2.4375 3.2656 ZM3.1875 3.875 Q2.7188 4.3438 2.7188 5.5156 Q2.7188 6.4531 3.0938 6.8281 Q3.4219 7.1562 3.75 7.1562 Q4.3125 7.1562 4.5938 6.875 Q5.1094 6.3594 5.1094 5.6094 Q5.1094 4.4375 4.5938 3.9219 Q4.2656 3.5938 3.8438 3.5938 Q3.4688 3.5938 3.1875 3.875 Z"
         id="path5519" />
    </g>
    <g
       transform="translate(507,348.0667)"
       style="fill:rgb(38,38,38); text-rendering:geometricPrecision; color-rendering:optimizeQuality; image-rendering:optimizeQuality; font-family:'MS UI Gothic'; stroke:rgb(38,38,38); color-interpolation:linearRGB;"
       id="g5525">
      <path
         style="stroke:none;"
         d="M0.1875 2.7031 L0.75 2.7031 L0.75 10.8125 L-0.3281 10.8125 L-0.3281 4.5781 L-1.7344 4.5781 L-1.7344 4.0156 L-1.3125 4.0156 Q-0.6562 4.0156 -0.2812 3.6406 Q0.1406 3.2188 0.1875 2.7031 Z"
         id="path5523" />
    </g>
    <g
       transform="translate(290.0002,362.4)"
       style="font-size:48px; fill:rgb(38,38,38); text-rendering:geometricPrecision; image-rendering:optimizeQuality; color-rendering:optimizeQuality; font-family:'mwa_cmmi10'; stroke:rgb(38,38,38); color-interpolation:linearRGB;"
       id="g5529">
      <path
         style="stroke:none;"
         d="M-9.8948 35.3198 Q-9.8948 34.0073 -9.3244 32.7651 Q-8.7541 31.5229 -7.8244 30.5386 Q-6.8948 29.5542 -5.6604 28.7886 Q-7.4885 27.5229 -7.4885 25.5229 Q-7.4885 23.3979 -5.7073 21.7886 Q-3.926 20.1792 -1.3479 19.3745 Q1.2302 18.5698 3.2927 18.5698 Q4.1677 18.5698 5.6287 18.9526 Q7.0896 19.3354 8.1912 19.9683 Q9.2927 20.6011 9.2927 21.3511 Q9.2927 21.9136 8.8631 22.3511 Q8.4334 22.7886 7.9177 22.7886 Q7.699 22.7886 6.8474 22.2808 Q5.9959 21.7729 5.0349 21.3745 Q4.074 20.9761 2.9177 20.9761 Q1.1834 20.9761 -0.8869 21.3901 Q-2.9573 21.8042 -4.5276 22.8198 Q-6.0979 23.8354 -6.0979 25.4761 Q-6.0979 27.0542 -4.3166 28.1323 Q-2.301 27.2104 -0.1916 27.2104 Q3.5584 27.2104 3.5584 28.5542 Q3.5584 29.6011 2.2771 29.8979 Q0.9959 30.1948 -0.6604 30.1948 Q-2.9104 30.1948 -4.3635 29.5073 Q-5.9573 30.3511 -7.1994 31.8745 Q-8.4416 33.3979 -8.4416 35.0386 Q-8.4416 36.5854 -7.4026 37.4526 Q-6.3635 38.3198 -4.8401 38.6479 Q-3.3166 38.9761 -1.7854 38.9761 Q0.8552 38.9761 2.8943 38.4058 Q4.9334 37.8354 5.8552 36.0073 Q5.9959 35.6948 6.3865 35.6948 Q6.9021 35.8667 6.9021 36.3354 Q6.9021 36.3823 6.7615 36.8042 Q5.9959 38.3198 4.574 39.3589 Q3.1521 40.3979 1.4099 40.8901 Q-0.3323 41.3823 -2.1604 41.3823 Q-5.1448 41.3823 -7.5198 39.7808 Q-9.8948 38.1792 -9.8948 35.3198 ZM-2.4885 28.7886 Q-1.6448 28.9448 -0.5666 28.9448 Q1.5427 28.9448 2.0584 28.6479 Q1.4021 28.4604 -0.2385 28.4604 Q-1.4416 28.4604 -2.4885 28.7886 Z"
         id="path5527" />
    </g>
    <g
       style="fill:rgb(38,38,38); text-rendering:geometricPrecision; image-rendering:optimizeQuality; color-rendering:optimizeQuality; stroke-linejoin:round; stroke:rgb(38,38,38); color-interpolation:linearRGB; stroke-width:0.6667;"
       id="g5555">
      <line
         y2="31"
         style="fill:none;"
         x1="73"
         x2="73"
         y1="343"
         id="line5531" />
      <line
         y2="343"
         style="fill:none;"
         x1="73"
         x2="77.34"
         y1="343"
         id="line5533" />
      <line
         y2="311.8"
         style="fill:none;"
         x1="73"
         x2="77.34"
         y1="311.8"
         id="line5535" />
      <line
         y2="280.6"
         style="fill:none;"
         x1="73"
         x2="77.34"
         y1="280.6"
         id="line5537" />
      <line
         y2="249.4"
         style="fill:none;"
         x1="73"
         x2="77.34"
         y1="249.4"
         id="line5539" />
      <line
         y2="218.2"
         style="fill:none;"
         x1="73"
         x2="77.34"
         y1="218.2"
         id="line5541" />
      <line
         y2="187"
         style="fill:none;"
         x1="73"
         x2="77.34"
         y1="187"
         id="line5543" />
      <line
         y2="155.8"
         style="fill:none;"
         x1="73"
         x2="77.34"
         y1="155.8"
         id="line5545" />
      <line
         y2="124.6"
         style="fill:none;"
         x1="73"
         x2="77.34"
         y1="124.6"
         id="line5547" />
      <line
         y2="93.4"
         style="fill:none;"
         x1="73"
         x2="77.34"
         y1="93.4"
         id="line5549" />
      <line
         y2="62.2"
         style="fill:none;"
         x1="73"
         x2="77.34"
         y1="62.2"
         id="line5551" />
      <line
         y2="31"
         style="fill:none;"
         x1="73"
         x2="77.34"
         y1="31"
         id="line5553" />
    </g>
    <g
       transform="translate(67.9333,343)"
       style="fill:rgb(38,38,38); text-rendering:geometricPrecision; color-rendering:optimizeQuality; image-rendering:optimizeQuality; font-family:'MS UI Gothic'; stroke:rgb(38,38,38); color-interpolation:linearRGB;"
       id="g5559">
      <path
         style="stroke:none;"
         d="M-5.5781 -0.1406 Q-5.5781 -2.2031 -4.6406 -3.1406 Q-3.9844 -3.7969 -3 -3.7969 Q-2.0156 -3.7969 -1.3594 -3.1406 Q-0.4219 -2.2031 -0.4219 -0.1406 L-0.4219 0.7969 Q-0.4219 2.8125 -1.3594 3.75 Q-2.0156 4.4062 -3 4.4062 Q-3.9844 4.4062 -4.6406 3.75 Q-5.5781 2.8125 -5.5781 0.7969 L-5.5781 -0.1406 ZM-3.8438 -2.5312 Q-4.4531 -1.9219 -4.4531 -0.2344 L-4.4531 0.8438 Q-4.4531 2.4844 -3.7969 3.1406 Q-3.4219 3.5156 -3 3.5156 Q-2.5312 3.5156 -2.1562 3.1406 Q-1.5469 2.5312 -1.5469 0.8438 L-1.5469 -0.2344 Q-1.5469 -1.9219 -2.1562 -2.5312 Q-2.5312 -2.9062 -3 -2.9062 Q-3.4688 -2.9062 -3.8438 -2.5312 Z"
         id="path5557" />
    </g>
    <g
       transform="translate(67.9333,311.8)"
       style="fill:rgb(38,38,38); text-rendering:geometricPrecision; color-rendering:optimizeQuality; image-rendering:optimizeQuality; font-family:'MS UI Gothic'; stroke:rgb(38,38,38); color-interpolation:linearRGB;"
       id="g5563">
      <path
         style="stroke:none;"
         d="M-20.5781 -0.1406 Q-20.5781 -2.2031 -19.6406 -3.1406 Q-18.9844 -3.7969 -18 -3.7969 Q-17.0156 -3.7969 -16.3594 -3.1406 Q-15.4219 -2.2031 -15.4219 -0.1406 L-15.4219 0.7969 Q-15.4219 2.8125 -16.3594 3.75 Q-17.0156 4.4062 -18 4.4062 Q-18.9844 4.4062 -19.6406 3.75 Q-20.5781 2.8125 -20.5781 0.7969 L-20.5781 -0.1406 ZM-18.8438 -2.5312 Q-19.4531 -1.9219 -19.4531 -0.2344 L-19.4531 0.8438 Q-19.4531 2.4844 -18.7969 3.1406 Q-18.4219 3.5156 -18 3.5156 Q-17.5312 3.5156 -17.1562 3.1406 Q-16.5469 2.5312 -16.5469 0.8438 L-16.5469 -0.2344 Q-16.5469 -1.9219 -17.1562 -2.5312 Q-17.5312 -2.9062 -18 -2.9062 Q-18.4688 -2.9062 -18.8438 -2.5312 ZM-14.2969 3.3281 L-13.2188 3.3281 L-13.2188 4.3594 L-14.2969 4.3594 L-14.2969 3.3281 ZM-12.1406 -0.1406 Q-12.1406 -2.2031 -11.2031 -3.1406 Q-10.5469 -3.7969 -9.5625 -3.7969 Q-8.5781 -3.7969 -7.9219 -3.1406 Q-6.9844 -2.2031 -6.9844 -0.1406 L-6.9844 0.7969 Q-6.9844 2.8125 -7.9219 3.75 Q-8.5781 4.4062 -9.5625 4.4062 Q-10.5469 4.4062 -11.2031 3.75 Q-12.1406 2.8125 -12.1406 0.7969 L-12.1406 -0.1406 ZM-10.4062 -2.5312 Q-11.0156 -1.9219 -11.0156 -0.2344 L-11.0156 0.8438 Q-11.0156 2.4844 -10.3594 3.1406 Q-9.9844 3.5156 -9.5625 3.5156 Q-9.0938 3.5156 -8.7188 3.1406 Q-8.1094 2.5312 -8.1094 0.8438 L-8.1094 -0.2344 Q-8.1094 -1.9219 -8.7188 -2.5312 Q-9.0938 -2.9062 -9.5625 -2.9062 Q-10.0312 -2.9062 -10.4062 -2.5312 ZM-5.3906 -3.6562 L-1.3594 -3.6562 L-1.3594 -2.7656 L-4.5 -2.7656 L-4.5 -2.625 Q-4.5469 -1.7344 -4.6406 -0.8906 Q-4.6875 -0.75 -4.6875 -0.6094 Q-4.0781 -1.1719 -3.375 -1.1719 Q-2.4375 -1.1719 -1.8281 -0.5625 Q-1.1719 0.0938 -1.1719 1.3594 Q-1.1719 2.9531 -2.0156 3.7969 Q-2.6719 4.4531 -3.6562 4.4531 Q-4.5938 4.4531 -5.2031 3.8438 Q-5.8125 3.2344 -5.9531 2.0156 L-4.875 2.0156 Q-4.7812 2.9062 -4.4062 3.2812 Q-4.125 3.5625 -3.7031 3.5625 Q-3.1406 3.5625 -2.8125 3.2344 Q-2.2969 2.7188 -2.2969 1.5 Q-2.2969 0.3281 -2.7188 -0.0938 Q-3 -0.375 -3.375 -0.375 Q-3.9375 -0.375 -4.3594 0.0469 Q-4.6406 0.3281 -4.7344 0.4688 L-5.6719 0.4688 Q-5.625 0.2812 -5.625 0.1406 L-5.3906 -3.4688 L-5.3906 -3.6562 Z"
         id="path5561" />
    </g>
    <g
       transform="translate(67.9333,280.6)"
       style="fill:rgb(38,38,38); text-rendering:geometricPrecision; color-rendering:optimizeQuality; image-rendering:optimizeQuality; font-family:'MS UI Gothic'; stroke:rgb(38,38,38); color-interpolation:linearRGB;"
       id="g5567">
      <path
         style="stroke:none;"
         d="M-14.5781 -0.1406 Q-14.5781 -2.2031 -13.6406 -3.1406 Q-12.9844 -3.7969 -12 -3.7969 Q-11.0156 -3.7969 -10.3594 -3.1406 Q-9.4219 -2.2031 -9.4219 -0.1406 L-9.4219 0.7969 Q-9.4219 2.8125 -10.3594 3.75 Q-11.0156 4.4062 -12 4.4062 Q-12.9844 4.4062 -13.6406 3.75 Q-14.5781 2.8125 -14.5781 0.7969 L-14.5781 -0.1406 ZM-12.8438 -2.5312 Q-13.4531 -1.9219 -13.4531 -0.2344 L-13.4531 0.8438 Q-13.4531 2.4844 -12.7969 3.1406 Q-12.4219 3.5156 -12 3.5156 Q-11.5312 3.5156 -11.1562 3.1406 Q-10.5469 2.5312 -10.5469 0.8438 L-10.5469 -0.2344 Q-10.5469 -1.9219 -11.1562 -2.5312 Q-11.5312 -2.9062 -12 -2.9062 Q-12.4688 -2.9062 -12.8438 -2.5312 ZM-8.2969 3.3281 L-7.2188 3.3281 L-7.2188 4.3594 L-8.2969 4.3594 L-8.2969 3.3281 ZM-3.375 -3.7969 L-2.8125 -3.7969 L-2.8125 4.3125 L-3.8906 4.3125 L-3.8906 -1.9219 L-5.2969 -1.9219 L-5.2969 -2.4844 L-4.875 -2.4844 Q-4.2188 -2.4844 -3.8438 -2.8594 Q-3.4219 -3.2812 -3.375 -3.7969 Z"
         id="path5565" />
    </g>
    <g
       transform="translate(67.9333,249.4)"
       style="fill:rgb(38,38,38); text-rendering:geometricPrecision; color-rendering:optimizeQuality; image-rendering:optimizeQuality; font-family:'MS UI Gothic'; stroke:rgb(38,38,38); color-interpolation:linearRGB;"
       id="g5571">
      <path
         style="stroke:none;"
         d="M-20.5781 -0.1406 Q-20.5781 -2.2031 -19.6406 -3.1406 Q-18.9844 -3.7969 -18 -3.7969 Q-17.0156 -3.7969 -16.3594 -3.1406 Q-15.4219 -2.2031 -15.4219 -0.1406 L-15.4219 0.7969 Q-15.4219 2.8125 -16.3594 3.75 Q-17.0156 4.4062 -18 4.4062 Q-18.9844 4.4062 -19.6406 3.75 Q-20.5781 2.8125 -20.5781 0.7969 L-20.5781 -0.1406 ZM-18.8438 -2.5312 Q-19.4531 -1.9219 -19.4531 -0.2344 L-19.4531 0.8438 Q-19.4531 2.4844 -18.7969 3.1406 Q-18.4219 3.5156 -18 3.5156 Q-17.5312 3.5156 -17.1562 3.1406 Q-16.5469 2.5312 -16.5469 0.8438 L-16.5469 -0.2344 Q-16.5469 -1.9219 -17.1562 -2.5312 Q-17.5312 -2.9062 -18 -2.9062 Q-18.4688 -2.9062 -18.8438 -2.5312 ZM-14.2969 3.3281 L-13.2188 3.3281 L-13.2188 4.3594 L-14.2969 4.3594 L-14.2969 3.3281 ZM-9.375 -3.7969 L-8.8125 -3.7969 L-8.8125 4.3125 L-9.8906 4.3125 L-9.8906 -1.9219 L-11.2969 -1.9219 L-11.2969 -2.4844 L-10.875 -2.4844 Q-10.2188 -2.4844 -9.8438 -2.8594 Q-9.4219 -3.2812 -9.375 -3.7969 ZM-5.3906 -3.6562 L-1.3594 -3.6562 L-1.3594 -2.7656 L-4.5 -2.7656 L-4.5 -2.625 Q-4.5469 -1.7344 -4.6406 -0.8906 Q-4.6875 -0.75 -4.6875 -0.6094 Q-4.0781 -1.1719 -3.375 -1.1719 Q-2.4375 -1.1719 -1.8281 -0.5625 Q-1.1719 0.0938 -1.1719 1.3594 Q-1.1719 2.9531 -2.0156 3.7969 Q-2.6719 4.4531 -3.6562 4.4531 Q-4.5938 4.4531 -5.2031 3.8438 Q-5.8125 3.2344 -5.9531 2.0156 L-4.875 2.0156 Q-4.7812 2.9062 -4.4062 3.2812 Q-4.125 3.5625 -3.7031 3.5625 Q-3.1406 3.5625 -2.8125 3.2344 Q-2.2969 2.7188 -2.2969 1.5 Q-2.2969 0.3281 -2.7188 -0.0938 Q-3 -0.375 -3.375 -0.375 Q-3.9375 -0.375 -4.3594 0.0469 Q-4.6406 0.3281 -4.7344 0.4688 L-5.6719 0.4688 Q-5.625 0.2812 -5.625 0.1406 L-5.3906 -3.4688 L-5.3906 -3.6562 Z"
         id="path5569" />
    </g>
    <g
       transform="translate(67.9333,218.2)"
       style="fill:rgb(38,38,38); text-rendering:geometricPrecision; color-rendering:optimizeQuality; image-rendering:optimizeQuality; font-family:'MS UI Gothic'; stroke:rgb(38,38,38); color-interpolation:linearRGB;"
       id="g5575">
      <path
         style="stroke:none;"
         d="M-14.5781 -0.1406 Q-14.5781 -2.2031 -13.6406 -3.1406 Q-12.9844 -3.7969 -12 -3.7969 Q-11.0156 -3.7969 -10.3594 -3.1406 Q-9.4219 -2.2031 -9.4219 -0.1406 L-9.4219 0.7969 Q-9.4219 2.8125 -10.3594 3.75 Q-11.0156 4.4062 -12 4.4062 Q-12.9844 4.4062 -13.6406 3.75 Q-14.5781 2.8125 -14.5781 0.7969 L-14.5781 -0.1406 ZM-12.8438 -2.5312 Q-13.4531 -1.9219 -13.4531 -0.2344 L-13.4531 0.8438 Q-13.4531 2.4844 -12.7969 3.1406 Q-12.4219 3.5156 -12 3.5156 Q-11.5312 3.5156 -11.1562 3.1406 Q-10.5469 2.5312 -10.5469 0.8438 L-10.5469 -0.2344 Q-10.5469 -1.9219 -11.1562 -2.5312 Q-11.5312 -2.9062 -12 -2.9062 Q-12.4688 -2.9062 -12.8438 -2.5312 ZM-8.2969 3.3281 L-7.2188 3.3281 L-7.2188 4.3594 L-8.2969 4.3594 L-8.2969 3.3281 ZM-5.7656 -0.9375 Q-5.7656 -2.3906 -5.0156 -3.1406 Q-4.4062 -3.75 -3.5625 -3.75 Q-2.5312 -3.75 -1.9219 -3.1406 Q-1.3125 -2.5312 -1.3125 -1.6406 Q-1.3125 -0.5156 -2.0156 0.3281 Q-2.6719 1.125 -3.375 1.875 Q-3.75 2.2969 -4.125 2.7188 Q-4.4531 3.0938 -4.6875 3.4688 L-1.1719 3.4688 L-1.1719 4.3594 L-5.9531 4.3594 L-5.9531 3.5625 Q-5.8594 3.0938 -5.1562 2.25 Q-3.9844 0.9844 -3.2344 0.1406 Q-2.4375 -0.7031 -2.4375 -1.6406 Q-2.4375 -2.2031 -2.8125 -2.5781 Q-3.0938 -2.8594 -3.5156 -2.8594 Q-3.8906 -2.8594 -4.1719 -2.5781 Q-4.6875 -2.0625 -4.6875 -0.9375 L-5.7656 -0.9375 Z"
         id="path5573" />
    </g>
    <g
       transform="translate(67.9333,187)"
       style="fill:rgb(38,38,38); text-rendering:geometricPrecision; color-rendering:optimizeQuality; image-rendering:optimizeQuality; font-family:'MS UI Gothic'; stroke:rgb(38,38,38); color-interpolation:linearRGB;"
       id="g5579">
      <path
         style="stroke:none;"
         d="M-20.5781 -0.1406 Q-20.5781 -2.2031 -19.6406 -3.1406 Q-18.9844 -3.7969 -18 -3.7969 Q-17.0156 -3.7969 -16.3594 -3.1406 Q-15.4219 -2.2031 -15.4219 -0.1406 L-15.4219 0.7969 Q-15.4219 2.8125 -16.3594 3.75 Q-17.0156 4.4062 -18 4.4062 Q-18.9844 4.4062 -19.6406 3.75 Q-20.5781 2.8125 -20.5781 0.7969 L-20.5781 -0.1406 ZM-18.8438 -2.5312 Q-19.4531 -1.9219 -19.4531 -0.2344 L-19.4531 0.8438 Q-19.4531 2.4844 -18.7969 3.1406 Q-18.4219 3.5156 -18 3.5156 Q-17.5312 3.5156 -17.1562 3.1406 Q-16.5469 2.5312 -16.5469 0.8438 L-16.5469 -0.2344 Q-16.5469 -1.9219 -17.1562 -2.5312 Q-17.5312 -2.9062 -18 -2.9062 Q-18.4688 -2.9062 -18.8438 -2.5312 ZM-14.2969 3.3281 L-13.2188 3.3281 L-13.2188 4.3594 L-14.2969 4.3594 L-14.2969 3.3281 ZM-11.7656 -0.9375 Q-11.7656 -2.3906 -11.0156 -3.1406 Q-10.4062 -3.75 -9.5625 -3.75 Q-8.5312 -3.75 -7.9219 -3.1406 Q-7.3125 -2.5312 -7.3125 -1.6406 Q-7.3125 -0.5156 -8.0156 0.3281 Q-8.6719 1.125 -9.375 1.875 Q-9.75 2.2969 -10.125 2.7188 Q-10.4531 3.0938 -10.6875 3.4688 L-7.1719 3.4688 L-7.1719 4.3594 L-11.9531 4.3594 L-11.9531 3.5625 Q-11.8594 3.0938 -11.1562 2.25 Q-9.9844 0.9844 -9.2344 0.1406 Q-8.4375 -0.7031 -8.4375 -1.6406 Q-8.4375 -2.2031 -8.8125 -2.5781 Q-9.0938 -2.8594 -9.5156 -2.8594 Q-9.8906 -2.8594 -10.1719 -2.5781 Q-10.6875 -2.0625 -10.6875 -0.9375 L-11.7656 -0.9375 ZM-5.3906 -3.6562 L-1.3594 -3.6562 L-1.3594 -2.7656 L-4.5 -2.7656 L-4.5 -2.625 Q-4.5469 -1.7344 -4.6406 -0.8906 Q-4.6875 -0.75 -4.6875 -0.6094 Q-4.0781 -1.1719 -3.375 -1.1719 Q-2.4375 -1.1719 -1.8281 -0.5625 Q-1.1719 0.0938 -1.1719 1.3594 Q-1.1719 2.9531 -2.0156 3.7969 Q-2.6719 4.4531 -3.6562 4.4531 Q-4.5938 4.4531 -5.2031 3.8438 Q-5.8125 3.2344 -5.9531 2.0156 L-4.875 2.0156 Q-4.7812 2.9062 -4.4062 3.2812 Q-4.125 3.5625 -3.7031 3.5625 Q-3.1406 3.5625 -2.8125 3.2344 Q-2.2969 2.7188 -2.2969 1.5 Q-2.2969 0.3281 -2.7188 -0.0938 Q-3 -0.375 -3.375 -0.375 Q-3.9375 -0.375 -4.3594 0.0469 Q-4.6406 0.3281 -4.7344 0.4688 L-5.6719 0.4688 Q-5.625 0.2812 -5.625 0.1406 L-5.3906 -3.4688 L-5.3906 -3.6562 Z"
         id="path5577" />
    </g>
    <g
       transform="translate(67.9333,155.8)"
       style="fill:rgb(38,38,38); text-rendering:geometricPrecision; color-rendering:optimizeQuality; image-rendering:optimizeQuality; font-family:'MS UI Gothic'; stroke:rgb(38,38,38); color-interpolation:linearRGB;"
       id="g5583">
      <path
         style="stroke:none;"
         d="M-14.5781 -0.1406 Q-14.5781 -2.2031 -13.6406 -3.1406 Q-12.9844 -3.7969 -12 -3.7969 Q-11.0156 -3.7969 -10.3594 -3.1406 Q-9.4219 -2.2031 -9.4219 -0.1406 L-9.4219 0.7969 Q-9.4219 2.8125 -10.3594 3.75 Q-11.0156 4.4062 -12 4.4062 Q-12.9844 4.4062 -13.6406 3.75 Q-14.5781 2.8125 -14.5781 0.7969 L-14.5781 -0.1406 ZM-12.8438 -2.5312 Q-13.4531 -1.9219 -13.4531 -0.2344 L-13.4531 0.8438 Q-13.4531 2.4844 -12.7969 3.1406 Q-12.4219 3.5156 -12 3.5156 Q-11.5312 3.5156 -11.1562 3.1406 Q-10.5469 2.5312 -10.5469 0.8438 L-10.5469 -0.2344 Q-10.5469 -1.9219 -11.1562 -2.5312 Q-11.5312 -2.9062 -12 -2.9062 Q-12.4688 -2.9062 -12.8438 -2.5312 ZM-8.2969 3.3281 L-7.2188 3.3281 L-7.2188 4.3594 L-8.2969 4.3594 L-8.2969 3.3281 ZM-5.7656 -1.3594 Q-5.7656 -2.4375 -5.0625 -3.1406 Q-4.4531 -3.75 -3.5625 -3.75 Q-2.5312 -3.75 -1.9219 -3.1406 Q-1.3594 -2.5781 -1.3594 -1.6406 Q-1.3594 -0.7031 -1.8281 -0.2344 Q-2.1562 0.0938 -2.5312 0.1406 Q-2.0625 0.2812 -1.7344 0.6094 Q-1.1719 1.1719 -1.1719 2.1094 Q-1.1719 3.1406 -1.8281 3.7969 Q-2.4844 4.4531 -3.6562 4.4531 Q-4.6406 4.4531 -5.2969 3.7969 Q-5.9531 3.1406 -5.9531 2.25 L-5.9531 1.875 L-4.875 1.875 L-4.875 2.2031 Q-4.875 2.8125 -4.4531 3.2344 Q-4.125 3.5625 -3.6562 3.5625 Q-3.0469 3.5625 -2.6719 3.1875 Q-2.2969 2.8125 -2.2969 2.0156 Q-2.2969 1.3594 -2.6719 0.9844 Q-3.0469 0.6094 -3.5156 0.6094 L-3.8906 0.6094 L-3.8906 -0.1875 L-3.6094 -0.1875 Q-3.1875 -0.1875 -2.8125 -0.5625 Q-2.4375 -0.9375 -2.4375 -1.6406 Q-2.4375 -2.25 -2.8125 -2.625 Q-3.0938 -2.9062 -3.5625 -2.9062 Q-3.9844 -2.9062 -4.3125 -2.5781 Q-4.6875 -2.2031 -4.7344 -1.3594 L-5.7656 -1.3594 Z"
         id="path5581" />
    </g>
    <g
       transform="translate(67.9333,124.6)"
       style="fill:rgb(38,38,38); text-rendering:geometricPrecision; color-rendering:optimizeQuality; image-rendering:optimizeQuality; font-family:'MS UI Gothic'; stroke:rgb(38,38,38); color-interpolation:linearRGB;"
       id="g5587">
      <path
         style="stroke:none;"
         d="M-20.5781 -0.1406 Q-20.5781 -2.2031 -19.6406 -3.1406 Q-18.9844 -3.7969 -18 -3.7969 Q-17.0156 -3.7969 -16.3594 -3.1406 Q-15.4219 -2.2031 -15.4219 -0.1406 L-15.4219 0.7969 Q-15.4219 2.8125 -16.3594 3.75 Q-17.0156 4.4062 -18 4.4062 Q-18.9844 4.4062 -19.6406 3.75 Q-20.5781 2.8125 -20.5781 0.7969 L-20.5781 -0.1406 ZM-18.8438 -2.5312 Q-19.4531 -1.9219 -19.4531 -0.2344 L-19.4531 0.8438 Q-19.4531 2.4844 -18.7969 3.1406 Q-18.4219 3.5156 -18 3.5156 Q-17.5312 3.5156 -17.1562 3.1406 Q-16.5469 2.5312 -16.5469 0.8438 L-16.5469 -0.2344 Q-16.5469 -1.9219 -17.1562 -2.5312 Q-17.5312 -2.9062 -18 -2.9062 Q-18.4688 -2.9062 -18.8438 -2.5312 ZM-14.2969 3.3281 L-13.2188 3.3281 L-13.2188 4.3594 L-14.2969 4.3594 L-14.2969 3.3281 ZM-11.7656 -1.3594 Q-11.7656 -2.4375 -11.0625 -3.1406 Q-10.4531 -3.75 -9.5625 -3.75 Q-8.5312 -3.75 -7.9219 -3.1406 Q-7.3594 -2.5781 -7.3594 -1.6406 Q-7.3594 -0.7031 -7.8281 -0.2344 Q-8.1562 0.0938 -8.5312 0.1406 Q-8.0625 0.2812 -7.7344 0.6094 Q-7.1719 1.1719 -7.1719 2.1094 Q-7.1719 3.1406 -7.8281 3.7969 Q-8.4844 4.4531 -9.6562 4.4531 Q-10.6406 4.4531 -11.2969 3.7969 Q-11.9531 3.1406 -11.9531 2.25 L-11.9531 1.875 L-10.875 1.875 L-10.875 2.2031 Q-10.875 2.8125 -10.4531 3.2344 Q-10.125 3.5625 -9.6562 3.5625 Q-9.0469 3.5625 -8.6719 3.1875 Q-8.2969 2.8125 -8.2969 2.0156 Q-8.2969 1.3594 -8.6719 0.9844 Q-9.0469 0.6094 -9.5156 0.6094 L-9.8906 0.6094 L-9.8906 -0.1875 L-9.6094 -0.1875 Q-9.1875 -0.1875 -8.8125 -0.5625 Q-8.4375 -0.9375 -8.4375 -1.6406 Q-8.4375 -2.25 -8.8125 -2.625 Q-9.0938 -2.9062 -9.5625 -2.9062 Q-9.9844 -2.9062 -10.3125 -2.5781 Q-10.6875 -2.2031 -10.7344 -1.3594 L-11.7656 -1.3594 ZM-5.3906 -3.6562 L-1.3594 -3.6562 L-1.3594 -2.7656 L-4.5 -2.7656 L-4.5 -2.625 Q-4.5469 -1.7344 -4.6406 -0.8906 Q-4.6875 -0.75 -4.6875 -0.6094 Q-4.0781 -1.1719 -3.375 -1.1719 Q-2.4375 -1.1719 -1.8281 -0.5625 Q-1.1719 0.0938 -1.1719 1.3594 Q-1.1719 2.9531 -2.0156 3.7969 Q-2.6719 4.4531 -3.6562 4.4531 Q-4.5938 4.4531 -5.2031 3.8438 Q-5.8125 3.2344 -5.9531 2.0156 L-4.875 2.0156 Q-4.7812 2.9062 -4.4062 3.2812 Q-4.125 3.5625 -3.7031 3.5625 Q-3.1406 3.5625 -2.8125 3.2344 Q-2.2969 2.7188 -2.2969 1.5 Q-2.2969 0.3281 -2.7188 -0.0938 Q-3 -0.375 -3.375 -0.375 Q-3.9375 -0.375 -4.3594 0.0469 Q-4.6406 0.3281 -4.7344 0.4688 L-5.6719 0.4688 Q-5.625 0.2812 -5.625 0.1406 L-5.3906 -3.4688 L-5.3906 -3.6562 Z"
         id="path5585" />
    </g>
    <g
       transform="translate(67.9333,93.4)"
       style="fill:rgb(38,38,38); text-rendering:geometricPrecision; color-rendering:optimizeQuality; image-rendering:optimizeQuality; font-family:'MS UI Gothic'; stroke:rgb(38,38,38); color-interpolation:linearRGB;"
       id="g5591">
      <path
         style="stroke:none;"
         d="M-14.5781 -0.1406 Q-14.5781 -2.2031 -13.6406 -3.1406 Q-12.9844 -3.7969 -12 -3.7969 Q-11.0156 -3.7969 -10.3594 -3.1406 Q-9.4219 -2.2031 -9.4219 -0.1406 L-9.4219 0.7969 Q-9.4219 2.8125 -10.3594 3.75 Q-11.0156 4.4062 -12 4.4062 Q-12.9844 4.4062 -13.6406 3.75 Q-14.5781 2.8125 -14.5781 0.7969 L-14.5781 -0.1406 ZM-12.8438 -2.5312 Q-13.4531 -1.9219 -13.4531 -0.2344 L-13.4531 0.8438 Q-13.4531 2.4844 -12.7969 3.1406 Q-12.4219 3.5156 -12 3.5156 Q-11.5312 3.5156 -11.1562 3.1406 Q-10.5469 2.5312 -10.5469 0.8438 L-10.5469 -0.2344 Q-10.5469 -1.9219 -11.1562 -2.5312 Q-11.5312 -2.9062 -12 -2.9062 Q-12.4688 -2.9062 -12.8438 -2.5312 ZM-8.2969 3.3281 L-7.2188 3.3281 L-7.2188 4.3594 L-8.2969 4.3594 L-8.2969 3.3281 ZM-3 -3.75 L-1.9219 -3.75 L-1.9219 1.4062 L-0.9375 1.4062 L-0.9375 2.2969 L-1.9219 2.2969 L-1.9219 4.3594 L-3 4.3594 L-3 2.2969 L-6.1406 2.2969 L-6.1406 1.3594 L-3 -3.75 ZM-3 -2.0156 L-5.1094 1.4062 L-3 1.4062 L-3 -2.0156 Z"
         id="path5589" />
    </g>
    <g
       transform="translate(67.9333,62.2)"
       style="fill:rgb(38,38,38); text-rendering:geometricPrecision; color-rendering:optimizeQuality; image-rendering:optimizeQuality; font-family:'MS UI Gothic'; stroke:rgb(38,38,38); color-interpolation:linearRGB;"
       id="g5595">
      <path
         style="stroke:none;"
         d="M-20.5781 -0.1406 Q-20.5781 -2.2031 -19.6406 -3.1406 Q-18.9844 -3.7969 -18 -3.7969 Q-17.0156 -3.7969 -16.3594 -3.1406 Q-15.4219 -2.2031 -15.4219 -0.1406 L-15.4219 0.7969 Q-15.4219 2.8125 -16.3594 3.75 Q-17.0156 4.4062 -18 4.4062 Q-18.9844 4.4062 -19.6406 3.75 Q-20.5781 2.8125 -20.5781 0.7969 L-20.5781 -0.1406 ZM-18.8438 -2.5312 Q-19.4531 -1.9219 -19.4531 -0.2344 L-19.4531 0.8438 Q-19.4531 2.4844 -18.7969 3.1406 Q-18.4219 3.5156 -18 3.5156 Q-17.5312 3.5156 -17.1562 3.1406 Q-16.5469 2.5312 -16.5469 0.8438 L-16.5469 -0.2344 Q-16.5469 -1.9219 -17.1562 -2.5312 Q-17.5312 -2.9062 -18 -2.9062 Q-18.4688 -2.9062 -18.8438 -2.5312 ZM-14.2969 3.3281 L-13.2188 3.3281 L-13.2188 4.3594 L-14.2969 4.3594 L-14.2969 3.3281 ZM-9 -3.75 L-7.9219 -3.75 L-7.9219 1.4062 L-6.9375 1.4062 L-6.9375 2.2969 L-7.9219 2.2969 L-7.9219 4.3594 L-9 4.3594 L-9 2.2969 L-12.1406 2.2969 L-12.1406 1.3594 L-9 -3.75 ZM-9 -2.0156 L-11.1094 1.4062 L-9 1.4062 L-9 -2.0156 ZM-5.3906 -3.6562 L-1.3594 -3.6562 L-1.3594 -2.7656 L-4.5 -2.7656 L-4.5 -2.625 Q-4.5469 -1.7344 -4.6406 -0.8906 Q-4.6875 -0.75 -4.6875 -0.6094 Q-4.0781 -1.1719 -3.375 -1.1719 Q-2.4375 -1.1719 -1.8281 -0.5625 Q-1.1719 0.0938 -1.1719 1.3594 Q-1.1719 2.9531 -2.0156 3.7969 Q-2.6719 4.4531 -3.6562 4.4531 Q-4.5938 4.4531 -5.2031 3.8438 Q-5.8125 3.2344 -5.9531 2.0156 L-4.875 2.0156 Q-4.7812 2.9062 -4.4062 3.2812 Q-4.125 3.5625 -3.7031 3.5625 Q-3.1406 3.5625 -2.8125 3.2344 Q-2.2969 2.7188 -2.2969 1.5 Q-2.2969 0.3281 -2.7188 -0.0938 Q-3 -0.375 -3.375 -0.375 Q-3.9375 -0.375 -4.3594 0.0469 Q-4.6406 0.3281 -4.7344 0.4688 L-5.6719 0.4688 Q-5.625 0.2812 -5.625 0.1406 L-5.3906 -3.4688 L-5.3906 -3.6562 Z"
         id="path5593" />
    </g>
    <g
       transform="translate(67.9333,31)"
       style="fill:rgb(38,38,38); text-rendering:geometricPrecision; color-rendering:optimizeQuality; image-rendering:optimizeQuality; font-family:'MS UI Gothic'; stroke:rgb(38,38,38); color-interpolation:linearRGB;"
       id="g5599">
      <path
         style="stroke:none;"
         d="M-14.5781 -0.1406 Q-14.5781 -2.2031 -13.6406 -3.1406 Q-12.9844 -3.7969 -12 -3.7969 Q-11.0156 -3.7969 -10.3594 -3.1406 Q-9.4219 -2.2031 -9.4219 -0.1406 L-9.4219 0.7969 Q-9.4219 2.8125 -10.3594 3.75 Q-11.0156 4.4062 -12 4.4062 Q-12.9844 4.4062 -13.6406 3.75 Q-14.5781 2.8125 -14.5781 0.7969 L-14.5781 -0.1406 ZM-12.8438 -2.5312 Q-13.4531 -1.9219 -13.4531 -0.2344 L-13.4531 0.8438 Q-13.4531 2.4844 -12.7969 3.1406 Q-12.4219 3.5156 -12 3.5156 Q-11.5312 3.5156 -11.1562 3.1406 Q-10.5469 2.5312 -10.5469 0.8438 L-10.5469 -0.2344 Q-10.5469 -1.9219 -11.1562 -2.5312 Q-11.5312 -2.9062 -12 -2.9062 Q-12.4688 -2.9062 -12.8438 -2.5312 ZM-8.2969 3.3281 L-7.2188 3.3281 L-7.2188 4.3594 L-8.2969 4.3594 L-8.2969 3.3281 ZM-5.3906 -3.6562 L-1.3594 -3.6562 L-1.3594 -2.7656 L-4.5 -2.7656 L-4.5 -2.625 Q-4.5469 -1.7344 -4.6406 -0.8906 Q-4.6875 -0.75 -4.6875 -0.6094 Q-4.0781 -1.1719 -3.375 -1.1719 Q-2.4375 -1.1719 -1.8281 -0.5625 Q-1.1719 0.0938 -1.1719 1.3594 Q-1.1719 2.9531 -2.0156 3.7969 Q-2.6719 4.4531 -3.6562 4.4531 Q-4.5938 4.4531 -5.2031 3.8438 Q-5.8125 3.2344 -5.9531 2.0156 L-4.875 2.0156 Q-4.7812 2.9062 -4.4062 3.2812 Q-4.125 3.5625 -3.7031 3.5625 Q-3.1406 3.5625 -2.8125 3.2344 Q-2.2969 2.7188 -2.2969 1.5 Q-2.2969 0.3281 -2.7188 -0.0938 Q-3 -0.375 -3.375 -0.375 Q-3.9375 -0.375 -4.3594 0.0469 Q-4.6406 0.3281 -4.7344 0.4688 L-5.6719 0.4688 Q-5.625 0.2812 -5.625 0.1406 L-5.3906 -3.4688 L-5.3906 -3.6562 Z"
         id="path5597" />
    </g>
    <g
       style="stroke-linecap:butt; fill:red; text-rendering:geometricPrecision; image-rendering:optimizeQuality; color-rendering:optimizeQuality; stroke-linejoin:round; stroke:red; color-interpolation:linearRGB; stroke-width:0.6667;"
       id="g5607">
      <path
         d="M73 31 L77.34 31 L81.68 31.0002 L86.02 31.0009 L90.36 31.0028 L94.7 31.0068 L99.04 31.0141 L103.38 31.026 L107.72 31.0442 L112.06 31.0706 L116.4 31.1072 L120.74 31.1564 L125.08 31.2206 L129.42 31.3025 L133.76 31.405 L138.1 31.531 L142.44 31.6838 L146.78 31.8667 L151.12 32.083 L155.46 32.3363 L159.8 32.6302 L164.14 32.9684 L168.48 33.3546 L172.82 33.7926 L177.16 34.2863 L181.5 34.8395 L185.84 35.4561 L190.18 36.1398 L194.52 36.8945 L198.86 37.7239 L203.2 38.6318 L207.54 39.6217 L211.88 40.6971 L216.22 41.8617 L220.56 43.1186 L224.9 44.4711 L229.24 45.9223 L233.58 47.475 L237.92 49.1322 L242.26 50.8963 L246.6 52.7699 L250.94 54.7552 L255.28 56.8542 L259.62 59.0689 L263.96 61.4008 L268.3 63.8515 L272.64 66.4222 L276.98 69.1139 L281.32 71.9274 L285.66 74.8633 L290 77.9219 L294.34 81.1033 L298.68 84.4074 L303.02 87.8339 L307.36 91.3822 L311.7 95.0515 L316.04 98.8408 L320.38 102.7489 L324.72 106.7742 L329.06 110.9152 L333.4 115.1699 L337.74 119.5363 L342.08 124.0122 L346.42 128.595 L350.76 133.2823 L355.1 138.0711 L359.44 142.9586 L363.78 147.9417 L368.12 153.0172 L372.46 158.1817 L376.8 163.4318 L381.14 168.7639 L385.48 174.1745 L389.82 179.6598 L394.16 185.2161 L398.5 190.8395 L402.84 196.5263 L407.18 202.2726 L411.52 208.0746 L415.86 213.9284 L420.2 219.8302 L424.54 225.7763 L428.88 231.763 L433.22 237.7867 L437.56 243.8438 L441.9 249.931 L446.24 256.045 L450.58 262.1825 L454.92 268.3406 L459.26 274.5164 L463.6 280.7072 L467.94 286.9106 L472.28 293.1242 L476.62 299.346 L480.96 305.5741 L485.3 311.8068 L489.64 318.0428 L493.98 324.2809 L498.32 330.5202 L502.66 336.76 L507 343"
         style="fill:none;fill-rule:evenodd;stroke:#9c0c0c;stroke-opacity:1;stroke-width:1.5;stroke-miterlimit:10;stroke-dasharray:none"
         id="path5601" />
      <path
         d="M73 31 L77.34 31 L81.68 31 L86.02 31.0001 L90.36 31.0004 L94.7 31.0012 L99.04 31.003 L103.38 31.0064 L107.72 31.0121 L112.06 31.0214 L116.4 31.0356 L120.74 31.056 L125.08 31.0848 L129.42 31.1238 L133.76 31.1755 L138.1 31.2424 L142.44 31.3275 L146.78 31.4338 L151.12 31.5647 L155.46 31.7237 L159.8 31.9145 L164.14 32.1412 L168.48 32.4077 L172.82 32.7184 L177.16 33.0776 L181.5 33.4899 L185.84 33.9597 L190.18 34.4918 L194.52 35.0907 L198.86 35.7612 L203.2 36.508 L207.54 37.3357 L211.88 38.2489 L216.22 39.2521 L220.56 40.3497 L224.9 41.546 L229.24 42.8451 L233.58 44.2511 L237.92 45.7677 L242.26 47.3985 L246.6 49.1469 L250.94 51.0161 L255.28 53.0089 L259.62 55.128 L263.96 57.3757 L268.3 59.754 L272.64 62.2648 L276.98 64.9094 L281.32 67.689 L285.66 70.6045 L290 73.6562 L294.34 76.8445 L298.68 80.169 L303.02 83.6294 L307.36 87.2248 L311.7 90.954 L316.04 94.8157 L320.38 98.808 L324.72 102.9289 L329.06 107.1761 L333.4 111.5469 L337.74 116.0385 L342.08 120.6477 L346.42 125.3711 L350.76 130.2051 L355.1 135.1459 L359.44 140.1897 L363.78 145.3321 L368.12 150.5689 L372.46 155.8957 L376.8 161.308 L381.14 166.8013 L385.48 172.3707 L389.82 178.0117 L394.16 183.7197 L398.5 189.4899 L402.84 195.3176 L407.18 201.1984 L411.52 207.1277 L415.86 213.1012 L420.2 219.1145 L424.54 225.1637 L428.88 231.2447 L433.22 237.3538 L437.56 243.4875 L441.9 249.6425 L446.24 255.8155 L450.58 262.0038 L454.92 268.2048 L459.26 274.416 L463.6 280.6356 L467.94 286.8615 L472.28 293.0922 L476.62 299.3264 L480.96 305.563 L485.3 311.8012 L489.64 318.0404 L493.98 324.2801 L498.32 330.52 L502.66 336.76 L507 343"
         style="fill:none;fill-rule:evenodd;stroke:#00a1ff;stroke-opacity:1;stroke-width:1.5;stroke-miterlimit:10;stroke-dasharray:none"
         id="path5603" />
      <path
         d="M73 31 L77.34 31 L81.68 31 L86.02 31 L90.36 31 L94.7 31 L99.04 31 L103.38 31 L107.72 31 L112.06 31 L116.4 31 L120.74 31 L125.08 31 L129.42 31 L133.76 31 L138.1 31 L142.44 31 L146.78 31 L151.12 31 L155.46 31 L159.8 31 L164.14 31 L168.48 31 L172.82 31 L177.16 31 L181.5 31 L185.84 31 L190.18 31 L194.52 31 L198.86 31 L203.2 31 L207.54 31 L211.88 31 L216.22 31 L220.56 31 L224.9 31 L229.24 31 L233.58 31 L237.92 31 L242.26 31 L246.6 31 L250.94 31 L255.28 31 L259.62 31 L263.96 31 L268.3 31 L272.64 31 L276.98 31 L281.32 31 L285.66 31 L290 31 L294.34 37.24 L298.68 43.48 L303.02 49.72 L307.36 55.96 L311.7 62.2 L316.04 68.44 L320.38 74.68 L324.72 80.92 L329.06 87.16 L333.4 93.4 L337.74 99.64 L342.08 105.88 L346.42 112.12 L350.76 118.36 L355.1 124.6 L359.44 130.84 L363.78 137.08 L368.12 143.32 L372.46 149.56 L376.8 155.8 L381.14 162.04 L385.48 168.28 L389.82 174.52 L394.16 180.76 L398.5 187 L402.84 193.24 L407.18 199.48 L411.52 205.72 L415.86 211.96 L420.2 218.2 L424.54 224.44 L428.88 230.68 L433.22 236.92 L437.56 243.16 L441.9 249.4 L446.24 255.64 L450.58 261.88 L454.92 268.12 L459.26 274.36 L463.6 280.6 L467.94 286.84 L472.28 293.08 L476.62 299.32 L480.96 305.56 L485.3 311.8 L489.64 318.04 L493.98 324.28 L498.32 330.52 L502.66 336.76 L507 343"
         style="fill:none;fill-rule:evenodd;stroke:#099d09;stroke-opacity:1;stroke-width:1.5;stroke-miterlimit:10;stroke-dasharray:none"
         id="path5605" />
    </g>
    <g
       style="fill:white; text-rendering:optimizeSpeed; color-rendering:optimizeSpeed; image-rendering:optimizeSpeed; shape-rendering:crispEdges; stroke:white; color-interpolation:sRGB;"
       id="g5611">
      <path
         style="stroke:none;"
         d="M496 83 L496 42 L403 42 L403 83 Z"
         id="path5609" />
    </g>
    <g
       style="color-interpolation:linearRGB;fill:#ff0000;stroke:#9c0c0c;stroke-width:1.5;stroke-linecap:butt;stroke-linejoin:round;stroke-miterlimit:10;stroke-dasharray:none;stroke-opacity:1;color-rendering:optimizeQuality;image-rendering:optimizeQuality;text-rendering:geometricPrecision"
       id="g5619"
       transform="translate(0.31460259,-9.1234752)">
      <line
         y2="50"
         style="fill:none;stroke:#9c0c0c;stroke-width:1.5;stroke-miterlimit:10;stroke-dasharray:none;stroke-opacity:1"
         x1="407"
         x2="447"
         y1="50"
         id="line5617" />
    </g>
    <g
       style="stroke-linecap:butt; fill:blue; text-rendering:geometricPrecision; image-rendering:optimizeQuality; color-rendering:optimizeQuality; stroke-linejoin:round; stroke:blue; color-interpolation:linearRGB; stroke-width:0.6667;"
       id="g5627">
      <line
         y2="59.353973"
         style="fill:none;stroke:#00a1ff;stroke-width:1.5;stroke-miterlimit:10;stroke-dasharray:none;stroke-opacity:1"
         x1="407.31461"
         x2="447.31461"
         y1="59.353973"
         id="line5625" />
    </g>
    <g
       style="color-interpolation:linearRGB;fill:#00ff00;stroke:#00ff00;stroke-width:0.66670001;stroke-linecap:butt;stroke-linejoin:round;color-rendering:optimizeQuality;image-rendering:optimizeQuality;text-rendering:geometricPrecision"
       id="g5637"
       transform="matrix(1,0,0,1.063965,0,-1.8472548)">
      <line
         y2="73.225868"
         style="fill:none;stroke:#099d09;stroke-width:1.5;stroke-miterlimit:10;stroke-dasharray:none;stroke-opacity:1"
         x1="407"
         x2="447"
         y1="73.225868"
         id="line5633" />
      <path
         d="M 403.09246,82.907542 V 28.879149 h 115.15187 v 54.028393 z"
         style="fill:none;fill-rule:evenodd;stroke:#262626;stroke-width:0.85161555;stroke-linejoin:miter"
         id="path5635"
         inkscape:connector-curvature="0" />
    </g>
    <text
       xml:space="preserve"
       style="font-style:normal;font-variant:normal;font-weight:normal;font-stretch:normal;font-size:13.33333302px;line-height:1.25;font-family:'Times New Roman';-inkscape-font-specification:'Times New Roman, ';text-align:start;letter-spacing:0px;word-spacing:0px;text-anchor:start;color-interpolation:auto;fill:#000000;fill-opacity:1;stroke:none;stroke-width:1;stroke-linecap:square;stroke-linejoin:miter;stroke-miterlimit:10;stroke-dasharray:none;stroke-dashoffset:0;stroke-opacity:1;color-rendering:auto;image-rendering:auto;shape-rendering:auto;text-rendering:auto"
       x="449.82913"
       y="81.217606"
       id="text5430"><tspan
         sodipodi:role="line"
         id="tspan5428"
         x="449.82913"
         y="81.217606"><tspan
           style="font-size:16px"
           id="tspan5436">R</tspan><tspan
           style="font-size:12px;baseline-shift:super"
           id="tspan5434"
           dy="3"
           dx="-2">*</tspan><tspan
           style="font-size:12px;baseline-shift:sub"
           id="tspan5432"
           dy="-3"
           dx="-5">sec</tspan></tspan></text>
    <text
       xml:space="preserve"
       style="font-style:normal;font-variant:normal;font-weight:normal;font-stretch:normal;font-size:13.33333302px;line-height:1.25;font-family:'Times New Roman';-inkscape-font-specification:'Times New Roman, ';text-align:start;letter-spacing:0px;word-spacing:0px;text-anchor:start;color-interpolation:auto;fill:#000000;fill-opacity:1;stroke:none;stroke-width:1;stroke-linecap:square;stroke-linejoin:miter;stroke-miterlimit:10;stroke-dasharray:none;stroke-dashoffset:0;stroke-opacity:1;color-rendering:auto;image-rendering:auto;shape-rendering:auto;text-rendering:auto"
       x="449.76019"
       y="44.059013"
       id="text4682"><tspan
         sodipodi:role="line"
         id="tspan4680"
         x="449.76019"
         y="44.059013"><tspan
   style="font-style:italic;font-variant:normal;font-weight:normal;font-stretch:normal;font-family:'Times New Roman';-inkscape-font-specification:'Times New Roman,  Italic'"
   id="tspan4684">ExHam</tspan>(8,4)</tspan></text>
    <text
       xml:space="preserve"
       style="font-style:normal;font-variant:normal;font-weight:normal;font-stretch:normal;font-size:13.33333302px;line-height:1.25;font-family:'Times New Roman';-inkscape-font-specification:'Times New Roman, ';text-align:start;letter-spacing:0px;word-spacing:0px;text-anchor:start;color-interpolation:auto;fill:#000000;fill-opacity:1;stroke:none;stroke-width:1;stroke-linecap:square;stroke-linejoin:miter;stroke-miterlimit:10;stroke-dasharray:none;stroke-dashoffset:0;stroke-opacity:1;color-rendering:auto;image-rendering:auto;shape-rendering:auto;text-rendering:auto"
       x="450.36871"
       y="64.093407"
       id="text4688"><tspan
         sodipodi:role="line"
         id="tspan4686"
         x="450.36871"
         y="64.093407"><tspan
           style="font-size:16px"
           id="tspan6250">R</tspan><tspan
           style="font-size:10.66666698px;baseline-shift:sub"
           id="tspan4694">sec</tspan></tspan></text>
    <path
       style="font-style:normal;font-weight:normal;font-size:12px;font-family:Dialog;color-interpolation:auto;fill:none;fill-opacity:1;stroke:#000000;stroke-width:0.84515429px;stroke-linecap:butt;stroke-linejoin:miter;stroke-miterlimit:10;stroke-dasharray:none;stroke-dashoffset:0;stroke-opacity:1;color-rendering:auto;image-rendering:auto;shape-rendering:auto;text-rendering:auto"
       d="m 450.03682,50.358014 h 9.61099"
       id="path4698"
       inkscape:connector-curvature="0" />
    <g
       transform="rotate(-90,121.33117,68.159478)"
       style="font-style:normal;font-weight:normal;font-size:48px;font-family:mwa_cmmi10;color-interpolation:linearRGB;fill:#262626;fill-opacity:1;stroke:#262626;stroke-width:1;stroke-linecap:square;stroke-linejoin:miter;stroke-miterlimit:10;stroke-dasharray:none;stroke-dashoffset:0;stroke-opacity:1;color-rendering:optimizeQuality;image-rendering:optimizeQuality;shape-rendering:auto;text-rendering:geometricPrecision"
       id="g4652">
      <path
         inkscape:connector-curvature="0"
         style="stroke:none"
         d="m -40.047,-17.2802 q -0.4687,0 -0.4687,-0.6406 0.0312,-0.1094 0.1015,-0.4063 0.0703,-0.2968 0.1953,-0.4687 0.125,-0.1719 0.3125,-0.1719 2.9375,0 4.1094,-0.3281 0.6094,-0.2188 0.8906,-1.2969 l 6.5782,-26.3593 q 0.0937,-0.4688 0.0937,-0.6563 0,-0.5156 -0.5625,-0.5937 -0.9062,-0.1875 -3.4687,-0.1875 -0.4688,0 -0.4688,-0.625 0.0313,-0.125 0.1016,-0.4141 0.0703,-0.2891 0.1953,-0.4688 0.125,-0.1796 0.3125,-0.1796 h 14.5625 q 1.7344,0 3.6094,0.3984 1.875,0.3984 3.4453,1.2578 1.5703,0.8594 2.5781,2.2734 1.0078,1.4141 1.0078,3.3204 0,2.4062 -1.5937,4.3046 -1.5938,1.8985 -4.0313,3.1797 -2.4375,1.2813 -4.7344,1.7969 1.875,0.6719 3.0703,2.1641 1.1954,1.4921 1.1954,3.4296 0,0.2657 -0.0157,0.3907 -0.0156,0.125 -0.0312,0.2968 l -0.375,4.2657 q -0.0469,0.9375 -0.0938,1.5937 -0.0468,0.6563 -0.0468,1.0469 0,1.3125 0.3828,2.1016 0.3828,0.789 1.539,0.789 1.5,0 2.6328,-1.3984 1.1329,-1.3985 1.4922,-3.0391 0.2032,-0.4219 0.4688,-0.4219 h 0.4375 q 0.4687,0 0.4687,0.6407 -0.3437,1.375 -1.1093,2.6172 -0.7657,1.2421 -1.9219,2.0468 -1.1563,0.8047 -2.5156,0.8047 -2.8125,0 -4.7969,-1.2578 -1.9844,-1.2578 -1.9844,-3.9297 0,-1.0156 0.1875,-1.7812 l 1.0625,-4.2657 q 0.1875,-0.5937 0.1875,-1.3593 0,-2 -1.3516,-3.1328 -1.3515,-1.1328 -3.3828,-1.1328 h -5.9062 l -3.1719,12.6718 q -0.1094,0.4063 -0.1094,0.6875 0,0.4844 0.5782,0.5625 0.9218,0.1875 3.4531,0.1875 0.4844,0 0.4844,0.625 -0.1563,0.6875 -0.25,0.875 -0.0938,0.1875 -0.5625,0.1875 z m 12.6406,-17.0468 h 5.3125 q 5.2344,0 7.875,-2.6407 1.2188,-1.2187 1.9375,-3.1093 0.7188,-1.8907 0.7188,-3.7657 0,-1.7812 -1.0469,-2.789 -1.0469,-1.0078 -2.5781,-1.3828 -1.5313,-0.375 -3.3906,-0.375 h -3.2032 q -1.3125,0 -1.7343,0.2265 -0.4219,0.2266 -0.7813,1.4141 z"
         id="path4644" />
      <path
         inkscape:connector-curvature="0"
         style="stroke:none"
         d="m -2.9917,-12.1584 q 0.9219,1.5625 3.6719,1.5625 1.1875,0 2.2734,-0.4062 1.0859,-0.4063 1.7891,-1.2188 0.7031,-0.8125 0.7031,-1.9843 0,-0.875 -0.6328,-1.4375 -0.6328,-0.5625 -1.5391,-0.7657 l -1.8437,-0.3593 q -1.2657,-0.3125 -2.0782,-1.1797 -0.8125,-0.8672 -0.8125,-2.1016 0,-1.5 0.8203,-2.6641 0.8204,-1.164 2.1641,-1.7812 1.3438,-0.6172 2.7969,-0.6172 1.5312,0 2.7578,0.7422 1.2266,0.7422 1.2266,2.1797 0,0.7812 -0.4454,1.3828 -0.4453,0.6016 -1.2265,0.6016 -0.4375,0 -0.7656,-0.2891 -0.3282,-0.2891 -0.3282,-0.7422 0,-0.4062 0.2266,-0.7734 0.2266,-0.3672 0.6016,-0.5938 0.375,-0.2265 0.7656,-0.2265 -0.2969,-0.7344 -1.1172,-1.0625 -0.8203,-0.3282 -1.7734,-0.3282 -0.8594,0 -1.7188,0.3438 -0.8594,0.3437 -1.3828,1.0156 -0.5234,0.6719 -0.5234,1.5938 0,0.6093 0.4296,1.0781 0.4297,0.4687 1.0547,0.6562 l 1.9844,0.4063 q 0.9375,0.2031 1.7266,0.7031 0.789,0.5 1.25,1.2734 0.4609,0.7735 0.4609,1.7735 0,1.2656 -0.7109,2.4922 -0.711,1.2265 -1.7266,1.9609 -1.8125,1.2188 -4.4375,1.2188 -1.8125,0 -3.3203,-0.8282 -1.5078,-0.8281 -1.5078,-2.4687 0,-0.9375 0.539,-1.625 0.5391,-0.6875 1.461,-0.6875 0.5469,0 0.9219,0.3359 0.375,0.336 0.375,0.8828 0,0.7813 -0.5782,1.3594 -0.5781,0.5781 -1.3593,0.5781 z"
         id="path4646" />
      <path
         inkscape:connector-curvature="0"
         style="stroke:none"
         d="m 16.6489,-9.7052 q -1.625,0 -2.8516,-0.8438 -1.2265,-0.8437 -1.8593,-2.2812 -0.6328,-1.4375 -0.6328,-3.0313 0,-2.4219 1.2187,-4.5547 1.2188,-2.1328 3.3125,-3.414 2.0938,-1.2813 4.4844,-1.2813 1.4531,0 2.539,0.7578 1.086,0.7578 1.086,2.1641 0,1.9687 -1.5547,2.9219 -1.5547,0.9531 -3.5156,1.1796 -1.961,0.2266 -4.336,0.2266 h -0.1093 q -0.5469,2.0156 -0.5469,3.4688 0,1.5 0.7031,2.6484 0.7031,1.1484 2.125,1.1484 2.0313,0 3.8984,-0.9297 1.8672,-0.9296 3.0391,-2.5703 0.1094,-0.1093 0.2656,-0.1093 0.1719,0 0.3438,0.1953 0.1719,0.1953 0.1719,0.3672 0,0.125 -0.0625,0.1875 -1.25,1.75 -3.3594,2.75 -2.1094,1 -4.3594,1 z m -2.0156,-9.0469 q 1.9844,0 3.6562,-0.1797 1.6719,-0.1797 3.0391,-0.9219 1.3672,-0.7422 1.3672,-2.289 0,-0.6407 -0.3516,-1.1094 -0.3515,-0.4688 -0.9062,-0.7188 -0.5547,-0.25 -1.1641,-0.25 -1.4375,0 -2.5937,0.7813 -1.1563,0.7812 -1.8985,2.0312 -0.7422,1.25 -1.1484,2.6563 z"
         id="path4648" />
      <path
         inkscape:connector-curvature="0"
         style="stroke:none"
         d="m 29.4346,-14.1271 q 0,1.4687 0.7578,2.5 0.7578,1.0312 2.164,1.0312 2.0313,0 3.8985,-0.9297 1.8672,-0.9296 3.039,-2.5703 0.1094,-0.1093 0.2657,-0.1093 0.1718,0 0.3437,0.1953 0.1719,0.1953 0.1719,0.3672 0,0.125 -0.0625,0.1875 -1.25,1.75 -3.3594,2.75 -2.1094,1 -4.3594,1 -1.625,0 -2.875,-0.7657 -1.25,-0.7656 -1.9296,-2.0625 -0.6797,-1.2968 -0.6797,-2.9218 0,-2.2969 1.2812,-4.5547 1.2813,-2.2578 3.4063,-3.6797 2.125,-1.4219 4.4687,-1.4219 1.5156,0 2.7422,0.7422 1.2266,0.7422 1.2266,2.1797 0,0.9375 -0.5469,1.5937 -0.5469,0.6563 -1.4531,0.6563 -0.5469,0 -0.9219,-0.3438 -0.375,-0.3437 -0.375,-0.8906 0,-0.7969 0.5859,-1.3594 0.586,-0.5625 1.3516,-0.5625 h 0.0781 q -0.4062,-0.5781 -1.1562,-0.8515 -0.75,-0.2735 -1.5782,-0.2735 -1.9843,0 -3.4765,1.7032 -1.4922,1.7031 -2.25,4.0625 -0.7578,2.3593 -0.7578,4.3281 z"
         id="path4650" />
    </g>
  </g>
</svg>
