<?xml version="1.0" encoding="UTF-8" standalone="no"?>
<svg
   xmlns:dc="http://purl.org/dc/elements/1.1/"
   xmlns:cc="http://creativecommons.org/ns#"
   xmlns:rdf="http://www.w3.org/1999/02/22-rdf-syntax-ns#"
   xmlns:svg="http://www.w3.org/2000/svg"
   xmlns="http://www.w3.org/2000/svg"
   xmlns:sodipodi="http://sodipodi.sourceforge.net/DTD/sodipodi-0.dtd"
   xmlns:inkscape="http://www.inkscape.org/namespaces/inkscape"
   style="font-style:normal;font-weight:normal;font-size:12px;font-family:Dialog;color-interpolation:auto;fill:#000000;fill-opacity:1;stroke:#000000;stroke-width:1;stroke-linecap:square;stroke-linejoin:miter;stroke-miterlimit:10;stroke-dasharray:none;stroke-dashoffset:0;stroke-opacity:1;color-rendering:auto;image-rendering:auto;shape-rendering:auto;text-rendering:auto"
   width="280"
   height="210"
   version="1.1"
   id="svg209"
   sodipodi:docname="ngraf.svg"
   inkscape:version="0.92.1 r15371">
  <metadata
     id="metadata213">
    <rdf:RDF>
      <cc:Work
         rdf:about="">
        <dc:format>image/svg+xml</dc:format>
        <dc:type
           rdf:resource="http://purl.org/dc/dcmitype/StillImage" />
        <dc:title></dc:title>
      </cc:Work>
    </rdf:RDF>
  </metadata>
  <sodipodi:namedview
     pagecolor="#ffffff"
     bordercolor="#666666"
     borderopacity="1"
     objecttolerance="10"
     gridtolerance="10"
     guidetolerance="10"
     inkscape:pageopacity="0"
     inkscape:pageshadow="2"
     inkscape:window-width="1920"
     inkscape:window-height="1057"
     id="namedview211"
     showgrid="false"
     fit-margin-top="0"
     fit-margin-left="0"
     fit-margin-right="0"
     fit-margin-bottom="0"
     inkscape:zoom="4.1619048"
     inkscape:cx="114.74955"
     inkscape:cy="104.5229"
     inkscape:window-x="-8"
     inkscape:window-y="-8"
     inkscape:window-maximized="1"
     inkscape:current-layer="svg209" />
  <!--Generated by the Batik Graphics2D SVG Generator-->
  <defs
     id="genericDefs" />
  <g
     id="g207"
     transform="scale(0.5)">
    <defs
       id="defs1">
      <clipPath
         clipPathUnits="userSpaceOnUse"
         id="clipPath1">
        <path
           d="M 0,0 H 560 V 420 H 0 Z"
           id="path11"
           inkscape:connector-curvature="0" />
      </clipPath>
    </defs>
    <g
       style="fill:#ffffff;stroke:#ffffff"
       id="g17">
      <rect
         x="0"
         y="0"
         width="560"
         style="stroke:none"
         height="420"
         clip-path="url(#clipPath1)"
         id="rect15" />
    </g>
    <g
       style="color-interpolation:sRGB;fill:#ffffff;stroke:#ffffff;color-rendering:optimizeSpeed;image-rendering:optimizeSpeed;shape-rendering:crispEdges;text-rendering:optimizeSpeed"
       id="g23">
      <rect
         x="0"
         width="560"
         height="420"
         y="0"
         style="stroke:none"
         id="rect19" />
      <path
         style="stroke:none"
         d="M 73,373 H 507 V 31 H 73 Z"
         id="path21"
         inkscape:connector-curvature="0" />
    </g>
    <g
       style="color-interpolation:linearRGB;fill:#262626;stroke:#262626;stroke-width:0.66670001;stroke-linejoin:round;color-rendering:optimizeQuality;image-rendering:optimizeQuality;text-rendering:geometricPrecision"
       id="g43">
      <line
         y2="373"
         style="fill:none"
         x1="73"
         x2="507"
         y1="373"
         id="line25" />
      <line
         y2="368.66"
         style="fill:none"
         x1="73"
         x2="73"
         y1="373"
         id="line27" />
      <line
         y2="368.66"
         style="fill:none"
         x1="135"
         x2="135"
         y1="373"
         id="line29" />
      <line
         y2="368.66"
         style="fill:none"
         x1="197"
         x2="197"
         y1="373"
         id="line31" />
      <line
         y2="368.66"
         style="fill:none"
         x1="259"
         x2="259"
         y1="373"
         id="line33" />
      <line
         y2="368.66"
         style="fill:none"
         x1="321"
         x2="321"
         y1="373"
         id="line35" />
      <line
         y2="368.66"
         style="fill:none"
         x1="383"
         x2="383"
         y1="373"
         id="line37" />
      <line
         y2="368.66"
         style="fill:none"
         x1="445"
         x2="445"
         y1="373"
         id="line39" />
      <line
         y2="368.66"
         style="fill:none"
         x1="507"
         x2="507"
         y1="373"
         id="line41" />
    </g>
    <g
       transform="translate(73,378.0667)"
       style="font-family:'MS UI Gothic';color-interpolation:linearRGB;fill:#262626;stroke:#262626;color-rendering:optimizeQuality;image-rendering:optimizeQuality;text-rendering:geometricPrecision"
       id="g47">
      <path
         style="stroke:none"
         d="M -1.2188,3.3125 Q -0.6562,2.75 0.1875,2.75 1.0781,2.75 1.6406,3.3125 2.25,3.9219 2.25,4.8594 H 1.1719 q 0,-0.6563 -0.2813,-0.9375 -0.2812,-0.2813 -0.7031,-0.2813 -0.4219,0 -0.7031,0.2813 -0.75,0.75 -0.75,2.625 0.1875,-0.3281 0.4687,-0.6094 0.4219,-0.4219 1.0313,-0.4219 0.8437,0 1.4062,0.5625 0.7032,0.7031 0.7032,2.1094 0,1.4531 -0.75,2.2031 -0.5626,0.5625 -1.5469,0.5625 -0.8438,0 -1.5469,-0.7031 -0.8438,-0.8438 -0.8438,-3.2344 0,-2.5781 1.125,-3.7031 z m 0.5626,3.375 q -0.5157,0.5156 -0.5157,1.4063 0,1.125 0.5625,1.6874 0.3282,0.3282 0.7032,0.3282 0.4218,0 0.7031,-0.2813 0.4219,-0.4219 0.4219,-1.6406 0,-1.0781 -0.4219,-1.5 -0.3281,-0.3281 -0.6563,-0.3281 -0.4687,0 -0.7968,0.3281 z"
         id="path45"
         inkscape:connector-curvature="0" />
    </g>
    <g
       transform="translate(135,378.0667)"
       style="font-family:'MS UI Gothic';color-interpolation:linearRGB;fill:#262626;stroke:#262626;color-rendering:optimizeQuality;image-rendering:optimizeQuality;text-rendering:geometricPrecision"
       id="g51">
      <path
         style="stroke:none"
         d="M -1.5469,3.3125 Q -0.9844,2.75 0,2.75 0.9844,2.75 1.5938,3.3594 2.2031,3.9688 2.2031,5 2.2031,5.7969 1.6406,6.3594 1.4062,6.5938 1.0781,6.6875 V 6.7812 Q 1.5,6.875 1.875,7.25 q 0.5625,0.5625 0.5625,1.5 0,0.9375 -0.6563,1.5938 Q 1.1719,10.9531 0,10.9531 q -1.1719,0 -1.7812,-0.6093 -0.6563,-0.6563 -0.6563,-1.5938 0,-0.9375 0.5625,-1.5 Q -1.5,6.875 -1.0781,6.7812 V 6.6875 Q -1.3594,6.5938 -1.6875,6.2656 -2.2031,5.75 -2.2031,5 q 0,-1.0312 0.6562,-1.6875 z m 0.75,0.6094 q -0.375,0.375 -0.375,1.0781 0,0.6562 0.375,1.0312 0.3281,0.3282 0.75,0.3282 0.5625,0 0.8438,-0.2813 Q 1.1719,5.7031 1.1719,5 1.1719,4.2969 0.7969,3.9219 0.4688,3.5938 0,3.5938 q -0.4688,0 -0.7969,0.3281 z m -0.1875,3.6093 q -0.375,0.375 -0.375,1.0782 0,0.7031 0.4219,1.125 0.375,0.375 0.9375,0.375 0.5625,0 0.9375,-0.375 0.4219,-0.4219 0.4219,-1.125 0,-0.7032 -0.4219,-1.125 Q 0.6094,7.1562 0,7.1562 q -0.6094,0 -0.9844,0.375 z"
         id="path49"
         inkscape:connector-curvature="0" />
    </g>
    <g
       transform="translate(197,378.0667)"
       style="font-family:'MS UI Gothic';color-interpolation:linearRGB;fill:#262626;stroke:#262626;color-rendering:optimizeQuality;image-rendering:optimizeQuality;text-rendering:geometricPrecision"
       id="g55">
      <path
         style="stroke:none"
         d="M -2.8125,2.7031 H -2.25 v 8.1094 H -3.3281 V 4.5781 H -4.7344 V 4.0156 h 0.4219 q 0.6563,0 1.0313,-0.375 0.4218,-0.4218 0.4687,-0.9375 z m 3.2344,3.6563 q 0,-2.0625 0.9375,-3 Q 2.0156,2.7031 3,2.7031 q 0.9844,0 1.6406,0.6563 0.9375,0.9375 0.9375,3 v 0.9375 q 0,2.0156 -0.9375,2.9531 Q 3.9844,10.9062 3,10.9062 2.0156,10.9062 1.3594,10.25 0.4219,9.3125 0.4219,7.2969 Z M 2.1562,3.9688 Q 1.5469,4.5781 1.5469,6.2656 v 1.0782 q 0,1.6406 0.6562,2.2968 0.375,0.375 0.7969,0.375 0.4688,0 0.8438,-0.375 Q 4.4531,9.0312 4.4531,7.3438 V 6.2656 Q 4.4531,4.5781 3.8438,3.9688 3.4688,3.5938 3,3.5938 q -0.4688,0 -0.8438,0.375 z"
         id="path53"
         inkscape:connector-curvature="0" />
    </g>
    <g
       transform="translate(259,378.0667)"
       style="font-family:'MS UI Gothic';color-interpolation:linearRGB;fill:#262626;stroke:#262626;color-rendering:optimizeQuality;image-rendering:optimizeQuality;text-rendering:geometricPrecision"
       id="g59">
      <path
         style="stroke:none"
         d="M -2.8125,2.7031 H -2.25 v 8.1094 H -3.3281 V 4.5781 H -4.7344 V 4.0156 h 0.4219 q 0.6563,0 1.0313,-0.375 0.4218,-0.4218 0.4687,-0.9375 z m 3.6094,2.8594 q 0,-1.4531 0.75,-2.2031 Q 2.1562,2.75 3,2.75 q 1.0312,0 1.6406,0.6094 0.6094,0.6094 0.6094,1.5 0,1.125 -0.7031,1.9687 Q 3.8906,7.625 3.1875,8.375 2.8125,8.7969 2.4375,9.2188 2.1094,9.5938 1.875,9.9688 h 3.5156 v 0.8906 H 0.6094 V 10.0625 Q 0.7031,9.5938 1.4062,8.75 2.5781,7.4844 3.3281,6.6406 4.125,5.7969 4.125,4.8594 4.125,4.2969 3.75,3.9219 3.4688,3.6406 3.0469,3.6406 2.6719,3.6406 2.3906,3.9219 1.875,4.4375 1.875,5.5625 Z"
         id="path57"
         inkscape:connector-curvature="0" />
    </g>
    <g
       transform="translate(321,378.0667)"
       style="font-family:'MS UI Gothic';color-interpolation:linearRGB;fill:#262626;stroke:#262626;color-rendering:optimizeQuality;image-rendering:optimizeQuality;text-rendering:geometricPrecision"
       id="g63">
      <path
         style="stroke:none"
         d="M -2.8125,2.7031 H -2.25 v 8.1094 H -3.3281 V 4.5781 H -4.7344 V 4.0156 h 0.4219 q 0.6563,0 1.0313,-0.375 0.4218,-0.4218 0.4687,-0.9375 z M 3.5625,2.75 H 4.6406 V 7.9062 H 5.625 V 8.7969 H 4.6406 v 2.0625 H 3.5625 V 8.7969 H 0.4219 V 7.8594 Z m 0,1.7344 -2.1094,3.4218 h 2.1094 z"
         id="path61"
         inkscape:connector-curvature="0" />
    </g>
    <g
       transform="translate(383,378.0667)"
       style="font-family:'MS UI Gothic';color-interpolation:linearRGB;fill:#262626;stroke:#262626;color-rendering:optimizeQuality;image-rendering:optimizeQuality;text-rendering:geometricPrecision"
       id="g67">
      <path
         style="stroke:none"
         d="M -2.8125,2.7031 H -2.25 v 8.1094 H -3.3281 V 4.5781 H -4.7344 V 4.0156 h 0.4219 q 0.6563,0 1.0313,-0.375 0.4218,-0.4218 0.4687,-0.9375 z M 1.7812,3.3125 Q 2.3438,2.75 3.1875,2.75 4.0781,2.75 4.6406,3.3125 5.25,3.9219 5.25,4.8594 H 4.1719 q 0,-0.6563 -0.2813,-0.9375 -0.2812,-0.2813 -0.7031,-0.2813 -0.4219,0 -0.7031,0.2813 -0.75,0.75 -0.75,2.625 Q 1.9219,6.2188 2.2031,5.9375 2.625,5.5156 3.2344,5.5156 q 0.8437,0 1.4062,0.5625 0.7032,0.7031 0.7032,2.1094 0,1.4531 -0.75,2.2031 Q 4.0312,10.9531 3.0469,10.9531 2.2031,10.9531 1.5,10.25 0.6562,9.4062 0.6562,7.0156 q 0,-2.5781 1.125,-3.7031 z m 0.5626,3.375 q -0.5157,0.5156 -0.5157,1.4063 0,1.125 0.5625,1.6874 0.3282,0.3282 0.7032,0.3282 0.4218,0 0.7031,-0.2813 0.4219,-0.4219 0.4219,-1.6406 0,-1.0781 -0.4219,-1.5 -0.3281,-0.3281 -0.6563,-0.3281 -0.4687,0 -0.7968,0.3281 z"
         id="path65"
         inkscape:connector-curvature="0" />
    </g>
    <g
       transform="translate(445,378.0667)"
       style="font-family:'MS UI Gothic';color-interpolation:linearRGB;fill:#262626;stroke:#262626;color-rendering:optimizeQuality;image-rendering:optimizeQuality;text-rendering:geometricPrecision"
       id="g71">
      <path
         style="stroke:none"
         d="M -2.8125,2.7031 H -2.25 v 8.1094 H -3.3281 V 4.5781 H -4.7344 V 4.0156 h 0.4219 q 0.6563,0 1.0313,-0.375 0.4218,-0.4218 0.4687,-0.9375 z M 1.4531,3.3125 Q 2.0156,2.75 3,2.75 3.9844,2.75 4.5938,3.3594 5.2031,3.9688 5.2031,5 5.2031,5.7969 4.6406,6.3594 4.4062,6.5938 4.0781,6.6875 V 6.7812 Q 4.5,6.875 4.875,7.25 q 0.5625,0.5625 0.5625,1.5 0,0.9375 -0.6563,1.5938 Q 4.1719,10.9531 3,10.9531 1.8281,10.9531 1.2188,10.3438 0.5625,9.6875 0.5625,8.75 0.5625,7.8125 1.125,7.25 1.5,6.875 1.9219,6.7812 V 6.6875 Q 1.6406,6.5938 1.3125,6.2656 0.7969,5.75 0.7969,5 q 0,-1.0312 0.6562,-1.6875 z m 0.75,0.6094 Q 1.8281,4.2969 1.8281,5 q 0,0.6562 0.375,1.0312 0.3281,0.3282 0.75,0.3282 0.5625,0 0.8438,-0.2813 Q 4.1719,5.7031 4.1719,5 4.1719,4.2969 3.7969,3.9219 3.4688,3.5938 3,3.5938 q -0.4688,0 -0.7969,0.3281 z M 2.0156,7.5312 q -0.375,0.375 -0.375,1.0782 0,0.7031 0.4219,1.125 0.375,0.375 0.9375,0.375 0.5625,0 0.9375,-0.375 0.4219,-0.4219 0.4219,-1.125 0,-0.7032 -0.4219,-1.125 Q 3.6094,7.1562 3,7.1562 q -0.6094,0 -0.9844,0.375 z"
         id="path69"
         inkscape:connector-curvature="0" />
    </g>
    <g
       transform="translate(507,378.0667)"
       style="font-family:'MS UI Gothic';color-interpolation:linearRGB;fill:#262626;stroke:#262626;color-rendering:optimizeQuality;image-rendering:optimizeQuality;text-rendering:geometricPrecision"
       id="g75">
      <path
         style="stroke:none"
         d="m -5.2031,5.5625 q 0,-1.4531 0.75,-2.2031 Q -3.8438,2.75 -3,2.75 q 1.0312,0 1.6406,0.6094 0.6094,0.6094 0.6094,1.5 0,1.125 -0.7031,1.9687 -0.6563,0.7969 -1.3594,1.5469 -0.375,0.4219 -0.75,0.8438 -0.3281,0.375 -0.5625,0.75 h 3.5156 v 0.8906 H -5.3906 V 10.0625 Q -5.2969,9.5938 -4.5938,8.75 -3.4219,7.4844 -2.6719,6.6406 -1.875,5.7969 -1.875,4.8594 q 0,-0.5625 -0.375,-0.9375 -0.2812,-0.2813 -0.7031,-0.2813 -0.375,0 -0.6563,0.2813 -0.5156,0.5156 -0.5156,1.6406 z m 5.625,0.7969 q 0,-2.0625 0.9375,-3 Q 2.0156,2.7031 3,2.7031 q 0.9844,0 1.6406,0.6563 0.9375,0.9375 0.9375,3 v 0.9375 q 0,2.0156 -0.9375,2.9531 Q 3.9844,10.9062 3,10.9062 2.0156,10.9062 1.3594,10.25 0.4219,9.3125 0.4219,7.2969 Z M 2.1562,3.9688 Q 1.5469,4.5781 1.5469,6.2656 v 1.0782 q 0,1.6406 0.6562,2.2968 0.375,0.375 0.7969,0.375 0.4688,0 0.8438,-0.375 Q 4.4531,9.0312 4.4531,7.3438 V 6.2656 Q 4.4531,4.5781 3.8438,3.9688 3.4688,3.5938 3,3.5938 q -0.4688,0 -0.8438,0.375 z"
         id="path73"
         inkscape:connector-curvature="0" />
    </g>
    <g
       transform="translate(290.0002,393.0001)"
       style="font-size:26.66670036px;font-family:'MS UI Gothic';color-interpolation:linearRGB;fill:#262626;stroke:#262626;color-rendering:optimizeQuality;image-rendering:optimizeQuality;text-rendering:geometricPrecision"
       id="g79">
      <path
         style="stroke:none"
         d="M -3.3125,22.6875 H -5.4219 V 10.875 h 2.1094 v 2.1094 q 1.9063,-2.3282 4.0156,-2.3282 2.1094,0 3.375,1.2657 0.8438,0.8437 0.8438,2 v 8.7656 H 2.8125 v -8.125 q 0,-0.9531 -0.6406,-1.5781 -0.625,-0.6406 -1.7813,-0.6406 -1.0625,0 -2.1094,1.0624 -1.5937,1.5782 -1.5937,3.375 z"
         id="path77"
         inkscape:connector-curvature="0" />
    </g>
    <g
       style="color-interpolation:linearRGB;fill:#262626;stroke:#262626;stroke-width:0.66670001;stroke-linejoin:round;color-rendering:optimizeQuality;image-rendering:optimizeQuality;text-rendering:geometricPrecision"
       id="g99">
      <line
         y2="31"
         style="fill:none"
         x1="73"
         x2="73"
         y1="373"
         id="line81" />
      <line
         y2="373"
         style="fill:none"
         x1="73"
         x2="77.339996"
         y1="373"
         id="line83" />
      <line
         y2="324.14291"
         style="fill:none"
         x1="73"
         x2="77.339996"
         y1="324.14291"
         id="line85" />
      <line
         y2="275.2858"
         style="fill:none"
         x1="73"
         x2="77.339996"
         y1="275.2858"
         id="line87" />
      <line
         y2="226.4287"
         style="fill:none"
         x1="73"
         x2="77.339996"
         y1="226.4287"
         id="line89" />
      <line
         y2="177.5713"
         style="fill:none"
         x1="73"
         x2="77.339996"
         y1="177.5713"
         id="line91" />
      <line
         y2="128.7142"
         style="fill:none"
         x1="73"
         x2="77.339996"
         y1="128.7142"
         id="line93" />
      <line
         y2="79.857101"
         style="fill:none"
         x1="73"
         x2="77.339996"
         y1="79.857101"
         id="line95" />
      <line
         y2="31"
         style="fill:none"
         x1="73"
         x2="77.339996"
         y1="31"
         id="line97" />
    </g>
    <g
       transform="translate(67.9333,373)"
       style="font-family:'MS UI Gothic';color-interpolation:linearRGB;fill:#262626;stroke:#262626;color-rendering:optimizeQuality;image-rendering:optimizeQuality;text-rendering:geometricPrecision"
       id="g103">
      <path
         style="stroke:none"
         d="m -20.5781,-0.1406 q 0,-2.0625 0.9375,-3 0.6562,-0.6563 1.6406,-0.6563 0.9844,0 1.6406,0.6563 0.9375,0.9375 0.9375,3 v 0.9375 q 0,2.0156 -0.9375,2.9531 -0.6562,0.6562 -1.6406,0.6562 -0.9844,0 -1.6406,-0.6562 -0.9375,-0.9375 -0.9375,-2.9531 z m 1.7343,-2.3906 q -0.6093,0.6093 -0.6093,2.2968 v 1.0782 q 0,1.6406 0.6562,2.2968 0.375,0.375 0.7969,0.375 0.4688,0 0.8438,-0.375 0.6093,-0.6094 0.6093,-2.2968 v -1.0782 q 0,-1.6875 -0.6093,-2.2968 -0.375,-0.375 -0.8438,-0.375 -0.4688,0 -0.8438,0.375 z m 4.5469,5.8593 h 1.0781 v 1.0313 h -1.0781 z m 3.2344,-6.5625 q 0.5156,-0.5156 1.4063,-0.5156 0.8437,0 1.4531,0.6094 0.9843,0.9844 0.9843,3.4218 0,2.4844 -1.0312,3.5157 -0.6562,0.6562 -1.5469,0.6562 -0.8906,0 -1.4062,-0.5156 -0.6094,-0.6094 -0.6094,-1.5937 h 1.0781 q -0.0468,0.6093 0.375,1.0312 0.1875,0.1875 0.5625,0.1875 0.4219,0 0.75,-0.3281 0.75,-0.75 0.75,-2.7656 Q -8.4844,0.75 -8.7188,0.9844 -9.2344,1.5 -9.9844,1.5 q -0.7031,0 -1.1718,-0.4688 -0.75,-0.75 -0.75,-2.0156 0,-1.4062 0.8437,-2.25 z m 0.75,0.6094 q -0.4687,0.4688 -0.4687,1.6406 0,0.9375 0.375,1.3125 0.3281,0.3281 0.6562,0.3281 0.5625,0 0.8438,-0.2812 0.5156,-0.5156 0.5156,-1.2656 0,-1.1719 -0.5156,-1.6875 -0.3282,-0.3281 -0.75,-0.3281 -0.375,0 -0.6563,0.2812 z m 4.5469,1.2656 q 0,-1.0781 0.7031,-1.7812 0.6094,-0.6094 1.5,-0.6094 1.0313,0 1.6406,0.6094 0.5625,0.5625 0.5625,1.5 0,0.9375 -0.4687,1.4062 -0.3281,0.3282 -0.7031,0.375 0.4687,0.1406 0.7968,0.4688 0.5625,0.5625 0.5625,1.5 0,1.0312 -0.6562,1.6875 -0.6563,0.6562 -1.8281,0.6562 -0.9844,0 -1.6407,-0.6562 Q -5.9531,3.1406 -5.9531,2.25 V 1.875 h 1.0781 v 0.3281 q 0,0.6094 0.4219,1.0313 0.3281,0.3281 0.7969,0.3281 0.6093,0 0.9843,-0.375 0.375,-0.375 0.375,-1.1719 0,-0.6562 -0.375,-1.0312 -0.375,-0.375 -0.8437,-0.375 h -0.375 v -0.7969 h 0.2812 q 0.4219,0 0.7969,-0.375 0.375,-0.375 0.375,-1.0781 0,-0.6094 -0.375,-0.9844 -0.2813,-0.2812 -0.75,-0.2812 -0.4219,0 -0.75,0.3281 -0.375,0.375 -0.4219,1.2187 z"
         id="path101"
         inkscape:connector-curvature="0" />
    </g>
    <g
       transform="translate(67.9333,324.1429)"
       style="font-family:'MS UI Gothic';color-interpolation:linearRGB;fill:#262626;stroke:#262626;color-rendering:optimizeQuality;image-rendering:optimizeQuality;text-rendering:geometricPrecision"
       id="g107">
      <path
         style="stroke:none"
         d="m -20.5781,-0.1406 q 0,-2.0625 0.9375,-3 0.6562,-0.6563 1.6406,-0.6563 0.9844,0 1.6406,0.6563 0.9375,0.9375 0.9375,3 v 0.9375 q 0,2.0156 -0.9375,2.9531 -0.6562,0.6562 -1.6406,0.6562 -0.9844,0 -1.6406,-0.6562 -0.9375,-0.9375 -0.9375,-2.9531 z m 1.7343,-2.3906 q -0.6093,0.6093 -0.6093,2.2968 v 1.0782 q 0,1.6406 0.6562,2.2968 0.375,0.375 0.7969,0.375 0.4688,0 0.8438,-0.375 0.6093,-0.6094 0.6093,-2.2968 v -1.0782 q 0,-1.6875 -0.6093,-2.2968 -0.375,-0.375 -0.8438,-0.375 -0.4688,0 -0.8438,0.375 z m 4.5469,5.8593 h 1.0781 v 1.0313 h -1.0781 z m 3.2344,-6.5625 q 0.5156,-0.5156 1.4063,-0.5156 0.8437,0 1.4531,0.6094 0.9843,0.9844 0.9843,3.4218 0,2.4844 -1.0312,3.5157 -0.6562,0.6562 -1.5469,0.6562 -0.8906,0 -1.4062,-0.5156 -0.6094,-0.6094 -0.6094,-1.5937 h 1.0781 q -0.0468,0.6093 0.375,1.0312 0.1875,0.1875 0.5625,0.1875 0.4219,0 0.75,-0.3281 0.75,-0.75 0.75,-2.7656 Q -8.4844,0.75 -8.7188,0.9844 -9.2344,1.5 -9.9844,1.5 q -0.7031,0 -1.1718,-0.4688 -0.75,-0.75 -0.75,-2.0156 0,-1.4062 0.8437,-2.25 z m 0.75,0.6094 q -0.4687,0.4688 -0.4687,1.6406 0,0.9375 0.375,1.3125 0.3281,0.3281 0.6562,0.3281 0.5625,0 0.8438,-0.2812 0.5156,-0.5156 0.5156,-1.2656 0,-1.1719 -0.5156,-1.6875 -0.3282,-0.3281 -0.75,-0.3281 -0.375,0 -0.6563,0.2812 z M -3,-3.75 h 1.0781 v 5.1562 h 0.9844 V 2.2969 H -1.9219 V 4.3594 H -3 V 2.2969 H -6.1406 V 1.3594 Z m 0,1.7344 -2.1094,3.4218 H -3 Z"
         id="path105"
         inkscape:connector-curvature="0" />
    </g>
    <g
       transform="translate(67.9333,275.2858)"
       style="font-family:'MS UI Gothic';color-interpolation:linearRGB;fill:#262626;stroke:#262626;color-rendering:optimizeQuality;image-rendering:optimizeQuality;text-rendering:geometricPrecision"
       id="g111">
      <path
         style="stroke:none"
         d="m -20.5781,-0.1406 q 0,-2.0625 0.9375,-3 0.6562,-0.6563 1.6406,-0.6563 0.9844,0 1.6406,0.6563 0.9375,0.9375 0.9375,3 v 0.9375 q 0,2.0156 -0.9375,2.9531 -0.6562,0.6562 -1.6406,0.6562 -0.9844,0 -1.6406,-0.6562 -0.9375,-0.9375 -0.9375,-2.9531 z m 1.7343,-2.3906 q -0.6093,0.6093 -0.6093,2.2968 v 1.0782 q 0,1.6406 0.6562,2.2968 0.375,0.375 0.7969,0.375 0.4688,0 0.8438,-0.375 0.6093,-0.6094 0.6093,-2.2968 v -1.0782 q 0,-1.6875 -0.6093,-2.2968 -0.375,-0.375 -0.8438,-0.375 -0.4688,0 -0.8438,0.375 z m 4.5469,5.8593 h 1.0781 v 1.0313 h -1.0781 z m 3.2344,-6.5625 q 0.5156,-0.5156 1.4063,-0.5156 0.8437,0 1.4531,0.6094 0.9843,0.9844 0.9843,3.4218 0,2.4844 -1.0312,3.5157 -0.6562,0.6562 -1.5469,0.6562 -0.8906,0 -1.4062,-0.5156 -0.6094,-0.6094 -0.6094,-1.5937 h 1.0781 q -0.0468,0.6093 0.375,1.0312 0.1875,0.1875 0.5625,0.1875 0.4219,0 0.75,-0.3281 0.75,-0.75 0.75,-2.7656 Q -8.4844,0.75 -8.7188,0.9844 -9.2344,1.5 -9.9844,1.5 q -0.7031,0 -1.1718,-0.4688 -0.75,-0.75 -0.75,-2.0156 0,-1.4062 0.8437,-2.25 z m 0.75,0.6094 q -0.4687,0.4688 -0.4687,1.6406 0,0.9375 0.375,1.3125 0.3281,0.3281 0.6562,0.3281 0.5625,0 0.8438,-0.2812 0.5156,-0.5156 0.5156,-1.2656 0,-1.1719 -0.5156,-1.6875 -0.3282,-0.3281 -0.75,-0.3281 -0.375,0 -0.6563,0.2812 z m 4.9219,-1.0312 h 4.0312 v 0.8906 H -4.5 v 0.1406 q -0.0469,0.8906 -0.1406,1.7344 -0.0469,0.1406 -0.0469,0.2812 0.6094,-0.5625 1.3125,-0.5625 0.9375,0 1.5469,0.6094 0.6562,0.6563 0.6562,1.9219 0,1.5937 -0.8437,2.4375 -0.6563,0.6562 -1.6406,0.6562 -0.9376,0 -1.5469,-0.6093 -0.6094,-0.6094 -0.75,-1.8282 h 1.0781 q 0.0938,0.8906 0.4688,1.2656 0.2812,0.2813 0.7031,0.2813 0.5625,0 0.8906,-0.3281 0.5156,-0.5156 0.5156,-1.7344 0,-1.1719 -0.4219,-1.5938 Q -3,-0.375 -3.375,-0.375 q -0.5625,0 -0.9844,0.4219 -0.2812,0.2812 -0.375,0.4219 H -5.6719 Q -5.625,0.2812 -5.625,0.1406 l 0.2344,-3.6094 z"
         id="path109"
         inkscape:connector-curvature="0" />
    </g>
    <g
       transform="translate(67.9333,226.4287)"
       style="font-family:'MS UI Gothic';color-interpolation:linearRGB;fill:#262626;stroke:#262626;color-rendering:optimizeQuality;image-rendering:optimizeQuality;text-rendering:geometricPrecision"
       id="g115">
      <path
         style="stroke:none"
         d="m -20.5781,-0.1406 q 0,-2.0625 0.9375,-3 0.6562,-0.6563 1.6406,-0.6563 0.9844,0 1.6406,0.6563 0.9375,0.9375 0.9375,3 v 0.9375 q 0,2.0156 -0.9375,2.9531 -0.6562,0.6562 -1.6406,0.6562 -0.9844,0 -1.6406,-0.6562 -0.9375,-0.9375 -0.9375,-2.9531 z m 1.7343,-2.3906 q -0.6093,0.6093 -0.6093,2.2968 v 1.0782 q 0,1.6406 0.6562,2.2968 0.375,0.375 0.7969,0.375 0.4688,0 0.8438,-0.375 0.6093,-0.6094 0.6093,-2.2968 v -1.0782 q 0,-1.6875 -0.6093,-2.2968 -0.375,-0.375 -0.8438,-0.375 -0.4688,0 -0.8438,0.375 z m 4.5469,5.8593 h 1.0781 v 1.0313 h -1.0781 z m 3.2344,-6.5625 q 0.5156,-0.5156 1.4063,-0.5156 0.8437,0 1.4531,0.6094 0.9843,0.9844 0.9843,3.4218 0,2.4844 -1.0312,3.5157 -0.6562,0.6562 -1.5469,0.6562 -0.8906,0 -1.4062,-0.5156 -0.6094,-0.6094 -0.6094,-1.5937 h 1.0781 q -0.0468,0.6093 0.375,1.0312 0.1875,0.1875 0.5625,0.1875 0.4219,0 0.75,-0.3281 0.75,-0.75 0.75,-2.7656 Q -8.4844,0.75 -8.7188,0.9844 -9.2344,1.5 -9.9844,1.5 q -0.7031,0 -1.1718,-0.4688 -0.75,-0.75 -0.75,-2.0156 0,-1.4062 0.8437,-2.25 z m 0.75,0.6094 q -0.4687,0.4688 -0.4687,1.6406 0,0.9375 0.375,1.3125 0.3281,0.3281 0.6562,0.3281 0.5625,0 0.8438,-0.2812 0.5156,-0.5156 0.5156,-1.2656 0,-1.1719 -0.5156,-1.6875 -0.3282,-0.3281 -0.75,-0.3281 -0.375,0 -0.6563,0.2812 z m 5.5313,-0.5625 Q -4.2188,-3.75 -3.375,-3.75 q 0.8906,0 1.4531,0.5625 0.6094,0.6094 0.6094,1.5469 h -1.0781 q 0,-0.6563 -0.2813,-0.9375 -0.2812,-0.2813 -0.7031,-0.2813 -0.4219,0 -0.7031,0.2813 -0.75,0.75 -0.75,2.625 0.1875,-0.3281 0.4687,-0.6094 0.4219,-0.4219 1.0313,-0.4219 0.8437,0 1.4062,0.5625 0.7031,0.7031 0.7031,2.1094 0,1.4531 -0.75,2.2031 -0.5624,0.5625 -1.5468,0.5625 -0.8438,0 -1.5469,-0.7031 -0.8437,-0.8438 -0.8437,-3.2344 0,-2.5781 1.125,-3.7031 z m 0.5624,3.375 q -0.5156,0.5156 -0.5156,1.4063 0,1.125 0.5625,1.6874 0.3281,0.3282 0.7031,0.3282 0.4219,0 0.7032,-0.2813 0.4218,-0.4219 0.4218,-1.6406 0,-1.0781 -0.4218,-1.5 -0.3282,-0.3281 -0.6563,-0.3281 -0.4687,0 -0.7969,0.3281 z"
         id="path113"
         inkscape:connector-curvature="0" />
    </g>
    <g
       transform="translate(67.9333,177.5713)"
       style="font-family:'MS UI Gothic';color-interpolation:linearRGB;fill:#262626;stroke:#262626;color-rendering:optimizeQuality;image-rendering:optimizeQuality;text-rendering:geometricPrecision"
       id="g119">
      <path
         style="stroke:none"
         d="m -20.5781,-0.1406 q 0,-2.0625 0.9375,-3 0.6562,-0.6563 1.6406,-0.6563 0.9844,0 1.6406,0.6563 0.9375,0.9375 0.9375,3 v 0.9375 q 0,2.0156 -0.9375,2.9531 -0.6562,0.6562 -1.6406,0.6562 -0.9844,0 -1.6406,-0.6562 -0.9375,-0.9375 -0.9375,-2.9531 z m 1.7343,-2.3906 q -0.6093,0.6093 -0.6093,2.2968 v 1.0782 q 0,1.6406 0.6562,2.2968 0.375,0.375 0.7969,0.375 0.4688,0 0.8438,-0.375 0.6093,-0.6094 0.6093,-2.2968 v -1.0782 q 0,-1.6875 -0.6093,-2.2968 -0.375,-0.375 -0.8438,-0.375 -0.4688,0 -0.8438,0.375 z m 4.5469,5.8593 h 1.0781 v 1.0313 h -1.0781 z m 3.2344,-6.5625 q 0.5156,-0.5156 1.4063,-0.5156 0.8437,0 1.4531,0.6094 0.9843,0.9844 0.9843,3.4218 0,2.4844 -1.0312,3.5157 -0.6562,0.6562 -1.5469,0.6562 -0.8906,0 -1.4062,-0.5156 -0.6094,-0.6094 -0.6094,-1.5937 h 1.0781 q -0.0468,0.6093 0.375,1.0312 0.1875,0.1875 0.5625,0.1875 0.4219,0 0.75,-0.3281 0.75,-0.75 0.75,-2.7656 Q -8.4844,0.75 -8.7188,0.9844 -9.2344,1.5 -9.9844,1.5 q -0.7031,0 -1.1718,-0.4688 -0.75,-0.75 -0.75,-2.0156 0,-1.4062 0.8437,-2.25 z m 0.75,0.6094 q -0.4687,0.4688 -0.4687,1.6406 0,0.9375 0.375,1.3125 0.3281,0.3281 0.6562,0.3281 0.5625,0 0.8438,-0.2812 0.5156,-0.5156 0.5156,-1.2656 0,-1.1719 -0.5156,-1.6875 -0.3282,-0.3281 -0.75,-0.3281 -0.375,0 -0.6563,0.2812 z m 4.5469,-1.0312 h 4.4531 v 1.0312 l -2.25,6.9844 h -1.0313 l 2.25,-7.125 h -3.4218 z"
         id="path117"
         inkscape:connector-curvature="0" />
    </g>
    <g
       transform="translate(67.9333,128.7142)"
       style="font-family:'MS UI Gothic';color-interpolation:linearRGB;fill:#262626;stroke:#262626;color-rendering:optimizeQuality;image-rendering:optimizeQuality;text-rendering:geometricPrecision"
       id="g123">
      <path
         style="stroke:none"
         d="m -20.5781,-0.1406 q 0,-2.0625 0.9375,-3 0.6562,-0.6563 1.6406,-0.6563 0.9844,0 1.6406,0.6563 0.9375,0.9375 0.9375,3 v 0.9375 q 0,2.0156 -0.9375,2.9531 -0.6562,0.6562 -1.6406,0.6562 -0.9844,0 -1.6406,-0.6562 -0.9375,-0.9375 -0.9375,-2.9531 z m 1.7343,-2.3906 q -0.6093,0.6093 -0.6093,2.2968 v 1.0782 q 0,1.6406 0.6562,2.2968 0.375,0.375 0.7969,0.375 0.4688,0 0.8438,-0.375 0.6093,-0.6094 0.6093,-2.2968 v -1.0782 q 0,-1.6875 -0.6093,-2.2968 -0.375,-0.375 -0.8438,-0.375 -0.4688,0 -0.8438,0.375 z m 4.5469,5.8593 h 1.0781 v 1.0313 h -1.0781 z m 3.2344,-6.5625 q 0.5156,-0.5156 1.4063,-0.5156 0.8437,0 1.4531,0.6094 0.9843,0.9844 0.9843,3.4218 0,2.4844 -1.0312,3.5157 -0.6562,0.6562 -1.5469,0.6562 -0.8906,0 -1.4062,-0.5156 -0.6094,-0.6094 -0.6094,-1.5937 h 1.0781 q -0.0468,0.6093 0.375,1.0312 0.1875,0.1875 0.5625,0.1875 0.4219,0 0.75,-0.3281 0.75,-0.75 0.75,-2.7656 Q -8.4844,0.75 -8.7188,0.9844 -9.2344,1.5 -9.9844,1.5 q -0.7031,0 -1.1718,-0.4688 -0.75,-0.75 -0.75,-2.0156 0,-1.4062 0.8437,-2.25 z m 0.75,0.6094 q -0.4687,0.4688 -0.4687,1.6406 0,0.9375 0.375,1.3125 0.3281,0.3281 0.6562,0.3281 0.5625,0 0.8438,-0.2812 0.5156,-0.5156 0.5156,-1.2656 0,-1.1719 -0.5156,-1.6875 -0.3282,-0.3281 -0.75,-0.3281 -0.375,0 -0.6563,0.2812 z m 5.2031,-0.5625 q 0.5625,-0.5625 1.5469,-0.5625 0.9844,0 1.5937,0.6094 0.6094,0.6094 0.6094,1.6406 0,0.7969 -0.5625,1.3594 -0.2343,0.2344 -0.5625,0.3281 v 0.0937 q 0.4219,0.0938 0.7969,0.4688 0.5625,0.5625 0.5625,1.5 0,0.9375 -0.6562,1.5938 -0.6094,0.6093 -1.7813,0.6093 -1.1719,0 -1.7813,-0.6093 Q -6,3.1875 -6,2.25 -6,1.3125 -5.4375,0.75 -5.0625,0.375 -4.6406,0.2812 V 0.1875 Q -4.9219,0.0938 -5.25,-0.2344 -5.7656,-0.75 -5.7656,-1.5 q 0,-1.0312 0.6562,-1.6875 z m 0.75,0.6094 q -0.375,0.375 -0.375,1.0781 0,0.6562 0.375,1.0312 0.3282,0.3282 0.75,0.3282 0.5625,0 0.8438,-0.2813 0.375,-0.375 0.375,-1.0781 0,-0.7031 -0.375,-1.0781 -0.3282,-0.3281 -0.7969,-0.3281 -0.4687,0 -0.7969,0.3281 z m -0.1875,3.6093 q -0.375,0.375 -0.375,1.0782 0,0.7031 0.4219,1.125 0.375,0.375 0.9375,0.375 0.5625,0 0.9375,-0.375 0.4219,-0.4219 0.4219,-1.125 0,-0.7032 -0.4219,-1.125 -0.3281,-0.3282 -0.9375,-0.3282 -0.6094,0 -0.9844,0.375 z"
         id="path121"
         inkscape:connector-curvature="0" />
    </g>
    <g
       transform="translate(67.9333,79.8571)"
       style="font-family:'MS UI Gothic';color-interpolation:linearRGB;fill:#262626;stroke:#262626;color-rendering:optimizeQuality;image-rendering:optimizeQuality;text-rendering:geometricPrecision"
       id="g127">
      <path
         style="stroke:none"
         d="m -20.5781,-0.1406 q 0,-2.0625 0.9375,-3 0.6562,-0.6563 1.6406,-0.6563 0.9844,0 1.6406,0.6563 0.9375,0.9375 0.9375,3 v 0.9375 q 0,2.0156 -0.9375,2.9531 -0.6562,0.6562 -1.6406,0.6562 -0.9844,0 -1.6406,-0.6562 -0.9375,-0.9375 -0.9375,-2.9531 z m 1.7343,-2.3906 q -0.6093,0.6093 -0.6093,2.2968 v 1.0782 q 0,1.6406 0.6562,2.2968 0.375,0.375 0.7969,0.375 0.4688,0 0.8438,-0.375 0.6093,-0.6094 0.6093,-2.2968 v -1.0782 q 0,-1.6875 -0.6093,-2.2968 -0.375,-0.375 -0.8438,-0.375 -0.4688,0 -0.8438,0.375 z m 4.5469,5.8593 h 1.0781 v 1.0313 h -1.0781 z m 3.2344,-6.5625 q 0.5156,-0.5156 1.4063,-0.5156 0.8437,0 1.4531,0.6094 0.9843,0.9844 0.9843,3.4218 0,2.4844 -1.0312,3.5157 -0.6562,0.6562 -1.5469,0.6562 -0.8906,0 -1.4062,-0.5156 -0.6094,-0.6094 -0.6094,-1.5937 h 1.0781 q -0.0468,0.6093 0.375,1.0312 0.1875,0.1875 0.5625,0.1875 0.4219,0 0.75,-0.3281 0.75,-0.75 0.75,-2.7656 Q -8.4844,0.75 -8.7188,0.9844 -9.2344,1.5 -9.9844,1.5 q -0.7031,0 -1.1718,-0.4688 -0.75,-0.75 -0.75,-2.0156 0,-1.4062 0.8437,-2.25 z m 0.75,0.6094 q -0.4687,0.4688 -0.4687,1.6406 0,0.9375 0.375,1.3125 0.3281,0.3281 0.6562,0.3281 0.5625,0 0.8438,-0.2812 0.5156,-0.5156 0.5156,-1.2656 0,-1.1719 -0.5156,-1.6875 -0.3282,-0.3281 -0.75,-0.3281 -0.375,0 -0.6563,0.2812 z m 5.25,-0.6094 q 0.5156,-0.5156 1.4063,-0.5156 0.8437,0 1.4531,0.6094 0.9843,0.9844 0.9843,3.4218 0,2.4844 -1.0312,3.5157 -0.6562,0.6562 -1.5469,0.6562 -0.8906,0 -1.4062,-0.5156 -0.6094,-0.6094 -0.6094,-1.5937 h 1.0781 q -0.0468,0.6093 0.375,1.0312 0.1875,0.1875 0.5625,0.1875 0.4219,0 0.75,-0.3281 0.75,-0.75 0.75,-2.7656 Q -2.4844,0.75 -2.7188,0.9844 -3.2344,1.5 -3.9844,1.5 q -0.7031,0 -1.1718,-0.4688 -0.75,-0.75 -0.75,-2.0156 0,-1.4062 0.8437,-2.25 z m 0.75,0.6094 q -0.4687,0.4688 -0.4687,1.6406 0,0.9375 0.375,1.3125 0.3281,0.3281 0.6562,0.3281 0.5625,0 0.8438,-0.2812 0.5156,-0.5156 0.5156,-1.2656 0,-1.1719 -0.5156,-1.6875 -0.3282,-0.3281 -0.75,-0.3281 -0.375,0 -0.6563,0.2812 z"
         id="path125"
         inkscape:connector-curvature="0" />
    </g>
    <g
       transform="translate(67.9333,31)"
       style="font-family:'MS UI Gothic';color-interpolation:linearRGB;fill:#262626;stroke:#262626;color-rendering:optimizeQuality;image-rendering:optimizeQuality;text-rendering:geometricPrecision"
       id="g131">
      <path
         style="stroke:none"
         d="M -2.8125,-3.7969 H -2.25 v 8.1094 h -1.0781 v -6.2344 h -1.4063 v -0.5625 h 0.4219 q 0.6563,0 1.0313,-0.375 0.4218,-0.4218 0.4687,-0.9375 z"
         id="path129"
         inkscape:connector-curvature="0" />
    </g>
    <g
       style="color-interpolation:linearRGB;fill:#ff0000;stroke:#ff0000;stroke-width:0.66670001;stroke-linecap:butt;stroke-linejoin:round;color-rendering:optimizeQuality;image-rendering:optimizeQuality;text-rendering:geometricPrecision"
       id="g151">
      <path
         d="m 73,325.8025 31,-20.8694 31,-56.6816 31,67.4943 31,-58.7822 155,-44.8771 155,-16.7965"
         style="fill:none;fill-rule:evenodd"
         id="path133"
         inkscape:connector-curvature="0" />
      <path
         d="M 0,-4 V 4 M -4,0 h 8 m -6.8284,-2.8284 5.6568,5.6568 m -5.6568,0 5.6568,-5.6568"
         style="fill:none;stroke-width:1;stroke-linejoin:miter"
         transform="translate(73,325.8025)"
         id="path135"
         inkscape:connector-curvature="0" />
      <path
         d="M 0,-4 V 4 M -4,0 h 8 m -6.8284,-2.8284 5.6568,5.6568 m -5.6568,0 5.6568,-5.6568"
         style="fill:none;stroke-width:1;stroke-linejoin:miter"
         transform="translate(104,304.9331)"
         id="path137"
         inkscape:connector-curvature="0" />
      <path
         d="M 0,-4 V 4 M -4,0 h 8 m -6.8284,-2.8284 5.6568,5.6568 m -5.6568,0 5.6568,-5.6568"
         style="fill:none;stroke-width:1;stroke-linejoin:miter"
         transform="translate(135,248.2515)"
         id="path139"
         inkscape:connector-curvature="0" />
      <path
         d="M 0,-4 V 4 M -4,0 h 8 m -6.8284,-2.8284 5.6568,5.6568 m -5.6568,0 5.6568,-5.6568"
         style="fill:none;stroke-width:1;stroke-linejoin:miter"
         transform="translate(166,315.7458)"
         id="path141"
         inkscape:connector-curvature="0" />
      <path
         d="M 0,-4 V 4 M -4,0 h 8 m -6.8284,-2.8284 5.6568,5.6568 m -5.6568,0 5.6568,-5.6568"
         style="fill:none;stroke-width:1;stroke-linejoin:miter"
         transform="translate(197,256.9636)"
         id="path143"
         inkscape:connector-curvature="0" />
      <path
         d="M 0,-4 V 4 M -4,0 h 8 m -6.8284,-2.8284 5.6568,5.6568 m -5.6568,0 5.6568,-5.6568"
         style="fill:none;stroke-width:1;stroke-linejoin:miter"
         transform="translate(352,212.0865)"
         id="path145"
         inkscape:connector-curvature="0" />
      <path
         d="M 0,-4 V 4 M -4,0 h 8 m -6.8284,-2.8284 5.6568,5.6568 m -5.6568,0 5.6568,-5.6568"
         style="fill:none;stroke-width:1;stroke-linejoin:miter"
         transform="translate(507,195.29)"
         id="path147"
         inkscape:connector-curvature="0" />
      <path
         d="m 73,96.1442 31,-10.8572 31,-16.7039 31,76.8076 31,11.6321 155,-72.663 155,8.6172"
         style="fill:none;fill-rule:evenodd;stroke:#0000ff"
         id="path149"
         inkscape:connector-curvature="0" />
    </g>
    <g
       transform="translate(73,96.1442)"
       style="color-interpolation:linearRGB;fill:#0000ff;stroke:#0000ff;stroke-linecap:butt;color-rendering:optimizeQuality;image-rendering:optimizeQuality;text-rendering:geometricPrecision"
       id="g167">
      <path
         style="fill:none"
         d="M 0,-4 V 4 M -4,0 h 8 m -6.8284,-2.8284 5.6568,5.6568 m -5.6568,0 5.6568,-5.6568"
         id="path153"
         inkscape:connector-curvature="0" />
      <path
         d="M 0,-4 V 4 M -4,0 h 8 m -6.8284,-2.8284 5.6568,5.6568 m -5.6568,0 5.6568,-5.6568"
         style="fill:none"
         transform="translate(31,-10.8572)"
         id="path155"
         inkscape:connector-curvature="0" />
      <path
         d="M 0,-4 V 4 M -4,0 h 8 m -6.8284,-2.8284 5.6568,5.6568 m -5.6568,0 5.6568,-5.6568"
         style="fill:none"
         transform="translate(62,-27.5611)"
         id="path157"
         inkscape:connector-curvature="0" />
      <path
         d="M 0,-4 V 4 M -4,0 h 8 m -6.8284,-2.8284 5.6568,5.6568 m -5.6568,0 5.6568,-5.6568"
         style="fill:none"
         transform="translate(93,49.2465)"
         id="path159"
         inkscape:connector-curvature="0" />
      <path
         d="M 0,-4 V 4 M -4,0 h 8 m -6.8284,-2.8284 5.6568,5.6568 m -5.6568,0 5.6568,-5.6568"
         style="fill:none"
         transform="translate(124,60.8786)"
         id="path161"
         inkscape:connector-curvature="0" />
      <path
         d="M 0,-4 V 4 M -4,0 h 8 m -6.8284,-2.8284 5.6568,5.6568 m -5.6568,0 5.6568,-5.6568"
         style="fill:none"
         transform="translate(279,-11.7844)"
         id="path163"
         inkscape:connector-curvature="0" />
      <path
         d="M 0,-4 V 4 M -4,0 h 8 m -6.8284,-2.8284 5.6568,5.6568 m -5.6568,0 5.6568,-5.6568"
         style="fill:none"
         transform="translate(434,-3.1672)"
         id="path165"
         inkscape:connector-curvature="0" />
    </g>
    <g
       style="color-interpolation:sRGB;fill:#ffffff;stroke:#ffffff;color-rendering:optimizeSpeed;image-rendering:optimizeSpeed;shape-rendering:crispEdges;text-rendering:optimizeSpeed"
       id="g171">
      <path
         style="stroke:none"
         d="M 496,75 V 42 h -91 v 33 z"
         id="path169"
         inkscape:connector-curvature="0" />
    </g>
    <g
       style="color-interpolation:linearRGB;fill:#ff0000;stroke:#ff0000;stroke-width:0.66670001;stroke-linecap:butt;stroke-linejoin:round;color-rendering:optimizeQuality;image-rendering:optimizeQuality;text-rendering:geometricPrecision"
       id="g185">
      <line
         y2="51.3582"
         style="fill:none"
         x1="409"
         x2="449"
         y1="51.3582"
         id="line181" />
      <path
         d="M 0,-4 V 4 M -4,0 h 8 m -6.8284,-2.8284 5.6568,5.6568 m -5.6568,0 5.6568,-5.6568"
         style="fill:none;stroke-width:1;stroke-linejoin:miter"
         transform="translate(429,51.3582)"
         id="path183"
         inkscape:connector-curvature="0" />
    </g>
    <g
       style="color-interpolation:linearRGB;fill:#0000ff;stroke:#0000ff;stroke-width:0.66670001;stroke-linecap:butt;stroke-linejoin:round;color-rendering:optimizeQuality;image-rendering:optimizeQuality;text-rendering:geometricPrecision"
       id="g205">
      <line
         y2="66.1343"
         style="fill:none"
         x1="409"
         x2="449"
         y1="66.1343"
         id="line199" />
      <path
         d="M 0,-4 V 4 M -4,0 h 8 m -6.8284,-2.8284 5.6568,5.6568 m -5.6568,0 5.6568,-5.6568"
         style="fill:none;stroke-width:1;stroke-linejoin:miter"
         transform="translate(429,66.1343)"
         id="path201"
         inkscape:connector-curvature="0" />
      <path
         d="M 405,75 V 42 h 91 v 33 z"
         style="fill:none;fill-rule:evenodd;stroke:#262626;stroke-linejoin:miter"
         id="path203"
         inkscape:connector-curvature="0" />
    </g>
    <text
       xml:space="preserve"
       style="font-style:normal;font-variant:normal;font-weight:normal;font-stretch:normal;font-size:20px;line-height:12.5px;font-family:'Times New Roman';-inkscape-font-specification:'Times New Roman, ';letter-spacing:0px;word-spacing:0px;color-interpolation:auto;fill:#000000;fill-opacity:1;stroke:none;stroke-width:0.5;stroke-linecap:square;stroke-linejoin:miter;stroke-miterlimit:10;stroke-dasharray:none;stroke-dashoffset:0;stroke-opacity:1;color-rendering:auto;image-rendering:auto;shape-rendering:auto;text-rendering:auto"
       x="456.14532"
       y="57.136147"
       id="text4261"
       inkscape:transform-center-x="0.1913736"
       inkscape:transform-center-y="1.7223572"><tspan
         sodipodi:role="line"
         id="tspan4259"
         x="456.14532"
         y="57.136147"
         style="stroke-width:0.5">r*</tspan></text>
    <text
       xml:space="preserve"
       style="font-style:normal;font-variant:normal;font-weight:normal;font-stretch:normal;font-size:20px;line-height:12.5px;font-family:'Times New Roman';-inkscape-font-specification:'Times New Roman, ';letter-spacing:0px;word-spacing:0px;color-interpolation:auto;fill:#000000;fill-opacity:1;stroke:none;stroke-width:0.5;stroke-linecap:square;stroke-linejoin:miter;stroke-miterlimit:10;stroke-dasharray:none;stroke-dashoffset:0;stroke-opacity:1;color-rendering:auto;image-rendering:auto;shape-rendering:auto;text-rendering:auto"
       x="456.14536"
       y="71.297737"
       id="text4265"><tspan
         sodipodi:role="line"
         id="tspan4263"
         x="456.14536"
         y="71.297737"
         style="stroke-width:0.5">r</tspan></text>
    <path
       style="font-style:normal;font-weight:normal;font-size:12px;font-family:Dialog;color-interpolation:auto;fill:none;fill-opacity:1;stroke:#000000;stroke-width:0.75;stroke-linecap:butt;stroke-linejoin:miter;stroke-miterlimit:10;stroke-dasharray:none;stroke-dashoffset:0;stroke-opacity:1;color-rendering:auto;image-rendering:auto;shape-rendering:auto;text-rendering:auto"
       d="m 455.76261,60.198118 h 7.27218"
       id="path4388"
       inkscape:connector-curvature="0" />
  </g>
  <text
     xml:space="preserve"
     style="font-style:normal;font-variant:normal;font-weight:normal;font-stretch:normal;font-size:20px;line-height:12.5px;font-family:'Times New Roman';-inkscape-font-specification:'Times New Roman, ';letter-spacing:0px;word-spacing:0px;color-interpolation:auto;fill:#000000;fill-opacity:1;stroke:none;stroke-width:0.5;stroke-linecap:square;stroke-linejoin:miter;stroke-miterlimit:10;stroke-dasharray:none;stroke-dashoffset:0;stroke-opacity:1;color-rendering:auto;image-rendering:auto;shape-rendering:auto;text-rendering:auto"
     x="55.578304"
     y="201.72435"
     id="text4269"><tspan
       sodipodi:role="line"
       id="tspan4267"
       x="55.578304"
       y="201.72435"
       style="font-size:5.33333349px;stroke-width:0.5">ExHam(8,4)</tspan></text>
  <text
     xml:space="preserve"
     style="font-style:normal;font-variant:normal;font-weight:normal;font-stretch:normal;font-size:20px;line-height:12.5px;font-family:'Times New Roman';-inkscape-font-specification:'Times New Roman, ';letter-spacing:0px;word-spacing:0px;color-interpolation:auto;fill:#000000;fill-opacity:1;stroke:none;stroke-width:0.5;stroke-linecap:square;stroke-linejoin:miter;stroke-miterlimit:10;stroke-dasharray:none;stroke-dashoffset:0;stroke-opacity:1;color-rendering:auto;image-rendering:auto;shape-rendering:auto;text-rendering:auto"
     x="27.148848"
     y="201.57231"
     id="text4269-8"><tspan
       sodipodi:role="line"
       id="tspan4267-1"
       x="27.148848"
       y="201.57231"
       style="font-size:5.33333349px;stroke-width:0.5">Lin(6,3)</tspan></text>
  <text
     xml:space="preserve"
     style="font-style:normal;font-variant:normal;font-weight:normal;font-stretch:normal;font-size:20px;line-height:12.5px;font-family:'Times New Roman';-inkscape-font-specification:'Times New Roman, ';letter-spacing:0px;word-spacing:0px;color-interpolation:auto;fill:#000000;fill-opacity:1;stroke:none;stroke-width:0.5;stroke-linecap:square;stroke-linejoin:miter;stroke-miterlimit:10;stroke-dasharray:none;stroke-dashoffset:0;stroke-opacity:1;color-rendering:auto;image-rendering:auto;shape-rendering:auto;text-rendering:auto"
     x="91.497055"
     y="201.67003"
     id="text4269-8-7"><tspan
       sodipodi:role="line"
       id="tspan4267-1-4"
       x="91.497055"
       y="201.67003"
       style="font-size:5.33333349px;stroke-width:0.5">Lin(10,7)</tspan></text>
  <text
     xml:space="preserve"
     style="font-style:normal;font-variant:normal;font-weight:normal;font-stretch:normal;font-size:20px;line-height:12.5px;font-family:'Times New Roman';-inkscape-font-specification:'Times New Roman, ';letter-spacing:0px;word-spacing:0px;color-interpolation:auto;fill:#000000;fill-opacity:1;stroke:none;stroke-width:0.5;stroke-linecap:square;stroke-linejoin:miter;stroke-miterlimit:10;stroke-dasharray:none;stroke-dashoffset:0;stroke-opacity:1;color-rendering:auto;image-rendering:auto;shape-rendering:auto;text-rendering:auto"
     x="41.699471"
     y="192.87775"
     id="text4269-8-7-9"><tspan
       sodipodi:role="line"
       id="tspan4267-1-4-1"
       x="41.699471"
       y="192.87775"
       style="font-size:5.33333349px;stroke-width:0.5">Ham(7,3)</tspan></text>
  <text
     xml:space="preserve"
     style="font-style:normal;font-variant:normal;font-weight:normal;font-stretch:normal;font-size:20px;line-height:12.5px;font-family:'Times New Roman';-inkscape-font-specification:'Times New Roman, ';letter-spacing:0px;word-spacing:0px;color-interpolation:auto;fill:#000000;fill-opacity:1;stroke:none;stroke-width:0.5;stroke-linecap:square;stroke-linejoin:miter;stroke-miterlimit:10;stroke-dasharray:none;stroke-dashoffset:0;stroke-opacity:1;color-rendering:auto;image-rendering:auto;shape-rendering:auto;text-rendering:auto"
     x="168.36125"
     y="193.11803"
     id="text4269-8-7-7"><tspan
       sodipodi:role="line"
       id="tspan4267-1-4-9"
       x="168.36125"
       y="193.11803"
       style="font-size:5.33333349px;stroke-width:0.5">Lin(15,4)</tspan></text>
  <text
     xml:space="preserve"
     style="font-style:normal;font-variant:normal;font-weight:normal;font-stretch:normal;font-size:20px;line-height:12.5px;font-family:'Times New Roman';-inkscape-font-specification:'Times New Roman, ';letter-spacing:0px;word-spacing:0px;color-interpolation:auto;fill:#000000;fill-opacity:1;stroke:none;stroke-width:0.5;stroke-linecap:square;stroke-linejoin:miter;stroke-miterlimit:10;stroke-dasharray:none;stroke-dashoffset:0;stroke-opacity:1;color-rendering:auto;image-rendering:auto;shape-rendering:auto;text-rendering:auto"
     x="75.501381"
     y="193.02016"
     id="text4269-8-7-90"><tspan
       sodipodi:role="line"
       id="tspan4267-1-4-97"
       x="75.501381"
       y="193.02016"
       style="font-size:5.33333349px;stroke-width:0.5">Lin(9,4)</tspan></text>
  <text
     xml:space="preserve"
     style="font-style:normal;font-variant:normal;font-weight:normal;font-stretch:normal;font-size:20px;line-height:12.5px;font-family:'Times New Roman';-inkscape-font-specification:'Times New Roman, ';letter-spacing:0px;word-spacing:0px;color-interpolation:auto;fill:#000000;fill-opacity:1;stroke:none;stroke-width:0.5;stroke-linecap:square;stroke-linejoin:miter;stroke-miterlimit:10;stroke-dasharray:none;stroke-dashoffset:0;stroke-opacity:1;color-rendering:auto;image-rendering:auto;shape-rendering:auto;text-rendering:auto"
     x="244.1666"
     y="199.8457"
     id="text4269-8-7-4"><tspan
       sodipodi:role="line"
       id="tspan4267-1-4-7"
       x="244.1666"
       y="199.8457"
       style="font-size:5.33333349px;stroke-width:0.5">Lin(20,4)</tspan></text>
</svg>
