<?xml version="1.0" encoding="UTF-8" standalone="no"?>
<svg
   xmlns:dc="http://purl.org/dc/elements/1.1/"
   xmlns:cc="http://creativecommons.org/ns#"
   xmlns:rdf="http://www.w3.org/1999/02/22-rdf-syntax-ns#"
   xmlns:svg="http://www.w3.org/2000/svg"
   xmlns="http://www.w3.org/2000/svg"
   xmlns:sodipodi="http://sodipodi.sourceforge.net/DTD/sodipodi-0.dtd"
   xmlns:inkscape="http://www.inkscape.org/namespaces/inkscape"
   style="font-style:normal;font-weight:normal;font-size:12px;font-family:Dialog;color-interpolation:auto;fill:#000000;fill-opacity:1;stroke:#000000;stroke-width:1;stroke-linecap:square;stroke-linejoin:miter;stroke-miterlimit:10;stroke-dasharray:none;stroke-dashoffset:0;stroke-opacity:1;color-rendering:auto;image-rendering:auto;shape-rendering:auto;text-rendering:auto"
   width="315.40045"
   height="209.51945"
   version="1.1"
   id="svg4674"
   sodipodi:docname="overlineRsec.svg"
   inkscape:version="0.92.1 r15371">
  <metadata
     id="metadata4678">
    <rdf:RDF>
      <cc:Work
         rdf:about="">
        <dc:format>image/svg+xml</dc:format>
        <dc:type
           rdf:resource="http://purl.org/dc/dcmitype/StillImage" />
        <dc:title />
      </cc:Work>
    </rdf:RDF>
  </metadata>
  <sodipodi:namedview
     pagecolor="#ffffff"
     bordercolor="#666666"
     borderopacity="1"
     objecttolerance="10"
     gridtolerance="10"
     guidetolerance="10"
     inkscape:pageopacity="0"
     inkscape:pageshadow="2"
     inkscape:window-width="1920"
     inkscape:window-height="1057"
     id="namedview4676"
     showgrid="false"
     fit-margin-top="0"
     fit-margin-left="0"
     fit-margin-right="0"
     fit-margin-bottom="0"
     inkscape:zoom="2.0809524"
     inkscape:cx="194.70252"
     inkscape:cy="128.05729"
     inkscape:window-x="-8"
     inkscape:window-y="-8"
     inkscape:window-maximized="1"
     inkscape:current-layer="g4672" />
  <!--Generated by the Batik Graphics2D SVG Generator-->
  <defs
     id="genericDefs" />
  <g
     id="g4672"
     transform="translate(0,-210.48055)">
    <defs
       id="defs1">
      <clipPath
         clipPathUnits="userSpaceOnUse"
         id="clipPath1">
        <path
           d="M 0,0 H 560 V 420 H 0 Z"
           id="path4486"
           inkscape:connector-curvature="0" />
      </clipPath>
    </defs>
    <g
       style="fill:#ffffff;stroke:#ffffff"
       id="g4492"
       transform="matrix(0.56321511,0,0,0.49885583,0,210.48055)">
      <rect
         x="0"
         y="0"
         width="560"
         style="stroke:none"
         height="420"
         clip-path="url(#clipPath1)"
         id="rect4490" />
    </g>
    <g
       style="color-interpolation:sRGB;fill:#ffffff;stroke:#ffffff;color-rendering:optimizeSpeed;image-rendering:optimizeSpeed;shape-rendering:crispEdges;text-rendering:optimizeSpeed"
       id="g4498"
       transform="matrix(0.56321511,0,0,0.49885583,0,210.48055)">
      <rect
         x="0"
         width="560"
         height="420"
         y="0"
         style="stroke:none"
         id="rect4494" />
      <path
         style="stroke:none"
         d="M 73,368 H 507 V 31 H 73 Z"
         id="path4496"
         inkscape:connector-curvature="0" />
    </g>
    <g
       style="color-interpolation:linearRGB;fill:#262626;stroke:#262626;stroke-width:0.66670001;stroke-linejoin:round;color-rendering:optimizeQuality;image-rendering:optimizeQuality;text-rendering:geometricPrecision"
       id="g4524"
       transform="matrix(0.56321511,0,0,0.49885583,0,210.48055)">
      <line
         y2="368"
         style="fill:none"
         x1="73"
         x2="507"
         y1="368"
         id="line4500" />
      <line
         y2="363.66"
         style="fill:none"
         x1="73"
         x2="73"
         y1="368"
         id="line4502" />
      <line
         y2="363.66"
         style="fill:none"
         x1="116.4"
         x2="116.4"
         y1="368"
         id="line4504" />
      <line
         y2="363.66"
         style="fill:none"
         x1="159.8"
         x2="159.8"
         y1="368"
         id="line4506" />
      <line
         y2="363.66"
         style="fill:none"
         x1="203.2"
         x2="203.2"
         y1="368"
         id="line4508" />
      <line
         y2="363.66"
         style="fill:none"
         x1="246.60001"
         x2="246.60001"
         y1="368"
         id="line4510" />
      <line
         y2="363.66"
         style="fill:none"
         x1="290"
         x2="290"
         y1="368"
         id="line4512" />
      <line
         y2="363.66"
         style="fill:none"
         x1="333.39999"
         x2="333.39999"
         y1="368"
         id="line4514" />
      <line
         y2="363.66"
         style="fill:none"
         x1="376.79999"
         x2="376.79999"
         y1="368"
         id="line4516" />
      <line
         y2="363.66"
         style="fill:none"
         x1="420.20001"
         x2="420.20001"
         y1="368"
         id="line4518" />
      <line
         y2="363.66"
         style="fill:none"
         x1="463.60001"
         x2="463.60001"
         y1="368"
         id="line4520" />
      <line
         y2="363.66"
         style="fill:none"
         x1="507"
         x2="507"
         y1="368"
         id="line4522" />
    </g>
    <g
       transform="matrix(0.56321511,0,0,0.49885583,41.114703,396.58706)"
       style="font-family:'MS UI Gothic';color-interpolation:linearRGB;fill:#262626;stroke:#262626;color-rendering:optimizeQuality;image-rendering:optimizeQuality;text-rendering:geometricPrecision"
       id="g4528">
      <path
         style="stroke:none"
         d="m -2.5781,6.3594 q 0,-2.0625 0.9375,-3 Q -0.9844,2.7031 0,2.7031 q 0.9844,0 1.6406,0.6563 0.9375,0.9375 0.9375,3 v 0.9375 q 0,2.0156 -0.9375,2.9531 Q 0.9844,10.9062 0,10.9062 q -0.9844,0 -1.6406,-0.6562 -0.9375,-0.9375 -0.9375,-2.9531 z m 1.7343,-2.3906 q -0.6093,0.6093 -0.6093,2.2968 v 1.0782 q 0,1.6406 0.6562,2.2968 0.375,0.375 0.7969,0.375 0.4688,0 0.8438,-0.375 Q 1.4531,9.0312 1.4531,7.3438 V 6.2656 Q 1.4531,4.5781 0.8438,3.9688 0.4688,3.5938 0,3.5938 q -0.4688,0 -0.8438,0.375 z"
         id="path4526"
         inkscape:connector-curvature="0" />
    </g>
    <g
       transform="matrix(0.56321511,0,0,0.49885583,65.558238,396.58706)"
       style="font-family:'MS UI Gothic';color-interpolation:linearRGB;fill:#262626;stroke:#262626;color-rendering:optimizeQuality;image-rendering:optimizeQuality;text-rendering:geometricPrecision"
       id="g4532">
      <path
         style="stroke:none"
         d="m -7.0781,6.3594 q 0,-2.0625 0.9375,-3 0.6562,-0.6563 1.6406,-0.6563 0.9844,0 1.6406,0.6563 0.9375,0.9375 0.9375,3 v 0.9375 q 0,2.0156 -0.9375,2.9531 -0.6562,0.6562 -1.6406,0.6562 -0.9844,0 -1.6406,-0.6562 -0.9375,-0.9375 -0.9375,-2.9531 z m 1.7343,-2.3906 q -0.6093,0.6093 -0.6093,2.2968 v 1.0782 q 0,1.6406 0.6562,2.2968 0.375,0.375 0.7969,0.375 0.4688,0 0.8438,-0.375 0.6093,-0.6094 0.6093,-2.2968 V 6.2656 q 0,-1.6875 -0.6093,-2.2968 -0.375,-0.375 -0.8438,-0.375 -0.4688,0 -0.8438,0.375 z m 4.5469,5.8593 h 1.0781 v 1.0313 H -0.7969 Z M 4.125,2.7031 h 0.5625 v 8.1094 H 3.6094 V 4.5781 H 2.2031 V 4.0156 H 2.625 q 0.6562,0 1.0312,-0.375 Q 4.0781,3.2188 4.125,2.7031 Z"
         id="path4530"
         inkscape:connector-curvature="0" />
    </g>
    <g
       transform="matrix(0.56321511,0,0,0.49885583,90.001777,396.58706)"
       style="font-family:'MS UI Gothic';color-interpolation:linearRGB;fill:#262626;stroke:#262626;color-rendering:optimizeQuality;image-rendering:optimizeQuality;text-rendering:geometricPrecision"
       id="g4536">
      <path
         style="stroke:none"
         d="m -7.0781,6.3594 q 0,-2.0625 0.9375,-3 0.6562,-0.6563 1.6406,-0.6563 0.9844,0 1.6406,0.6563 0.9375,0.9375 0.9375,3 v 0.9375 q 0,2.0156 -0.9375,2.9531 -0.6562,0.6562 -1.6406,0.6562 -0.9844,0 -1.6406,-0.6562 -0.9375,-0.9375 -0.9375,-2.9531 z m 1.7343,-2.3906 q -0.6093,0.6093 -0.6093,2.2968 v 1.0782 q 0,1.6406 0.6562,2.2968 0.375,0.375 0.7969,0.375 0.4688,0 0.8438,-0.375 0.6093,-0.6094 0.6093,-2.2968 V 6.2656 q 0,-1.6875 -0.6093,-2.2968 -0.375,-0.375 -0.8438,-0.375 -0.4688,0 -0.8438,0.375 z m 4.5469,5.8593 h 1.0781 v 1.0313 H -0.7969 Z M 1.7344,5.5625 q 0,-1.4531 0.75,-2.2031 Q 3.0938,2.75 3.9375,2.75 q 1.0313,0 1.6406,0.6094 0.6094,0.6094 0.6094,1.5 0,1.125 -0.7031,1.9687 Q 4.8281,7.625 4.125,8.375 3.75,8.7969 3.375,9.2188 3.0469,9.5938 2.8125,9.9688 h 3.5156 v 0.8906 H 1.5469 V 10.0625 Q 1.6406,9.5938 2.3438,8.75 3.5156,7.4844 4.2656,6.6406 5.0625,5.7969 5.0625,4.8594 5.0625,4.2969 4.6875,3.9219 4.4062,3.6406 3.9844,3.6406 q -0.375,0 -0.6563,0.2813 -0.5156,0.5156 -0.5156,1.6406 z"
         id="path4534"
         inkscape:connector-curvature="0" />
    </g>
    <g
       transform="matrix(0.56321511,0,0,0.49885583,114.44531,396.58706)"
       style="font-family:'MS UI Gothic';color-interpolation:linearRGB;fill:#262626;stroke:#262626;color-rendering:optimizeQuality;image-rendering:optimizeQuality;text-rendering:geometricPrecision"
       id="g4540">
      <path
         style="stroke:none"
         d="m -7.0781,6.3594 q 0,-2.0625 0.9375,-3 0.6562,-0.6563 1.6406,-0.6563 0.9844,0 1.6406,0.6563 0.9375,0.9375 0.9375,3 v 0.9375 q 0,2.0156 -0.9375,2.9531 -0.6562,0.6562 -1.6406,0.6562 -0.9844,0 -1.6406,-0.6562 -0.9375,-0.9375 -0.9375,-2.9531 z m 1.7343,-2.3906 q -0.6093,0.6093 -0.6093,2.2968 v 1.0782 q 0,1.6406 0.6562,2.2968 0.375,0.375 0.7969,0.375 0.4688,0 0.8438,-0.375 0.6093,-0.6094 0.6093,-2.2968 V 6.2656 q 0,-1.6875 -0.6093,-2.2968 -0.375,-0.375 -0.8438,-0.375 -0.4688,0 -0.8438,0.375 z m 4.5469,5.8593 h 1.0781 v 1.0313 H -0.7969 Z M 1.7344,5.1406 q 0,-1.0781 0.7031,-1.7812 0.6094,-0.6094 1.5,-0.6094 1.0313,0 1.6406,0.6094 0.5625,0.5625 0.5625,1.5 0,0.9375 -0.4687,1.4062 -0.3281,0.3282 -0.7031,0.375 0.4687,0.1406 0.7968,0.4688 0.5625,0.5625 0.5625,1.5 0,1.0312 -0.6562,1.6875 -0.6563,0.6562 -1.8281,0.6562 -0.9844,0 -1.6407,-0.6562 Q 1.5469,9.6406 1.5469,8.75 V 8.375 H 2.625 v 0.3281 q 0,0.6094 0.4219,1.0313 0.3281,0.3281 0.7969,0.3281 0.6093,0 0.9843,-0.375 0.375,-0.375 0.375,-1.1719 0,-0.6562 -0.375,-1.0312 -0.375,-0.375 -0.8437,-0.375 H 3.6094 V 6.3125 h 0.2812 q 0.4219,0 0.7969,-0.375 0.375,-0.375 0.375,-1.0781 0,-0.6094 -0.375,-0.9844 -0.2813,-0.2812 -0.75,-0.2812 -0.4219,0 -0.75,0.3281 -0.375,0.375 -0.4219,1.2187 z"
         id="path4538"
         inkscape:connector-curvature="0" />
    </g>
    <g
       transform="matrix(0.56321511,0,0,0.49885583,138.88884,396.58706)"
       style="font-family:'MS UI Gothic';color-interpolation:linearRGB;fill:#262626;stroke:#262626;color-rendering:optimizeQuality;image-rendering:optimizeQuality;text-rendering:geometricPrecision"
       id="g4544">
      <path
         style="stroke:none"
         d="m -7.0781,6.3594 q 0,-2.0625 0.9375,-3 0.6562,-0.6563 1.6406,-0.6563 0.9844,0 1.6406,0.6563 0.9375,0.9375 0.9375,3 v 0.9375 q 0,2.0156 -0.9375,2.9531 -0.6562,0.6562 -1.6406,0.6562 -0.9844,0 -1.6406,-0.6562 -0.9375,-0.9375 -0.9375,-2.9531 z m 1.7343,-2.3906 q -0.6093,0.6093 -0.6093,2.2968 v 1.0782 q 0,1.6406 0.6562,2.2968 0.375,0.375 0.7969,0.375 0.4688,0 0.8438,-0.375 0.6093,-0.6094 0.6093,-2.2968 V 6.2656 q 0,-1.6875 -0.6093,-2.2968 -0.375,-0.375 -0.8438,-0.375 -0.4688,0 -0.8438,0.375 z m 4.5469,5.8593 h 1.0781 v 1.0313 H -0.7969 Z M 4.5,2.75 H 5.5781 V 7.9062 H 6.5625 V 8.7969 H 5.5781 v 2.0625 H 4.5 V 8.7969 H 1.3594 V 7.8594 Z m 0,1.7344 -2.1094,3.4218 H 4.5 Z"
         id="path4542"
         inkscape:connector-curvature="0" />
    </g>
    <g
       transform="matrix(0.56321511,0,0,0.49885583,163.33238,396.58706)"
       style="font-family:'MS UI Gothic';color-interpolation:linearRGB;fill:#262626;stroke:#262626;color-rendering:optimizeQuality;image-rendering:optimizeQuality;text-rendering:geometricPrecision"
       id="g4548">
      <path
         style="stroke:none"
         d="m -7.0781,6.3594 q 0,-2.0625 0.9375,-3 0.6562,-0.6563 1.6406,-0.6563 0.9844,0 1.6406,0.6563 0.9375,0.9375 0.9375,3 v 0.9375 q 0,2.0156 -0.9375,2.9531 -0.6562,0.6562 -1.6406,0.6562 -0.9844,0 -1.6406,-0.6562 -0.9375,-0.9375 -0.9375,-2.9531 z m 1.7343,-2.3906 q -0.6093,0.6093 -0.6093,2.2968 v 1.0782 q 0,1.6406 0.6562,2.2968 0.375,0.375 0.7969,0.375 0.4688,0 0.8438,-0.375 0.6093,-0.6094 0.6093,-2.2968 V 6.2656 q 0,-1.6875 -0.6093,-2.2968 -0.375,-0.375 -0.8438,-0.375 -0.4688,0 -0.8438,0.375 z m 4.5469,5.8593 h 1.0781 v 1.0313 H -0.7969 Z M 2.1094,2.8438 H 6.1406 V 3.7344 H 3 V 3.875 Q 2.9531,4.7656 2.8594,5.6094 2.8125,5.75 2.8125,5.8906 3.4219,5.3281 4.125,5.3281 q 0.9375,0 1.5469,0.6094 0.6562,0.6563 0.6562,1.9219 0,1.5937 -0.8437,2.4375 -0.6563,0.6562 -1.6406,0.6562 -0.9376,0 -1.5469,-0.6093 Q 1.6875,9.7344 1.5469,8.5156 H 2.625 q 0.0938,0.8906 0.4688,1.2656 0.2812,0.2813 0.7031,0.2813 0.5625,0 0.8906,-0.3281 Q 5.2031,9.2188 5.2031,8 5.2031,6.8281 4.7812,6.4062 4.5,6.125 4.125,6.125 3.5625,6.125 3.1406,6.5469 2.8594,6.8281 2.7656,6.9688 H 1.8281 Q 1.875,6.7812 1.875,6.6406 L 2.1094,3.0312 Z"
         id="path4546"
         inkscape:connector-curvature="0" />
    </g>
    <g
       transform="matrix(0.56321511,0,0,0.49885583,187.77592,396.58706)"
       style="font-family:'MS UI Gothic';color-interpolation:linearRGB;fill:#262626;stroke:#262626;color-rendering:optimizeQuality;image-rendering:optimizeQuality;text-rendering:geometricPrecision"
       id="g4552">
      <path
         style="stroke:none"
         d="m -7.0781,6.3594 q 0,-2.0625 0.9375,-3 0.6562,-0.6563 1.6406,-0.6563 0.9844,0 1.6406,0.6563 0.9375,0.9375 0.9375,3 v 0.9375 q 0,2.0156 -0.9375,2.9531 -0.6562,0.6562 -1.6406,0.6562 -0.9844,0 -1.6406,-0.6562 -0.9375,-0.9375 -0.9375,-2.9531 z m 1.7343,-2.3906 q -0.6093,0.6093 -0.6093,2.2968 v 1.0782 q 0,1.6406 0.6562,2.2968 0.375,0.375 0.7969,0.375 0.4688,0 0.8438,-0.375 0.6093,-0.6094 0.6093,-2.2968 V 6.2656 q 0,-1.6875 -0.6093,-2.2968 -0.375,-0.375 -0.8438,-0.375 -0.4688,0 -0.8438,0.375 z m 4.5469,5.8593 h 1.0781 v 1.0313 H -0.7969 Z M 2.7188,3.3125 Q 3.2812,2.75 4.125,2.75 q 0.8906,0 1.4531,0.5625 0.6094,0.6094 0.6094,1.5469 H 5.1094 Q 5.1094,4.2031 4.8281,3.9219 4.5469,3.6406 4.125,3.6406 q -0.4219,0 -0.7031,0.2813 -0.75,0.75 -0.75,2.625 0.1875,-0.3281 0.4687,-0.6094 0.4219,-0.4219 1.0313,-0.4219 0.8437,0 1.4062,0.5625 0.7031,0.7031 0.7031,2.1094 0,1.4531 -0.75,2.2031 -0.5624,0.5625 -1.5468,0.5625 -0.8438,0 -1.5469,-0.7031 -0.8437,-0.8438 -0.8437,-3.2344 0,-2.5781 1.125,-3.7031 z m 0.5624,3.375 q -0.5156,0.5156 -0.5156,1.4063 0,1.125 0.5625,1.6874 0.3281,0.3282 0.7031,0.3282 0.4219,0 0.7032,-0.2813 0.4218,-0.4219 0.4218,-1.6406 0,-1.0781 -0.4218,-1.5 -0.3282,-0.3281 -0.6563,-0.3281 -0.4687,0 -0.7969,0.3281 z"
         id="path4550"
         inkscape:connector-curvature="0" />
    </g>
    <g
       transform="matrix(0.56321511,0,0,0.49885583,212.21945,396.58706)"
       style="font-family:'MS UI Gothic';color-interpolation:linearRGB;fill:#262626;stroke:#262626;color-rendering:optimizeQuality;image-rendering:optimizeQuality;text-rendering:geometricPrecision"
       id="g4556">
      <path
         style="stroke:none"
         d="m -7.0781,6.3594 q 0,-2.0625 0.9375,-3 0.6562,-0.6563 1.6406,-0.6563 0.9844,0 1.6406,0.6563 0.9375,0.9375 0.9375,3 v 0.9375 q 0,2.0156 -0.9375,2.9531 -0.6562,0.6562 -1.6406,0.6562 -0.9844,0 -1.6406,-0.6562 -0.9375,-0.9375 -0.9375,-2.9531 z m 1.7343,-2.3906 q -0.6093,0.6093 -0.6093,2.2968 v 1.0782 q 0,1.6406 0.6562,2.2968 0.375,0.375 0.7969,0.375 0.4688,0 0.8438,-0.375 0.6093,-0.6094 0.6093,-2.2968 V 6.2656 q 0,-1.6875 -0.6093,-2.2968 -0.375,-0.375 -0.8438,-0.375 -0.4688,0 -0.8438,0.375 z m 4.5469,5.8593 h 1.0781 v 1.0313 H -0.7969 Z M 1.7344,2.8438 H 6.1875 V 3.875 l -2.25,6.9844 H 2.9062 l 2.25,-7.125 H 1.7344 Z"
         id="path4554"
         inkscape:connector-curvature="0" />
    </g>
    <g
       transform="matrix(0.56321511,0,0,0.49885583,236.66298,396.58706)"
       style="font-family:'MS UI Gothic';color-interpolation:linearRGB;fill:#262626;stroke:#262626;color-rendering:optimizeQuality;image-rendering:optimizeQuality;text-rendering:geometricPrecision"
       id="g4560">
      <path
         style="stroke:none"
         d="m -7.0781,6.3594 q 0,-2.0625 0.9375,-3 0.6562,-0.6563 1.6406,-0.6563 0.9844,0 1.6406,0.6563 0.9375,0.9375 0.9375,3 v 0.9375 q 0,2.0156 -0.9375,2.9531 -0.6562,0.6562 -1.6406,0.6562 -0.9844,0 -1.6406,-0.6562 -0.9375,-0.9375 -0.9375,-2.9531 z m 1.7343,-2.3906 q -0.6093,0.6093 -0.6093,2.2968 v 1.0782 q 0,1.6406 0.6562,2.2968 0.375,0.375 0.7969,0.375 0.4688,0 0.8438,-0.375 0.6093,-0.6094 0.6093,-2.2968 V 6.2656 q 0,-1.6875 -0.6093,-2.2968 -0.375,-0.375 -0.8438,-0.375 -0.4688,0 -0.8438,0.375 z m 4.5469,5.8593 h 1.0781 v 1.0313 H -0.7969 Z M 2.3906,3.3125 Q 2.9531,2.75 3.9375,2.75 4.9219,2.75 5.5312,3.3594 6.1406,3.9688 6.1406,5 6.1406,5.7969 5.5781,6.3594 5.3438,6.5938 5.0156,6.6875 V 6.7812 Q 5.4375,6.875 5.8125,7.25 6.375,7.8125 6.375,8.75 q 0,0.9375 -0.6562,1.5938 -0.6094,0.6093 -1.7813,0.6093 -1.1719,0 -1.7813,-0.6093 Q 1.5,9.6875 1.5,8.75 1.5,7.8125 2.0625,7.25 2.4375,6.875 2.8594,6.7812 V 6.6875 Q 2.5781,6.5938 2.25,6.2656 1.7344,5.75 1.7344,5 q 0,-1.0312 0.6562,-1.6875 z m 0.75,0.6094 Q 2.7656,4.2969 2.7656,5 q 0,0.6562 0.375,1.0312 0.3282,0.3282 0.75,0.3282 0.5625,0 0.8438,-0.2813 Q 5.1094,5.7031 5.1094,5 5.1094,4.2969 4.7344,3.9219 4.4062,3.5938 3.9375,3.5938 q -0.4687,0 -0.7969,0.3281 z M 2.9531,7.5312 q -0.375,0.375 -0.375,1.0782 0,0.7031 0.4219,1.125 0.375,0.375 0.9375,0.375 0.5625,0 0.9375,-0.375 0.4219,-0.4219 0.4219,-1.125 0,-0.7032 -0.4219,-1.125 -0.3281,-0.3282 -0.9375,-0.3282 -0.6094,0 -0.9844,0.375 z"
         id="path4558"
         inkscape:connector-curvature="0" />
    </g>
    <g
       transform="matrix(0.56321511,0,0,0.49885583,261.10652,396.58706)"
       style="font-family:'MS UI Gothic';color-interpolation:linearRGB;fill:#262626;stroke:#262626;color-rendering:optimizeQuality;image-rendering:optimizeQuality;text-rendering:geometricPrecision"
       id="g4564">
      <path
         style="stroke:none"
         d="m -7.0781,6.3594 q 0,-2.0625 0.9375,-3 0.6562,-0.6563 1.6406,-0.6563 0.9844,0 1.6406,0.6563 0.9375,0.9375 0.9375,3 v 0.9375 q 0,2.0156 -0.9375,2.9531 -0.6562,0.6562 -1.6406,0.6562 -0.9844,0 -1.6406,-0.6562 -0.9375,-0.9375 -0.9375,-2.9531 z m 1.7343,-2.3906 q -0.6093,0.6093 -0.6093,2.2968 v 1.0782 q 0,1.6406 0.6562,2.2968 0.375,0.375 0.7969,0.375 0.4688,0 0.8438,-0.375 0.6093,-0.6094 0.6093,-2.2968 V 6.2656 q 0,-1.6875 -0.6093,-2.2968 -0.375,-0.375 -0.8438,-0.375 -0.4688,0 -0.8438,0.375 z m 4.5469,5.8593 h 1.0781 v 1.0313 H -0.7969 Z M 2.4375,3.2656 Q 2.9531,2.75 3.8438,2.75 q 0.8437,0 1.4531,0.6094 0.9843,0.9844 0.9843,3.4218 0,2.4844 -1.0312,3.5157 -0.6562,0.6562 -1.5469,0.6562 -0.8906,0 -1.4062,-0.5156 Q 1.6875,9.8281 1.6875,8.8438 h 1.0781 q -0.0468,0.6093 0.375,1.0312 0.1875,0.1875 0.5625,0.1875 0.4219,0 0.75,-0.3281 0.75,-0.75 0.75,-2.7656 Q 5.0156,7.25 4.7812,7.4844 4.2656,8 3.5156,8 2.8125,8 2.3438,7.5312 q -0.75,-0.75 -0.75,-2.0156 0,-1.4062 0.8437,-2.25 z m 0.75,0.6094 q -0.4687,0.4688 -0.4687,1.6406 0,0.9375 0.375,1.3125 0.3281,0.3281 0.6562,0.3281 0.5625,0 0.8438,-0.2812 0.5156,-0.5156 0.5156,-1.2656 0,-1.1719 -0.5156,-1.6875 -0.3282,-0.3281 -0.75,-0.3281 -0.375,0 -0.6563,0.2812 z"
         id="path4562"
         inkscape:connector-curvature="0" />
    </g>
    <g
       transform="matrix(0.56321511,0,0,0.49885583,285.55006,396.58706)"
       style="font-family:'MS UI Gothic';color-interpolation:linearRGB;fill:#262626;stroke:#262626;color-rendering:optimizeQuality;image-rendering:optimizeQuality;text-rendering:geometricPrecision"
       id="g4568">
      <path
         style="stroke:none"
         d="M 0.1875,2.7031 H 0.75 v 8.1094 H -0.3281 V 4.5781 H -1.7344 V 4.0156 h 0.4219 q 0.6563,0 1.0313,-0.375 0.4218,-0.4218 0.4687,-0.9375 z"
         id="path4566"
         inkscape:connector-curvature="0" />
    </g>
    <g
       transform="matrix(0.56321511,0,0,0.49885583,163.33249,404.03662)"
       style="font-size:26.66670036px;font-family:mwa_cmmi10;color-interpolation:linearRGB;fill:#262626;stroke:#262626;color-rendering:optimizeQuality;image-rendering:optimizeQuality;text-rendering:geometricPrecision"
       id="g4572">
      <path
         style="stroke:none"
         d="m -5.4988,19.5874 q 0,-0.7344 0.3281,-1.4297 0.3281,-0.6953 0.8438,-1.25 0.5156,-0.5547 1.2187,-0.9922 -1.0312,-0.7187 -1.0312,-1.8281 0,-1.2031 1.0078,-2.1094 1.0078,-0.9062 2.4531,-1.3593 1.4453,-0.4532 2.6016,-0.4532 0.5,0 1.3203,0.2188 0.8203,0.2187 1.4375,0.5703 0.6172,0.3516 0.6172,0.7734 0,0.3282 -0.2422,0.5703 -0.2422,0.2422 -0.5235,0.2422 -0.125,0 -0.6093,-0.2812 -0.4844,-0.2813 -1.0235,-0.5078 -0.539,-0.2266 -1.1797,-0.2266 -0.9687,0 -2.1406,0.2266 -1.1719,0.2265 -2.0547,0.8047 -0.8828,0.5781 -0.8828,1.5 0,0.875 1,1.4843 1.1406,-0.5156 2.3281,-0.5156 2.1094,0 2.1094,0.75 0,0.5938 -0.7187,0.7578 -0.7188,0.1641 -1.6563,0.1641 -1.2656,0 -2.0781,-0.375 -0.9063,0.4687 -1.6016,1.3281 -0.6953,0.8594 -0.6953,1.7813 0,0.875 0.5859,1.3593 0.586,0.4844 1.4454,0.6719 0.8593,0.1875 1.7031,0.1875 1.5,0 2.6484,-0.3203 1.1485,-0.3203 1.6485,-1.3516 0.0781,-0.1718 0.3125,-0.1718 0.2812,0.0937 0.2812,0.3593 0,0.0157 -0.0781,0.25 -0.4375,0.8594 -1.2344,1.4453 -0.7969,0.586 -1.7734,0.8594 -0.9766,0.2735 -2.0078,0.2735 -1.6719,0 -3.0157,-0.8985 -1.3437,-0.8984 -1.3437,-2.5078 z m 4.1719,-3.6719 q 0.4687,0.0938 1.0781,0.0938 1.1875,0 1.4844,-0.1719 -0.375,-0.1094 -1.2969,-0.1094 -0.6719,0 -1.2656,0.1875 z"
         id="path4570"
         inkscape:connector-curvature="0" />
    </g>
    <g
       style="color-interpolation:linearRGB;fill:#262626;stroke:#262626;stroke-width:0.66670001;stroke-linejoin:round;color-rendering:optimizeQuality;image-rendering:optimizeQuality;text-rendering:geometricPrecision"
       id="g4598"
       transform="matrix(0.56321511,0,0,0.49885583,0,210.48055)">
      <line
         y2="31"
         style="fill:none"
         x1="73"
         x2="73"
         y1="368"
         id="line4574" />
      <line
         y2="368"
         style="fill:none"
         x1="73"
         x2="77.339996"
         y1="368"
         id="line4576" />
      <line
         y2="334.29999"
         style="fill:none"
         x1="73"
         x2="77.339996"
         y1="334.29999"
         id="line4578" />
      <line
         y2="300.60001"
         style="fill:none"
         x1="73"
         x2="77.339996"
         y1="300.60001"
         id="line4580" />
      <line
         y2="266.89999"
         style="fill:none"
         x1="73"
         x2="77.339996"
         y1="266.89999"
         id="line4582" />
      <line
         y2="233.2"
         style="fill:none"
         x1="73"
         x2="77.339996"
         y1="233.2"
         id="line4584" />
      <line
         y2="199.5"
         style="fill:none"
         x1="73"
         x2="77.339996"
         y1="199.5"
         id="line4586" />
      <line
         y2="165.8"
         style="fill:none"
         x1="73"
         x2="77.339996"
         y1="165.8"
         id="line4588" />
      <line
         y2="132.10001"
         style="fill:none"
         x1="73"
         x2="77.339996"
         y1="132.10001"
         id="line4590" />
      <line
         y2="98.400002"
         style="fill:none"
         x1="73"
         x2="77.339996"
         y1="98.400002"
         id="line4592" />
      <line
         y2="64.699997"
         style="fill:none"
         x1="73"
         x2="77.339996"
         y1="64.699997"
         id="line4594" />
      <line
         y2="31"
         style="fill:none"
         x1="73"
         x2="77.339996"
         y1="31"
         id="line4596" />
    </g>
    <g
       transform="matrix(0.56321511,0,0,0.49885583,38.26106,394.05949)"
       style="font-family:'MS UI Gothic';color-interpolation:linearRGB;fill:#262626;stroke:#262626;color-rendering:optimizeQuality;image-rendering:optimizeQuality;text-rendering:geometricPrecision"
       id="g4602">
      <path
         style="stroke:none"
         d="m -5.5781,-0.1406 q 0,-2.0625 0.9375,-3 0.6562,-0.6563 1.6406,-0.6563 0.9844,0 1.6406,0.6563 0.9375,0.9375 0.9375,3 v 0.9375 q 0,2.0156 -0.9375,2.9531 Q -2.0156,4.4062 -3,4.4062 -3.9844,4.4062 -4.6406,3.75 -5.5781,2.8125 -5.5781,0.7969 Z m 1.7343,-2.3906 q -0.6093,0.6093 -0.6093,2.2968 v 1.0782 q 0,1.6406 0.6562,2.2968 0.375,0.375 0.7969,0.375 0.4688,0 0.8438,-0.375 0.6093,-0.6094 0.6093,-2.2968 v -1.0782 q 0,-1.6875 -0.6093,-2.2968 -0.375,-0.375 -0.8438,-0.375 -0.4688,0 -0.8438,0.375 z"
         id="path4600"
         inkscape:connector-curvature="0" />
    </g>
    <g
       transform="matrix(0.56321511,0,0,0.49885583,38.26106,377.24806)"
       style="font-family:'MS UI Gothic';color-interpolation:linearRGB;fill:#262626;stroke:#262626;color-rendering:optimizeQuality;image-rendering:optimizeQuality;text-rendering:geometricPrecision"
       id="g4606">
      <path
         style="stroke:none"
         d="m -20.5781,-0.1406 q 0,-2.0625 0.9375,-3 0.6562,-0.6563 1.6406,-0.6563 0.9844,0 1.6406,0.6563 0.9375,0.9375 0.9375,3 v 0.9375 q 0,2.0156 -0.9375,2.9531 -0.6562,0.6562 -1.6406,0.6562 -0.9844,0 -1.6406,-0.6562 -0.9375,-0.9375 -0.9375,-2.9531 z m 1.7343,-2.3906 q -0.6093,0.6093 -0.6093,2.2968 v 1.0782 q 0,1.6406 0.6562,2.2968 0.375,0.375 0.7969,0.375 0.4688,0 0.8438,-0.375 0.6093,-0.6094 0.6093,-2.2968 v -1.0782 q 0,-1.6875 -0.6093,-2.2968 -0.375,-0.375 -0.8438,-0.375 -0.4688,0 -0.8438,0.375 z m 4.5469,5.8593 h 1.0781 v 1.0313 h -1.0781 z m 2.1563,-3.4687 q 0,-2.0625 0.9375,-3 0.6562,-0.6563 1.6406,-0.6563 0.9844,0 1.6406,0.6563 0.9375,0.9375 0.9375,3 v 0.9375 q 0,2.0156 -0.9375,2.9531 -0.6562,0.6562 -1.6406,0.6562 -0.9844,0 -1.6406,-0.6562 -0.9375,-0.9375 -0.9375,-2.9531 z m 1.7344,-2.3906 q -0.6094,0.6093 -0.6094,2.2968 v 1.0782 q 0,1.6406 0.6562,2.2968 0.375,0.375 0.7969,0.375 0.4687,0 0.8437,-0.375 0.6094,-0.6094 0.6094,-2.2968 v -1.0782 q 0,-1.6875 -0.6094,-2.2968 -0.375,-0.375 -0.8437,-0.375 -0.4687,0 -0.8437,0.375 z m 5.0156,-1.125 h 4.0312 v 0.8906 H -4.5 v 0.1406 q -0.0469,0.8906 -0.1406,1.7344 -0.0469,0.1406 -0.0469,0.2812 0.6094,-0.5625 1.3125,-0.5625 0.9375,0 1.5469,0.6094 0.6562,0.6563 0.6562,1.9219 0,1.5937 -0.8437,2.4375 -0.6563,0.6562 -1.6406,0.6562 -0.9376,0 -1.5469,-0.6093 -0.6094,-0.6094 -0.75,-1.8282 h 1.0781 q 0.0938,0.8906 0.4688,1.2656 0.2812,0.2813 0.7031,0.2813 0.5625,0 0.8906,-0.3281 0.5156,-0.5156 0.5156,-1.7344 0,-1.1719 -0.4219,-1.5938 Q -3,-0.375 -3.375,-0.375 q -0.5625,0 -0.9844,0.4219 -0.2812,0.2812 -0.375,0.4219 H -5.6719 Q -5.625,0.2812 -5.625,0.1406 l 0.2344,-3.6094 z"
         id="path4604"
         inkscape:connector-curvature="0" />
    </g>
    <g
       transform="matrix(0.56321511,0,0,0.49885583,38.26106,360.43662)"
       style="font-family:'MS UI Gothic';color-interpolation:linearRGB;fill:#262626;stroke:#262626;color-rendering:optimizeQuality;image-rendering:optimizeQuality;text-rendering:geometricPrecision"
       id="g4610">
      <path
         style="stroke:none"
         d="m -14.5781,-0.1406 q 0,-2.0625 0.9375,-3 0.6562,-0.6563 1.6406,-0.6563 0.9844,0 1.6406,0.6563 0.9375,0.9375 0.9375,3 v 0.9375 q 0,2.0156 -0.9375,2.9531 -0.6562,0.6562 -1.6406,0.6562 -0.9844,0 -1.6406,-0.6562 -0.9375,-0.9375 -0.9375,-2.9531 z m 1.7343,-2.3906 q -0.6093,0.6093 -0.6093,2.2968 v 1.0782 q 0,1.6406 0.6562,2.2968 0.375,0.375 0.7969,0.375 0.4688,0 0.8438,-0.375 0.6093,-0.6094 0.6093,-2.2968 v -1.0782 q 0,-1.6875 -0.6093,-2.2968 -0.375,-0.375 -0.8438,-0.375 -0.4688,0 -0.8438,0.375 z m 4.5469,5.8593 h 1.0781 v 1.0313 h -1.0781 z m 4.9219,-7.125 h 0.5625 v 8.1094 h -1.0781 v -6.2344 h -1.4063 v -0.5625 h 0.4219 q 0.6562,0 1.0312,-0.375 0.4219,-0.4218 0.4688,-0.9375 z"
         id="path4608"
         inkscape:connector-curvature="0" />
    </g>
    <g
       transform="matrix(0.56321511,0,0,0.49885583,38.26106,343.62517)"
       style="font-family:'MS UI Gothic';color-interpolation:linearRGB;fill:#262626;stroke:#262626;color-rendering:optimizeQuality;image-rendering:optimizeQuality;text-rendering:geometricPrecision"
       id="g4614">
      <path
         style="stroke:none"
         d="m -20.5781,-0.1406 q 0,-2.0625 0.9375,-3 0.6562,-0.6563 1.6406,-0.6563 0.9844,0 1.6406,0.6563 0.9375,0.9375 0.9375,3 v 0.9375 q 0,2.0156 -0.9375,2.9531 -0.6562,0.6562 -1.6406,0.6562 -0.9844,0 -1.6406,-0.6562 -0.9375,-0.9375 -0.9375,-2.9531 z m 1.7343,-2.3906 q -0.6093,0.6093 -0.6093,2.2968 v 1.0782 q 0,1.6406 0.6562,2.2968 0.375,0.375 0.7969,0.375 0.4688,0 0.8438,-0.375 0.6093,-0.6094 0.6093,-2.2968 v -1.0782 q 0,-1.6875 -0.6093,-2.2968 -0.375,-0.375 -0.8438,-0.375 -0.4688,0 -0.8438,0.375 z m 4.5469,5.8593 h 1.0781 v 1.0313 h -1.0781 z m 4.9219,-7.125 h 0.5625 v 8.1094 h -1.0781 v -6.2344 h -1.4063 v -0.5625 h 0.4219 q 0.6562,0 1.0312,-0.375 0.4219,-0.4218 0.4688,-0.9375 z m 3.9844,0.1407 h 4.0312 v 0.8906 H -4.5 v 0.1406 q -0.0469,0.8906 -0.1406,1.7344 -0.0469,0.1406 -0.0469,0.2812 0.6094,-0.5625 1.3125,-0.5625 0.9375,0 1.5469,0.6094 0.6562,0.6563 0.6562,1.9219 0,1.5937 -0.8437,2.4375 -0.6563,0.6562 -1.6406,0.6562 -0.9376,0 -1.5469,-0.6093 -0.6094,-0.6094 -0.75,-1.8282 h 1.0781 q 0.0938,0.8906 0.4688,1.2656 0.2812,0.2813 0.7031,0.2813 0.5625,0 0.8906,-0.3281 0.5156,-0.5156 0.5156,-1.7344 0,-1.1719 -0.4219,-1.5938 Q -3,-0.375 -3.375,-0.375 q -0.5625,0 -0.9844,0.4219 -0.2812,0.2812 -0.375,0.4219 H -5.6719 Q -5.625,0.2812 -5.625,0.1406 l 0.2344,-3.6094 z"
         id="path4612"
         inkscape:connector-curvature="0" />
    </g>
    <g
       transform="matrix(0.56321511,0,0,0.49885583,38.26106,326.81373)"
       style="font-family:'MS UI Gothic';color-interpolation:linearRGB;fill:#262626;stroke:#262626;color-rendering:optimizeQuality;image-rendering:optimizeQuality;text-rendering:geometricPrecision"
       id="g4618">
      <path
         style="stroke:none"
         d="m -14.5781,-0.1406 q 0,-2.0625 0.9375,-3 0.6562,-0.6563 1.6406,-0.6563 0.9844,0 1.6406,0.6563 0.9375,0.9375 0.9375,3 v 0.9375 q 0,2.0156 -0.9375,2.9531 -0.6562,0.6562 -1.6406,0.6562 -0.9844,0 -1.6406,-0.6562 -0.9375,-0.9375 -0.9375,-2.9531 z m 1.7343,-2.3906 q -0.6093,0.6093 -0.6093,2.2968 v 1.0782 q 0,1.6406 0.6562,2.2968 0.375,0.375 0.7969,0.375 0.4688,0 0.8438,-0.375 0.6093,-0.6094 0.6093,-2.2968 v -1.0782 q 0,-1.6875 -0.6093,-2.2968 -0.375,-0.375 -0.8438,-0.375 -0.4688,0 -0.8438,0.375 z m 4.5469,5.8593 h 1.0781 v 1.0313 h -1.0781 z m 2.5313,-4.2656 q 0,-1.4531 0.75,-2.2031 0.6094,-0.6094 1.4531,-0.6094 1.0313,0 1.6406,0.6094 0.6094,0.6094 0.6094,1.5 0,1.125 -0.7031,1.9687 -0.6563,0.7969 -1.3594,1.5469 -0.375,0.4219 -0.75,0.8438 -0.3281,0.375 -0.5625,0.75 h 3.5156 V 4.3594 H -5.9531 V 3.5625 q 0.0937,-0.4687 0.7969,-1.3125 1.1718,-1.2656 1.9218,-2.1094 0.7969,-0.8437 0.7969,-1.7812 0,-0.5625 -0.375,-0.9375 -0.2813,-0.2813 -0.7031,-0.2813 -0.375,0 -0.6563,0.2813 -0.5156,0.5156 -0.5156,1.6406 z"
         id="path4616"
         inkscape:connector-curvature="0" />
    </g>
    <g
       transform="matrix(0.56321511,0,0,0.49885583,38.26106,310.00229)"
       style="font-family:'MS UI Gothic';color-interpolation:linearRGB;fill:#262626;stroke:#262626;color-rendering:optimizeQuality;image-rendering:optimizeQuality;text-rendering:geometricPrecision"
       id="g4622">
      <path
         style="stroke:none"
         d="m -20.5781,-0.1406 q 0,-2.0625 0.9375,-3 0.6562,-0.6563 1.6406,-0.6563 0.9844,0 1.6406,0.6563 0.9375,0.9375 0.9375,3 v 0.9375 q 0,2.0156 -0.9375,2.9531 -0.6562,0.6562 -1.6406,0.6562 -0.9844,0 -1.6406,-0.6562 -0.9375,-0.9375 -0.9375,-2.9531 z m 1.7343,-2.3906 q -0.6093,0.6093 -0.6093,2.2968 v 1.0782 q 0,1.6406 0.6562,2.2968 0.375,0.375 0.7969,0.375 0.4688,0 0.8438,-0.375 0.6093,-0.6094 0.6093,-2.2968 v -1.0782 q 0,-1.6875 -0.6093,-2.2968 -0.375,-0.375 -0.8438,-0.375 -0.4688,0 -0.8438,0.375 z m 4.5469,5.8593 h 1.0781 v 1.0313 h -1.0781 z m 2.5313,-4.2656 q 0,-1.4531 0.75,-2.2031 0.6094,-0.6094 1.4531,-0.6094 1.0313,0 1.6406,0.6094 0.6094,0.6094 0.6094,1.5 0,1.125 -0.7031,1.9687 -0.6563,0.7969 -1.3594,1.5469 -0.375,0.4219 -0.75,0.8438 -0.3281,0.375 -0.5625,0.75 h 3.5156 v 0.8906 h -4.7812 V 3.5625 q 0.0937,-0.4687 0.7969,-1.3125 1.1718,-1.2656 1.9218,-2.1094 0.7969,-0.8437 0.7969,-1.7812 0,-0.5625 -0.375,-0.9375 -0.2813,-0.2813 -0.7031,-0.2813 -0.375,0 -0.6563,0.2813 -0.5156,0.5156 -0.5156,1.6406 z m 6.375,-2.7187 h 4.0312 v 0.8906 H -4.5 v 0.1406 q -0.0469,0.8906 -0.1406,1.7344 -0.0469,0.1406 -0.0469,0.2812 0.6094,-0.5625 1.3125,-0.5625 0.9375,0 1.5469,0.6094 0.6562,0.6563 0.6562,1.9219 0,1.5937 -0.8437,2.4375 -0.6563,0.6562 -1.6406,0.6562 -0.9376,0 -1.5469,-0.6093 -0.6094,-0.6094 -0.75,-1.8282 h 1.0781 q 0.0938,0.8906 0.4688,1.2656 0.2812,0.2813 0.7031,0.2813 0.5625,0 0.8906,-0.3281 0.5156,-0.5156 0.5156,-1.7344 0,-1.1719 -0.4219,-1.5938 Q -3,-0.375 -3.375,-0.375 q -0.5625,0 -0.9844,0.4219 -0.2812,0.2812 -0.375,0.4219 H -5.6719 Q -5.625,0.2812 -5.625,0.1406 l 0.2344,-3.6094 z"
         id="path4620"
         inkscape:connector-curvature="0" />
    </g>
    <g
       transform="matrix(0.56321511,0,0,0.49885583,38.26106,293.19085)"
       style="font-family:'MS UI Gothic';color-interpolation:linearRGB;fill:#262626;stroke:#262626;color-rendering:optimizeQuality;image-rendering:optimizeQuality;text-rendering:geometricPrecision"
       id="g4626">
      <path
         style="stroke:none"
         d="m -14.5781,-0.1406 q 0,-2.0625 0.9375,-3 0.6562,-0.6563 1.6406,-0.6563 0.9844,0 1.6406,0.6563 0.9375,0.9375 0.9375,3 v 0.9375 q 0,2.0156 -0.9375,2.9531 -0.6562,0.6562 -1.6406,0.6562 -0.9844,0 -1.6406,-0.6562 -0.9375,-0.9375 -0.9375,-2.9531 z m 1.7343,-2.3906 q -0.6093,0.6093 -0.6093,2.2968 v 1.0782 q 0,1.6406 0.6562,2.2968 0.375,0.375 0.7969,0.375 0.4688,0 0.8438,-0.375 0.6093,-0.6094 0.6093,-2.2968 v -1.0782 q 0,-1.6875 -0.6093,-2.2968 -0.375,-0.375 -0.8438,-0.375 -0.4688,0 -0.8438,0.375 z m 4.5469,5.8593 h 1.0781 v 1.0313 h -1.0781 z m 2.5313,-4.6875 q 0,-1.0781 0.7031,-1.7812 0.6094,-0.6094 1.5,-0.6094 1.0313,0 1.6406,0.6094 0.5625,0.5625 0.5625,1.5 0,0.9375 -0.4687,1.4062 -0.3281,0.3282 -0.7031,0.375 0.4687,0.1406 0.7968,0.4688 0.5625,0.5625 0.5625,1.5 0,1.0312 -0.6562,1.6875 -0.6563,0.6562 -1.8281,0.6562 -0.9844,0 -1.6407,-0.6562 Q -5.9531,3.1406 -5.9531,2.25 V 1.875 h 1.0781 v 0.3281 q 0,0.6094 0.4219,1.0313 0.3281,0.3281 0.7969,0.3281 0.6093,0 0.9843,-0.375 0.375,-0.375 0.375,-1.1719 0,-0.6562 -0.375,-1.0312 -0.375,-0.375 -0.8437,-0.375 h -0.375 v -0.7969 h 0.2812 q 0.4219,0 0.7969,-0.375 0.375,-0.375 0.375,-1.0781 0,-0.6094 -0.375,-0.9844 -0.2813,-0.2812 -0.75,-0.2812 -0.4219,0 -0.75,0.3281 -0.375,0.375 -0.4219,1.2187 z"
         id="path4624"
         inkscape:connector-curvature="0" />
    </g>
    <g
       transform="matrix(0.56321511,0,0,0.49885583,38.26106,276.3794)"
       style="font-family:'MS UI Gothic';color-interpolation:linearRGB;fill:#262626;stroke:#262626;color-rendering:optimizeQuality;image-rendering:optimizeQuality;text-rendering:geometricPrecision"
       id="g4630">
      <path
         style="stroke:none"
         d="m -20.5781,-0.1406 q 0,-2.0625 0.9375,-3 0.6562,-0.6563 1.6406,-0.6563 0.9844,0 1.6406,0.6563 0.9375,0.9375 0.9375,3 v 0.9375 q 0,2.0156 -0.9375,2.9531 -0.6562,0.6562 -1.6406,0.6562 -0.9844,0 -1.6406,-0.6562 -0.9375,-0.9375 -0.9375,-2.9531 z m 1.7343,-2.3906 q -0.6093,0.6093 -0.6093,2.2968 v 1.0782 q 0,1.6406 0.6562,2.2968 0.375,0.375 0.7969,0.375 0.4688,0 0.8438,-0.375 0.6093,-0.6094 0.6093,-2.2968 v -1.0782 q 0,-1.6875 -0.6093,-2.2968 -0.375,-0.375 -0.8438,-0.375 -0.4688,0 -0.8438,0.375 z m 4.5469,5.8593 h 1.0781 v 1.0313 h -1.0781 z m 2.5313,-4.6875 q 0,-1.0781 0.7031,-1.7812 0.6094,-0.6094 1.5,-0.6094 1.0313,0 1.6406,0.6094 0.5625,0.5625 0.5625,1.5 0,0.9375 -0.4687,1.4062 -0.3281,0.3282 -0.7031,0.375 0.4687,0.1406 0.7968,0.4688 0.5625,0.5625 0.5625,1.5 0,1.0312 -0.6562,1.6875 -0.6563,0.6562 -1.8281,0.6562 -0.9844,0 -1.6407,-0.6562 Q -11.9531,3.1406 -11.9531,2.25 V 1.875 h 1.0781 v 0.3281 q 0,0.6094 0.4219,1.0313 0.3281,0.3281 0.7969,0.3281 0.6093,0 0.9843,-0.375 0.375,-0.375 0.375,-1.1719 0,-0.6562 -0.375,-1.0312 -0.375,-0.375 -0.8437,-0.375 h -0.375 v -0.7969 h 0.2812 q 0.4219,0 0.7969,-0.375 0.375,-0.375 0.375,-1.0781 0,-0.6094 -0.375,-0.9844 -0.2813,-0.2812 -0.75,-0.2812 -0.4219,0 -0.75,0.3281 -0.375,0.375 -0.4219,1.2187 z m 6.375,-2.2968 h 4.0312 v 0.8906 H -4.5 v 0.1406 q -0.0469,0.8906 -0.1406,1.7344 -0.0469,0.1406 -0.0469,0.2812 0.6094,-0.5625 1.3125,-0.5625 0.9375,0 1.5469,0.6094 0.6562,0.6563 0.6562,1.9219 0,1.5937 -0.8437,2.4375 -0.6563,0.6562 -1.6406,0.6562 -0.9376,0 -1.5469,-0.6093 -0.6094,-0.6094 -0.75,-1.8282 h 1.0781 q 0.0938,0.8906 0.4688,1.2656 0.2812,0.2813 0.7031,0.2813 0.5625,0 0.8906,-0.3281 0.5156,-0.5156 0.5156,-1.7344 0,-1.1719 -0.4219,-1.5938 Q -3,-0.375 -3.375,-0.375 q -0.5625,0 -0.9844,0.4219 -0.2812,0.2812 -0.375,0.4219 H -5.6719 Q -5.625,0.2812 -5.625,0.1406 l 0.2344,-3.6094 z"
         id="path4628"
         inkscape:connector-curvature="0" />
    </g>
    <g
       transform="matrix(0.56321511,0,0,0.49885583,38.26106,259.56796)"
       style="font-family:'MS UI Gothic';color-interpolation:linearRGB;fill:#262626;stroke:#262626;color-rendering:optimizeQuality;image-rendering:optimizeQuality;text-rendering:geometricPrecision"
       id="g4634">
      <path
         style="stroke:none"
         d="m -14.5781,-0.1406 q 0,-2.0625 0.9375,-3 0.6562,-0.6563 1.6406,-0.6563 0.9844,0 1.6406,0.6563 0.9375,0.9375 0.9375,3 v 0.9375 q 0,2.0156 -0.9375,2.9531 -0.6562,0.6562 -1.6406,0.6562 -0.9844,0 -1.6406,-0.6562 -0.9375,-0.9375 -0.9375,-2.9531 z m 1.7343,-2.3906 q -0.6093,0.6093 -0.6093,2.2968 v 1.0782 q 0,1.6406 0.6562,2.2968 0.375,0.375 0.7969,0.375 0.4688,0 0.8438,-0.375 0.6093,-0.6094 0.6093,-2.2968 v -1.0782 q 0,-1.6875 -0.6093,-2.2968 -0.375,-0.375 -0.8438,-0.375 -0.4688,0 -0.8438,0.375 z m 4.5469,5.8593 h 1.0781 V 4.3594 H -8.2969 Z M -3,-3.75 h 1.0781 v 5.1562 h 0.9844 V 2.2969 H -1.9219 V 4.3594 H -3 V 2.2969 H -6.1406 V 1.3594 Z m 0,1.7344 -2.1094,3.4218 H -3 Z"
         id="path4632"
         inkscape:connector-curvature="0" />
    </g>
    <g
       transform="matrix(0.56321511,0,0,0.49885583,38.26106,242.75652)"
       style="font-family:'MS UI Gothic';color-interpolation:linearRGB;fill:#262626;stroke:#262626;color-rendering:optimizeQuality;image-rendering:optimizeQuality;text-rendering:geometricPrecision"
       id="g4638">
      <path
         style="stroke:none"
         d="m -20.5781,-0.1406 q 0,-2.0625 0.9375,-3 0.6562,-0.6563 1.6406,-0.6563 0.9844,0 1.6406,0.6563 0.9375,0.9375 0.9375,3 v 0.9375 q 0,2.0156 -0.9375,2.9531 -0.6562,0.6562 -1.6406,0.6562 -0.9844,0 -1.6406,-0.6562 -0.9375,-0.9375 -0.9375,-2.9531 z m 1.7343,-2.3906 q -0.6093,0.6093 -0.6093,2.2968 v 1.0782 q 0,1.6406 0.6562,2.2968 0.375,0.375 0.7969,0.375 0.4688,0 0.8438,-0.375 0.6093,-0.6094 0.6093,-2.2968 v -1.0782 q 0,-1.6875 -0.6093,-2.2968 -0.375,-0.375 -0.8438,-0.375 -0.4688,0 -0.8438,0.375 z m 4.5469,5.8593 h 1.0781 v 1.0313 h -1.0781 z M -9,-3.75 h 1.0781 v 5.1562 h 0.9844 V 2.2969 H -7.9219 V 4.3594 H -9 V 2.2969 h -3.1406 V 1.3594 Z m 0,1.7344 -2.1094,3.4218 H -9 Z m 3.6094,-1.6406 h 4.0312 v 0.8906 H -4.5 v 0.1406 q -0.0469,0.8906 -0.1406,1.7344 -0.0469,0.1406 -0.0469,0.2812 0.6094,-0.5625 1.3125,-0.5625 0.9375,0 1.5469,0.6094 0.6562,0.6563 0.6562,1.9219 0,1.5937 -0.8437,2.4375 -0.6563,0.6562 -1.6406,0.6562 -0.9376,0 -1.5469,-0.6093 -0.6094,-0.6094 -0.75,-1.8282 h 1.0781 q 0.0938,0.8906 0.4688,1.2656 0.2812,0.2813 0.7031,0.2813 0.5625,0 0.8906,-0.3281 0.5156,-0.5156 0.5156,-1.7344 0,-1.1719 -0.4219,-1.5938 Q -3,-0.375 -3.375,-0.375 q -0.5625,0 -0.9844,0.4219 -0.2812,0.2812 -0.375,0.4219 H -5.6719 Q -5.625,0.2812 -5.625,0.1406 l 0.2344,-3.6094 z"
         id="path4636"
         inkscape:connector-curvature="0" />
    </g>
    <g
       transform="matrix(0.56321511,0,0,0.49885583,38.26106,225.94508)"
       style="font-family:'MS UI Gothic';color-interpolation:linearRGB;fill:#262626;stroke:#262626;color-rendering:optimizeQuality;image-rendering:optimizeQuality;text-rendering:geometricPrecision"
       id="g4642">
      <path
         style="stroke:none"
         d="m -14.5781,-0.1406 q 0,-2.0625 0.9375,-3 0.6562,-0.6563 1.6406,-0.6563 0.9844,0 1.6406,0.6563 0.9375,0.9375 0.9375,3 v 0.9375 q 0,2.0156 -0.9375,2.9531 -0.6562,0.6562 -1.6406,0.6562 -0.9844,0 -1.6406,-0.6562 -0.9375,-0.9375 -0.9375,-2.9531 z m 1.7343,-2.3906 q -0.6093,0.6093 -0.6093,2.2968 v 1.0782 q 0,1.6406 0.6562,2.2968 0.375,0.375 0.7969,0.375 0.4688,0 0.8438,-0.375 0.6093,-0.6094 0.6093,-2.2968 v -1.0782 q 0,-1.6875 -0.6093,-2.2968 -0.375,-0.375 -0.8438,-0.375 -0.4688,0 -0.8438,0.375 z m 4.5469,5.8593 h 1.0781 v 1.0313 h -1.0781 z m 2.9063,-6.9843 h 4.0312 v 0.8906 H -4.5 v 0.1406 q -0.0469,0.8906 -0.1406,1.7344 -0.0469,0.1406 -0.0469,0.2812 0.6094,-0.5625 1.3125,-0.5625 0.9375,0 1.5469,0.6094 0.6562,0.6563 0.6562,1.9219 0,1.5937 -0.8437,2.4375 -0.6563,0.6562 -1.6406,0.6562 -0.9376,0 -1.5469,-0.6093 -0.6094,-0.6094 -0.75,-1.8282 h 1.0781 q 0.0938,0.8906 0.4688,1.2656 0.2812,0.2813 0.7031,0.2813 0.5625,0 0.8906,-0.3281 0.5156,-0.5156 0.5156,-1.7344 0,-1.1719 -0.4219,-1.5938 Q -3,-0.375 -3.375,-0.375 q -0.5625,0 -0.9844,0.4219 -0.2812,0.2812 -0.375,0.4219 H -5.6719 Q -5.625,0.2812 -5.625,0.1406 l 0.2344,-3.6094 z"
         id="path4640"
         inkscape:connector-curvature="0" />
    </g>
    <g
       transform="matrix(0,-0.49885583,0.56321511,0,24.180683,310.00218)"
       style="font-size:26.66670036px;font-family:mwa_cmmi10;color-interpolation:linearRGB;fill:#262626;stroke:#262626;color-rendering:optimizeQuality;image-rendering:optimizeQuality;text-rendering:geometricPrecision"
       id="g4652">
      <path
         style="stroke:none"
         d="m -22.2379,-9.6001 q -0.25,0 -0.25,-0.3594 0,-0.0625 0.039,-0.2265 0.0391,-0.1641 0.1172,-0.2657 0.0782,-0.1015 0.1719,-0.1015 1.6563,0 2.3125,-0.1875 0.3438,-0.1094 0.5,-0.7188 l 3.7031,-14.8281 q 0.0625,-0.2656 0.0625,-0.375 0,-0.2812 -0.3281,-0.3281 -0.5156,-0.1094 -1.9375,-0.1094 -0.2656,0 -0.2656,-0.3437 0,-0.0782 0.0469,-0.2422 0.0468,-0.1641 0.1171,-0.2578 0.0704,-0.0938 0.1797,-0.0938 h 8.1875 q 0.9688,0 2.0235,0.2188 1.0547,0.2187 1.9375,0.7031 0.8828,0.4844 1.4531,1.2812 0.5703,0.7969 0.5703,1.8594 0,1.3594 -0.8984,2.4297 -0.8985,1.0703 -2.2735,1.7891 -1.375,0.7187 -2.6562,1 1.0469,0.3906 1.7187,1.2265 0.6719,0.836 0.6719,1.9297 0,0.1406 -0.0078,0.2188 -0.0078,0.0781 -0.0078,0.1718 l -0.2188,2.3907 q -0.0312,0.5312 -0.0547,0.8984 -0.0234,0.3672 -0.0234,0.5859 0,0.75 0.2188,1.1875 0.2187,0.4375 0.8593,0.4375 0.8438,0 1.4844,-0.7812 0.6406,-0.7813 0.8438,-1.7031 0.1093,-0.2344 0.2656,-0.2344 h 0.25 q 0.25,0 0.25,0.3437 -0.1875,0.7813 -0.6172,1.4844 -0.4297,0.7031 -1.0859,1.1484 -0.6563,0.4454 -1.4219,0.4454 -1.5781,0 -2.6875,-0.7032 -1.1094,-0.7031 -1.1094,-2.2187 0,-0.5625 0.0938,-1 l 0.5937,-2.3906 q 0.1094,-0.3282 0.1094,-0.7657 0,-1.125 -0.7578,-1.7656 -0.7578,-0.6406 -1.8985,-0.6406 h -3.3281 l -1.7812,7.1406 q -0.0625,0.2188 -0.0625,0.375 0,0.2813 0.3281,0.3125 0.5156,0.1094 1.9375,0.1094 0.2812,0 0.2812,0.3594 -0.0937,0.375 -0.1484,0.4843 -0.0547,0.1094 -0.3203,0.1094 z m 7.1094,-9.5781 h 3 q 2.9375,0 4.4218,-1.5 0.6875,-0.6875 1.0938,-1.7422 0.4062,-1.0547 0.4062,-2.1172 0,-1 -0.5937,-1.5703 -0.5938,-0.5703 -1.4531,-0.7813 -0.8594,-0.2109 -1.9063,-0.2109 h -1.7969 q -0.75,0 -0.9843,0.125 -0.2344,0.125 -0.4375,0.7969 z"
         id="path4644"
         inkscape:connector-curvature="0" />
      <path
         style="stroke:none"
         d="m -1.6464,-6.7564 q 0.5,0.875 2.0468,0.875 0.6719,0 1.2735,-0.2344 0.6015,-0.2343 0.9922,-0.6875 0.3906,-0.4531 0.3906,-1.0937 0,-0.5 -0.3516,-0.8125 Q 2.3536,-9.022 1.8536,-9.1314 L 0.8223,-9.3345 q -0.7031,-0.1875 -1.1641,-0.6641 -0.4609,-0.4765 -0.4609,-1.164 0,-0.8438 0.4609,-1.4922 0.461,-0.6485 1.211,-0.9922 0.75,-0.3438 1.5625,-0.3438 0.8594,0 1.539,0.4063 0.6797,0.4062 0.6797,1.2187 0,0.4375 -0.2422,0.7735 -0.2421,0.3359 -0.6796,0.3359 -0.25,0 -0.4297,-0.1641 -0.1797,-0.164 -0.1797,-0.414 0,-0.2188 0.125,-0.4297 0.125,-0.2109 0.3359,-0.3359 0.211,-0.125 0.4297,-0.125 -0.1719,-0.4063 -0.6328,-0.5938 -0.4609,-0.1875 -0.9766,-0.1875 -0.4843,0 -0.9687,0.1953 -0.4844,0.1953 -0.7735,0.5703 -0.289,0.375 -0.289,0.8907 0,0.3437 0.2344,0.6015 0.2343,0.2578 0.5937,0.3672 l 1.1094,0.2188 q 0.5156,0.125 0.9609,0.4062 0.4453,0.2813 0.7031,0.7109 0.2579,0.4297 0.2579,0.9922 0,0.7032 -0.3985,1.3907 -0.3984,0.6875 -0.9765,1.0937 -1,0.6875 -2.4688,0.6875 -1.0156,0 -1.8594,-0.4687 -0.8437,-0.4688 -0.8437,-1.3907 0,-0.5156 0.3047,-0.8984 0.3047,-0.3828 0.8203,-0.3828 0.2969,0 0.5078,0.1875 0.2109,0.1875 0.2109,0.4844 0,0.4375 -0.3203,0.7656 -0.3203,0.3281 -0.7578,0.3281 z"
         id="path4646"
         inkscape:connector-curvature="0" />
      <path
         style="stroke:none"
         d="m 9.2754,-5.3814 q -0.9218,0 -1.6015,-0.4766 -0.6797,-0.4765 -1.0391,-1.2812 -0.3594,-0.8047 -0.3594,-1.6953 0,-1.3438 0.6875,-2.5391 0.6875,-1.1953 1.8516,-1.9062 1.1641,-0.711 2.5078,-0.711 0.8125,0 1.4219,0.4219 0.6094,0.4219 0.6094,1.2031 0,1.0938 -0.875,1.625 -0.875,0.5313 -1.9688,0.6641 -1.0937,0.1328 -2.4219,0.1328 H 8.0411 q -0.3125,1.125 -0.3125,1.9375 0,0.8438 0.3906,1.4844 0.3906,0.6406 1.1875,0.6406 1.125,0 2.1719,-0.5234 1.0468,-0.5235 1.7031,-1.4453 0.0625,-0.0469 0.1562,-0.0469 0.0938,0 0.1875,0.1015 0.0938,0.1016 0.0938,0.1954 0,0.0781 -0.0313,0.1093 -0.7031,0.9844 -1.8828,1.5469 -1.1797,0.5625 -2.4297,0.5625 z m -1.125,-5.0625 q 1.0938,0 2.0313,-0.1016 0.9375,-0.1015 1.7031,-0.5156 0.7656,-0.414 0.7656,-1.289 0,-0.3438 -0.1953,-0.6094 -0.1953,-0.2656 -0.5078,-0.4063 -0.3125,-0.1406 -0.6406,-0.1406 -0.8125,0 -1.461,0.4375 -0.6484,0.4375 -1.0625,1.1406 -0.414,0.7032 -0.6328,1.4844 z"
         id="path4648"
         inkscape:connector-curvature="0" />
      <path
         style="stroke:none"
         d="m 16.3734,-7.8658 q 0,0.8282 0.4218,1.4063 0.4219,0.5781 1.2032,0.5781 1.125,0 2.1718,-0.5234 1.0469,-0.5235 1.7032,-1.4453 0.0625,-0.0469 0.1562,-0.0469 0.0938,0 0.1875,0.1015 0.0938,0.1016 0.0938,0.1954 0,0.0781 -0.0313,0.1093 -0.7031,0.9844 -1.8828,1.5469 -1.1797,0.5625 -2.4297,0.5625 -0.9219,0 -1.6172,-0.4375 -0.6953,-0.4375 -1.0703,-1.1562 -0.375,-0.7188 -0.375,-1.625 0,-1.2813 0.711,-2.5469 0.7109,-1.2656 1.8984,-2.0547 1.1875,-0.7891 2.5,-0.7891 0.8437,0 1.5312,0.4063 0.6875,0.4062 0.6875,1.2187 0,0.5157 -0.3046,0.8828 -0.3047,0.3672 -0.8047,0.3672 -0.3125,0 -0.5235,-0.1875 -0.2109,-0.1875 -0.2109,-0.5 0,-0.4375 0.3281,-0.7578 0.3281,-0.3203 0.7656,-0.3203 h 0.0313 q -0.2188,-0.3125 -0.6406,-0.4687 -0.4219,-0.1563 -0.875,-0.1563 -1.125,0 -1.9532,0.9531 -0.8281,0.9532 -1.25,2.2735 -0.4218,1.3203 -0.4218,2.414 z"
         id="path4650"
         inkscape:connector-curvature="0" />
    </g>
    <g
       style="color-interpolation:linearRGB;fill:#0072bd;stroke:#0072bd;stroke-width:0.66670001;stroke-linecap:butt;stroke-linejoin:round;color-rendering:optimizeQuality;image-rendering:optimizeQuality;text-rendering:geometricPrecision"
       id="g4656"
       transform="matrix(0.56321511,0,0,0.49885583,0,210.48055)">
      <path
         d="m 73,31 h 4.34 4.34 l 4.34,10e-5 4.34,3e-4 4.34,9e-4 4.34,0.002 4.34,0.0036 4.34,0.0062 4.34,0.0101 4.34,0.0152 4.34,0.0221 4.34,0.0311 4.34,0.0421 4.34,0.0559 4.34,0.0723 4.34,0.0919 4.34,0.1148 4.34,0.1414 4.34,0.1717 4.34,0.2061 4.34,0.2448 4.34,0.2879 4.34,0.3356 4.34,0.388 4.34,0.4453 4.34,0.5075 4.34,0.5747 4.34,0.6469 4.34,0.7243 4.34,0.8066 4.34,0.894 4.34,0.9863 4.34,1.0836 4.34,1.1855 4.34,1.2922 4.34,1.4032 4.34,1.5186 4.34,1.6382 4.34,1.7615 4.34,1.8885 4.34,2.0189 4.34,2.1525 4.34,2.2889 4.34,2.4278 4.34,2.5689 4.34,2.712 4.34,2.8565 4.34,3.0024 4.34,3.149 4.34,3.2963 4.34,3.4437 4.34,3.591 4.34,3.7376 4.34,3.8834 4.34,4.0281 4.34,4.1711 4.34,4.3122 4.34,4.4511 4.34,4.5876 4.34,4.721 4.34,4.8515 4.34,4.9785 4.34,5.1018 4.34,5.2214 4.34,5.3368 4.34,5.4478 4.34,5.5545 4.34,5.6564 4.34,5.7537 4.34,5.846 4.34,5.9334 4.34,6.0157 4.34,6.093 4.34,6.1653 4.34,6.2326 4.34,6.2947 4.34,6.352 4.34,6.4044 4.34,6.4521 4.34,6.4952 4.34,6.5339 4.34,6.5683 4.34,6.5986 4.34,6.6252 4.34,6.6481 4.34,6.6677 4.34,6.6841 4.34,6.6979 4.34,6.7089 4.34,6.7179 4.34,6.7248 4.34,6.7299 4.34,6.7338 4.34,6.7363 4.34,6.7381 4.34,6.7391 4.34,6.7397 4.34,6.7399 4.34,6.74 4.34,6.74"
         style="fill:none;fill-rule:evenodd"
         id="path4654"
         inkscape:connector-curvature="0" />
    </g>
    <g
       style="color-interpolation:sRGB;fill:#ffffff;stroke:#ffffff;color-rendering:optimizeSpeed;image-rendering:optimizeSpeed;shape-rendering:crispEdges;text-rendering:optimizeSpeed"
       id="g4660"
       transform="matrix(0.92773006,0,0,1.2108849,-170.96616,182.90987)">
      <path
         style="stroke:none"
         d="M 496,58 V 42 h -74 v 16 z"
         id="path4658"
         inkscape:connector-curvature="0" />
    </g>
    <g
       transform="matrix(0.92773006,0,0,1.2108849,264.13922,243.45412)"
       style="font-size:10.80000019px;font-family:'MS UI Gothic';color-interpolation:linearRGB;color-rendering:optimizeQuality;image-rendering:optimizeQuality;text-rendering:geometricPrecision"
       id="g4664">
      <path
         style="stroke:none"
         d="m 0.9062,-3.5156 h 3.6094 q 0.8594,0 1.4219,0.5468 0.5469,0.5626 0.5469,1.5469 0,1 -0.5469,1.5469 Q 5.625,0.4375 5.0781,0.5156 L 6.75,3.8281 H 5.6719 L 4.125,0.6406 H 1.8906 V 3.8281 H 0.9062 Z m 0.9844,0.8125 v 2.5312 h 2.5313 q 0.4375,0 0.7343,-0.2969 0.2969,-0.2968 0.2969,-0.9531 0,-0.5937 -0.3437,-0.9375 -0.3438,-0.3437 -0.8125,-0.3437 z m 5.8887,2.1875 q 0.5156,-0.5156 1.4687,-0.5156 1.0313,0 1.5,0.4687 0.4219,0.4375 0.4219,0.9531 h -0.8594 q -0.0312,-0.2968 -0.1718,-0.4375 -0.25,-0.25 -0.9375,-0.25 -0.4375,0 -0.6875,0.25 -0.2188,0.2188 -0.2188,0.4844 0,0.1719 0.125,0.2969 0.1719,0.1718 1.0781,0.3906 0.5625,0.125 0.9532,0.25 0.3437,0.125 0.5156,0.2969 0.3437,0.3437 0.3437,0.8281 0,0.5156 -0.4375,0.9375 -0.5156,0.5156 -1.5937,0.5156 -1.0625,0 -1.5781,-0.5156 Q 7.2637,3.0156 7.2637,2.3594 H 8.123 Q 8.1699,2.75 8.3418,2.9219 8.6387,3.2188 9.248,3.2188 q 0.7188,0 0.9844,-0.25 0.1719,-0.1719 0.1719,-0.4376 0,-0.1718 -0.2188,-0.375 Q 10.0137,1.9844 9.623,1.8906 8.8574,1.7188 8.4668,1.5938 7.998,1.4688 7.7793,1.25 7.3887,0.8594 7.3887,0.4375 q 0,-0.5625 0.3906,-0.9531 z m 5.1954,0.0937 q 0.5938,-0.6093 1.5469,-0.6093 0.9063,0 1.5469,0.6406 0.5937,0.6094 0.5937,1.8594 h -3.4687 q 0,0.8906 0.4219,1.3281 0.3906,0.3906 0.9843,0.3906 0.6094,0 0.8594,-0.2656 0.3125,-0.2969 0.3125,-0.6875 h 0.9375 q -0.1719,0.7812 -0.5625,1.1562 -0.5469,0.5625 -1.5469,0.5625 -1.0312,0 -1.6718,-0.6406 -0.6875,-0.6875 -0.6875,-1.8437 0,-1.1719 0.7343,-1.8907 z m 0.6407,0.4688 q -0.2969,0.2969 -0.3907,0.7343 h 2.4532 q 0,-0.4374 -0.3438,-0.7812 -0.2969,-0.2969 -0.8594,-0.2969 -0.5156,0 -0.8593,0.3438 z m 4.7109,-0.3907 q 0.6406,-0.6406 1.5937,-0.6406 1.0313,0 1.5469,0.5156 Q 21.9357,0 22.0294,0.6875 h -0.9531 q -0.0469,-0.3437 -0.3438,-0.6406 -0.25,-0.2657 -0.7656,-0.2657 -0.5156,0 -0.8594,0.3438 -0.5156,0.5156 -0.5156,1.4219 0,0.8593 0.4688,1.3281 0.3437,0.3438 0.8593,0.3438 0.5938,0 0.9375,-0.3438 0.3438,-0.3438 0.3438,-0.8906 h 0.9531 Q 22.1075,2.875 21.545,3.4375 20.9982,4 19.92,4 19.0138,4 18.42,3.3906 17.6388,2.625 17.6388,1.5 q 0,-1.1562 0.6875,-1.8438 z"
         id="path4662"
         inkscape:connector-curvature="0" />
    </g>
    <g
       style="color-interpolation:linearRGB;fill:#0072bd;stroke:#0072bd;stroke-width:0.66670001;stroke-linecap:butt;stroke-linejoin:round;color-rendering:optimizeQuality;image-rendering:optimizeQuality;text-rendering:geometricPrecision"
       id="g4670"
       transform="matrix(0.92773006,0,0,1.2108849,-170.96616,182.90987)">
      <line
         y2="50"
         style="fill:none"
         x1="426"
         x2="466"
         y1="50"
         id="line4666" />
      <path
         d="M 422,58 V 42 h 74 v 16 z"
         style="fill:none;fill-rule:evenodd;stroke:#262626;stroke-linejoin:miter"
         id="path4668"
         inkscape:connector-curvature="0" />
    </g>
    <path
       style="fill:none;stroke:#000000;stroke-width:1px;stroke-linecap:butt;stroke-linejoin:miter;stroke-opacity:1"
       d="m 264.7826,235.94966 h 20.66362"
       id="path5322"
       inkscape:connector-curvature="0" />
  </g>
</svg>
