<?xml version="1.0" encoding="UTF-8" standalone="no"?>
<svg
   xmlns:dc="http://purl.org/dc/elements/1.1/"
   xmlns:cc="http://creativecommons.org/ns#"
   xmlns:rdf="http://www.w3.org/1999/02/22-rdf-syntax-ns#"
   xmlns:svg="http://www.w3.org/2000/svg"
   xmlns="http://www.w3.org/2000/svg"
   xmlns:sodipodi="http://sodipodi.sourceforge.net/DTD/sodipodi-0.dtd"
   xmlns:inkscape="http://www.inkscape.org/namespaces/inkscape"
   style="font-style:normal;font-weight:normal;font-size:12px;font-family:Dialog;color-interpolation:auto;fill:#000000;fill-opacity:1;stroke:#000000;stroke-width:1;stroke-linecap:square;stroke-linejoin:miter;stroke-miterlimit:10;stroke-dasharray:none;stroke-dashoffset:0;stroke-opacity:1;color-rendering:auto;image-rendering:auto;shape-rendering:auto;text-rendering:auto"
   width="263.68643"
   height="216.22882"
   version="1.1"
   id="svg5513"
   sodipodi:docname="符号定理限界.svg"
   inkscape:version="0.92.1 r15371">
  <metadata
     id="metadata5517">
    <rdf:RDF>
      <cc:Work
         rdf:about="">
        <dc:format>image/svg+xml</dc:format>
        <dc:type
           rdf:resource="http://purl.org/dc/dcmitype/StillImage" />
        <dc:title></dc:title>
      </cc:Work>
    </rdf:RDF>
  </metadata>
  <sodipodi:namedview
     pagecolor="#ffffff"
     bordercolor="#666666"
     borderopacity="1"
     objecttolerance="10"
     gridtolerance="10"
     guidetolerance="10"
     inkscape:pageopacity="0"
     inkscape:pageshadow="2"
     inkscape:window-width="1920"
     inkscape:window-height="1057"
     id="namedview5515"
     showgrid="false"
     fit-margin-top="0"
     fit-margin-left="0"
     fit-margin-right="0"
     fit-margin-bottom="0"
     inkscape:zoom="2.247619"
     inkscape:cx="166.75349"
     inkscape:cy="178.80444"
     inkscape:window-x="-8"
     inkscape:window-y="-8"
     inkscape:window-maximized="1"
     inkscape:current-layer="g5511" />
  <!--Generated by the Batik Graphics2D SVG Generator-->
  <defs
     id="genericDefs" />
  <g
     id="g5511"
     transform="translate(0,-203.77118)">
    <defs
       id="defs1">
      <clipPath
         clipPathUnits="userSpaceOnUse"
         id="clipPath1">
        <path
           d="M 0,0 H 560 V 420 H 0 Z"
           id="path5325"
           inkscape:connector-curvature="0" />
      </clipPath>
    </defs>
    <g
       style="fill:#ffffff;stroke:#ffffff"
       id="g5331"
       transform="matrix(0.47086865,0,0,0.51483051,0,203.77118)">
      <rect
         x="0"
         y="0"
         width="560"
         style="stroke:none"
         height="420"
         clip-path="url(#clipPath1)"
         id="rect5329" />
    </g>
    <g
       style="color-interpolation:sRGB;fill:#ffffff;stroke:#ffffff;color-rendering:optimizeSpeed;image-rendering:optimizeSpeed;shape-rendering:crispEdges;text-rendering:optimizeSpeed"
       id="g5337"
       transform="matrix(0.47086865,0,0,0.51483051,0,203.77118)">
      <rect
         x="0"
         width="560"
         height="420"
         y="0"
         style="stroke:none"
         id="rect5333" />
      <path
         style="stroke:none"
         d="M 73,368 H 507 V 31 H 73 Z"
         id="path5335"
         inkscape:connector-curvature="0" />
    </g>
    <g
       style="color-interpolation:linearRGB;fill:#262626;stroke:#262626;stroke-width:0.66670001;stroke-linejoin:round;color-rendering:optimizeQuality;image-rendering:optimizeQuality;text-rendering:geometricPrecision"
       id="g5363"
       transform="matrix(0.47086865,0,0,0.51483051,0,203.77118)">
      <line
         y2="368"
         style="fill:none"
         x1="73"
         x2="507"
         y1="368"
         id="line5339" />
      <line
         y2="363.66"
         style="fill:none"
         x1="73"
         x2="73"
         y1="368"
         id="line5341" />
      <line
         y2="363.66"
         style="fill:none"
         x1="116.4"
         x2="116.4"
         y1="368"
         id="line5343" />
      <line
         y2="363.66"
         style="fill:none"
         x1="159.8"
         x2="159.8"
         y1="368"
         id="line5345" />
      <line
         y2="363.66"
         style="fill:none"
         x1="203.2"
         x2="203.2"
         y1="368"
         id="line5347" />
      <line
         y2="363.66"
         style="fill:none"
         x1="246.60001"
         x2="246.60001"
         y1="368"
         id="line5349" />
      <line
         y2="363.66"
         style="fill:none"
         x1="290"
         x2="290"
         y1="368"
         id="line5351" />
      <line
         y2="363.66"
         style="fill:none"
         x1="333.39999"
         x2="333.39999"
         y1="368"
         id="line5353" />
      <line
         y2="363.66"
         style="fill:none"
         x1="376.79999"
         x2="376.79999"
         y1="368"
         id="line5355" />
      <line
         y2="363.66"
         style="fill:none"
         x1="420.20001"
         x2="420.20001"
         y1="368"
         id="line5357" />
      <line
         y2="363.66"
         style="fill:none"
         x1="463.60001"
         x2="463.60001"
         y1="368"
         id="line5359" />
      <line
         y2="363.66"
         style="fill:none"
         x1="507"
         x2="507"
         y1="368"
         id="line5361" />
    </g>
    <g
       transform="matrix(0.47086865,0,0,0.51483051,34.373411,395.8373)"
       style="font-family:'MS UI Gothic';color-interpolation:linearRGB;fill:#262626;stroke:#262626;color-rendering:optimizeQuality;image-rendering:optimizeQuality;text-rendering:geometricPrecision"
       id="g5367">
      <path
         style="stroke:none"
         d="m -2.5781,6.3594 q 0,-2.0625 0.9375,-3 Q -0.9844,2.7031 0,2.7031 q 0.9844,0 1.6406,0.6563 0.9375,0.9375 0.9375,3 v 0.9375 q 0,2.0156 -0.9375,2.9531 Q 0.9844,10.9062 0,10.9062 q -0.9844,0 -1.6406,-0.6562 -0.9375,-0.9375 -0.9375,-2.9531 z m 1.7343,-2.3906 q -0.6093,0.6093 -0.6093,2.2968 v 1.0782 q 0,1.6406 0.6562,2.2968 0.375,0.375 0.7969,0.375 0.4688,0 0.8438,-0.375 Q 1.4531,9.0312 1.4531,7.3438 V 6.2656 Q 1.4531,4.5781 0.8438,3.9688 0.4688,3.5938 0,3.5938 q -0.4688,0 -0.8438,0.375 z"
         id="path5365"
         inkscape:connector-curvature="0" />
    </g>
    <g
       transform="matrix(0.47086865,0,0,0.51483051,54.80911,395.8373)"
       style="font-family:'MS UI Gothic';color-interpolation:linearRGB;fill:#262626;stroke:#262626;color-rendering:optimizeQuality;image-rendering:optimizeQuality;text-rendering:geometricPrecision"
       id="g5371">
      <path
         style="stroke:none"
         d="m -7.0781,6.3594 q 0,-2.0625 0.9375,-3 0.6562,-0.6563 1.6406,-0.6563 0.9844,0 1.6406,0.6563 0.9375,0.9375 0.9375,3 v 0.9375 q 0,2.0156 -0.9375,2.9531 -0.6562,0.6562 -1.6406,0.6562 -0.9844,0 -1.6406,-0.6562 -0.9375,-0.9375 -0.9375,-2.9531 z m 1.7343,-2.3906 q -0.6093,0.6093 -0.6093,2.2968 v 1.0782 q 0,1.6406 0.6562,2.2968 0.375,0.375 0.7969,0.375 0.4688,0 0.8438,-0.375 0.6093,-0.6094 0.6093,-2.2968 V 6.2656 q 0,-1.6875 -0.6093,-2.2968 -0.375,-0.375 -0.8438,-0.375 -0.4688,0 -0.8438,0.375 z m 4.5469,5.8593 h 1.0781 v 1.0313 H -0.7969 Z M 4.125,2.7031 h 0.5625 v 8.1094 H 3.6094 V 4.5781 H 2.2031 V 4.0156 H 2.625 q 0.6562,0 1.0312,-0.375 Q 4.0781,3.2188 4.125,2.7031 Z"
         id="path5369"
         inkscape:connector-curvature="0" />
    </g>
    <g
       transform="matrix(0.47086865,0,0,0.51483051,75.244808,395.8373)"
       style="font-family:'MS UI Gothic';color-interpolation:linearRGB;fill:#262626;stroke:#262626;color-rendering:optimizeQuality;image-rendering:optimizeQuality;text-rendering:geometricPrecision"
       id="g5375">
      <path
         style="stroke:none"
         d="m -7.0781,6.3594 q 0,-2.0625 0.9375,-3 0.6562,-0.6563 1.6406,-0.6563 0.9844,0 1.6406,0.6563 0.9375,0.9375 0.9375,3 v 0.9375 q 0,2.0156 -0.9375,2.9531 -0.6562,0.6562 -1.6406,0.6562 -0.9844,0 -1.6406,-0.6562 -0.9375,-0.9375 -0.9375,-2.9531 z m 1.7343,-2.3906 q -0.6093,0.6093 -0.6093,2.2968 v 1.0782 q 0,1.6406 0.6562,2.2968 0.375,0.375 0.7969,0.375 0.4688,0 0.8438,-0.375 0.6093,-0.6094 0.6093,-2.2968 V 6.2656 q 0,-1.6875 -0.6093,-2.2968 -0.375,-0.375 -0.8438,-0.375 -0.4688,0 -0.8438,0.375 z m 4.5469,5.8593 h 1.0781 v 1.0313 H -0.7969 Z M 1.7344,5.5625 q 0,-1.4531 0.75,-2.2031 Q 3.0938,2.75 3.9375,2.75 q 1.0313,0 1.6406,0.6094 0.6094,0.6094 0.6094,1.5 0,1.125 -0.7031,1.9687 Q 4.8281,7.625 4.125,8.375 3.75,8.7969 3.375,9.2188 3.0469,9.5938 2.8125,9.9688 h 3.5156 v 0.8906 H 1.5469 V 10.0625 Q 1.6406,9.5938 2.3438,8.75 3.5156,7.4844 4.2656,6.6406 5.0625,5.7969 5.0625,4.8594 5.0625,4.2969 4.6875,3.9219 4.4062,3.6406 3.9844,3.6406 q -0.375,0 -0.6563,0.2813 -0.5156,0.5156 -0.5156,1.6406 z"
         id="path5373"
         inkscape:connector-curvature="0" />
    </g>
    <g
       transform="matrix(0.47086865,0,0,0.51483051,95.68051,395.8373)"
       style="font-family:'MS UI Gothic';color-interpolation:linearRGB;fill:#262626;stroke:#262626;color-rendering:optimizeQuality;image-rendering:optimizeQuality;text-rendering:geometricPrecision"
       id="g5379">
      <path
         style="stroke:none"
         d="m -7.0781,6.3594 q 0,-2.0625 0.9375,-3 0.6562,-0.6563 1.6406,-0.6563 0.9844,0 1.6406,0.6563 0.9375,0.9375 0.9375,3 v 0.9375 q 0,2.0156 -0.9375,2.9531 -0.6562,0.6562 -1.6406,0.6562 -0.9844,0 -1.6406,-0.6562 -0.9375,-0.9375 -0.9375,-2.9531 z m 1.7343,-2.3906 q -0.6093,0.6093 -0.6093,2.2968 v 1.0782 q 0,1.6406 0.6562,2.2968 0.375,0.375 0.7969,0.375 0.4688,0 0.8438,-0.375 0.6093,-0.6094 0.6093,-2.2968 V 6.2656 q 0,-1.6875 -0.6093,-2.2968 -0.375,-0.375 -0.8438,-0.375 -0.4688,0 -0.8438,0.375 z m 4.5469,5.8593 h 1.0781 v 1.0313 H -0.7969 Z M 1.7344,5.1406 q 0,-1.0781 0.7031,-1.7812 0.6094,-0.6094 1.5,-0.6094 1.0313,0 1.6406,0.6094 0.5625,0.5625 0.5625,1.5 0,0.9375 -0.4687,1.4062 -0.3281,0.3282 -0.7031,0.375 0.4687,0.1406 0.7968,0.4688 0.5625,0.5625 0.5625,1.5 0,1.0312 -0.6562,1.6875 -0.6563,0.6562 -1.8281,0.6562 -0.9844,0 -1.6407,-0.6562 Q 1.5469,9.6406 1.5469,8.75 V 8.375 H 2.625 v 0.3281 q 0,0.6094 0.4219,1.0313 0.3281,0.3281 0.7969,0.3281 0.6093,0 0.9843,-0.375 0.375,-0.375 0.375,-1.1719 0,-0.6562 -0.375,-1.0312 -0.375,-0.375 -0.8437,-0.375 H 3.6094 V 6.3125 h 0.2812 q 0.4219,0 0.7969,-0.375 0.375,-0.375 0.375,-1.0781 0,-0.6094 -0.375,-0.9844 -0.2813,-0.2812 -0.75,-0.2812 -0.4219,0 -0.75,0.3281 -0.375,0.375 -0.4219,1.2187 z"
         id="path5377"
         inkscape:connector-curvature="0" />
    </g>
    <g
       transform="matrix(0.47086865,0,0,0.51483051,116.11621,395.8373)"
       style="font-family:'MS UI Gothic';color-interpolation:linearRGB;fill:#262626;stroke:#262626;color-rendering:optimizeQuality;image-rendering:optimizeQuality;text-rendering:geometricPrecision"
       id="g5383">
      <path
         style="stroke:none"
         d="m -7.0781,6.3594 q 0,-2.0625 0.9375,-3 0.6562,-0.6563 1.6406,-0.6563 0.9844,0 1.6406,0.6563 0.9375,0.9375 0.9375,3 v 0.9375 q 0,2.0156 -0.9375,2.9531 -0.6562,0.6562 -1.6406,0.6562 -0.9844,0 -1.6406,-0.6562 -0.9375,-0.9375 -0.9375,-2.9531 z m 1.7343,-2.3906 q -0.6093,0.6093 -0.6093,2.2968 v 1.0782 q 0,1.6406 0.6562,2.2968 0.375,0.375 0.7969,0.375 0.4688,0 0.8438,-0.375 0.6093,-0.6094 0.6093,-2.2968 V 6.2656 q 0,-1.6875 -0.6093,-2.2968 -0.375,-0.375 -0.8438,-0.375 -0.4688,0 -0.8438,0.375 z m 4.5469,5.8593 h 1.0781 v 1.0313 H -0.7969 Z M 4.5,2.75 H 5.5781 V 7.9062 H 6.5625 V 8.7969 H 5.5781 v 2.0625 H 4.5 V 8.7969 H 1.3594 V 7.8594 Z m 0,1.7344 -2.1094,3.4218 H 4.5 Z"
         id="path5381"
         inkscape:connector-curvature="0" />
    </g>
    <g
       transform="matrix(0.47086865,0,0,0.51483051,136.55191,395.8373)"
       style="font-family:'MS UI Gothic';color-interpolation:linearRGB;fill:#262626;stroke:#262626;color-rendering:optimizeQuality;image-rendering:optimizeQuality;text-rendering:geometricPrecision"
       id="g5387">
      <path
         style="stroke:none"
         d="m -7.0781,6.3594 q 0,-2.0625 0.9375,-3 0.6562,-0.6563 1.6406,-0.6563 0.9844,0 1.6406,0.6563 0.9375,0.9375 0.9375,3 v 0.9375 q 0,2.0156 -0.9375,2.9531 -0.6562,0.6562 -1.6406,0.6562 -0.9844,0 -1.6406,-0.6562 -0.9375,-0.9375 -0.9375,-2.9531 z m 1.7343,-2.3906 q -0.6093,0.6093 -0.6093,2.2968 v 1.0782 q 0,1.6406 0.6562,2.2968 0.375,0.375 0.7969,0.375 0.4688,0 0.8438,-0.375 0.6093,-0.6094 0.6093,-2.2968 V 6.2656 q 0,-1.6875 -0.6093,-2.2968 -0.375,-0.375 -0.8438,-0.375 -0.4688,0 -0.8438,0.375 z m 4.5469,5.8593 h 1.0781 v 1.0313 H -0.7969 Z M 2.1094,2.8438 H 6.1406 V 3.7344 H 3 V 3.875 Q 2.9531,4.7656 2.8594,5.6094 2.8125,5.75 2.8125,5.8906 3.4219,5.3281 4.125,5.3281 q 0.9375,0 1.5469,0.6094 0.6562,0.6563 0.6562,1.9219 0,1.5937 -0.8437,2.4375 -0.6563,0.6562 -1.6406,0.6562 -0.9376,0 -1.5469,-0.6093 Q 1.6875,9.7344 1.5469,8.5156 H 2.625 q 0.0938,0.8906 0.4688,1.2656 0.2812,0.2813 0.7031,0.2813 0.5625,0 0.8906,-0.3281 Q 5.2031,9.2188 5.2031,8 5.2031,6.8281 4.7812,6.4062 4.5,6.125 4.125,6.125 3.5625,6.125 3.1406,6.5469 2.8594,6.8281 2.7656,6.9688 H 1.8281 Q 1.875,6.7812 1.875,6.6406 L 2.1094,3.0312 Z"
         id="path5385"
         inkscape:connector-curvature="0" />
    </g>
    <g
       transform="matrix(0.47086865,0,0,0.51483051,156.98761,395.8373)"
       style="font-family:'MS UI Gothic';color-interpolation:linearRGB;fill:#262626;stroke:#262626;color-rendering:optimizeQuality;image-rendering:optimizeQuality;text-rendering:geometricPrecision"
       id="g5391">
      <path
         style="stroke:none"
         d="m -7.0781,6.3594 q 0,-2.0625 0.9375,-3 0.6562,-0.6563 1.6406,-0.6563 0.9844,0 1.6406,0.6563 0.9375,0.9375 0.9375,3 v 0.9375 q 0,2.0156 -0.9375,2.9531 -0.6562,0.6562 -1.6406,0.6562 -0.9844,0 -1.6406,-0.6562 -0.9375,-0.9375 -0.9375,-2.9531 z m 1.7343,-2.3906 q -0.6093,0.6093 -0.6093,2.2968 v 1.0782 q 0,1.6406 0.6562,2.2968 0.375,0.375 0.7969,0.375 0.4688,0 0.8438,-0.375 0.6093,-0.6094 0.6093,-2.2968 V 6.2656 q 0,-1.6875 -0.6093,-2.2968 -0.375,-0.375 -0.8438,-0.375 -0.4688,0 -0.8438,0.375 z m 4.5469,5.8593 h 1.0781 v 1.0313 H -0.7969 Z M 2.7188,3.3125 Q 3.2812,2.75 4.125,2.75 q 0.8906,0 1.4531,0.5625 0.6094,0.6094 0.6094,1.5469 H 5.1094 Q 5.1094,4.2031 4.8281,3.9219 4.5469,3.6406 4.125,3.6406 q -0.4219,0 -0.7031,0.2813 -0.75,0.75 -0.75,2.625 0.1875,-0.3281 0.4687,-0.6094 0.4219,-0.4219 1.0313,-0.4219 0.8437,0 1.4062,0.5625 0.7031,0.7031 0.7031,2.1094 0,1.4531 -0.75,2.2031 -0.5624,0.5625 -1.5468,0.5625 -0.8438,0 -1.5469,-0.7031 -0.8437,-0.8438 -0.8437,-3.2344 0,-2.5781 1.125,-3.7031 z m 0.5624,3.375 q -0.5156,0.5156 -0.5156,1.4063 0,1.125 0.5625,1.6874 0.3281,0.3282 0.7031,0.3282 0.4219,0 0.7032,-0.2813 0.4218,-0.4219 0.4218,-1.6406 0,-1.0781 -0.4218,-1.5 -0.3282,-0.3281 -0.6563,-0.3281 -0.4687,0 -0.7969,0.3281 z"
         id="path5389"
         inkscape:connector-curvature="0" />
    </g>
    <g
       transform="matrix(0.47086865,0,0,0.51483051,177.42331,395.8373)"
       style="font-family:'MS UI Gothic';color-interpolation:linearRGB;fill:#262626;stroke:#262626;color-rendering:optimizeQuality;image-rendering:optimizeQuality;text-rendering:geometricPrecision"
       id="g5395">
      <path
         style="stroke:none"
         d="m -7.0781,6.3594 q 0,-2.0625 0.9375,-3 0.6562,-0.6563 1.6406,-0.6563 0.9844,0 1.6406,0.6563 0.9375,0.9375 0.9375,3 v 0.9375 q 0,2.0156 -0.9375,2.9531 -0.6562,0.6562 -1.6406,0.6562 -0.9844,0 -1.6406,-0.6562 -0.9375,-0.9375 -0.9375,-2.9531 z m 1.7343,-2.3906 q -0.6093,0.6093 -0.6093,2.2968 v 1.0782 q 0,1.6406 0.6562,2.2968 0.375,0.375 0.7969,0.375 0.4688,0 0.8438,-0.375 0.6093,-0.6094 0.6093,-2.2968 V 6.2656 q 0,-1.6875 -0.6093,-2.2968 -0.375,-0.375 -0.8438,-0.375 -0.4688,0 -0.8438,0.375 z m 4.5469,5.8593 h 1.0781 v 1.0313 H -0.7969 Z M 1.7344,2.8438 H 6.1875 V 3.875 l -2.25,6.9844 H 2.9062 l 2.25,-7.125 H 1.7344 Z"
         id="path5393"
         inkscape:connector-curvature="0" />
    </g>
    <g
       transform="matrix(0.47086865,0,0,0.51483051,197.85901,395.8373)"
       style="font-family:'MS UI Gothic';color-interpolation:linearRGB;fill:#262626;stroke:#262626;color-rendering:optimizeQuality;image-rendering:optimizeQuality;text-rendering:geometricPrecision"
       id="g5399">
      <path
         style="stroke:none"
         d="m -7.0781,6.3594 q 0,-2.0625 0.9375,-3 0.6562,-0.6563 1.6406,-0.6563 0.9844,0 1.6406,0.6563 0.9375,0.9375 0.9375,3 v 0.9375 q 0,2.0156 -0.9375,2.9531 -0.6562,0.6562 -1.6406,0.6562 -0.9844,0 -1.6406,-0.6562 -0.9375,-0.9375 -0.9375,-2.9531 z m 1.7343,-2.3906 q -0.6093,0.6093 -0.6093,2.2968 v 1.0782 q 0,1.6406 0.6562,2.2968 0.375,0.375 0.7969,0.375 0.4688,0 0.8438,-0.375 0.6093,-0.6094 0.6093,-2.2968 V 6.2656 q 0,-1.6875 -0.6093,-2.2968 -0.375,-0.375 -0.8438,-0.375 -0.4688,0 -0.8438,0.375 z m 4.5469,5.8593 h 1.0781 v 1.0313 H -0.7969 Z M 2.3906,3.3125 Q 2.9531,2.75 3.9375,2.75 4.9219,2.75 5.5312,3.3594 6.1406,3.9688 6.1406,5 6.1406,5.7969 5.5781,6.3594 5.3438,6.5938 5.0156,6.6875 V 6.7812 Q 5.4375,6.875 5.8125,7.25 6.375,7.8125 6.375,8.75 q 0,0.9375 -0.6562,1.5938 -0.6094,0.6093 -1.7813,0.6093 -1.1719,0 -1.7813,-0.6093 Q 1.5,9.6875 1.5,8.75 1.5,7.8125 2.0625,7.25 2.4375,6.875 2.8594,6.7812 V 6.6875 Q 2.5781,6.5938 2.25,6.2656 1.7344,5.75 1.7344,5 q 0,-1.0312 0.6562,-1.6875 z m 0.75,0.6094 Q 2.7656,4.2969 2.7656,5 q 0,0.6562 0.375,1.0312 0.3282,0.3282 0.75,0.3282 0.5625,0 0.8438,-0.2813 Q 5.1094,5.7031 5.1094,5 5.1094,4.2969 4.7344,3.9219 4.4062,3.5938 3.9375,3.5938 q -0.4687,0 -0.7969,0.3281 z M 2.9531,7.5312 q -0.375,0.375 -0.375,1.0782 0,0.7031 0.4219,1.125 0.375,0.375 0.9375,0.375 0.5625,0 0.9375,-0.375 0.4219,-0.4219 0.4219,-1.125 0,-0.7032 -0.4219,-1.125 -0.3281,-0.3282 -0.9375,-0.3282 -0.6094,0 -0.9844,0.375 z"
         id="path5397"
         inkscape:connector-curvature="0" />
    </g>
    <g
       transform="matrix(0.47086865,0,0,0.51483051,218.2947,395.8373)"
       style="font-family:'MS UI Gothic';color-interpolation:linearRGB;fill:#262626;stroke:#262626;color-rendering:optimizeQuality;image-rendering:optimizeQuality;text-rendering:geometricPrecision"
       id="g5403">
      <path
         style="stroke:none"
         d="m -7.0781,6.3594 q 0,-2.0625 0.9375,-3 0.6562,-0.6563 1.6406,-0.6563 0.9844,0 1.6406,0.6563 0.9375,0.9375 0.9375,3 v 0.9375 q 0,2.0156 -0.9375,2.9531 -0.6562,0.6562 -1.6406,0.6562 -0.9844,0 -1.6406,-0.6562 -0.9375,-0.9375 -0.9375,-2.9531 z m 1.7343,-2.3906 q -0.6093,0.6093 -0.6093,2.2968 v 1.0782 q 0,1.6406 0.6562,2.2968 0.375,0.375 0.7969,0.375 0.4688,0 0.8438,-0.375 0.6093,-0.6094 0.6093,-2.2968 V 6.2656 q 0,-1.6875 -0.6093,-2.2968 -0.375,-0.375 -0.8438,-0.375 -0.4688,0 -0.8438,0.375 z m 4.5469,5.8593 h 1.0781 v 1.0313 H -0.7969 Z M 2.4375,3.2656 Q 2.9531,2.75 3.8438,2.75 q 0.8437,0 1.4531,0.6094 0.9843,0.9844 0.9843,3.4218 0,2.4844 -1.0312,3.5157 -0.6562,0.6562 -1.5469,0.6562 -0.8906,0 -1.4062,-0.5156 Q 1.6875,9.8281 1.6875,8.8438 h 1.0781 q -0.0468,0.6093 0.375,1.0312 0.1875,0.1875 0.5625,0.1875 0.4219,0 0.75,-0.3281 0.75,-0.75 0.75,-2.7656 Q 5.0156,7.25 4.7812,7.4844 4.2656,8 3.5156,8 2.8125,8 2.3438,7.5312 q -0.75,-0.75 -0.75,-2.0156 0,-1.4062 0.8437,-2.25 z m 0.75,0.6094 q -0.4687,0.4688 -0.4687,1.6406 0,0.9375 0.375,1.3125 0.3281,0.3281 0.6562,0.3281 0.5625,0 0.8438,-0.2812 0.5156,-0.5156 0.5156,-1.2656 0,-1.1719 -0.5156,-1.6875 -0.3282,-0.3281 -0.75,-0.3281 -0.375,0 -0.6563,0.2812 z"
         id="path5401"
         inkscape:connector-curvature="0" />
    </g>
    <g
       transform="matrix(0.47086865,0,0,0.51483051,238.7304,395.8373)"
       style="font-family:'MS UI Gothic';color-interpolation:linearRGB;fill:#262626;stroke:#262626;color-rendering:optimizeQuality;image-rendering:optimizeQuality;text-rendering:geometricPrecision"
       id="g5407">
      <path
         style="stroke:none"
         d="M 0.1875,2.7031 H 0.75 v 8.1094 H -0.3281 V 4.5781 H -1.7344 V 4.0156 h 0.4219 q 0.6563,0 1.0313,-0.375 0.4218,-0.4218 0.4687,-0.9375 z"
         id="path5405"
         inkscape:connector-curvature="0" />
    </g>
    <g
       transform="matrix(0.47086865,0,0,0.51483051,136.552,403.52542)"
       style="font-size:26.66670036px;font-family:mwa_cmmi10;color-interpolation:linearRGB;fill:#262626;stroke:#262626;color-rendering:optimizeQuality;image-rendering:optimizeQuality;text-rendering:geometricPrecision"
       id="g5411">
      <path
         style="stroke:none"
         d="m -5.4988,19.5874 q 0,-0.7344 0.3281,-1.4297 0.3281,-0.6953 0.8438,-1.25 0.5156,-0.5547 1.2187,-0.9922 -1.0312,-0.7187 -1.0312,-1.8281 0,-1.2031 1.0078,-2.1094 1.0078,-0.9062 2.4531,-1.3593 1.4453,-0.4532 2.6016,-0.4532 0.5,0 1.3203,0.2188 0.8203,0.2187 1.4375,0.5703 0.6172,0.3516 0.6172,0.7734 0,0.3282 -0.2422,0.5703 -0.2422,0.2422 -0.5235,0.2422 -0.125,0 -0.6093,-0.2812 -0.4844,-0.2813 -1.0235,-0.5078 -0.539,-0.2266 -1.1797,-0.2266 -0.9687,0 -2.1406,0.2266 -1.1719,0.2265 -2.0547,0.8047 -0.8828,0.5781 -0.8828,1.5 0,0.875 1,1.4843 1.1406,-0.5156 2.3281,-0.5156 2.1094,0 2.1094,0.75 0,0.5938 -0.7187,0.7578 -0.7188,0.1641 -1.6563,0.1641 -1.2656,0 -2.0781,-0.375 -0.9063,0.4687 -1.6016,1.3281 -0.6953,0.8594 -0.6953,1.7813 0,0.875 0.5859,1.3593 0.586,0.4844 1.4454,0.6719 0.8593,0.1875 1.7031,0.1875 1.5,0 2.6484,-0.3203 1.1485,-0.3203 1.6485,-1.3516 0.0781,-0.1718 0.3125,-0.1718 0.2812,0.0937 0.2812,0.3593 0,0.0157 -0.0781,0.25 -0.4375,0.8594 -1.2344,1.4453 -0.7969,0.586 -1.7734,0.8594 -0.9766,0.2735 -2.0078,0.2735 -1.6719,0 -3.0157,-0.8985 -1.3437,-0.8984 -1.3437,-2.5078 z m 4.1719,-3.6719 q 0.4687,0.0938 1.0781,0.0938 1.1875,0 1.4844,-0.1719 -0.375,-0.1094 -1.2969,-0.1094 -0.6719,0 -1.2656,0.1875 z"
         id="path5409"
         inkscape:connector-curvature="0" />
    </g>
    <g
       style="color-interpolation:linearRGB;fill:#262626;stroke:#262626;stroke-width:0.66670001;stroke-linejoin:round;color-rendering:optimizeQuality;image-rendering:optimizeQuality;text-rendering:geometricPrecision"
       id="g5437"
       transform="matrix(0.47086865,0,0,0.51483051,0,203.77118)">
      <line
         y2="31"
         style="fill:none"
         x1="73"
         x2="73"
         y1="368"
         id="line5413" />
      <line
         y2="368"
         style="fill:none"
         x1="73"
         x2="77.339996"
         y1="368"
         id="line5415" />
      <line
         y2="334.29999"
         style="fill:none"
         x1="73"
         x2="77.339996"
         y1="334.29999"
         id="line5417" />
      <line
         y2="300.60001"
         style="fill:none"
         x1="73"
         x2="77.339996"
         y1="300.60001"
         id="line5419" />
      <line
         y2="266.89999"
         style="fill:none"
         x1="73"
         x2="77.339996"
         y1="266.89999"
         id="line5421" />
      <line
         y2="233.2"
         style="fill:none"
         x1="73"
         x2="77.339996"
         y1="233.2"
         id="line5423" />
      <line
         y2="199.5"
         style="fill:none"
         x1="73"
         x2="77.339996"
         y1="199.5"
         id="line5425" />
      <line
         y2="165.8"
         style="fill:none"
         x1="73"
         x2="77.339996"
         y1="165.8"
         id="line5427" />
      <line
         y2="132.10001"
         style="fill:none"
         x1="73"
         x2="77.339996"
         y1="132.10001"
         id="line5429" />
      <line
         y2="98.400002"
         style="fill:none"
         x1="73"
         x2="77.339996"
         y1="98.400002"
         id="line5431" />
      <line
         y2="64.699997"
         style="fill:none"
         x1="73"
         x2="77.339996"
         y1="64.699997"
         id="line5433" />
      <line
         y2="31"
         style="fill:none"
         x1="73"
         x2="77.339996"
         y1="31"
         id="line5435" />
    </g>
    <g
       transform="matrix(0.47086865,0,0,0.51483051,31.987661,393.22882)"
       style="font-family:'MS UI Gothic';color-interpolation:linearRGB;fill:#262626;stroke:#262626;color-rendering:optimizeQuality;image-rendering:optimizeQuality;text-rendering:geometricPrecision"
       id="g5441">
      <path
         style="stroke:none"
         d="m -5.5781,-0.1406 q 0,-2.0625 0.9375,-3 0.6562,-0.6563 1.6406,-0.6563 0.9844,0 1.6406,0.6563 0.9375,0.9375 0.9375,3 v 0.9375 q 0,2.0156 -0.9375,2.9531 Q -2.0156,4.4062 -3,4.4062 -3.9844,4.4062 -4.6406,3.75 -5.5781,2.8125 -5.5781,0.7969 Z m 1.7343,-2.3906 q -0.6093,0.6093 -0.6093,2.2968 v 1.0782 q 0,1.6406 0.6562,2.2968 0.375,0.375 0.7969,0.375 0.4688,0 0.8438,-0.375 0.6093,-0.6094 0.6093,-2.2968 v -1.0782 q 0,-1.6875 -0.6093,-2.2968 -0.375,-0.375 -0.8438,-0.375 -0.4688,0 -0.8438,0.375 z"
         id="path5439"
         inkscape:connector-curvature="0" />
    </g>
    <g
       transform="matrix(0.47086865,0,0,0.51483051,31.987661,375.87902)"
       style="font-family:'MS UI Gothic';color-interpolation:linearRGB;fill:#262626;stroke:#262626;color-rendering:optimizeQuality;image-rendering:optimizeQuality;text-rendering:geometricPrecision"
       id="g5445">
      <path
         style="stroke:none"
         d="m -20.5781,-0.1406 q 0,-2.0625 0.9375,-3 0.6562,-0.6563 1.6406,-0.6563 0.9844,0 1.6406,0.6563 0.9375,0.9375 0.9375,3 v 0.9375 q 0,2.0156 -0.9375,2.9531 -0.6562,0.6562 -1.6406,0.6562 -0.9844,0 -1.6406,-0.6562 -0.9375,-0.9375 -0.9375,-2.9531 z m 1.7343,-2.3906 q -0.6093,0.6093 -0.6093,2.2968 v 1.0782 q 0,1.6406 0.6562,2.2968 0.375,0.375 0.7969,0.375 0.4688,0 0.8438,-0.375 0.6093,-0.6094 0.6093,-2.2968 v -1.0782 q 0,-1.6875 -0.6093,-2.2968 -0.375,-0.375 -0.8438,-0.375 -0.4688,0 -0.8438,0.375 z m 4.5469,5.8593 h 1.0781 v 1.0313 h -1.0781 z m 2.1563,-3.4687 q 0,-2.0625 0.9375,-3 0.6562,-0.6563 1.6406,-0.6563 0.9844,0 1.6406,0.6563 0.9375,0.9375 0.9375,3 v 0.9375 q 0,2.0156 -0.9375,2.9531 -0.6562,0.6562 -1.6406,0.6562 -0.9844,0 -1.6406,-0.6562 -0.9375,-0.9375 -0.9375,-2.9531 z m 1.7344,-2.3906 q -0.6094,0.6093 -0.6094,2.2968 v 1.0782 q 0,1.6406 0.6562,2.2968 0.375,0.375 0.7969,0.375 0.4687,0 0.8437,-0.375 0.6094,-0.6094 0.6094,-2.2968 v -1.0782 q 0,-1.6875 -0.6094,-2.2968 -0.375,-0.375 -0.8437,-0.375 -0.4687,0 -0.8437,0.375 z m 5.0156,-1.125 h 4.0312 v 0.8906 H -4.5 v 0.1406 q -0.0469,0.8906 -0.1406,1.7344 -0.0469,0.1406 -0.0469,0.2812 0.6094,-0.5625 1.3125,-0.5625 0.9375,0 1.5469,0.6094 0.6562,0.6563 0.6562,1.9219 0,1.5937 -0.8437,2.4375 -0.6563,0.6562 -1.6406,0.6562 -0.9376,0 -1.5469,-0.6093 -0.6094,-0.6094 -0.75,-1.8282 h 1.0781 q 0.0938,0.8906 0.4688,1.2656 0.2812,0.2813 0.7031,0.2813 0.5625,0 0.8906,-0.3281 0.5156,-0.5156 0.5156,-1.7344 0,-1.1719 -0.4219,-1.5938 Q -3,-0.375 -3.375,-0.375 q -0.5625,0 -0.9844,0.4219 -0.2812,0.2812 -0.375,0.4219 H -5.6719 Q -5.625,0.2812 -5.625,0.1406 l 0.2344,-3.6094 z"
         id="path5443"
         inkscape:connector-curvature="0" />
    </g>
    <g
       transform="matrix(0.47086865,0,0,0.51483051,31.987661,358.52923)"
       style="font-family:'MS UI Gothic';color-interpolation:linearRGB;fill:#262626;stroke:#262626;color-rendering:optimizeQuality;image-rendering:optimizeQuality;text-rendering:geometricPrecision"
       id="g5449">
      <path
         style="stroke:none"
         d="m -14.5781,-0.1406 q 0,-2.0625 0.9375,-3 0.6562,-0.6563 1.6406,-0.6563 0.9844,0 1.6406,0.6563 0.9375,0.9375 0.9375,3 v 0.9375 q 0,2.0156 -0.9375,2.9531 -0.6562,0.6562 -1.6406,0.6562 -0.9844,0 -1.6406,-0.6562 -0.9375,-0.9375 -0.9375,-2.9531 z m 1.7343,-2.3906 q -0.6093,0.6093 -0.6093,2.2968 v 1.0782 q 0,1.6406 0.6562,2.2968 0.375,0.375 0.7969,0.375 0.4688,0 0.8438,-0.375 0.6093,-0.6094 0.6093,-2.2968 v -1.0782 q 0,-1.6875 -0.6093,-2.2968 -0.375,-0.375 -0.8438,-0.375 -0.4688,0 -0.8438,0.375 z m 4.5469,5.8593 h 1.0781 v 1.0313 h -1.0781 z m 4.9219,-7.125 h 0.5625 v 8.1094 h -1.0781 v -6.2344 h -1.4063 v -0.5625 h 0.4219 q 0.6562,0 1.0312,-0.375 0.4219,-0.4218 0.4688,-0.9375 z"
         id="path5447"
         inkscape:connector-curvature="0" />
    </g>
    <g
       transform="matrix(0.47086865,0,0,0.51483051,31.987661,341.17945)"
       style="font-family:'MS UI Gothic';color-interpolation:linearRGB;fill:#262626;stroke:#262626;color-rendering:optimizeQuality;image-rendering:optimizeQuality;text-rendering:geometricPrecision"
       id="g5453">
      <path
         style="stroke:none"
         d="m -20.5781,-0.1406 q 0,-2.0625 0.9375,-3 0.6562,-0.6563 1.6406,-0.6563 0.9844,0 1.6406,0.6563 0.9375,0.9375 0.9375,3 v 0.9375 q 0,2.0156 -0.9375,2.9531 -0.6562,0.6562 -1.6406,0.6562 -0.9844,0 -1.6406,-0.6562 -0.9375,-0.9375 -0.9375,-2.9531 z m 1.7343,-2.3906 q -0.6093,0.6093 -0.6093,2.2968 v 1.0782 q 0,1.6406 0.6562,2.2968 0.375,0.375 0.7969,0.375 0.4688,0 0.8438,-0.375 0.6093,-0.6094 0.6093,-2.2968 v -1.0782 q 0,-1.6875 -0.6093,-2.2968 -0.375,-0.375 -0.8438,-0.375 -0.4688,0 -0.8438,0.375 z m 4.5469,5.8593 h 1.0781 v 1.0313 h -1.0781 z m 4.9219,-7.125 h 0.5625 v 8.1094 h -1.0781 v -6.2344 h -1.4063 v -0.5625 h 0.4219 q 0.6562,0 1.0312,-0.375 0.4219,-0.4218 0.4688,-0.9375 z m 3.9844,0.1407 h 4.0312 v 0.8906 H -4.5 v 0.1406 q -0.0469,0.8906 -0.1406,1.7344 -0.0469,0.1406 -0.0469,0.2812 0.6094,-0.5625 1.3125,-0.5625 0.9375,0 1.5469,0.6094 0.6562,0.6563 0.6562,1.9219 0,1.5937 -0.8437,2.4375 -0.6563,0.6562 -1.6406,0.6562 -0.9376,0 -1.5469,-0.6093 -0.6094,-0.6094 -0.75,-1.8282 h 1.0781 q 0.0938,0.8906 0.4688,1.2656 0.2812,0.2813 0.7031,0.2813 0.5625,0 0.8906,-0.3281 0.5156,-0.5156 0.5156,-1.7344 0,-1.1719 -0.4219,-1.5938 Q -3,-0.375 -3.375,-0.375 q -0.5625,0 -0.9844,0.4219 -0.2812,0.2812 -0.375,0.4219 H -5.6719 Q -5.625,0.2812 -5.625,0.1406 l 0.2344,-3.6094 z"
         id="path5451"
         inkscape:connector-curvature="0" />
    </g>
    <g
       transform="matrix(0.47086865,0,0,0.51483051,31.987661,323.82965)"
       style="font-family:'MS UI Gothic';color-interpolation:linearRGB;fill:#262626;stroke:#262626;color-rendering:optimizeQuality;image-rendering:optimizeQuality;text-rendering:geometricPrecision"
       id="g5457">
      <path
         style="stroke:none"
         d="m -14.5781,-0.1406 q 0,-2.0625 0.9375,-3 0.6562,-0.6563 1.6406,-0.6563 0.9844,0 1.6406,0.6563 0.9375,0.9375 0.9375,3 v 0.9375 q 0,2.0156 -0.9375,2.9531 -0.6562,0.6562 -1.6406,0.6562 -0.9844,0 -1.6406,-0.6562 -0.9375,-0.9375 -0.9375,-2.9531 z m 1.7343,-2.3906 q -0.6093,0.6093 -0.6093,2.2968 v 1.0782 q 0,1.6406 0.6562,2.2968 0.375,0.375 0.7969,0.375 0.4688,0 0.8438,-0.375 0.6093,-0.6094 0.6093,-2.2968 v -1.0782 q 0,-1.6875 -0.6093,-2.2968 -0.375,-0.375 -0.8438,-0.375 -0.4688,0 -0.8438,0.375 z m 4.5469,5.8593 h 1.0781 v 1.0313 h -1.0781 z m 2.5313,-4.2656 q 0,-1.4531 0.75,-2.2031 0.6094,-0.6094 1.4531,-0.6094 1.0313,0 1.6406,0.6094 0.6094,0.6094 0.6094,1.5 0,1.125 -0.7031,1.9687 -0.6563,0.7969 -1.3594,1.5469 -0.375,0.4219 -0.75,0.8438 -0.3281,0.375 -0.5625,0.75 h 3.5156 V 4.3594 H -5.9531 V 3.5625 q 0.0937,-0.4687 0.7969,-1.3125 1.1718,-1.2656 1.9218,-2.1094 0.7969,-0.8437 0.7969,-1.7812 0,-0.5625 -0.375,-0.9375 -0.2813,-0.2813 -0.7031,-0.2813 -0.375,0 -0.6563,0.2813 -0.5156,0.5156 -0.5156,1.6406 z"
         id="path5455"
         inkscape:connector-curvature="0" />
    </g>
    <g
       transform="matrix(0.47086865,0,0,0.51483051,31.987661,306.47988)"
       style="font-family:'MS UI Gothic';color-interpolation:linearRGB;fill:#262626;stroke:#262626;color-rendering:optimizeQuality;image-rendering:optimizeQuality;text-rendering:geometricPrecision"
       id="g5461">
      <path
         style="stroke:none"
         d="m -20.5781,-0.1406 q 0,-2.0625 0.9375,-3 0.6562,-0.6563 1.6406,-0.6563 0.9844,0 1.6406,0.6563 0.9375,0.9375 0.9375,3 v 0.9375 q 0,2.0156 -0.9375,2.9531 -0.6562,0.6562 -1.6406,0.6562 -0.9844,0 -1.6406,-0.6562 -0.9375,-0.9375 -0.9375,-2.9531 z m 1.7343,-2.3906 q -0.6093,0.6093 -0.6093,2.2968 v 1.0782 q 0,1.6406 0.6562,2.2968 0.375,0.375 0.7969,0.375 0.4688,0 0.8438,-0.375 0.6093,-0.6094 0.6093,-2.2968 v -1.0782 q 0,-1.6875 -0.6093,-2.2968 -0.375,-0.375 -0.8438,-0.375 -0.4688,0 -0.8438,0.375 z m 4.5469,5.8593 h 1.0781 v 1.0313 h -1.0781 z m 2.5313,-4.2656 q 0,-1.4531 0.75,-2.2031 0.6094,-0.6094 1.4531,-0.6094 1.0313,0 1.6406,0.6094 0.6094,0.6094 0.6094,1.5 0,1.125 -0.7031,1.9687 -0.6563,0.7969 -1.3594,1.5469 -0.375,0.4219 -0.75,0.8438 -0.3281,0.375 -0.5625,0.75 h 3.5156 v 0.8906 h -4.7812 V 3.5625 q 0.0937,-0.4687 0.7969,-1.3125 1.1718,-1.2656 1.9218,-2.1094 0.7969,-0.8437 0.7969,-1.7812 0,-0.5625 -0.375,-0.9375 -0.2813,-0.2813 -0.7031,-0.2813 -0.375,0 -0.6563,0.2813 -0.5156,0.5156 -0.5156,1.6406 z m 6.375,-2.7187 h 4.0312 v 0.8906 H -4.5 v 0.1406 q -0.0469,0.8906 -0.1406,1.7344 -0.0469,0.1406 -0.0469,0.2812 0.6094,-0.5625 1.3125,-0.5625 0.9375,0 1.5469,0.6094 0.6562,0.6563 0.6562,1.9219 0,1.5937 -0.8437,2.4375 -0.6563,0.6562 -1.6406,0.6562 -0.9376,0 -1.5469,-0.6093 -0.6094,-0.6094 -0.75,-1.8282 h 1.0781 q 0.0938,0.8906 0.4688,1.2656 0.2812,0.2813 0.7031,0.2813 0.5625,0 0.8906,-0.3281 0.5156,-0.5156 0.5156,-1.7344 0,-1.1719 -0.4219,-1.5938 Q -3,-0.375 -3.375,-0.375 q -0.5625,0 -0.9844,0.4219 -0.2812,0.2812 -0.375,0.4219 H -5.6719 Q -5.625,0.2812 -5.625,0.1406 l 0.2344,-3.6094 z"
         id="path5459"
         inkscape:connector-curvature="0" />
    </g>
    <g
       transform="matrix(0.47086865,0,0,0.51483051,31.987661,289.13008)"
       style="font-family:'MS UI Gothic';color-interpolation:linearRGB;fill:#262626;stroke:#262626;color-rendering:optimizeQuality;image-rendering:optimizeQuality;text-rendering:geometricPrecision"
       id="g5465">
      <path
         style="stroke:none"
         d="m -14.5781,-0.1406 q 0,-2.0625 0.9375,-3 0.6562,-0.6563 1.6406,-0.6563 0.9844,0 1.6406,0.6563 0.9375,0.9375 0.9375,3 v 0.9375 q 0,2.0156 -0.9375,2.9531 -0.6562,0.6562 -1.6406,0.6562 -0.9844,0 -1.6406,-0.6562 -0.9375,-0.9375 -0.9375,-2.9531 z m 1.7343,-2.3906 q -0.6093,0.6093 -0.6093,2.2968 v 1.0782 q 0,1.6406 0.6562,2.2968 0.375,0.375 0.7969,0.375 0.4688,0 0.8438,-0.375 0.6093,-0.6094 0.6093,-2.2968 v -1.0782 q 0,-1.6875 -0.6093,-2.2968 -0.375,-0.375 -0.8438,-0.375 -0.4688,0 -0.8438,0.375 z m 4.5469,5.8593 h 1.0781 v 1.0313 h -1.0781 z m 2.5313,-4.6875 q 0,-1.0781 0.7031,-1.7812 0.6094,-0.6094 1.5,-0.6094 1.0313,0 1.6406,0.6094 0.5625,0.5625 0.5625,1.5 0,0.9375 -0.4687,1.4062 -0.3281,0.3282 -0.7031,0.375 0.4687,0.1406 0.7968,0.4688 0.5625,0.5625 0.5625,1.5 0,1.0312 -0.6562,1.6875 -0.6563,0.6562 -1.8281,0.6562 -0.9844,0 -1.6407,-0.6562 Q -5.9531,3.1406 -5.9531,2.25 V 1.875 h 1.0781 v 0.3281 q 0,0.6094 0.4219,1.0313 0.3281,0.3281 0.7969,0.3281 0.6093,0 0.9843,-0.375 0.375,-0.375 0.375,-1.1719 0,-0.6562 -0.375,-1.0312 -0.375,-0.375 -0.8437,-0.375 h -0.375 v -0.7969 h 0.2812 q 0.4219,0 0.7969,-0.375 0.375,-0.375 0.375,-1.0781 0,-0.6094 -0.375,-0.9844 -0.2813,-0.2812 -0.75,-0.2812 -0.4219,0 -0.75,0.3281 -0.375,0.375 -0.4219,1.2187 z"
         id="path5463"
         inkscape:connector-curvature="0" />
    </g>
    <g
       transform="matrix(0.47086865,0,0,0.51483051,31.987661,271.78029)"
       style="font-family:'MS UI Gothic';color-interpolation:linearRGB;fill:#262626;stroke:#262626;color-rendering:optimizeQuality;image-rendering:optimizeQuality;text-rendering:geometricPrecision"
       id="g5469">
      <path
         style="stroke:none"
         d="m -20.5781,-0.1406 q 0,-2.0625 0.9375,-3 0.6562,-0.6563 1.6406,-0.6563 0.9844,0 1.6406,0.6563 0.9375,0.9375 0.9375,3 v 0.9375 q 0,2.0156 -0.9375,2.9531 -0.6562,0.6562 -1.6406,0.6562 -0.9844,0 -1.6406,-0.6562 -0.9375,-0.9375 -0.9375,-2.9531 z m 1.7343,-2.3906 q -0.6093,0.6093 -0.6093,2.2968 v 1.0782 q 0,1.6406 0.6562,2.2968 0.375,0.375 0.7969,0.375 0.4688,0 0.8438,-0.375 0.6093,-0.6094 0.6093,-2.2968 v -1.0782 q 0,-1.6875 -0.6093,-2.2968 -0.375,-0.375 -0.8438,-0.375 -0.4688,0 -0.8438,0.375 z m 4.5469,5.8593 h 1.0781 v 1.0313 h -1.0781 z m 2.5313,-4.6875 q 0,-1.0781 0.7031,-1.7812 0.6094,-0.6094 1.5,-0.6094 1.0313,0 1.6406,0.6094 0.5625,0.5625 0.5625,1.5 0,0.9375 -0.4687,1.4062 -0.3281,0.3282 -0.7031,0.375 0.4687,0.1406 0.7968,0.4688 0.5625,0.5625 0.5625,1.5 0,1.0312 -0.6562,1.6875 -0.6563,0.6562 -1.8281,0.6562 -0.9844,0 -1.6407,-0.6562 Q -11.9531,3.1406 -11.9531,2.25 V 1.875 h 1.0781 v 0.3281 q 0,0.6094 0.4219,1.0313 0.3281,0.3281 0.7969,0.3281 0.6093,0 0.9843,-0.375 0.375,-0.375 0.375,-1.1719 0,-0.6562 -0.375,-1.0312 -0.375,-0.375 -0.8437,-0.375 h -0.375 v -0.7969 h 0.2812 q 0.4219,0 0.7969,-0.375 0.375,-0.375 0.375,-1.0781 0,-0.6094 -0.375,-0.9844 -0.2813,-0.2812 -0.75,-0.2812 -0.4219,0 -0.75,0.3281 -0.375,0.375 -0.4219,1.2187 z m 6.375,-2.2968 h 4.0312 v 0.8906 H -4.5 v 0.1406 q -0.0469,0.8906 -0.1406,1.7344 -0.0469,0.1406 -0.0469,0.2812 0.6094,-0.5625 1.3125,-0.5625 0.9375,0 1.5469,0.6094 0.6562,0.6563 0.6562,1.9219 0,1.5937 -0.8437,2.4375 -0.6563,0.6562 -1.6406,0.6562 -0.9376,0 -1.5469,-0.6093 -0.6094,-0.6094 -0.75,-1.8282 h 1.0781 q 0.0938,0.8906 0.4688,1.2656 0.2812,0.2813 0.7031,0.2813 0.5625,0 0.8906,-0.3281 0.5156,-0.5156 0.5156,-1.7344 0,-1.1719 -0.4219,-1.5938 Q -3,-0.375 -3.375,-0.375 q -0.5625,0 -0.9844,0.4219 -0.2812,0.2812 -0.375,0.4219 H -5.6719 Q -5.625,0.2812 -5.625,0.1406 l 0.2344,-3.6094 z"
         id="path5467"
         inkscape:connector-curvature="0" />
    </g>
    <g
       transform="matrix(0.47086865,0,0,0.51483051,31.987661,254.43051)"
       style="font-family:'MS UI Gothic';color-interpolation:linearRGB;fill:#262626;stroke:#262626;color-rendering:optimizeQuality;image-rendering:optimizeQuality;text-rendering:geometricPrecision"
       id="g5473">
      <path
         style="stroke:none"
         d="m -14.5781,-0.1406 q 0,-2.0625 0.9375,-3 0.6562,-0.6563 1.6406,-0.6563 0.9844,0 1.6406,0.6563 0.9375,0.9375 0.9375,3 v 0.9375 q 0,2.0156 -0.9375,2.9531 -0.6562,0.6562 -1.6406,0.6562 -0.9844,0 -1.6406,-0.6562 -0.9375,-0.9375 -0.9375,-2.9531 z m 1.7343,-2.3906 q -0.6093,0.6093 -0.6093,2.2968 v 1.0782 q 0,1.6406 0.6562,2.2968 0.375,0.375 0.7969,0.375 0.4688,0 0.8438,-0.375 0.6093,-0.6094 0.6093,-2.2968 v -1.0782 q 0,-1.6875 -0.6093,-2.2968 -0.375,-0.375 -0.8438,-0.375 -0.4688,0 -0.8438,0.375 z m 4.5469,5.8593 h 1.0781 V 4.3594 H -8.2969 Z M -3,-3.75 h 1.0781 v 5.1562 h 0.9844 V 2.2969 H -1.9219 V 4.3594 H -3 V 2.2969 H -6.1406 V 1.3594 Z m 0,1.7344 -2.1094,3.4218 H -3 Z"
         id="path5471"
         inkscape:connector-curvature="0" />
    </g>
    <g
       transform="matrix(0.47086865,0,0,0.51483051,31.987661,237.08072)"
       style="font-family:'MS UI Gothic';color-interpolation:linearRGB;fill:#262626;stroke:#262626;color-rendering:optimizeQuality;image-rendering:optimizeQuality;text-rendering:geometricPrecision"
       id="g5477">
      <path
         style="stroke:none"
         d="m -20.5781,-0.1406 q 0,-2.0625 0.9375,-3 0.6562,-0.6563 1.6406,-0.6563 0.9844,0 1.6406,0.6563 0.9375,0.9375 0.9375,3 v 0.9375 q 0,2.0156 -0.9375,2.9531 -0.6562,0.6562 -1.6406,0.6562 -0.9844,0 -1.6406,-0.6562 -0.9375,-0.9375 -0.9375,-2.9531 z m 1.7343,-2.3906 q -0.6093,0.6093 -0.6093,2.2968 v 1.0782 q 0,1.6406 0.6562,2.2968 0.375,0.375 0.7969,0.375 0.4688,0 0.8438,-0.375 0.6093,-0.6094 0.6093,-2.2968 v -1.0782 q 0,-1.6875 -0.6093,-2.2968 -0.375,-0.375 -0.8438,-0.375 -0.4688,0 -0.8438,0.375 z m 4.5469,5.8593 h 1.0781 v 1.0313 h -1.0781 z M -9,-3.75 h 1.0781 v 5.1562 h 0.9844 V 2.2969 H -7.9219 V 4.3594 H -9 V 2.2969 h -3.1406 V 1.3594 Z m 0,1.7344 -2.1094,3.4218 H -9 Z m 3.6094,-1.6406 h 4.0312 v 0.8906 H -4.5 v 0.1406 q -0.0469,0.8906 -0.1406,1.7344 -0.0469,0.1406 -0.0469,0.2812 0.6094,-0.5625 1.3125,-0.5625 0.9375,0 1.5469,0.6094 0.6562,0.6563 0.6562,1.9219 0,1.5937 -0.8437,2.4375 -0.6563,0.6562 -1.6406,0.6562 -0.9376,0 -1.5469,-0.6093 -0.6094,-0.6094 -0.75,-1.8282 h 1.0781 q 0.0938,0.8906 0.4688,1.2656 0.2812,0.2813 0.7031,0.2813 0.5625,0 0.8906,-0.3281 0.5156,-0.5156 0.5156,-1.7344 0,-1.1719 -0.4219,-1.5938 Q -3,-0.375 -3.375,-0.375 q -0.5625,0 -0.9844,0.4219 -0.2812,0.2812 -0.375,0.4219 H -5.6719 Q -5.625,0.2812 -5.625,0.1406 l 0.2344,-3.6094 z"
         id="path5475"
         inkscape:connector-curvature="0" />
    </g>
    <g
       transform="matrix(0.47086865,0,0,0.51483051,31.987661,219.73093)"
       style="font-family:'MS UI Gothic';color-interpolation:linearRGB;fill:#262626;stroke:#262626;color-rendering:optimizeQuality;image-rendering:optimizeQuality;text-rendering:geometricPrecision"
       id="g5481">
      <path
         style="stroke:none"
         d="m -14.5781,-0.1406 q 0,-2.0625 0.9375,-3 0.6562,-0.6563 1.6406,-0.6563 0.9844,0 1.6406,0.6563 0.9375,0.9375 0.9375,3 v 0.9375 q 0,2.0156 -0.9375,2.9531 -0.6562,0.6562 -1.6406,0.6562 -0.9844,0 -1.6406,-0.6562 -0.9375,-0.9375 -0.9375,-2.9531 z m 1.7343,-2.3906 q -0.6093,0.6093 -0.6093,2.2968 v 1.0782 q 0,1.6406 0.6562,2.2968 0.375,0.375 0.7969,0.375 0.4688,0 0.8438,-0.375 0.6093,-0.6094 0.6093,-2.2968 v -1.0782 q 0,-1.6875 -0.6093,-2.2968 -0.375,-0.375 -0.8438,-0.375 -0.4688,0 -0.8438,0.375 z m 4.5469,5.8593 h 1.0781 v 1.0313 h -1.0781 z m 2.9063,-6.9843 h 4.0312 v 0.8906 H -4.5 v 0.1406 q -0.0469,0.8906 -0.1406,1.7344 -0.0469,0.1406 -0.0469,0.2812 0.6094,-0.5625 1.3125,-0.5625 0.9375,0 1.5469,0.6094 0.6562,0.6563 0.6562,1.9219 0,1.5937 -0.8437,2.4375 -0.6563,0.6562 -1.6406,0.6562 -0.9376,0 -1.5469,-0.6093 -0.6094,-0.6094 -0.75,-1.8282 h 1.0781 q 0.0938,0.8906 0.4688,1.2656 0.2812,0.2813 0.7031,0.2813 0.5625,0 0.8906,-0.3281 0.5156,-0.5156 0.5156,-1.7344 0,-1.1719 -0.4219,-1.5938 Q -3,-0.375 -3.375,-0.375 q -0.5625,0 -0.9844,0.4219 -0.2812,0.2812 -0.375,0.4219 H -5.6719 Q -5.625,0.2812 -5.625,0.1406 l 0.2344,-3.6094 z"
         id="path5479"
         inkscape:connector-curvature="0" />
    </g>
    <g
       transform="matrix(0,-0.51483051,0.47086865,0,20.215945,306.47976)"
       style="font-size:26.66670036px;font-family:mwa_cmmi10;color-interpolation:linearRGB;fill:#262626;stroke:#262626;color-rendering:optimizeQuality;image-rendering:optimizeQuality;text-rendering:geometricPrecision"
       id="g5491">
      <path
         style="stroke:none"
         d="m -22.2379,-9.6001 q -0.25,0 -0.25,-0.3594 0,-0.0625 0.039,-0.2265 0.0391,-0.1641 0.1172,-0.2657 0.0782,-0.1015 0.1719,-0.1015 1.6563,0 2.3125,-0.1875 0.3438,-0.1094 0.5,-0.7188 l 3.7031,-14.8281 q 0.0625,-0.2656 0.0625,-0.375 0,-0.2812 -0.3281,-0.3281 -0.5156,-0.1094 -1.9375,-0.1094 -0.2656,0 -0.2656,-0.3437 0,-0.0782 0.0469,-0.2422 0.0468,-0.1641 0.1171,-0.2578 0.0704,-0.0938 0.1797,-0.0938 h 8.1875 q 0.9688,0 2.0235,0.2188 1.0547,0.2187 1.9375,0.7031 0.8828,0.4844 1.4531,1.2812 0.5703,0.7969 0.5703,1.8594 0,1.3594 -0.8984,2.4297 -0.8985,1.0703 -2.2735,1.7891 -1.375,0.7187 -2.6562,1 1.0469,0.3906 1.7187,1.2265 0.6719,0.836 0.6719,1.9297 0,0.1406 -0.0078,0.2188 -0.0078,0.0781 -0.0078,0.1718 l -0.2188,2.3907 q -0.0312,0.5312 -0.0547,0.8984 -0.0234,0.3672 -0.0234,0.5859 0,0.75 0.2188,1.1875 0.2187,0.4375 0.8593,0.4375 0.8438,0 1.4844,-0.7812 0.6406,-0.7813 0.8438,-1.7031 0.1093,-0.2344 0.2656,-0.2344 h 0.25 q 0.25,0 0.25,0.3437 -0.1875,0.7813 -0.6172,1.4844 -0.4297,0.7031 -1.0859,1.1484 -0.6563,0.4454 -1.4219,0.4454 -1.5781,0 -2.6875,-0.7032 -1.1094,-0.7031 -1.1094,-2.2187 0,-0.5625 0.0938,-1 l 0.5937,-2.3906 q 0.1094,-0.3282 0.1094,-0.7657 0,-1.125 -0.7578,-1.7656 -0.7578,-0.6406 -1.8985,-0.6406 h -3.3281 l -1.7812,7.1406 q -0.0625,0.2188 -0.0625,0.375 0,0.2813 0.3281,0.3125 0.5156,0.1094 1.9375,0.1094 0.2812,0 0.2812,0.3594 -0.0937,0.375 -0.1484,0.4843 -0.0547,0.1094 -0.3203,0.1094 z m 7.1094,-9.5781 h 3 q 2.9375,0 4.4218,-1.5 0.6875,-0.6875 1.0938,-1.7422 0.4062,-1.0547 0.4062,-2.1172 0,-1 -0.5937,-1.5703 -0.5938,-0.5703 -1.4531,-0.7813 -0.8594,-0.2109 -1.9063,-0.2109 h -1.7969 q -0.75,0 -0.9843,0.125 -0.2344,0.125 -0.4375,0.7969 z"
         id="path5483"
         inkscape:connector-curvature="0" />
      <path
         style="stroke:none"
         d="m -1.6464,-6.7564 q 0.5,0.875 2.0468,0.875 0.6719,0 1.2735,-0.2344 0.6015,-0.2343 0.9922,-0.6875 0.3906,-0.4531 0.3906,-1.0937 0,-0.5 -0.3516,-0.8125 Q 2.3536,-9.022 1.8536,-9.1314 L 0.8223,-9.3345 q -0.7031,-0.1875 -1.1641,-0.6641 -0.4609,-0.4765 -0.4609,-1.164 0,-0.8438 0.4609,-1.4922 0.461,-0.6485 1.211,-0.9922 0.75,-0.3438 1.5625,-0.3438 0.8594,0 1.539,0.4063 0.6797,0.4062 0.6797,1.2187 0,0.4375 -0.2422,0.7735 -0.2421,0.3359 -0.6796,0.3359 -0.25,0 -0.4297,-0.1641 -0.1797,-0.164 -0.1797,-0.414 0,-0.2188 0.125,-0.4297 0.125,-0.2109 0.3359,-0.3359 0.211,-0.125 0.4297,-0.125 -0.1719,-0.4063 -0.6328,-0.5938 -0.4609,-0.1875 -0.9766,-0.1875 -0.4843,0 -0.9687,0.1953 -0.4844,0.1953 -0.7735,0.5703 -0.289,0.375 -0.289,0.8907 0,0.3437 0.2344,0.6015 0.2343,0.2578 0.5937,0.3672 l 1.1094,0.2188 q 0.5156,0.125 0.9609,0.4062 0.4453,0.2813 0.7031,0.7109 0.2579,0.4297 0.2579,0.9922 0,0.7032 -0.3985,1.3907 -0.3984,0.6875 -0.9765,1.0937 -1,0.6875 -2.4688,0.6875 -1.0156,0 -1.8594,-0.4687 -0.8437,-0.4688 -0.8437,-1.3907 0,-0.5156 0.3047,-0.8984 0.3047,-0.3828 0.8203,-0.3828 0.2969,0 0.5078,0.1875 0.2109,0.1875 0.2109,0.4844 0,0.4375 -0.3203,0.7656 -0.3203,0.3281 -0.7578,0.3281 z"
         id="path5485"
         inkscape:connector-curvature="0" />
      <path
         style="stroke:none"
         d="m 9.2754,-5.3814 q -0.9218,0 -1.6015,-0.4766 -0.6797,-0.4765 -1.0391,-1.2812 -0.3594,-0.8047 -0.3594,-1.6953 0,-1.3438 0.6875,-2.5391 0.6875,-1.1953 1.8516,-1.9062 1.1641,-0.711 2.5078,-0.711 0.8125,0 1.4219,0.4219 0.6094,0.4219 0.6094,1.2031 0,1.0938 -0.875,1.625 -0.875,0.5313 -1.9688,0.6641 -1.0937,0.1328 -2.4219,0.1328 H 8.0411 q -0.3125,1.125 -0.3125,1.9375 0,0.8438 0.3906,1.4844 0.3906,0.6406 1.1875,0.6406 1.125,0 2.1719,-0.5234 1.0468,-0.5235 1.7031,-1.4453 0.0625,-0.0469 0.1562,-0.0469 0.0938,0 0.1875,0.1015 0.0938,0.1016 0.0938,0.1954 0,0.0781 -0.0313,0.1093 -0.7031,0.9844 -1.8828,1.5469 -1.1797,0.5625 -2.4297,0.5625 z m -1.125,-5.0625 q 1.0938,0 2.0313,-0.1016 0.9375,-0.1015 1.7031,-0.5156 0.7656,-0.414 0.7656,-1.289 0,-0.3438 -0.1953,-0.6094 -0.1953,-0.2656 -0.5078,-0.4063 -0.3125,-0.1406 -0.6406,-0.1406 -0.8125,0 -1.461,0.4375 -0.6484,0.4375 -1.0625,1.1406 -0.414,0.7032 -0.6328,1.4844 z"
         id="path5487"
         inkscape:connector-curvature="0" />
      <path
         style="stroke:none"
         d="m 16.3734,-7.8658 q 0,0.8282 0.4218,1.4063 0.4219,0.5781 1.2032,0.5781 1.125,0 2.1718,-0.5234 1.0469,-0.5235 1.7032,-1.4453 0.0625,-0.0469 0.1562,-0.0469 0.0938,0 0.1875,0.1015 0.0938,0.1016 0.0938,0.1954 0,0.0781 -0.0313,0.1093 -0.7031,0.9844 -1.8828,1.5469 -1.1797,0.5625 -2.4297,0.5625 -0.9219,0 -1.6172,-0.4375 -0.6953,-0.4375 -1.0703,-1.1562 -0.375,-0.7188 -0.375,-1.625 0,-1.2813 0.711,-2.5469 0.7109,-1.2656 1.8984,-2.0547 1.1875,-0.7891 2.5,-0.7891 0.8437,0 1.5312,0.4063 0.6875,0.4062 0.6875,1.2187 0,0.5157 -0.3046,0.8828 -0.3047,0.3672 -0.8047,0.3672 -0.3125,0 -0.5235,-0.1875 -0.2109,-0.1875 -0.2109,-0.5 0,-0.4375 0.3281,-0.7578 0.3281,-0.3203 0.7656,-0.3203 h 0.0313 q -0.2188,-0.3125 -0.6406,-0.4687 -0.4219,-0.1563 -0.875,-0.1563 -1.125,0 -1.9532,0.9531 -0.8281,0.9532 -1.25,2.2735 -0.4218,1.3203 -0.4218,2.414 z"
         id="path5489"
         inkscape:connector-curvature="0" />
    </g>
    <g
       style="color-interpolation:linearRGB;fill:#ff0000;stroke:#ff0000;stroke-width:0.66670001;stroke-linecap:butt;stroke-linejoin:round;color-rendering:optimizeQuality;image-rendering:optimizeQuality;text-rendering:geometricPrecision"
       id="g5495"
       transform="matrix(0.47086865,0,0,0.51483051,0,203.77118)">
      <path
         d="m 73,31 h 4.34 4.34 4.34 4.34 4.34 4.34 4.34 4.34 4.34 4.34 4.34 4.34 4.34 4.34 4.34 4.34 4.34 4.34 4.34 4.34 4.34 4.34 4.34 4.34 4.34 4.34 4.34 4.34 4.34 4.34 4.34 4.34 4.34 4.34 4.34 4.34 4.34 4.34 4.34 4.34 4.34 4.34 4.34 4.34 4.34 4.34 4.34 4.34 4.34 4.34 l 4.34,6.74 4.34,6.74 4.34,6.74 4.34,6.74 4.34,6.74 4.34,6.74 4.34,6.74 4.34,6.74 4.34,6.74 4.34,6.74 4.34,6.74 4.34,6.74 4.34,6.74 4.34,6.74 4.34,6.74 4.34,6.74 4.34,6.74 4.34,6.74 4.34,6.74 4.34,6.74 4.34,6.74 4.34,6.74 4.34,6.74 4.34,6.74 4.34,6.74 4.34,6.74 4.34,6.74 4.34,6.74 4.34,6.74 4.34,6.74 4.34,6.74 4.34,6.74 4.34,6.74 4.34,6.74 4.34,6.74 4.34,6.74 4.34,6.74 4.34,6.74 4.34,6.74 4.34,6.74 4.34,6.74 4.34,6.74 4.34,6.74 4.34,6.74 4.34,6.74 4.34,6.74 4.34,6.74 4.34,6.74 4.34,6.74 4.34,6.74"
         style="fill:none;fill-rule:evenodd"
         id="path5493"
         inkscape:connector-curvature="0" />
    </g>
    <g
       style="color-interpolation:sRGB;fill:#ffffff;stroke:#ffffff;color-rendering:optimizeSpeed;image-rendering:optimizeSpeed;shape-rendering:crispEdges;text-rendering:optimizeSpeed"
       id="g5499"
       transform="matrix(0.79188524,0,0,1.6179288,-133.66004,157.66398)">
      <path
         style="stroke:none"
         d="M 496,58 V 42 h -79 v 16 z"
         id="path5497"
         inkscape:connector-curvature="0" />
    </g>
    <g
       style="color-interpolation:linearRGB;fill:#ff0000;stroke:#ff0000;stroke-width:0.66670001;stroke-linecap:butt;stroke-linejoin:round;color-rendering:optimizeQuality;image-rendering:optimizeQuality;text-rendering:geometricPrecision"
       id="g5509"
       transform="matrix(0.79188524,0,0,1.6179288,-133.66004,157.66398)">
      <line
         y2="50"
         style="fill:none;stroke-width:0.59195924"
         x1="421"
         x2="452.53427"
         y1="50"
         id="line5505" />
      <path
         d="M 417,58 V 42 h 79 v 16 z"
         style="fill:none;fill-rule:evenodd;stroke:#262626;stroke-linejoin:miter"
         id="path5507"
         inkscape:connector-curvature="0" />
    </g>
    <text
       xml:space="preserve"
       style="font-style:normal;font-variant:normal;font-weight:normal;font-stretch:normal;font-size:6.56478882px;line-height:1.25;font-family:'Times New Roman';-inkscape-font-specification:'Times New Roman, ';text-align:start;letter-spacing:0px;word-spacing:0px;text-anchor:start;fill:#000000;fill-opacity:1;stroke:none;stroke-width:0.49235916"
       x="238.11615"
       y="232.55496"
       id="text6064"
       transform="scale(0.95635196,1.0456401)"><tspan
         sodipodi:role="line"
         id="tspan6062"
         x="238.11615"
         y="232.55496"
         style="font-size:13.12957764px;stroke-width:0.49235916"
         dy="0 1.7232571"><tspan
   style="letter-spacing:-0.73853874px;stroke-width:0.49235916"
   id="tspan6066"
   dy="-1.7232571">*</tspan>R<tspan
   style="font-size:8.53422451px;baseline-shift:sub;stroke-width:0.49235916"
   id="tspan6070"
   dy="-1.4770775">sec</tspan></tspan></text>
  </g>
</svg>
